G04 #@! TF.FileFunction,Copper,L1,Top,Signal*
%FSLAX46Y46*%
G04 Gerber Fmt 4.6, Leading zero omitted, Abs format (unit mm)*
G04 Created by KiCad (PCBNEW 4.0.2-stable) date 3/16/2018 10:56:44 AM*
%MOMM*%
G01*
G04 APERTURE LIST*
%ADD10C,0.100000*%
%ADD11C,1.524000*%
%ADD12C,1.500000*%
%ADD13C,2.413000*%
%ADD14C,1.270000*%
%ADD15O,1.270000X2.286000*%
%ADD16R,1.500000X2.500000*%
%ADD17O,1.500000X2.500000*%
%ADD18O,2.200000X3.500000*%
%ADD19O,2.641600X1.320800*%
%ADD20R,1.600000X1.600000*%
%ADD21C,1.600000*%
%ADD22C,1.400000*%
%ADD23O,1.400000X1.400000*%
%ADD24O,2.540000X2.032000*%
%ADD25R,3.000000X3.000000*%
%ADD26C,3.000000*%
%ADD27R,1.700000X1.700000*%
%ADD28O,1.700000X1.700000*%
%ADD29C,1.620000*%
%ADD30C,2.000000*%
%ADD31R,1.800000X1.800000*%
%ADD32O,1.800000X1.800000*%
%ADD33O,1.600000X1.600000*%
%ADD34C,0.600000*%
%ADD35C,0.250000*%
G04 APERTURE END LIST*
D10*
D11*
X128270000Y-106045000D03*
X130810000Y-106045000D03*
X133350000Y-106045000D03*
X135890000Y-106045000D03*
X138430000Y-106045000D03*
X140970000Y-106045000D03*
X143510000Y-106045000D03*
X146050000Y-106045000D03*
X148590000Y-106045000D03*
X151130000Y-106045000D03*
X153670000Y-106045000D03*
X156210000Y-106045000D03*
X128270000Y-90805000D03*
X130810000Y-90805000D03*
X133350000Y-90805000D03*
X135890000Y-90805000D03*
X138430000Y-90805000D03*
X140970000Y-90805000D03*
X143510000Y-90805000D03*
X146050000Y-90805000D03*
X148590000Y-90805000D03*
X151130000Y-90805000D03*
X153670000Y-90805000D03*
X156210000Y-90805000D03*
D12*
X137033000Y-93726000D03*
X139573000Y-93726000D03*
X147447000Y-93726000D03*
X149987000Y-93726000D03*
D13*
X145046700Y-115658900D03*
D14*
X147648060Y-121221100D02*
X148366480Y-120502680D01*
X149484080Y-118036340D02*
X148765660Y-117317920D01*
D15*
X150540720Y-120977660D03*
X151668480Y-117502940D03*
D14*
X153430840Y-121185540D02*
X152712420Y-120467120D01*
X153832560Y-117944900D02*
X154550980Y-117226480D01*
D13*
X157111700Y-115658900D03*
D16*
X132715000Y-122555000D03*
D17*
X134715000Y-122555000D03*
X136715000Y-122555000D03*
D18*
X130615000Y-122555000D03*
X138815000Y-122555000D03*
D19*
X121285000Y-107315000D03*
X121285000Y-104775000D03*
X121285000Y-92075000D03*
X121285000Y-89535000D03*
X121285000Y-102235000D03*
X121285000Y-99695000D03*
X121285000Y-94615000D03*
X121285000Y-97155000D03*
X113665000Y-89535000D03*
X113665000Y-92075000D03*
X113665000Y-94615000D03*
X113665000Y-97155000D03*
X113665000Y-99695000D03*
X113665000Y-102235000D03*
X113665000Y-104775000D03*
X113665000Y-107315000D03*
D13*
X112661700Y-115658900D03*
D14*
X115263060Y-121221100D02*
X115981480Y-120502680D01*
X117099080Y-118036340D02*
X116380660Y-117317920D01*
D15*
X118155720Y-120977660D03*
X119283480Y-117502940D03*
D14*
X121045840Y-121185540D02*
X120327420Y-120467120D01*
X121447560Y-117944900D02*
X122165980Y-117226480D01*
D13*
X124726700Y-115658900D03*
D20*
X133350000Y-85090000D03*
D21*
X133350000Y-87590000D03*
D22*
X145415000Y-108585000D03*
D23*
X153035000Y-108585000D03*
D22*
X143510000Y-108585000D03*
D23*
X135890000Y-108585000D03*
D24*
X139827000Y-83312000D03*
X139827000Y-85852000D03*
X139827000Y-80772000D03*
D25*
X120015000Y-81915000D03*
D26*
X114935000Y-81915000D03*
D27*
X147955000Y-80645000D03*
D28*
X150495000Y-80645000D03*
X153035000Y-80645000D03*
X155575000Y-80645000D03*
D20*
X148590000Y-87630000D03*
D21*
X148590000Y-85130000D03*
X154940000Y-87630000D03*
X154940000Y-85130000D03*
D29*
X137240000Y-116840000D03*
X139740000Y-111840000D03*
X142240000Y-116840000D03*
D22*
X126365000Y-108585000D03*
D23*
X133985000Y-108585000D03*
D30*
X127635000Y-116895000D03*
X127635000Y-112395000D03*
X134135000Y-116895000D03*
X134135000Y-112395000D03*
D31*
X124714000Y-98298000D03*
D32*
X124714000Y-88138000D03*
D20*
X124841000Y-80645000D03*
D33*
X132461000Y-80645000D03*
D34*
X128804500Y-115459300D03*
X128960300Y-114640600D03*
D35*
X144639700Y-104915300D02*
X143510000Y-106045000D01*
X151562800Y-104915300D02*
X144639700Y-104915300D01*
X152451600Y-105804100D02*
X151562800Y-104915300D01*
X152451600Y-106976300D02*
X152451600Y-105804100D01*
X153035000Y-107559700D02*
X152451600Y-106976300D01*
X153035000Y-108585000D02*
X153035000Y-107559700D01*
X133350000Y-85090000D02*
X132224700Y-85090000D01*
X124532400Y-92782300D02*
X132224700Y-85090000D01*
X124714000Y-92964000D02*
X124532400Y-92782300D01*
X124714000Y-98298000D02*
X124714000Y-92964000D01*
X124532400Y-92782300D02*
X121285000Y-89535000D01*
X124730800Y-111385600D02*
X128804500Y-115459300D01*
X124730800Y-105680800D02*
X124730800Y-111385600D01*
X121285000Y-102235000D02*
X124730800Y-105680800D01*
X121285000Y-97155000D02*
X121285000Y-99695000D01*
X136715000Y-122555000D02*
X136715000Y-120979700D01*
X150495000Y-80645000D02*
X150495000Y-81820300D01*
X113665000Y-99695000D02*
X113665000Y-97155000D01*
X115332900Y-82312900D02*
X114935000Y-81915000D01*
X115332900Y-95487100D02*
X115332900Y-82312900D01*
X113665000Y-97155000D02*
X115332900Y-95487100D01*
X137240000Y-120454700D02*
X137240000Y-116840000D01*
X136715000Y-120979700D02*
X137240000Y-120454700D01*
X135890000Y-108585000D02*
X135890000Y-109610300D01*
X150540700Y-113710700D02*
X145415000Y-108585000D01*
X150540700Y-120469700D02*
X150540700Y-113710700D01*
X137240000Y-110960300D02*
X135890000Y-109610300D01*
X137240000Y-116840000D02*
X137240000Y-110960300D01*
X147887700Y-84427600D02*
X150495000Y-81820300D01*
X146772000Y-83312000D02*
X147887700Y-84427600D01*
X139827000Y-83312000D02*
X146772000Y-83312000D01*
X147887700Y-84427600D02*
X148590000Y-85130000D01*
X126365000Y-104775000D02*
X121285000Y-99695000D01*
X126365000Y-108585000D02*
X126365000Y-104775000D01*
X133350000Y-88265000D02*
X133350000Y-87590000D01*
X130810000Y-90805000D02*
X133350000Y-88265000D01*
X128960300Y-108702300D02*
X128960300Y-114640600D01*
X126839700Y-106581700D02*
X128960300Y-108702300D01*
X126839700Y-102723800D02*
X126839700Y-106581700D01*
X123313700Y-99197800D02*
X126839700Y-102723800D01*
X123313700Y-96643700D02*
X123313700Y-99197800D01*
X121285000Y-94615000D02*
X123313700Y-96643700D01*
X114866300Y-118029500D02*
X116660500Y-119823700D01*
X114866300Y-114076200D02*
X114866300Y-118029500D01*
X111520800Y-110730700D02*
X114866300Y-114076200D01*
X111520800Y-96759200D02*
X111520800Y-110730700D01*
X113665000Y-94615000D02*
X111520800Y-96759200D01*
X115981500Y-120502700D02*
X116660500Y-119823700D01*
X117099100Y-118036300D02*
X115701700Y-116638800D01*
X111971200Y-103928800D02*
X113665000Y-102235000D01*
X111971200Y-108737300D02*
X111971200Y-103928800D01*
X112421500Y-109187600D02*
X111971200Y-108737300D01*
X112421500Y-109824400D02*
X112421500Y-109187600D01*
X115701700Y-113104600D02*
X112421500Y-109824400D01*
X115701700Y-116638800D02*
X115701700Y-113104600D01*
X151130000Y-110825200D02*
X151130000Y-106045000D01*
X152712400Y-112407600D02*
X151130000Y-110825200D01*
X152712400Y-120467100D02*
X152712400Y-112407600D01*
X154074600Y-106449600D02*
X153670000Y-106045000D01*
X154074600Y-115392000D02*
X154074600Y-106449600D01*
X155230100Y-116547400D02*
X154074600Y-115392000D01*
X153832600Y-117944900D02*
X155230100Y-116547400D01*
X151130000Y-96838600D02*
X151130000Y-90805000D01*
X142080700Y-105887900D02*
X151130000Y-96838600D01*
X142080700Y-110837700D02*
X142080700Y-105887900D01*
X140985300Y-111933100D02*
X142080700Y-110837700D01*
X140985300Y-123064400D02*
X140985300Y-111933100D01*
X139408900Y-124640800D02*
X140985300Y-123064400D01*
X124501100Y-124640800D02*
X139408900Y-124640800D01*
X120327400Y-120467100D02*
X124501100Y-124640800D01*
X138430000Y-98425000D02*
X138430000Y-106045000D01*
X144780000Y-92075000D02*
X138430000Y-98425000D01*
X144780000Y-89348700D02*
X144780000Y-92075000D01*
X147624100Y-86504600D02*
X144780000Y-89348700D01*
X148852900Y-86504600D02*
X147624100Y-86504600D01*
X153035000Y-82322500D02*
X148852900Y-86504600D01*
X153035000Y-80645000D02*
X153035000Y-82322500D01*
X148717000Y-98298000D02*
X140970000Y-106045000D01*
X148717000Y-93295800D02*
X148717000Y-98298000D01*
X149860000Y-92152800D02*
X148717000Y-93295800D01*
X149860000Y-87535300D02*
X149860000Y-92152800D01*
X155575000Y-81820300D02*
X149860000Y-87535300D01*
X155575000Y-80645000D02*
X155575000Y-81820300D01*
X138303000Y-93472000D02*
X140970000Y-90805000D01*
X138303000Y-94156200D02*
X138303000Y-93472000D01*
X132262600Y-100196600D02*
X138303000Y-94156200D01*
X132262600Y-113142800D02*
X132262600Y-100196600D01*
X135462400Y-116342600D02*
X132262600Y-113142800D01*
X135462400Y-120232300D02*
X135462400Y-116342600D01*
X134715000Y-120979700D02*
X135462400Y-120232300D01*
X134715000Y-122555000D02*
X134715000Y-120979700D01*
X139827000Y-85852000D02*
X138231700Y-85852000D01*
X132750700Y-86324300D02*
X128270000Y-90805000D01*
X137759400Y-86324300D02*
X132750700Y-86324300D01*
X138231700Y-85852000D02*
X137759400Y-86324300D01*
X132821400Y-118208600D02*
X132715000Y-118208600D01*
X134135000Y-116895000D02*
X132821400Y-118208600D01*
X132715000Y-118208600D02*
X132715000Y-122555000D01*
X130084000Y-115577600D02*
X132715000Y-118208600D01*
X129585700Y-115577600D02*
X130084000Y-115577600D01*
X129585700Y-92120700D02*
X129585700Y-115577600D01*
X128270000Y-90805000D02*
X129585700Y-92120700D01*
X128268300Y-116895000D02*
X127635000Y-116895000D01*
X129585700Y-115577600D02*
X128268300Y-116895000D01*
X122981800Y-116266100D02*
X119283500Y-116266100D01*
X123913900Y-117198200D02*
X122981800Y-116266100D01*
X127331800Y-117198200D02*
X123913900Y-117198200D01*
X127635000Y-116895000D02*
X127331800Y-117198200D01*
X119283500Y-112933500D02*
X119283500Y-116266100D01*
X113665000Y-107315000D02*
X119283500Y-112933500D01*
X119283500Y-116266100D02*
X119283500Y-118010900D01*
X146050000Y-93602200D02*
X146050000Y-90805000D01*
X139740000Y-99912200D02*
X146050000Y-93602200D01*
X139740000Y-111840000D02*
X139740000Y-99912200D01*
X133985000Y-112245000D02*
X133985000Y-108585000D01*
X134135000Y-112395000D02*
X133985000Y-112245000D01*
X133985000Y-108585000D02*
X133985000Y-107559700D01*
X134568400Y-106976300D02*
X133985000Y-107559700D01*
X134568400Y-101560300D02*
X134568400Y-106976300D01*
X143510000Y-92618700D02*
X134568400Y-101560300D01*
X143510000Y-90805000D02*
X143510000Y-92618700D01*
X125068000Y-86912700D02*
X124714000Y-86912700D01*
X131335700Y-80645000D02*
X125068000Y-86912700D01*
X132461000Y-80645000D02*
X131335700Y-80645000D01*
X124714000Y-88138000D02*
X124714000Y-86912700D01*
M02*
