G04 #@! TF.FileFunction,Legend,Top*
%FSLAX46Y46*%
G04 Gerber Fmt 4.6, Leading zero omitted, Abs format (unit mm)*
G04 Created by KiCad (PCBNEW 4.0.2-stable) date 3/14/2018 4:21:44 PM*
%MOMM*%
G01*
G04 APERTURE LIST*
%ADD10C,0.100000*%
%ADD11C,0.150000*%
%ADD12C,0.500000*%
%ADD13C,0.203200*%
%ADD14C,0.152400*%
%ADD15C,0.120000*%
%ADD16C,0.050000*%
G04 APERTURE END LIST*
D10*
X127276668Y-110740000D02*
X127243334Y-110773333D01*
X127143334Y-110806667D01*
X127076668Y-110806667D01*
X126976668Y-110773333D01*
X126910001Y-110706667D01*
X126876668Y-110640000D01*
X126843334Y-110506667D01*
X126843334Y-110406667D01*
X126876668Y-110273333D01*
X126910001Y-110206667D01*
X126976668Y-110140000D01*
X127076668Y-110106667D01*
X127143334Y-110106667D01*
X127243334Y-110140000D01*
X127276668Y-110173333D01*
X127843334Y-110773333D02*
X127776668Y-110806667D01*
X127643334Y-110806667D01*
X127576668Y-110773333D01*
X127543334Y-110706667D01*
X127543334Y-110440000D01*
X127576668Y-110373333D01*
X127643334Y-110340000D01*
X127776668Y-110340000D01*
X127843334Y-110373333D01*
X127876668Y-110440000D01*
X127876668Y-110506667D01*
X127543334Y-110573333D01*
X128176668Y-110340000D02*
X128176668Y-110806667D01*
X128176668Y-110406667D02*
X128210001Y-110373333D01*
X128276668Y-110340000D01*
X128376668Y-110340000D01*
X128443334Y-110373333D01*
X128476668Y-110440000D01*
X128476668Y-110806667D01*
X128710001Y-110340000D02*
X128976667Y-110340000D01*
X128810001Y-110106667D02*
X128810001Y-110706667D01*
X128843334Y-110773333D01*
X128910001Y-110806667D01*
X128976667Y-110806667D01*
X129476667Y-110773333D02*
X129410001Y-110806667D01*
X129276667Y-110806667D01*
X129210001Y-110773333D01*
X129176667Y-110706667D01*
X129176667Y-110440000D01*
X129210001Y-110373333D01*
X129276667Y-110340000D01*
X129410001Y-110340000D01*
X129476667Y-110373333D01*
X129510001Y-110440000D01*
X129510001Y-110506667D01*
X129176667Y-110573333D01*
X129810001Y-110806667D02*
X129810001Y-110340000D01*
X129810001Y-110473333D02*
X129843334Y-110406667D01*
X129876667Y-110373333D01*
X129943334Y-110340000D01*
X130010001Y-110340000D01*
X130743333Y-110773333D02*
X130843333Y-110806667D01*
X131010000Y-110806667D01*
X131076667Y-110773333D01*
X131110000Y-110740000D01*
X131143333Y-110673333D01*
X131143333Y-110606667D01*
X131110000Y-110540000D01*
X131076667Y-110506667D01*
X131010000Y-110473333D01*
X130876667Y-110440000D01*
X130810000Y-110406667D01*
X130776667Y-110373333D01*
X130743333Y-110306667D01*
X130743333Y-110240000D01*
X130776667Y-110173333D01*
X130810000Y-110140000D01*
X130876667Y-110106667D01*
X131043333Y-110106667D01*
X131143333Y-110140000D01*
X131343334Y-110340000D02*
X131610000Y-110340000D01*
X131443334Y-110106667D02*
X131443334Y-110706667D01*
X131476667Y-110773333D01*
X131543334Y-110806667D01*
X131610000Y-110806667D01*
X132110000Y-110773333D02*
X132043334Y-110806667D01*
X131910000Y-110806667D01*
X131843334Y-110773333D01*
X131810000Y-110706667D01*
X131810000Y-110440000D01*
X131843334Y-110373333D01*
X131910000Y-110340000D01*
X132043334Y-110340000D01*
X132110000Y-110373333D01*
X132143334Y-110440000D01*
X132143334Y-110506667D01*
X131810000Y-110573333D01*
X132710000Y-110773333D02*
X132643334Y-110806667D01*
X132510000Y-110806667D01*
X132443334Y-110773333D01*
X132410000Y-110706667D01*
X132410000Y-110440000D01*
X132443334Y-110373333D01*
X132510000Y-110340000D01*
X132643334Y-110340000D01*
X132710000Y-110373333D01*
X132743334Y-110440000D01*
X132743334Y-110506667D01*
X132410000Y-110573333D01*
X133043334Y-110806667D02*
X133043334Y-110340000D01*
X133043334Y-110473333D02*
X133076667Y-110406667D01*
X133110000Y-110373333D01*
X133176667Y-110340000D01*
X133243334Y-110340000D01*
X133476667Y-110806667D02*
X133476667Y-110340000D01*
X133476667Y-110106667D02*
X133443333Y-110140000D01*
X133476667Y-110173333D01*
X133510000Y-110140000D01*
X133476667Y-110106667D01*
X133476667Y-110173333D01*
X133810000Y-110340000D02*
X133810000Y-110806667D01*
X133810000Y-110406667D02*
X133843333Y-110373333D01*
X133910000Y-110340000D01*
X134010000Y-110340000D01*
X134076666Y-110373333D01*
X134110000Y-110440000D01*
X134110000Y-110806667D01*
X134743333Y-110340000D02*
X134743333Y-110906667D01*
X134709999Y-110973333D01*
X134676666Y-111006667D01*
X134609999Y-111040000D01*
X134509999Y-111040000D01*
X134443333Y-111006667D01*
X134743333Y-110773333D02*
X134676666Y-110806667D01*
X134543333Y-110806667D01*
X134476666Y-110773333D01*
X134443333Y-110740000D01*
X134409999Y-110673333D01*
X134409999Y-110473333D01*
X134443333Y-110406667D01*
X134476666Y-110373333D01*
X134543333Y-110340000D01*
X134676666Y-110340000D01*
X134743333Y-110373333D01*
D11*
X149898334Y-78466905D02*
X149631667Y-78085952D01*
X149441191Y-78466905D02*
X149441191Y-77666905D01*
X149745953Y-77666905D01*
X149822144Y-77705000D01*
X149860239Y-77743095D01*
X149898334Y-77819286D01*
X149898334Y-77933571D01*
X149860239Y-78009762D01*
X149822144Y-78047857D01*
X149745953Y-78085952D01*
X149441191Y-78085952D01*
X150545953Y-78428810D02*
X150469763Y-78466905D01*
X150317382Y-78466905D01*
X150241191Y-78428810D01*
X150203096Y-78352619D01*
X150203096Y-78047857D01*
X150241191Y-77971667D01*
X150317382Y-77933571D01*
X150469763Y-77933571D01*
X150545953Y-77971667D01*
X150584048Y-78047857D01*
X150584048Y-78124048D01*
X150203096Y-78200238D01*
X151269762Y-78428810D02*
X151193572Y-78466905D01*
X151041191Y-78466905D01*
X150965000Y-78428810D01*
X150926905Y-78390714D01*
X150888810Y-78314524D01*
X150888810Y-78085952D01*
X150926905Y-78009762D01*
X150965000Y-77971667D01*
X151041191Y-77933571D01*
X151193572Y-77933571D01*
X151269762Y-77971667D01*
X151917381Y-78428810D02*
X151841191Y-78466905D01*
X151688810Y-78466905D01*
X151612619Y-78428810D01*
X151574524Y-78352619D01*
X151574524Y-78047857D01*
X151612619Y-77971667D01*
X151688810Y-77933571D01*
X151841191Y-77933571D01*
X151917381Y-77971667D01*
X151955476Y-78047857D01*
X151955476Y-78124048D01*
X151574524Y-78200238D01*
X152298333Y-78466905D02*
X152298333Y-77933571D01*
X152298333Y-77666905D02*
X152260238Y-77705000D01*
X152298333Y-77743095D01*
X152336428Y-77705000D01*
X152298333Y-77666905D01*
X152298333Y-77743095D01*
X152603095Y-77933571D02*
X152793571Y-78466905D01*
X152984047Y-77933571D01*
X153593571Y-78428810D02*
X153517381Y-78466905D01*
X153365000Y-78466905D01*
X153288809Y-78428810D01*
X153250714Y-78352619D01*
X153250714Y-78047857D01*
X153288809Y-77971667D01*
X153365000Y-77933571D01*
X153517381Y-77933571D01*
X153593571Y-77971667D01*
X153631666Y-78047857D01*
X153631666Y-78124048D01*
X153250714Y-78200238D01*
X153974523Y-78466905D02*
X153974523Y-77933571D01*
X153974523Y-78085952D02*
X154012618Y-78009762D01*
X154050714Y-77971667D01*
X154126904Y-77933571D01*
X154203095Y-77933571D01*
D10*
X135210000Y-119917333D02*
X135310000Y-119950667D01*
X135476667Y-119950667D01*
X135543334Y-119917333D01*
X135576667Y-119884000D01*
X135610000Y-119817333D01*
X135610000Y-119750667D01*
X135576667Y-119684000D01*
X135543334Y-119650667D01*
X135476667Y-119617333D01*
X135343334Y-119584000D01*
X135276667Y-119550667D01*
X135243334Y-119517333D01*
X135210000Y-119450667D01*
X135210000Y-119384000D01*
X135243334Y-119317333D01*
X135276667Y-119284000D01*
X135343334Y-119250667D01*
X135510000Y-119250667D01*
X135610000Y-119284000D01*
X135810001Y-119484000D02*
X136076667Y-119484000D01*
X135910001Y-119250667D02*
X135910001Y-119850667D01*
X135943334Y-119917333D01*
X136010001Y-119950667D01*
X136076667Y-119950667D01*
X136310001Y-119950667D02*
X136310001Y-119484000D01*
X136310001Y-119617333D02*
X136343334Y-119550667D01*
X136376667Y-119517333D01*
X136443334Y-119484000D01*
X136510001Y-119484000D01*
X137243334Y-119217333D02*
X136643334Y-120117333D01*
X137443333Y-119917333D02*
X137543333Y-119950667D01*
X137710000Y-119950667D01*
X137776667Y-119917333D01*
X137810000Y-119884000D01*
X137843333Y-119817333D01*
X137843333Y-119750667D01*
X137810000Y-119684000D01*
X137776667Y-119650667D01*
X137710000Y-119617333D01*
X137576667Y-119584000D01*
X137510000Y-119550667D01*
X137476667Y-119517333D01*
X137443333Y-119450667D01*
X137443333Y-119384000D01*
X137476667Y-119317333D01*
X137510000Y-119284000D01*
X137576667Y-119250667D01*
X137743333Y-119250667D01*
X137843333Y-119284000D01*
X138143334Y-119484000D02*
X138143334Y-120184000D01*
X138143334Y-119517333D02*
X138210000Y-119484000D01*
X138343334Y-119484000D01*
X138410000Y-119517333D01*
X138443334Y-119550667D01*
X138476667Y-119617333D01*
X138476667Y-119817333D01*
X138443334Y-119884000D01*
X138410000Y-119917333D01*
X138343334Y-119950667D01*
X138210000Y-119950667D01*
X138143334Y-119917333D01*
X139076667Y-119950667D02*
X139076667Y-119250667D01*
X139076667Y-119917333D02*
X139010000Y-119950667D01*
X138876667Y-119950667D01*
X138810000Y-119917333D01*
X138776667Y-119884000D01*
X138743333Y-119817333D01*
X138743333Y-119617333D01*
X138776667Y-119550667D01*
X138810000Y-119517333D01*
X138876667Y-119484000D01*
X139010000Y-119484000D01*
X139076667Y-119517333D01*
X130478333Y-119917333D02*
X130578333Y-119950667D01*
X130745000Y-119950667D01*
X130811667Y-119917333D01*
X130845000Y-119884000D01*
X130878333Y-119817333D01*
X130878333Y-119750667D01*
X130845000Y-119684000D01*
X130811667Y-119650667D01*
X130745000Y-119617333D01*
X130611667Y-119584000D01*
X130545000Y-119550667D01*
X130511667Y-119517333D01*
X130478333Y-119450667D01*
X130478333Y-119384000D01*
X130511667Y-119317333D01*
X130545000Y-119284000D01*
X130611667Y-119250667D01*
X130778333Y-119250667D01*
X130878333Y-119284000D01*
X131178334Y-119950667D02*
X131178334Y-119250667D01*
X131245000Y-119684000D02*
X131445000Y-119950667D01*
X131445000Y-119484000D02*
X131178334Y-119750667D01*
X131745001Y-119950667D02*
X131745001Y-119484000D01*
X131745001Y-119250667D02*
X131711667Y-119284000D01*
X131745001Y-119317333D01*
X131778334Y-119284000D01*
X131745001Y-119250667D01*
X131745001Y-119317333D01*
X132378334Y-119950667D02*
X132378334Y-119250667D01*
X132378334Y-119917333D02*
X132311667Y-119950667D01*
X132178334Y-119950667D01*
X132111667Y-119917333D01*
X132078334Y-119884000D01*
X132045000Y-119817333D01*
X132045000Y-119617333D01*
X132078334Y-119550667D01*
X132111667Y-119517333D01*
X132178334Y-119484000D01*
X132311667Y-119484000D01*
X132378334Y-119517333D01*
X131986667Y-118774333D02*
X132086667Y-118807667D01*
X132253334Y-118807667D01*
X132320001Y-118774333D01*
X132353334Y-118741000D01*
X132386667Y-118674333D01*
X132386667Y-118607667D01*
X132353334Y-118541000D01*
X132320001Y-118507667D01*
X132253334Y-118474333D01*
X132120001Y-118441000D01*
X132053334Y-118407667D01*
X132020001Y-118374333D01*
X131986667Y-118307667D01*
X131986667Y-118241000D01*
X132020001Y-118174333D01*
X132053334Y-118141000D01*
X132120001Y-118107667D01*
X132286667Y-118107667D01*
X132386667Y-118141000D01*
X132586668Y-118341000D02*
X132853334Y-118341000D01*
X132686668Y-118107667D02*
X132686668Y-118707667D01*
X132720001Y-118774333D01*
X132786668Y-118807667D01*
X132853334Y-118807667D01*
X133353334Y-118774333D02*
X133286668Y-118807667D01*
X133153334Y-118807667D01*
X133086668Y-118774333D01*
X133053334Y-118707667D01*
X133053334Y-118441000D01*
X133086668Y-118374333D01*
X133153334Y-118341000D01*
X133286668Y-118341000D01*
X133353334Y-118374333D01*
X133386668Y-118441000D01*
X133386668Y-118507667D01*
X133053334Y-118574333D01*
X133953334Y-118774333D02*
X133886668Y-118807667D01*
X133753334Y-118807667D01*
X133686668Y-118774333D01*
X133653334Y-118707667D01*
X133653334Y-118441000D01*
X133686668Y-118374333D01*
X133753334Y-118341000D01*
X133886668Y-118341000D01*
X133953334Y-118374333D01*
X133986668Y-118441000D01*
X133986668Y-118507667D01*
X133653334Y-118574333D01*
X134286668Y-118807667D02*
X134286668Y-118341000D01*
X134286668Y-118474333D02*
X134320001Y-118407667D01*
X134353334Y-118374333D01*
X134420001Y-118341000D01*
X134486668Y-118341000D01*
X135153334Y-118107667D02*
X135553334Y-118107667D01*
X135353334Y-118807667D02*
X135353334Y-118107667D01*
X135720000Y-118341000D02*
X135886667Y-118807667D01*
X136053333Y-118341000D02*
X135886667Y-118807667D01*
X135820000Y-118974333D01*
X135786667Y-119007667D01*
X135720000Y-119041000D01*
X136320000Y-118341000D02*
X136320000Y-119041000D01*
X136320000Y-118374333D02*
X136386666Y-118341000D01*
X136520000Y-118341000D01*
X136586666Y-118374333D01*
X136620000Y-118407667D01*
X136653333Y-118474333D01*
X136653333Y-118674333D01*
X136620000Y-118741000D01*
X136586666Y-118774333D01*
X136520000Y-118807667D01*
X136386666Y-118807667D01*
X136320000Y-118774333D01*
X137219999Y-118774333D02*
X137153333Y-118807667D01*
X137019999Y-118807667D01*
X136953333Y-118774333D01*
X136919999Y-118707667D01*
X136919999Y-118441000D01*
X136953333Y-118374333D01*
X137019999Y-118341000D01*
X137153333Y-118341000D01*
X137219999Y-118374333D01*
X137253333Y-118441000D01*
X137253333Y-118507667D01*
X136919999Y-118574333D01*
X137583333Y-110773333D02*
X137683333Y-110806667D01*
X137850000Y-110806667D01*
X137916667Y-110773333D01*
X137950000Y-110740000D01*
X137983333Y-110673333D01*
X137983333Y-110606667D01*
X137950000Y-110540000D01*
X137916667Y-110506667D01*
X137850000Y-110473333D01*
X137716667Y-110440000D01*
X137650000Y-110406667D01*
X137616667Y-110373333D01*
X137583333Y-110306667D01*
X137583333Y-110240000D01*
X137616667Y-110173333D01*
X137650000Y-110140000D01*
X137716667Y-110106667D01*
X137883333Y-110106667D01*
X137983333Y-110140000D01*
X138183334Y-110340000D02*
X138450000Y-110340000D01*
X138283334Y-110106667D02*
X138283334Y-110706667D01*
X138316667Y-110773333D01*
X138383334Y-110806667D01*
X138450000Y-110806667D01*
X138683334Y-110806667D02*
X138683334Y-110340000D01*
X138683334Y-110473333D02*
X138716667Y-110406667D01*
X138750000Y-110373333D01*
X138816667Y-110340000D01*
X138883334Y-110340000D01*
X139616666Y-110773333D02*
X139716666Y-110806667D01*
X139883333Y-110806667D01*
X139950000Y-110773333D01*
X139983333Y-110740000D01*
X140016666Y-110673333D01*
X140016666Y-110606667D01*
X139983333Y-110540000D01*
X139950000Y-110506667D01*
X139883333Y-110473333D01*
X139750000Y-110440000D01*
X139683333Y-110406667D01*
X139650000Y-110373333D01*
X139616666Y-110306667D01*
X139616666Y-110240000D01*
X139650000Y-110173333D01*
X139683333Y-110140000D01*
X139750000Y-110106667D01*
X139916666Y-110106667D01*
X140016666Y-110140000D01*
X140583333Y-110773333D02*
X140516667Y-110806667D01*
X140383333Y-110806667D01*
X140316667Y-110773333D01*
X140283333Y-110706667D01*
X140283333Y-110440000D01*
X140316667Y-110373333D01*
X140383333Y-110340000D01*
X140516667Y-110340000D01*
X140583333Y-110373333D01*
X140616667Y-110440000D01*
X140616667Y-110506667D01*
X140283333Y-110573333D01*
X140916667Y-110340000D02*
X140916667Y-110806667D01*
X140916667Y-110406667D02*
X140950000Y-110373333D01*
X141016667Y-110340000D01*
X141116667Y-110340000D01*
X141183333Y-110373333D01*
X141216667Y-110440000D01*
X141216667Y-110806667D01*
X141516666Y-110773333D02*
X141583333Y-110806667D01*
X141716666Y-110806667D01*
X141783333Y-110773333D01*
X141816666Y-110706667D01*
X141816666Y-110673333D01*
X141783333Y-110606667D01*
X141716666Y-110573333D01*
X141616666Y-110573333D01*
X141550000Y-110540000D01*
X141516666Y-110473333D01*
X141516666Y-110440000D01*
X141550000Y-110373333D01*
X141616666Y-110340000D01*
X141716666Y-110340000D01*
X141783333Y-110373333D01*
X155091667Y-83435000D02*
X155058333Y-83468333D01*
X154958333Y-83501667D01*
X154891667Y-83501667D01*
X154791667Y-83468333D01*
X154725000Y-83401667D01*
X154691667Y-83335000D01*
X154658333Y-83201667D01*
X154658333Y-83101667D01*
X154691667Y-82968333D01*
X154725000Y-82901667D01*
X154791667Y-82835000D01*
X154891667Y-82801667D01*
X154958333Y-82801667D01*
X155058333Y-82835000D01*
X155091667Y-82868333D01*
X155391667Y-83501667D02*
X155391667Y-82801667D01*
X155391667Y-83135000D02*
X155791667Y-83135000D01*
X155791667Y-83501667D02*
X155791667Y-82801667D01*
X156091666Y-82868333D02*
X156125000Y-82835000D01*
X156191666Y-82801667D01*
X156358333Y-82801667D01*
X156425000Y-82835000D01*
X156458333Y-82868333D01*
X156491666Y-82935000D01*
X156491666Y-83001667D01*
X156458333Y-83101667D01*
X156058333Y-83501667D01*
X156491666Y-83501667D01*
X152551667Y-83435000D02*
X152518333Y-83468333D01*
X152418333Y-83501667D01*
X152351667Y-83501667D01*
X152251667Y-83468333D01*
X152185000Y-83401667D01*
X152151667Y-83335000D01*
X152118333Y-83201667D01*
X152118333Y-83101667D01*
X152151667Y-82968333D01*
X152185000Y-82901667D01*
X152251667Y-82835000D01*
X152351667Y-82801667D01*
X152418333Y-82801667D01*
X152518333Y-82835000D01*
X152551667Y-82868333D01*
X152851667Y-83501667D02*
X152851667Y-82801667D01*
X152851667Y-83135000D02*
X153251667Y-83135000D01*
X153251667Y-83501667D02*
X153251667Y-82801667D01*
X153951666Y-83501667D02*
X153551666Y-83501667D01*
X153751666Y-83501667D02*
X153751666Y-82801667D01*
X153685000Y-82901667D01*
X153618333Y-82968333D01*
X153551666Y-83001667D01*
X149961667Y-82835000D02*
X149895001Y-82801667D01*
X149795001Y-82801667D01*
X149695001Y-82835000D01*
X149628334Y-82901667D01*
X149595001Y-82968333D01*
X149561667Y-83101667D01*
X149561667Y-83201667D01*
X149595001Y-83335000D01*
X149628334Y-83401667D01*
X149695001Y-83468333D01*
X149795001Y-83501667D01*
X149861667Y-83501667D01*
X149961667Y-83468333D01*
X149995001Y-83435000D01*
X149995001Y-83201667D01*
X149861667Y-83201667D01*
X150295001Y-83501667D02*
X150295001Y-82801667D01*
X150695001Y-83501667D01*
X150695001Y-82801667D01*
X151028334Y-83501667D02*
X151028334Y-82801667D01*
X151195000Y-82801667D01*
X151295000Y-82835000D01*
X151361667Y-82901667D01*
X151395000Y-82968333D01*
X151428334Y-83101667D01*
X151428334Y-83201667D01*
X151395000Y-83335000D01*
X151361667Y-83401667D01*
X151295000Y-83468333D01*
X151195000Y-83501667D01*
X151028334Y-83501667D01*
X147021667Y-82801667D02*
X147255000Y-83501667D01*
X147488333Y-82801667D01*
X148121667Y-83435000D02*
X148088333Y-83468333D01*
X147988333Y-83501667D01*
X147921667Y-83501667D01*
X147821667Y-83468333D01*
X147755000Y-83401667D01*
X147721667Y-83335000D01*
X147688333Y-83201667D01*
X147688333Y-83101667D01*
X147721667Y-82968333D01*
X147755000Y-82901667D01*
X147821667Y-82835000D01*
X147921667Y-82801667D01*
X147988333Y-82801667D01*
X148088333Y-82835000D01*
X148121667Y-82868333D01*
X148821667Y-83435000D02*
X148788333Y-83468333D01*
X148688333Y-83501667D01*
X148621667Y-83501667D01*
X148521667Y-83468333D01*
X148455000Y-83401667D01*
X148421667Y-83335000D01*
X148388333Y-83201667D01*
X148388333Y-83101667D01*
X148421667Y-82968333D01*
X148455000Y-82901667D01*
X148521667Y-82835000D01*
X148621667Y-82801667D01*
X148688333Y-82801667D01*
X148788333Y-82835000D01*
X148821667Y-82868333D01*
D11*
X136886905Y-86086905D02*
X136086905Y-86086905D01*
X136353571Y-85705953D02*
X136886905Y-85705953D01*
X136429762Y-85705953D02*
X136391667Y-85667858D01*
X136353571Y-85591667D01*
X136353571Y-85477381D01*
X136391667Y-85401191D01*
X136467857Y-85363096D01*
X136886905Y-85363096D01*
X136125000Y-83794523D02*
X136086905Y-83870714D01*
X136086905Y-83984999D01*
X136125000Y-84099285D01*
X136201190Y-84175476D01*
X136277381Y-84213571D01*
X136429762Y-84251666D01*
X136544048Y-84251666D01*
X136696429Y-84213571D01*
X136772619Y-84175476D01*
X136848810Y-84099285D01*
X136886905Y-83984999D01*
X136886905Y-83908809D01*
X136848810Y-83794523D01*
X136810714Y-83756428D01*
X136544048Y-83756428D01*
X136544048Y-83908809D01*
X136886905Y-83413571D02*
X136086905Y-83413571D01*
X136886905Y-82956428D01*
X136086905Y-82956428D01*
X136886905Y-82575476D02*
X136086905Y-82575476D01*
X136086905Y-82385000D01*
X136125000Y-82270714D01*
X136201190Y-82194523D01*
X136277381Y-82156428D01*
X136429762Y-82118333D01*
X136544048Y-82118333D01*
X136696429Y-82156428D01*
X136772619Y-82194523D01*
X136848810Y-82270714D01*
X136886905Y-82385000D01*
X136886905Y-82575476D01*
X136086905Y-81311667D02*
X136086905Y-81159286D01*
X136125000Y-81083095D01*
X136201190Y-81006905D01*
X136353571Y-80968810D01*
X136620238Y-80968810D01*
X136772619Y-81006905D01*
X136848810Y-81083095D01*
X136886905Y-81159286D01*
X136886905Y-81311667D01*
X136848810Y-81387857D01*
X136772619Y-81464048D01*
X136620238Y-81502143D01*
X136353571Y-81502143D01*
X136201190Y-81464048D01*
X136125000Y-81387857D01*
X136086905Y-81311667D01*
X136353571Y-80283096D02*
X136886905Y-80283096D01*
X136353571Y-80625953D02*
X136772619Y-80625953D01*
X136848810Y-80587858D01*
X136886905Y-80511667D01*
X136886905Y-80397381D01*
X136848810Y-80321191D01*
X136810714Y-80283096D01*
X136353571Y-80016429D02*
X136353571Y-79711667D01*
X136086905Y-79902143D02*
X136772619Y-79902143D01*
X136848810Y-79864048D01*
X136886905Y-79787857D01*
X136886905Y-79711667D01*
D12*
X120332619Y-87173571D02*
X122237381Y-87173571D01*
X121285000Y-88125952D02*
X121285000Y-86221190D01*
X112712619Y-87173571D02*
X114617381Y-87173571D01*
D13*
X146304000Y-124841000D02*
X146304000Y-122555000D01*
X146304000Y-122555000D02*
X155956000Y-122555000D01*
X155956000Y-122555000D02*
X155956000Y-124841000D01*
X145034000Y-109601000D02*
X157226000Y-109601000D01*
X157226000Y-124841000D02*
X157226000Y-109601000D01*
X145034000Y-124841000D02*
X145034000Y-109601000D01*
X157226000Y-124841000D02*
X145034000Y-124841000D01*
D11*
X130415000Y-120255000D02*
X139015000Y-120255000D01*
X130415000Y-124855000D02*
X132615000Y-124855000D01*
X136715000Y-124855000D02*
X139015000Y-124855000D01*
D14*
X114554000Y-88265000D02*
X114554000Y-108585000D01*
X120396000Y-108585000D02*
X120396000Y-88265000D01*
X114554000Y-88265000D02*
X120396000Y-88265000D01*
X114554000Y-108585000D02*
X116459000Y-108585000D01*
X120396000Y-108585000D02*
X118491000Y-108585000D01*
X116459000Y-108585000D02*
G75*
G02X118491000Y-108585000I1016000J0D01*
G01*
D13*
X113919000Y-124841000D02*
X113919000Y-122555000D01*
X113919000Y-122555000D02*
X123571000Y-122555000D01*
X123571000Y-122555000D02*
X123571000Y-124841000D01*
X112649000Y-109601000D02*
X124841000Y-109601000D01*
X124841000Y-124841000D02*
X124841000Y-109601000D01*
X112649000Y-124841000D02*
X112649000Y-109601000D01*
X124841000Y-124841000D02*
X112649000Y-124841000D01*
D15*
X127544723Y-85470722D02*
G75*
G03X127545000Y-80859420I-1179723J2305722D01*
G01*
X125185277Y-85470722D02*
G75*
G02X125185000Y-80859420I1179723J2305722D01*
G01*
X125185277Y-85470722D02*
G75*
G03X127545000Y-85470580I1179723J2305722D01*
G01*
X128915000Y-83165000D02*
X123815000Y-83165000D01*
X128915000Y-83205000D02*
X123815000Y-83205000D01*
X128914000Y-83245000D02*
X123816000Y-83245000D01*
X128913000Y-83285000D02*
X123817000Y-83285000D01*
X128911000Y-83325000D02*
X123819000Y-83325000D01*
X128908000Y-83365000D02*
X123822000Y-83365000D01*
X128904000Y-83405000D02*
X123826000Y-83405000D01*
X128900000Y-83445000D02*
X127345000Y-83445000D01*
X125385000Y-83445000D02*
X123830000Y-83445000D01*
X128896000Y-83485000D02*
X127345000Y-83485000D01*
X125385000Y-83485000D02*
X123834000Y-83485000D01*
X128890000Y-83525000D02*
X127345000Y-83525000D01*
X125385000Y-83525000D02*
X123840000Y-83525000D01*
X128884000Y-83565000D02*
X127345000Y-83565000D01*
X125385000Y-83565000D02*
X123846000Y-83565000D01*
X128878000Y-83605000D02*
X127345000Y-83605000D01*
X125385000Y-83605000D02*
X123852000Y-83605000D01*
X128871000Y-83645000D02*
X127345000Y-83645000D01*
X125385000Y-83645000D02*
X123859000Y-83645000D01*
X128863000Y-83685000D02*
X127345000Y-83685000D01*
X125385000Y-83685000D02*
X123867000Y-83685000D01*
X128854000Y-83725000D02*
X127345000Y-83725000D01*
X125385000Y-83725000D02*
X123876000Y-83725000D01*
X128845000Y-83765000D02*
X127345000Y-83765000D01*
X125385000Y-83765000D02*
X123885000Y-83765000D01*
X128835000Y-83805000D02*
X127345000Y-83805000D01*
X125385000Y-83805000D02*
X123895000Y-83805000D01*
X128825000Y-83845000D02*
X127345000Y-83845000D01*
X125385000Y-83845000D02*
X123905000Y-83845000D01*
X128813000Y-83886000D02*
X127345000Y-83886000D01*
X125385000Y-83886000D02*
X123917000Y-83886000D01*
X128801000Y-83926000D02*
X127345000Y-83926000D01*
X125385000Y-83926000D02*
X123929000Y-83926000D01*
X128789000Y-83966000D02*
X127345000Y-83966000D01*
X125385000Y-83966000D02*
X123941000Y-83966000D01*
X128775000Y-84006000D02*
X127345000Y-84006000D01*
X125385000Y-84006000D02*
X123955000Y-84006000D01*
X128761000Y-84046000D02*
X127345000Y-84046000D01*
X125385000Y-84046000D02*
X123969000Y-84046000D01*
X128747000Y-84086000D02*
X127345000Y-84086000D01*
X125385000Y-84086000D02*
X123983000Y-84086000D01*
X128731000Y-84126000D02*
X127345000Y-84126000D01*
X125385000Y-84126000D02*
X123999000Y-84126000D01*
X128715000Y-84166000D02*
X127345000Y-84166000D01*
X125385000Y-84166000D02*
X124015000Y-84166000D01*
X128698000Y-84206000D02*
X127345000Y-84206000D01*
X125385000Y-84206000D02*
X124032000Y-84206000D01*
X128680000Y-84246000D02*
X127345000Y-84246000D01*
X125385000Y-84246000D02*
X124050000Y-84246000D01*
X128661000Y-84286000D02*
X127345000Y-84286000D01*
X125385000Y-84286000D02*
X124069000Y-84286000D01*
X128641000Y-84326000D02*
X127345000Y-84326000D01*
X125385000Y-84326000D02*
X124089000Y-84326000D01*
X128621000Y-84366000D02*
X127345000Y-84366000D01*
X125385000Y-84366000D02*
X124109000Y-84366000D01*
X128599000Y-84406000D02*
X127345000Y-84406000D01*
X125385000Y-84406000D02*
X124131000Y-84406000D01*
X128577000Y-84446000D02*
X127345000Y-84446000D01*
X125385000Y-84446000D02*
X124153000Y-84446000D01*
X128554000Y-84486000D02*
X127345000Y-84486000D01*
X125385000Y-84486000D02*
X124176000Y-84486000D01*
X128530000Y-84526000D02*
X127345000Y-84526000D01*
X125385000Y-84526000D02*
X124200000Y-84526000D01*
X128505000Y-84566000D02*
X127345000Y-84566000D01*
X125385000Y-84566000D02*
X124225000Y-84566000D01*
X128478000Y-84606000D02*
X127345000Y-84606000D01*
X125385000Y-84606000D02*
X124252000Y-84606000D01*
X128451000Y-84646000D02*
X127345000Y-84646000D01*
X125385000Y-84646000D02*
X124279000Y-84646000D01*
X128423000Y-84686000D02*
X127345000Y-84686000D01*
X125385000Y-84686000D02*
X124307000Y-84686000D01*
X128393000Y-84726000D02*
X127345000Y-84726000D01*
X125385000Y-84726000D02*
X124337000Y-84726000D01*
X128362000Y-84766000D02*
X127345000Y-84766000D01*
X125385000Y-84766000D02*
X124368000Y-84766000D01*
X128330000Y-84806000D02*
X127345000Y-84806000D01*
X125385000Y-84806000D02*
X124400000Y-84806000D01*
X128297000Y-84846000D02*
X127345000Y-84846000D01*
X125385000Y-84846000D02*
X124433000Y-84846000D01*
X128262000Y-84886000D02*
X127345000Y-84886000D01*
X125385000Y-84886000D02*
X124468000Y-84886000D01*
X128226000Y-84926000D02*
X127345000Y-84926000D01*
X125385000Y-84926000D02*
X124504000Y-84926000D01*
X128188000Y-84966000D02*
X127345000Y-84966000D01*
X125385000Y-84966000D02*
X124542000Y-84966000D01*
X128148000Y-85006000D02*
X127345000Y-85006000D01*
X125385000Y-85006000D02*
X124582000Y-85006000D01*
X128107000Y-85046000D02*
X127345000Y-85046000D01*
X125385000Y-85046000D02*
X124623000Y-85046000D01*
X128064000Y-85086000D02*
X127345000Y-85086000D01*
X125385000Y-85086000D02*
X124666000Y-85086000D01*
X128019000Y-85126000D02*
X127345000Y-85126000D01*
X125385000Y-85126000D02*
X124711000Y-85126000D01*
X127971000Y-85166000D02*
X127345000Y-85166000D01*
X125385000Y-85166000D02*
X124759000Y-85166000D01*
X127921000Y-85206000D02*
X127345000Y-85206000D01*
X125385000Y-85206000D02*
X124809000Y-85206000D01*
X127869000Y-85246000D02*
X127345000Y-85246000D01*
X125385000Y-85246000D02*
X124861000Y-85246000D01*
X127813000Y-85286000D02*
X127345000Y-85286000D01*
X125385000Y-85286000D02*
X124917000Y-85286000D01*
X127755000Y-85326000D02*
X127345000Y-85326000D01*
X125385000Y-85326000D02*
X124975000Y-85326000D01*
X127692000Y-85366000D02*
X127345000Y-85366000D01*
X125385000Y-85366000D02*
X125038000Y-85366000D01*
X127626000Y-85406000D02*
X125104000Y-85406000D01*
X127554000Y-85446000D02*
X125176000Y-85446000D01*
X127477000Y-85486000D02*
X125253000Y-85486000D01*
X127393000Y-85526000D02*
X125337000Y-85526000D01*
X127299000Y-85566000D02*
X125431000Y-85566000D01*
X127194000Y-85606000D02*
X125536000Y-85606000D01*
X127072000Y-85646000D02*
X125658000Y-85646000D01*
X126924000Y-85686000D02*
X125806000Y-85686000D01*
X126719000Y-85726000D02*
X126011000Y-85726000D01*
X126365000Y-79715000D02*
X126365000Y-80915000D01*
X127015000Y-80315000D02*
X125715000Y-80315000D01*
X147365000Y-107725000D02*
X147365000Y-109445000D01*
X147365000Y-109445000D02*
X151085000Y-109445000D01*
X151085000Y-109445000D02*
X151085000Y-107725000D01*
X151085000Y-107725000D02*
X147365000Y-107725000D01*
X146295000Y-108585000D02*
X147365000Y-108585000D01*
X152155000Y-108585000D02*
X151085000Y-108585000D01*
X141560000Y-109445000D02*
X141560000Y-107725000D01*
X141560000Y-107725000D02*
X137840000Y-107725000D01*
X137840000Y-107725000D02*
X137840000Y-109445000D01*
X137840000Y-109445000D02*
X141560000Y-109445000D01*
X142630000Y-108585000D02*
X141560000Y-108585000D01*
X136770000Y-108585000D02*
X137840000Y-108585000D01*
D11*
X134366000Y-88011000D02*
X130937000Y-88011000D01*
X134366000Y-78359000D02*
X130937000Y-78359000D01*
X135509000Y-88519000D02*
X135509000Y-77851000D01*
X134493000Y-84963000D02*
X135763000Y-84963000D01*
X134493000Y-81407000D02*
X135763000Y-81407000D01*
X134366000Y-77851000D02*
X134366000Y-88519000D01*
X130937000Y-88519000D02*
X130937000Y-77851000D01*
X135763000Y-77851000D02*
X130937000Y-77851000D01*
X135763000Y-88519000D02*
X130937000Y-88519000D01*
X135763000Y-88519000D02*
X135763000Y-77851000D01*
D15*
X112395000Y-79375000D02*
X122555000Y-79375000D01*
X112395000Y-78105000D02*
X112395000Y-85725000D01*
X112395000Y-85725000D02*
X122555000Y-85725000D01*
X122555000Y-85725000D02*
X122555000Y-78105000D01*
X122555000Y-78105000D02*
X112395000Y-78105000D01*
X156905000Y-81975000D02*
X156905000Y-79315000D01*
X149225000Y-81975000D02*
X156905000Y-81975000D01*
X149225000Y-79315000D02*
X156905000Y-79315000D01*
X149225000Y-81975000D02*
X149225000Y-79315000D01*
X147955000Y-81975000D02*
X146625000Y-81975000D01*
X146625000Y-81975000D02*
X146625000Y-80645000D01*
X140425277Y-80899278D02*
G75*
G03X140425000Y-85510580I1179723J-2305722D01*
G01*
X142784723Y-80899278D02*
G75*
G02X142785000Y-85510580I-1179723J-2305722D01*
G01*
X142784723Y-80899278D02*
G75*
G03X140425000Y-80899420I-1179723J-2305722D01*
G01*
X139055000Y-83205000D02*
X144155000Y-83205000D01*
X139055000Y-83165000D02*
X144155000Y-83165000D01*
X139056000Y-83125000D02*
X144154000Y-83125000D01*
X139057000Y-83085000D02*
X144153000Y-83085000D01*
X139059000Y-83045000D02*
X144151000Y-83045000D01*
X139062000Y-83005000D02*
X144148000Y-83005000D01*
X139066000Y-82965000D02*
X144144000Y-82965000D01*
X139070000Y-82925000D02*
X140625000Y-82925000D01*
X142585000Y-82925000D02*
X144140000Y-82925000D01*
X139074000Y-82885000D02*
X140625000Y-82885000D01*
X142585000Y-82885000D02*
X144136000Y-82885000D01*
X139080000Y-82845000D02*
X140625000Y-82845000D01*
X142585000Y-82845000D02*
X144130000Y-82845000D01*
X139086000Y-82805000D02*
X140625000Y-82805000D01*
X142585000Y-82805000D02*
X144124000Y-82805000D01*
X139092000Y-82765000D02*
X140625000Y-82765000D01*
X142585000Y-82765000D02*
X144118000Y-82765000D01*
X139099000Y-82725000D02*
X140625000Y-82725000D01*
X142585000Y-82725000D02*
X144111000Y-82725000D01*
X139107000Y-82685000D02*
X140625000Y-82685000D01*
X142585000Y-82685000D02*
X144103000Y-82685000D01*
X139116000Y-82645000D02*
X140625000Y-82645000D01*
X142585000Y-82645000D02*
X144094000Y-82645000D01*
X139125000Y-82605000D02*
X140625000Y-82605000D01*
X142585000Y-82605000D02*
X144085000Y-82605000D01*
X139135000Y-82565000D02*
X140625000Y-82565000D01*
X142585000Y-82565000D02*
X144075000Y-82565000D01*
X139145000Y-82525000D02*
X140625000Y-82525000D01*
X142585000Y-82525000D02*
X144065000Y-82525000D01*
X139157000Y-82484000D02*
X140625000Y-82484000D01*
X142585000Y-82484000D02*
X144053000Y-82484000D01*
X139169000Y-82444000D02*
X140625000Y-82444000D01*
X142585000Y-82444000D02*
X144041000Y-82444000D01*
X139181000Y-82404000D02*
X140625000Y-82404000D01*
X142585000Y-82404000D02*
X144029000Y-82404000D01*
X139195000Y-82364000D02*
X140625000Y-82364000D01*
X142585000Y-82364000D02*
X144015000Y-82364000D01*
X139209000Y-82324000D02*
X140625000Y-82324000D01*
X142585000Y-82324000D02*
X144001000Y-82324000D01*
X139223000Y-82284000D02*
X140625000Y-82284000D01*
X142585000Y-82284000D02*
X143987000Y-82284000D01*
X139239000Y-82244000D02*
X140625000Y-82244000D01*
X142585000Y-82244000D02*
X143971000Y-82244000D01*
X139255000Y-82204000D02*
X140625000Y-82204000D01*
X142585000Y-82204000D02*
X143955000Y-82204000D01*
X139272000Y-82164000D02*
X140625000Y-82164000D01*
X142585000Y-82164000D02*
X143938000Y-82164000D01*
X139290000Y-82124000D02*
X140625000Y-82124000D01*
X142585000Y-82124000D02*
X143920000Y-82124000D01*
X139309000Y-82084000D02*
X140625000Y-82084000D01*
X142585000Y-82084000D02*
X143901000Y-82084000D01*
X139329000Y-82044000D02*
X140625000Y-82044000D01*
X142585000Y-82044000D02*
X143881000Y-82044000D01*
X139349000Y-82004000D02*
X140625000Y-82004000D01*
X142585000Y-82004000D02*
X143861000Y-82004000D01*
X139371000Y-81964000D02*
X140625000Y-81964000D01*
X142585000Y-81964000D02*
X143839000Y-81964000D01*
X139393000Y-81924000D02*
X140625000Y-81924000D01*
X142585000Y-81924000D02*
X143817000Y-81924000D01*
X139416000Y-81884000D02*
X140625000Y-81884000D01*
X142585000Y-81884000D02*
X143794000Y-81884000D01*
X139440000Y-81844000D02*
X140625000Y-81844000D01*
X142585000Y-81844000D02*
X143770000Y-81844000D01*
X139465000Y-81804000D02*
X140625000Y-81804000D01*
X142585000Y-81804000D02*
X143745000Y-81804000D01*
X139492000Y-81764000D02*
X140625000Y-81764000D01*
X142585000Y-81764000D02*
X143718000Y-81764000D01*
X139519000Y-81724000D02*
X140625000Y-81724000D01*
X142585000Y-81724000D02*
X143691000Y-81724000D01*
X139547000Y-81684000D02*
X140625000Y-81684000D01*
X142585000Y-81684000D02*
X143663000Y-81684000D01*
X139577000Y-81644000D02*
X140625000Y-81644000D01*
X142585000Y-81644000D02*
X143633000Y-81644000D01*
X139608000Y-81604000D02*
X140625000Y-81604000D01*
X142585000Y-81604000D02*
X143602000Y-81604000D01*
X139640000Y-81564000D02*
X140625000Y-81564000D01*
X142585000Y-81564000D02*
X143570000Y-81564000D01*
X139673000Y-81524000D02*
X140625000Y-81524000D01*
X142585000Y-81524000D02*
X143537000Y-81524000D01*
X139708000Y-81484000D02*
X140625000Y-81484000D01*
X142585000Y-81484000D02*
X143502000Y-81484000D01*
X139744000Y-81444000D02*
X140625000Y-81444000D01*
X142585000Y-81444000D02*
X143466000Y-81444000D01*
X139782000Y-81404000D02*
X140625000Y-81404000D01*
X142585000Y-81404000D02*
X143428000Y-81404000D01*
X139822000Y-81364000D02*
X140625000Y-81364000D01*
X142585000Y-81364000D02*
X143388000Y-81364000D01*
X139863000Y-81324000D02*
X140625000Y-81324000D01*
X142585000Y-81324000D02*
X143347000Y-81324000D01*
X139906000Y-81284000D02*
X140625000Y-81284000D01*
X142585000Y-81284000D02*
X143304000Y-81284000D01*
X139951000Y-81244000D02*
X140625000Y-81244000D01*
X142585000Y-81244000D02*
X143259000Y-81244000D01*
X139999000Y-81204000D02*
X140625000Y-81204000D01*
X142585000Y-81204000D02*
X143211000Y-81204000D01*
X140049000Y-81164000D02*
X140625000Y-81164000D01*
X142585000Y-81164000D02*
X143161000Y-81164000D01*
X140101000Y-81124000D02*
X140625000Y-81124000D01*
X142585000Y-81124000D02*
X143109000Y-81124000D01*
X140157000Y-81084000D02*
X140625000Y-81084000D01*
X142585000Y-81084000D02*
X143053000Y-81084000D01*
X140215000Y-81044000D02*
X140625000Y-81044000D01*
X142585000Y-81044000D02*
X142995000Y-81044000D01*
X140278000Y-81004000D02*
X140625000Y-81004000D01*
X142585000Y-81004000D02*
X142932000Y-81004000D01*
X140344000Y-80964000D02*
X142866000Y-80964000D01*
X140416000Y-80924000D02*
X142794000Y-80924000D01*
X140493000Y-80884000D02*
X142717000Y-80884000D01*
X140577000Y-80844000D02*
X142633000Y-80844000D01*
X140671000Y-80804000D02*
X142539000Y-80804000D01*
X140776000Y-80764000D02*
X142434000Y-80764000D01*
X140898000Y-80724000D02*
X142312000Y-80724000D01*
X141046000Y-80684000D02*
X142164000Y-80684000D01*
X141251000Y-80644000D02*
X141959000Y-80644000D01*
X141605000Y-86655000D02*
X141605000Y-85455000D01*
X140955000Y-86055000D02*
X142255000Y-86055000D01*
X153830000Y-88140000D02*
X153830000Y-84620000D01*
X156050000Y-88140000D02*
X156050000Y-84620000D01*
X153830000Y-88140000D02*
X153944000Y-88140000D01*
X155936000Y-88140000D02*
X156050000Y-88140000D01*
X153830000Y-84620000D02*
X153944000Y-84620000D01*
X155936000Y-84620000D02*
X156050000Y-84620000D01*
X140640000Y-114340000D02*
G75*
G03X140640000Y-114340000I-900000J0D01*
G01*
X136530000Y-115967000D02*
X136530000Y-111130000D01*
X142950000Y-115967000D02*
X142950000Y-111130000D01*
X137998000Y-117550000D02*
X141483000Y-117550000D01*
X136530000Y-111130000D02*
X138983000Y-111130000D01*
X140498000Y-111130000D02*
X142950000Y-111130000D01*
X128315000Y-107725000D02*
X128315000Y-109445000D01*
X128315000Y-109445000D02*
X132035000Y-109445000D01*
X132035000Y-109445000D02*
X132035000Y-107725000D01*
X132035000Y-107725000D02*
X128315000Y-107725000D01*
X127245000Y-108585000D02*
X128315000Y-108585000D01*
X133105000Y-108585000D02*
X132035000Y-108585000D01*
X128635000Y-117895000D02*
X133135000Y-117895000D01*
X127385000Y-113895000D02*
X127385000Y-115395000D01*
X133135000Y-111395000D02*
X128635000Y-111395000D01*
X134385000Y-115395000D02*
X134385000Y-113895000D01*
D11*
X154618571Y-100837857D02*
X155618571Y-100837857D01*
X154618571Y-101480714D02*
X155404286Y-101480714D01*
X155547143Y-101409286D01*
X155618571Y-101266428D01*
X155618571Y-101052143D01*
X155547143Y-100909286D01*
X155475714Y-100837857D01*
X155618571Y-100123571D02*
X154118571Y-100123571D01*
X154118571Y-99552143D01*
X154190000Y-99409285D01*
X154261429Y-99337857D01*
X154404286Y-99266428D01*
X154618571Y-99266428D01*
X154761429Y-99337857D01*
X154832857Y-99409285D01*
X154904286Y-99552143D01*
X154904286Y-100123571D01*
X155618571Y-97837857D02*
X155618571Y-98695000D01*
X155618571Y-98266428D02*
X154118571Y-98266428D01*
X154332857Y-98409285D01*
X154475714Y-98552143D01*
X154547143Y-98695000D01*
X132041428Y-99945000D02*
X132755714Y-99945000D01*
X131898571Y-100373571D02*
X132398571Y-98873571D01*
X132898571Y-100373571D01*
X134255714Y-100373571D02*
X133755714Y-99659286D01*
X133398571Y-100373571D02*
X133398571Y-98873571D01*
X133969999Y-98873571D01*
X134112857Y-98945000D01*
X134184285Y-99016429D01*
X134255714Y-99159286D01*
X134255714Y-99373571D01*
X134184285Y-99516429D01*
X134112857Y-99587857D01*
X133969999Y-99659286D01*
X133398571Y-99659286D01*
X134898571Y-100373571D02*
X134898571Y-98873571D01*
X135255714Y-98873571D01*
X135469999Y-98945000D01*
X135612857Y-99087857D01*
X135684285Y-99230714D01*
X135755714Y-99516429D01*
X135755714Y-99730714D01*
X135684285Y-100016429D01*
X135612857Y-100159286D01*
X135469999Y-100302143D01*
X135255714Y-100373571D01*
X134898571Y-100373571D01*
X136398571Y-98873571D02*
X136398571Y-100087857D01*
X136469999Y-100230714D01*
X136541428Y-100302143D01*
X136684285Y-100373571D01*
X136969999Y-100373571D01*
X137112857Y-100302143D01*
X137184285Y-100230714D01*
X137255714Y-100087857D01*
X137255714Y-98873571D01*
X137970000Y-100373571D02*
X137970000Y-98873571D01*
X138541428Y-98873571D01*
X138684286Y-98945000D01*
X138755714Y-99016429D01*
X138827143Y-99159286D01*
X138827143Y-99373571D01*
X138755714Y-99516429D01*
X138684286Y-99587857D01*
X138541428Y-99659286D01*
X137970000Y-99659286D01*
X140327143Y-100373571D02*
X139827143Y-99659286D01*
X139470000Y-100373571D02*
X139470000Y-98873571D01*
X140041428Y-98873571D01*
X140184286Y-98945000D01*
X140255714Y-99016429D01*
X140327143Y-99159286D01*
X140327143Y-99373571D01*
X140255714Y-99516429D01*
X140184286Y-99587857D01*
X140041428Y-99659286D01*
X139470000Y-99659286D01*
X141255714Y-98873571D02*
X141541428Y-98873571D01*
X141684286Y-98945000D01*
X141827143Y-99087857D01*
X141898571Y-99373571D01*
X141898571Y-99873571D01*
X141827143Y-100159286D01*
X141684286Y-100302143D01*
X141541428Y-100373571D01*
X141255714Y-100373571D01*
X141112857Y-100302143D01*
X140970000Y-100159286D01*
X140898571Y-99873571D01*
X140898571Y-99373571D01*
X140970000Y-99087857D01*
X141112857Y-98945000D01*
X141255714Y-98873571D01*
X142541429Y-100373571D02*
X142541429Y-98873571D01*
X143041429Y-99945000D01*
X143541429Y-98873571D01*
X143541429Y-100373571D01*
X144255715Y-100373571D02*
X144255715Y-98873571D01*
X144970001Y-100373571D02*
X144970001Y-98873571D01*
X145827144Y-100373571D01*
X145827144Y-98873571D01*
X146541430Y-100373571D02*
X146541430Y-98873571D01*
X147255716Y-99802143D02*
X148398573Y-99802143D01*
X149755716Y-98873571D02*
X149470002Y-98873571D01*
X149327145Y-98945000D01*
X149255716Y-99016429D01*
X149112859Y-99230714D01*
X149041430Y-99516429D01*
X149041430Y-100087857D01*
X149112859Y-100230714D01*
X149184287Y-100302143D01*
X149327145Y-100373571D01*
X149612859Y-100373571D01*
X149755716Y-100302143D01*
X149827145Y-100230714D01*
X149898573Y-100087857D01*
X149898573Y-99730714D01*
X149827145Y-99587857D01*
X149755716Y-99516429D01*
X149612859Y-99445000D01*
X149327145Y-99445000D01*
X149184287Y-99516429D01*
X149112859Y-99587857D01*
X149041430Y-99730714D01*
D13*
X147041810Y-124030619D02*
X147041810Y-123014619D01*
X147622381Y-124030619D01*
X147622381Y-123014619D01*
X148009429Y-123014619D02*
X148686762Y-124030619D01*
X148686762Y-123014619D02*
X148009429Y-124030619D01*
X148928667Y-123014619D02*
X149509238Y-123014619D01*
X149218953Y-124030619D02*
X149218953Y-123014619D01*
X149606000Y-124127381D02*
X150380095Y-124127381D01*
X150622000Y-124030619D02*
X150622000Y-123014619D01*
X150960666Y-123740333D01*
X151299333Y-123014619D01*
X151299333Y-124030619D01*
X151976667Y-123014619D02*
X152170190Y-123014619D01*
X152266952Y-123063000D01*
X152363714Y-123159762D01*
X152412095Y-123353286D01*
X152412095Y-123691952D01*
X152363714Y-123885476D01*
X152266952Y-123982238D01*
X152170190Y-124030619D01*
X151976667Y-124030619D01*
X151879905Y-123982238D01*
X151783143Y-123885476D01*
X151734762Y-123691952D01*
X151734762Y-123353286D01*
X151783143Y-123159762D01*
X151879905Y-123063000D01*
X151976667Y-123014619D01*
X152702381Y-123014619D02*
X153282952Y-123014619D01*
X152992667Y-124030619D02*
X152992667Y-123014619D01*
X153815143Y-123014619D02*
X154008666Y-123014619D01*
X154105428Y-123063000D01*
X154202190Y-123159762D01*
X154250571Y-123353286D01*
X154250571Y-123691952D01*
X154202190Y-123885476D01*
X154105428Y-123982238D01*
X154008666Y-124030619D01*
X153815143Y-124030619D01*
X153718381Y-123982238D01*
X153621619Y-123885476D01*
X153573238Y-123691952D01*
X153573238Y-123353286D01*
X153621619Y-123159762D01*
X153718381Y-123063000D01*
X153815143Y-123014619D01*
X155266571Y-124030619D02*
X154927905Y-123546810D01*
X154686000Y-124030619D02*
X154686000Y-123014619D01*
X155073047Y-123014619D01*
X155169809Y-123063000D01*
X155218190Y-123111381D01*
X155266571Y-123208143D01*
X155266571Y-123353286D01*
X155218190Y-123450048D01*
X155169809Y-123498429D01*
X155073047Y-123546810D01*
X154686000Y-123546810D01*
D11*
X128674762Y-123888333D02*
X128722381Y-123745476D01*
X128722381Y-123507380D01*
X128674762Y-123412142D01*
X128627143Y-123364523D01*
X128531905Y-123316904D01*
X128436667Y-123316904D01*
X128341429Y-123364523D01*
X128293810Y-123412142D01*
X128246190Y-123507380D01*
X128198571Y-123697857D01*
X128150952Y-123793095D01*
X128103333Y-123840714D01*
X128008095Y-123888333D01*
X127912857Y-123888333D01*
X127817619Y-123840714D01*
X127770000Y-123793095D01*
X127722381Y-123697857D01*
X127722381Y-123459761D01*
X127770000Y-123316904D01*
X127722381Y-122983571D02*
X128722381Y-122745476D01*
X128008095Y-122554999D01*
X128722381Y-122364523D01*
X127722381Y-122126428D01*
X128722381Y-121221666D02*
X128722381Y-121793095D01*
X128722381Y-121507381D02*
X127722381Y-121507381D01*
X127865238Y-121602619D01*
X127960476Y-121697857D01*
X128008095Y-121793095D01*
D16*
X116497706Y-105227892D02*
X116497706Y-104226762D01*
X117546510Y-105132546D02*
X117498837Y-105180219D01*
X117355818Y-105227892D01*
X117260472Y-105227892D01*
X117117454Y-105180219D01*
X117022108Y-105084874D01*
X116974435Y-104989528D01*
X116926762Y-104798836D01*
X116926762Y-104655818D01*
X116974435Y-104465126D01*
X117022108Y-104369781D01*
X117117454Y-104274435D01*
X117260472Y-104226762D01*
X117355818Y-104226762D01*
X117498837Y-104274435D01*
X117546510Y-104322108D01*
X118499967Y-105227892D02*
X117927892Y-105227892D01*
X118213930Y-105227892D02*
X118213930Y-104226762D01*
X118118584Y-104369781D01*
X118023238Y-104465126D01*
X117927892Y-104512799D01*
X117928087Y-100046574D02*
X117928087Y-100523507D01*
X116926527Y-100523507D01*
X117021913Y-99760414D02*
X116974220Y-99712720D01*
X116926527Y-99617334D01*
X116926527Y-99378867D01*
X116974220Y-99283480D01*
X117021913Y-99235787D01*
X117117300Y-99188094D01*
X117212687Y-99188094D01*
X117355767Y-99235787D01*
X117928087Y-99808107D01*
X117928087Y-99188094D01*
X117928087Y-98711160D02*
X117928087Y-98520387D01*
X117880393Y-98425000D01*
X117832700Y-98377307D01*
X117689620Y-98281920D01*
X117498847Y-98234227D01*
X117117300Y-98234227D01*
X117021913Y-98281920D01*
X116974220Y-98329613D01*
X116926527Y-98425000D01*
X116926527Y-98615773D01*
X116974220Y-98711160D01*
X117021913Y-98758853D01*
X117117300Y-98806547D01*
X117355767Y-98806547D01*
X117451153Y-98758853D01*
X117498847Y-98711160D01*
X117546540Y-98615773D01*
X117546540Y-98425000D01*
X117498847Y-98329613D01*
X117451153Y-98281920D01*
X117355767Y-98234227D01*
X116926527Y-97900373D02*
X116926527Y-97280360D01*
X117308073Y-97614213D01*
X117308073Y-97471133D01*
X117355767Y-97375746D01*
X117403460Y-97328053D01*
X117498847Y-97280360D01*
X117737313Y-97280360D01*
X117832700Y-97328053D01*
X117880393Y-97375746D01*
X117928087Y-97471133D01*
X117928087Y-97757293D01*
X117880393Y-97852680D01*
X117832700Y-97900373D01*
X117928087Y-96851119D02*
X116926527Y-96851119D01*
X116926527Y-96612653D01*
X116974220Y-96469573D01*
X117069607Y-96374186D01*
X117164993Y-96326493D01*
X117355767Y-96278799D01*
X117498847Y-96278799D01*
X117689620Y-96326493D01*
X117785007Y-96374186D01*
X117880393Y-96469573D01*
X117928087Y-96612653D01*
X117928087Y-96851119D01*
D13*
X114656810Y-124030619D02*
X114656810Y-123014619D01*
X115237381Y-124030619D01*
X115237381Y-123014619D01*
X115624429Y-123014619D02*
X116301762Y-124030619D01*
X116301762Y-123014619D02*
X115624429Y-124030619D01*
X116543667Y-123014619D02*
X117124238Y-123014619D01*
X116833953Y-124030619D02*
X116833953Y-123014619D01*
X117221000Y-124127381D02*
X117995095Y-124127381D01*
X118237000Y-124030619D02*
X118237000Y-123014619D01*
X118575666Y-123740333D01*
X118914333Y-123014619D01*
X118914333Y-124030619D01*
X119591667Y-123014619D02*
X119785190Y-123014619D01*
X119881952Y-123063000D01*
X119978714Y-123159762D01*
X120027095Y-123353286D01*
X120027095Y-123691952D01*
X119978714Y-123885476D01*
X119881952Y-123982238D01*
X119785190Y-124030619D01*
X119591667Y-124030619D01*
X119494905Y-123982238D01*
X119398143Y-123885476D01*
X119349762Y-123691952D01*
X119349762Y-123353286D01*
X119398143Y-123159762D01*
X119494905Y-123063000D01*
X119591667Y-123014619D01*
X120317381Y-123014619D02*
X120897952Y-123014619D01*
X120607667Y-124030619D02*
X120607667Y-123014619D01*
X121430143Y-123014619D02*
X121623666Y-123014619D01*
X121720428Y-123063000D01*
X121817190Y-123159762D01*
X121865571Y-123353286D01*
X121865571Y-123691952D01*
X121817190Y-123885476D01*
X121720428Y-123982238D01*
X121623666Y-124030619D01*
X121430143Y-124030619D01*
X121333381Y-123982238D01*
X121236619Y-123885476D01*
X121188238Y-123691952D01*
X121188238Y-123353286D01*
X121236619Y-123159762D01*
X121333381Y-123063000D01*
X121430143Y-123014619D01*
X122881571Y-124030619D02*
X122542905Y-123546810D01*
X122301000Y-124030619D02*
X122301000Y-123014619D01*
X122688047Y-123014619D01*
X122784809Y-123063000D01*
X122833190Y-123111381D01*
X122881571Y-123208143D01*
X122881571Y-123353286D01*
X122833190Y-123450048D01*
X122784809Y-123498429D01*
X122688047Y-123546810D01*
X122301000Y-123546810D01*
D11*
X126198334Y-87352143D02*
X126150715Y-87399762D01*
X126007858Y-87447381D01*
X125912620Y-87447381D01*
X125769762Y-87399762D01*
X125674524Y-87304524D01*
X125626905Y-87209286D01*
X125579286Y-87018810D01*
X125579286Y-86875952D01*
X125626905Y-86685476D01*
X125674524Y-86590238D01*
X125769762Y-86495000D01*
X125912620Y-86447381D01*
X126007858Y-86447381D01*
X126150715Y-86495000D01*
X126198334Y-86542619D01*
X127150715Y-87447381D02*
X126579286Y-87447381D01*
X126865000Y-87447381D02*
X126865000Y-86447381D01*
X126769762Y-86590238D01*
X126674524Y-86685476D01*
X126579286Y-86733095D01*
X149058334Y-109037381D02*
X148725000Y-108561190D01*
X148486905Y-109037381D02*
X148486905Y-108037381D01*
X148867858Y-108037381D01*
X148963096Y-108085000D01*
X149010715Y-108132619D01*
X149058334Y-108227857D01*
X149058334Y-108370714D01*
X149010715Y-108465952D01*
X148963096Y-108513571D01*
X148867858Y-108561190D01*
X148486905Y-108561190D01*
X150010715Y-109037381D02*
X149439286Y-109037381D01*
X149725000Y-109037381D02*
X149725000Y-108037381D01*
X149629762Y-108180238D01*
X149534524Y-108275476D01*
X149439286Y-108323095D01*
X139533334Y-109037381D02*
X139200000Y-108561190D01*
X138961905Y-109037381D02*
X138961905Y-108037381D01*
X139342858Y-108037381D01*
X139438096Y-108085000D01*
X139485715Y-108132619D01*
X139533334Y-108227857D01*
X139533334Y-108370714D01*
X139485715Y-108465952D01*
X139438096Y-108513571D01*
X139342858Y-108561190D01*
X138961905Y-108561190D01*
X139914286Y-108132619D02*
X139961905Y-108085000D01*
X140057143Y-108037381D01*
X140295239Y-108037381D01*
X140390477Y-108085000D01*
X140438096Y-108132619D01*
X140485715Y-108227857D01*
X140485715Y-108323095D01*
X140438096Y-108465952D01*
X139866667Y-109037381D01*
X140485715Y-109037381D01*
X135977381Y-89026905D02*
X136786905Y-89026905D01*
X136882143Y-88979286D01*
X136929762Y-88931667D01*
X136977381Y-88836429D01*
X136977381Y-88645952D01*
X136929762Y-88550714D01*
X136882143Y-88503095D01*
X136786905Y-88455476D01*
X135977381Y-88455476D01*
X136977381Y-87455476D02*
X136977381Y-88026905D01*
X136977381Y-87741191D02*
X135977381Y-87741191D01*
X136120238Y-87836429D01*
X136215476Y-87931667D01*
X136263095Y-88026905D01*
X116689286Y-84383571D02*
X116832143Y-84431190D01*
X116879762Y-84478810D01*
X116927381Y-84574048D01*
X116927381Y-84716905D01*
X116879762Y-84812143D01*
X116832143Y-84859762D01*
X116736905Y-84907381D01*
X116355952Y-84907381D01*
X116355952Y-83907381D01*
X116689286Y-83907381D01*
X116784524Y-83955000D01*
X116832143Y-84002619D01*
X116879762Y-84097857D01*
X116879762Y-84193095D01*
X116832143Y-84288333D01*
X116784524Y-84335952D01*
X116689286Y-84383571D01*
X116355952Y-84383571D01*
X117213095Y-83907381D02*
X117784524Y-83907381D01*
X117498809Y-84907381D02*
X117498809Y-83907381D01*
X118641667Y-84907381D02*
X118070238Y-84907381D01*
X118355952Y-84907381D02*
X118355952Y-83907381D01*
X118260714Y-84050238D01*
X118165476Y-84145476D01*
X118070238Y-84193095D01*
X144748334Y-79192381D02*
X144415000Y-78716190D01*
X144176905Y-79192381D02*
X144176905Y-78192381D01*
X144557858Y-78192381D01*
X144653096Y-78240000D01*
X144700715Y-78287619D01*
X144748334Y-78382857D01*
X144748334Y-78525714D01*
X144700715Y-78620952D01*
X144653096Y-78668571D01*
X144557858Y-78716190D01*
X144176905Y-78716190D01*
X145748334Y-79097143D02*
X145700715Y-79144762D01*
X145557858Y-79192381D01*
X145462620Y-79192381D01*
X145319762Y-79144762D01*
X145224524Y-79049524D01*
X145176905Y-78954286D01*
X145129286Y-78763810D01*
X145129286Y-78620952D01*
X145176905Y-78430476D01*
X145224524Y-78335238D01*
X145319762Y-78240000D01*
X145462620Y-78192381D01*
X145557858Y-78192381D01*
X145700715Y-78240000D01*
X145748334Y-78287619D01*
X146700715Y-79192381D02*
X146129286Y-79192381D01*
X146415000Y-79192381D02*
X146415000Y-78192381D01*
X146319762Y-78335238D01*
X146224524Y-78430476D01*
X146129286Y-78478095D01*
X141438334Y-79732143D02*
X141390715Y-79779762D01*
X141247858Y-79827381D01*
X141152620Y-79827381D01*
X141009762Y-79779762D01*
X140914524Y-79684524D01*
X140866905Y-79589286D01*
X140819286Y-79398810D01*
X140819286Y-79255952D01*
X140866905Y-79065476D01*
X140914524Y-78970238D01*
X141009762Y-78875000D01*
X141152620Y-78827381D01*
X141247858Y-78827381D01*
X141390715Y-78875000D01*
X141438334Y-78922619D01*
X141819286Y-78922619D02*
X141866905Y-78875000D01*
X141962143Y-78827381D01*
X142200239Y-78827381D01*
X142295477Y-78875000D01*
X142343096Y-78922619D01*
X142390715Y-79017857D01*
X142390715Y-79113095D01*
X142343096Y-79255952D01*
X141771667Y-79827381D01*
X142390715Y-79827381D01*
X152937143Y-86546666D02*
X152984762Y-86594285D01*
X153032381Y-86737142D01*
X153032381Y-86832380D01*
X152984762Y-86975238D01*
X152889524Y-87070476D01*
X152794286Y-87118095D01*
X152603810Y-87165714D01*
X152460952Y-87165714D01*
X152270476Y-87118095D01*
X152175238Y-87070476D01*
X152080000Y-86975238D01*
X152032381Y-86832380D01*
X152032381Y-86737142D01*
X152080000Y-86594285D01*
X152127619Y-86546666D01*
X152032381Y-86213333D02*
X152032381Y-85594285D01*
X152413333Y-85927619D01*
X152413333Y-85784761D01*
X152460952Y-85689523D01*
X152508571Y-85641904D01*
X152603810Y-85594285D01*
X152841905Y-85594285D01*
X152937143Y-85641904D01*
X152984762Y-85689523D01*
X153032381Y-85784761D01*
X153032381Y-86070476D01*
X152984762Y-86165714D01*
X152937143Y-86213333D01*
X144597381Y-112355238D02*
X144121190Y-112688572D01*
X144597381Y-112926667D02*
X143597381Y-112926667D01*
X143597381Y-112545714D01*
X143645000Y-112450476D01*
X143692619Y-112402857D01*
X143787857Y-112355238D01*
X143930714Y-112355238D01*
X144025952Y-112402857D01*
X144073571Y-112450476D01*
X144121190Y-112545714D01*
X144121190Y-112926667D01*
X143597381Y-112069524D02*
X144597381Y-111736191D01*
X143597381Y-111402857D01*
X144597381Y-110545714D02*
X144597381Y-111117143D01*
X144597381Y-110831429D02*
X143597381Y-110831429D01*
X143740238Y-110926667D01*
X143835476Y-111021905D01*
X143883095Y-111117143D01*
X130008334Y-109037381D02*
X129675000Y-108561190D01*
X129436905Y-109037381D02*
X129436905Y-108037381D01*
X129817858Y-108037381D01*
X129913096Y-108085000D01*
X129960715Y-108132619D01*
X130008334Y-108227857D01*
X130008334Y-108370714D01*
X129960715Y-108465952D01*
X129913096Y-108513571D01*
X129817858Y-108561190D01*
X129436905Y-108561190D01*
X130341667Y-108037381D02*
X130960715Y-108037381D01*
X130627381Y-108418333D01*
X130770239Y-108418333D01*
X130865477Y-108465952D01*
X130913096Y-108513571D01*
X130960715Y-108608810D01*
X130960715Y-108846905D01*
X130913096Y-108942143D01*
X130865477Y-108989762D01*
X130770239Y-109037381D01*
X130484524Y-109037381D01*
X130389286Y-108989762D01*
X130341667Y-108942143D01*
X126134762Y-113728333D02*
X126182381Y-113585476D01*
X126182381Y-113347380D01*
X126134762Y-113252142D01*
X126087143Y-113204523D01*
X125991905Y-113156904D01*
X125896667Y-113156904D01*
X125801429Y-113204523D01*
X125753810Y-113252142D01*
X125706190Y-113347380D01*
X125658571Y-113537857D01*
X125610952Y-113633095D01*
X125563333Y-113680714D01*
X125468095Y-113728333D01*
X125372857Y-113728333D01*
X125277619Y-113680714D01*
X125230000Y-113633095D01*
X125182381Y-113537857D01*
X125182381Y-113299761D01*
X125230000Y-113156904D01*
X125182381Y-112823571D02*
X126182381Y-112585476D01*
X125468095Y-112394999D01*
X126182381Y-112204523D01*
X125182381Y-111966428D01*
X125277619Y-111633095D02*
X125230000Y-111585476D01*
X125182381Y-111490238D01*
X125182381Y-111252142D01*
X125230000Y-111156904D01*
X125277619Y-111109285D01*
X125372857Y-111061666D01*
X125468095Y-111061666D01*
X125610952Y-111109285D01*
X126182381Y-111680714D01*
X126182381Y-111061666D01*
M02*
