M48
;DRILL file {KiCad 4.0.2-stable} date 3/22/2018 3:04:20 PM
;FORMAT={-:-/ absolute / inch / decimal}
FMAT,2
INCH,TZ
T1C0.016
T2C0.024
T3C0.028
T4C0.028
T5C0.030
T6C0.031
T7C0.032
T8C0.035
T9C0.039
T10C0.043
T11C0.045
T12C0.095
T13C0.102
%
G90
G05
M72
T1
X5.4245Y-4.1252
X5.6014Y-4.116
T2
X5.395Y-3.69
X5.495Y-3.69
X5.805Y-3.69
X5.905Y-3.69
T3
X4.975Y-4.275
X5.275Y-4.275
X5.35Y-4.275
X5.65Y-4.275
X5.725Y-4.275
X6.025Y-4.275
T4
X4.5662Y-4.7442
X4.6102Y-4.6471
X4.6518Y-4.7429
X4.6962Y-4.6461
X4.7373Y-4.7428
X4.7814Y-4.6435
X5.8412Y-4.7442
X5.8852Y-4.6471
X5.9268Y-4.7429
X5.9712Y-4.6461
X6.0123Y-4.7428
X6.0564Y-4.6435
T5
X5.05Y-3.575
X5.05Y-4.175
X5.15Y-3.575
X5.15Y-4.175
X5.25Y-3.575
X5.25Y-4.175
X5.35Y-3.575
X5.35Y-4.175
X5.45Y-3.575
X5.45Y-4.175
X5.55Y-3.575
X5.55Y-4.175
X5.65Y-3.575
X5.65Y-4.175
X5.75Y-3.575
X5.75Y-4.175
X5.85Y-3.575
X5.85Y-4.175
X5.95Y-3.575
X5.95Y-4.175
X6.05Y-3.575
X6.05Y-4.175
X6.15Y-3.575
X6.15Y-4.175
T6
X5.11Y-3.405
X5.2084Y-3.405
X5.85Y-3.3516
X5.85Y-3.45
X6.1Y-3.3516
X6.1Y-3.45
T7
X4.475Y-3.525
X4.475Y-3.625
X4.475Y-3.725
X4.475Y-3.825
X4.475Y-3.925
X4.475Y-4.025
X4.475Y-4.125
X4.475Y-4.225
X4.775Y-3.525
X4.775Y-3.625
X4.775Y-3.725
X4.775Y-3.825
X4.775Y-3.925
X4.775Y-4.025
X4.775Y-4.125
X4.775Y-4.225
T8
X4.91Y-3.47
X4.91Y-3.87
X5.4031Y-4.6
X5.5016Y-4.4031
X5.6Y-4.6
T9
X4.4856Y-3.236
X4.6824Y-3.236
X4.9539Y-3.17
X5.072Y-3.17
X5.1679Y-4.804
X5.1901Y-3.17
X5.286Y-4.804
X5.4041Y-4.804
X5.825Y-3.155
X5.925Y-3.155
X6.025Y-3.155
X6.125Y-3.155
T10
X5.025Y-4.425
X5.025Y-4.6022
X5.2809Y-4.425
X5.2809Y-4.6022
T11
X5.505Y-3.18
X5.505Y-3.28
X5.505Y-3.38
T12
X4.4355Y-4.5535
X4.9105Y-4.5535
X5.7105Y-4.5535
X6.1855Y-4.5535
T13
X4.8417Y-3.17
X5.0557Y-4.804
X5.3023Y-3.17
X5.5163Y-4.804
T0
M30
