G04 #@! TF.FileFunction,Copper,L2,Bot,Signal*
%FSLAX46Y46*%
G04 Gerber Fmt 4.6, Leading zero omitted, Abs format (unit mm)*
G04 Created by KiCad (PCBNEW 4.0.2-stable) date 3/22/2018 3:04:23 PM*
%MOMM*%
G01*
G04 APERTURE LIST*
%ADD10C,0.100000*%
%ADD11C,1.524000*%
%ADD12C,1.500000*%
%ADD13C,2.413000*%
%ADD14C,1.270000*%
%ADD15O,1.270000X2.286000*%
%ADD16O,2.641600X1.320800*%
%ADD17R,1.600000X1.600000*%
%ADD18C,1.600000*%
%ADD19C,1.400000*%
%ADD20O,1.400000X1.400000*%
%ADD21O,2.540000X2.032000*%
%ADD22R,1.700000X1.700000*%
%ADD23O,1.700000X1.700000*%
%ADD24C,1.620000*%
%ADD25C,2.000000*%
%ADD26R,1.800000X1.800000*%
%ADD27O,1.800000X1.800000*%
%ADD28C,1.762000*%
%ADD29C,2.600000*%
%ADD30C,0.600000*%
%ADD31C,0.250000*%
G04 APERTURE END LIST*
D10*
D11*
X128270000Y-106045000D03*
X130810000Y-106045000D03*
X133350000Y-106045000D03*
X135890000Y-106045000D03*
X138430000Y-106045000D03*
X140970000Y-106045000D03*
X143510000Y-106045000D03*
X146050000Y-106045000D03*
X148590000Y-106045000D03*
X151130000Y-106045000D03*
X153670000Y-106045000D03*
X156210000Y-106045000D03*
X128270000Y-90805000D03*
X130810000Y-90805000D03*
X133350000Y-90805000D03*
X135890000Y-90805000D03*
X138430000Y-90805000D03*
X140970000Y-90805000D03*
X143510000Y-90805000D03*
X146050000Y-90805000D03*
X148590000Y-90805000D03*
X151130000Y-90805000D03*
X153670000Y-90805000D03*
X156210000Y-90805000D03*
D12*
X137033000Y-93726000D03*
X139573000Y-93726000D03*
X147447000Y-93726000D03*
X149987000Y-93726000D03*
D13*
X145046700Y-115658900D03*
D14*
X147648060Y-121221100D02*
X148366480Y-120502680D01*
X149484080Y-118036340D02*
X148765660Y-117317920D01*
D15*
X150540720Y-120977660D03*
X151668480Y-117502940D03*
D14*
X153430840Y-121185540D02*
X152712420Y-120467120D01*
X153832560Y-117944900D02*
X154550980Y-117226480D01*
D13*
X157111700Y-115658900D03*
D16*
X121285000Y-107315000D03*
X121285000Y-104775000D03*
X121285000Y-92075000D03*
X121285000Y-89535000D03*
X121285000Y-102235000D03*
X121285000Y-99695000D03*
X121285000Y-94615000D03*
X121285000Y-97155000D03*
X113665000Y-89535000D03*
X113665000Y-92075000D03*
X113665000Y-94615000D03*
X113665000Y-97155000D03*
X113665000Y-99695000D03*
X113665000Y-102235000D03*
X113665000Y-104775000D03*
X113665000Y-107315000D03*
D13*
X112661700Y-115658900D03*
D14*
X115263060Y-121221100D02*
X115981480Y-120502680D01*
X117099080Y-118036340D02*
X116380660Y-117317920D01*
D15*
X118155720Y-120977660D03*
X119283480Y-117502940D03*
D14*
X121045840Y-121185540D02*
X120327420Y-120467120D01*
X121447560Y-117944900D02*
X122165980Y-117226480D01*
D13*
X124726700Y-115658900D03*
D17*
X129794000Y-86487000D03*
D18*
X132294000Y-86487000D03*
D19*
X145415000Y-108585000D03*
D20*
X153035000Y-108585000D03*
D19*
X143510000Y-108585000D03*
D20*
X135890000Y-108585000D03*
D21*
X139827000Y-83312000D03*
X139827000Y-85852000D03*
X139827000Y-80772000D03*
D22*
X147955000Y-80137000D03*
D23*
X150495000Y-80137000D03*
X153035000Y-80137000D03*
X155575000Y-80137000D03*
D17*
X148590000Y-87630000D03*
D18*
X148590000Y-85130000D03*
X154940000Y-87630000D03*
X154940000Y-85130000D03*
D24*
X137240000Y-116840000D03*
X139740000Y-111840000D03*
X142240000Y-116840000D03*
D19*
X126365000Y-108585000D03*
D20*
X133985000Y-108585000D03*
D25*
X127635000Y-116895000D03*
X127635000Y-112395000D03*
X134135000Y-116895000D03*
X134135000Y-112395000D03*
D26*
X124714000Y-98298000D03*
D27*
X124714000Y-88138000D03*
D28*
X113934000Y-82194400D03*
X118934000Y-82194400D03*
X134264000Y-122022000D03*
X131264000Y-122022000D03*
X137264000Y-122022000D03*
D29*
X140114000Y-122022000D03*
X128414000Y-122022000D03*
D28*
X128829000Y-80518000D03*
X125829000Y-80518000D03*
X131829000Y-80518000D03*
D29*
X134679000Y-80518000D03*
X122979000Y-80518000D03*
D30*
X142276600Y-104546600D03*
X137782400Y-104780500D03*
D31*
X145024700Y-107559700D02*
X143510000Y-106045000D01*
X150984400Y-107559700D02*
X145024700Y-107559700D01*
X152009700Y-108585000D02*
X150984400Y-107559700D01*
X153035000Y-108585000D02*
X152009700Y-108585000D01*
X139445100Y-110109900D02*
X143510000Y-106045000D01*
X124079900Y-110109900D02*
X139445100Y-110109900D01*
X121285000Y-107315000D02*
X124079900Y-110109900D01*
X144903700Y-104898700D02*
X146050000Y-106045000D01*
X142960900Y-104898700D02*
X144903700Y-104898700D01*
X142678700Y-105180900D02*
X142960900Y-104898700D01*
X141945200Y-105180900D02*
X142678700Y-105180900D01*
X140909300Y-104145000D02*
X141945200Y-105180900D01*
X123561100Y-104145000D02*
X140909300Y-104145000D01*
X122931100Y-104775000D02*
X123561100Y-104145000D01*
X121285000Y-104775000D02*
X122931100Y-104775000D01*
X137346400Y-94801400D02*
X148590000Y-106045000D01*
X124011400Y-94801400D02*
X137346400Y-94801400D01*
X121285000Y-92075000D02*
X124011400Y-94801400D01*
X130919300Y-86205600D02*
X130919300Y-86487000D01*
X131763200Y-85361700D02*
X130919300Y-86205600D01*
X133642000Y-85361700D02*
X131763200Y-85361700D01*
X138231700Y-80772000D02*
X133642000Y-85361700D01*
X139827000Y-80772000D02*
X138231700Y-80772000D01*
X129794000Y-86487000D02*
X130919300Y-86487000D01*
X154940000Y-85130000D02*
X148590000Y-85130000D01*
X150540700Y-120469700D02*
X150540700Y-119509400D01*
X139776600Y-119376600D02*
X137240000Y-116840000D01*
X139776600Y-119509400D02*
X139776600Y-119376600D01*
X150540700Y-119509400D02*
X139776600Y-119509400D01*
X139776600Y-119509400D02*
X137264000Y-122022000D01*
X127390400Y-109610400D02*
X126365000Y-108585000D01*
X134864600Y-109610400D02*
X127390400Y-109610400D01*
X135890000Y-108585000D02*
X134864600Y-109610400D01*
X119618100Y-101361900D02*
X121285000Y-99695000D01*
X119618100Y-105180500D02*
X119618100Y-101361900D01*
X120482600Y-106045000D02*
X119618100Y-105180500D01*
X123825000Y-106045000D02*
X120482600Y-106045000D01*
X126365000Y-108585000D02*
X123825000Y-106045000D01*
X136652000Y-86487000D02*
X139827000Y-83312000D01*
X132294000Y-86487000D02*
X136652000Y-86487000D01*
X133193100Y-95463100D02*
X142276600Y-104546600D01*
X123779200Y-95463100D02*
X133193100Y-95463100D01*
X122931100Y-94615000D02*
X123779200Y-95463100D01*
X121285000Y-94615000D02*
X122931100Y-94615000D01*
X156210000Y-106869200D02*
X156210000Y-106045000D01*
X153456900Y-109622300D02*
X156210000Y-106869200D01*
X144547300Y-109622300D02*
X153456900Y-109622300D01*
X143510000Y-108585000D02*
X144547300Y-109622300D01*
X141521400Y-110573600D02*
X143510000Y-108585000D01*
X119517900Y-110573600D02*
X141521400Y-110573600D01*
X114989300Y-106045000D02*
X119517900Y-110573600D01*
X112807900Y-106045000D02*
X114989300Y-106045000D01*
X112018800Y-105255900D02*
X112807900Y-106045000D01*
X112018800Y-91181200D02*
X112018800Y-105255900D01*
X113665000Y-89535000D02*
X112018800Y-91181200D01*
X154626900Y-89221900D02*
X156210000Y-90805000D01*
X130829200Y-89221900D02*
X154626900Y-89221900D01*
X129540000Y-90511100D02*
X130829200Y-89221900D01*
X129540000Y-91076300D02*
X129540000Y-90511100D01*
X128680600Y-91935700D02*
X129540000Y-91076300D01*
X126933800Y-91935700D02*
X128680600Y-91935700D01*
X125607200Y-90609100D02*
X126933800Y-91935700D01*
X115130900Y-90609100D02*
X125607200Y-90609100D01*
X113665000Y-92075000D02*
X115130900Y-90609100D01*
X152537300Y-89672300D02*
X153670000Y-90805000D01*
X132892600Y-89672300D02*
X152537300Y-89672300D01*
X132080000Y-90484900D02*
X132892600Y-89672300D01*
X132080000Y-91081900D02*
X132080000Y-90484900D01*
X130775800Y-92386100D02*
X132080000Y-91081900D01*
X126191900Y-92386100D02*
X130775800Y-92386100D01*
X124865300Y-91059500D02*
X126191900Y-92386100D01*
X120221900Y-91059500D02*
X124865300Y-91059500D01*
X118379200Y-92902200D02*
X120221900Y-91059500D01*
X118379200Y-100060800D02*
X118379200Y-92902200D01*
X113665000Y-104775000D02*
X118379200Y-100060800D01*
X157796200Y-97471200D02*
X151130000Y-90805000D01*
X157796200Y-106668200D02*
X157796200Y-97471200D01*
X150702300Y-113762100D02*
X157796200Y-106668200D01*
X137923900Y-113762100D02*
X150702300Y-113762100D01*
X137473600Y-114212400D02*
X137923900Y-113762100D01*
X128368900Y-114212400D02*
X137473600Y-114212400D01*
X122114200Y-120467100D02*
X128368900Y-114212400D01*
X120327400Y-120467100D02*
X122114200Y-120467100D01*
X148590000Y-96652100D02*
X148590000Y-90805000D01*
X157345900Y-105408000D02*
X148590000Y-96652100D01*
X157345900Y-106481600D02*
X157345900Y-105408000D01*
X153508400Y-110319100D02*
X157345900Y-106481600D01*
X143859100Y-110319100D02*
X153508400Y-110319100D01*
X140875400Y-113302800D02*
X143859100Y-110319100D01*
X137521000Y-113302800D02*
X140875400Y-113302800D01*
X137061700Y-113762100D02*
X137521000Y-113302800D01*
X124442900Y-113762100D02*
X137061700Y-113762100D01*
X122845000Y-115360000D02*
X124442900Y-113762100D01*
X122845000Y-116547400D02*
X122845000Y-115360000D01*
X122845100Y-116547400D02*
X122845000Y-116547400D01*
X121447600Y-117944900D02*
X122845100Y-116547400D01*
X151668500Y-118010900D02*
X151668500Y-118971200D01*
X141095600Y-115695600D02*
X142240000Y-116840000D01*
X135334400Y-115695600D02*
X141095600Y-115695600D01*
X134135000Y-116895000D02*
X135334400Y-115695600D01*
X144404400Y-119004400D02*
X142240000Y-116840000D01*
X151635300Y-119004400D02*
X144404400Y-119004400D01*
X151668500Y-118971200D02*
X151635300Y-119004400D01*
X119283500Y-112933500D02*
X113665000Y-107315000D01*
X119283500Y-118010900D02*
X119283500Y-112933500D01*
X131264000Y-122022000D02*
X131264000Y-116895000D01*
X134135000Y-116895000D02*
X131264000Y-116895000D01*
X131264000Y-116895000D02*
X127635000Y-116895000D01*
X119283500Y-120849100D02*
X119283500Y-118010900D01*
X120596100Y-122161700D02*
X119283500Y-120849100D01*
X122368300Y-122161700D02*
X120596100Y-122161700D01*
X127635000Y-116895000D02*
X122368300Y-122161700D01*
X139239900Y-87780400D02*
X139827000Y-87193300D01*
X131294600Y-87780400D02*
X139239900Y-87780400D01*
X128270000Y-90805000D02*
X131294600Y-87780400D01*
X139827000Y-85852000D02*
X139827000Y-87193300D01*
X148590000Y-87630000D02*
X148590000Y-86504700D01*
X147955000Y-80137000D02*
X147955000Y-81312300D01*
X139827000Y-85852000D02*
X141422300Y-85852000D01*
X147464600Y-81802700D02*
X147955000Y-81312300D01*
X147464600Y-85773200D02*
X147464600Y-81802700D01*
X148196100Y-86504700D02*
X147464600Y-85773200D01*
X148590000Y-86504700D02*
X148196100Y-86504700D01*
X141501100Y-85773200D02*
X141422300Y-85852000D01*
X147464600Y-85773200D02*
X141501100Y-85773200D01*
X134135000Y-112395000D02*
X127635000Y-112395000D01*
X136977400Y-105585500D02*
X137782400Y-104780500D01*
X136977400Y-106500000D02*
X136977400Y-105585500D01*
X136118500Y-107358900D02*
X136977400Y-106500000D01*
X135211100Y-107358900D02*
X136118500Y-107358900D01*
X133985000Y-108585000D02*
X135211100Y-107358900D01*
X127152600Y-82194400D02*
X118934000Y-82194400D01*
X128829000Y-80518000D02*
X127152600Y-82194400D01*
M02*
