G04 #@! TF.FileFunction,Copper,L2,Bot,Signal*
%FSLAX46Y46*%
G04 Gerber Fmt 4.6, Leading zero omitted, Abs format (unit mm)*
G04 Created by KiCad (PCBNEW 4.0.2-stable) date 1/9/2018 5:10:49 PM*
%MOMM*%
G01*
G04 APERTURE LIST*
%ADD10C,0.100000*%
%ADD11C,1.524000*%
%ADD12C,1.500000*%
%ADD13C,2.413000*%
%ADD14C,1.270000*%
%ADD15O,1.270000X2.286000*%
%ADD16R,2.500000X1.500000*%
%ADD17O,2.500000X1.500000*%
%ADD18O,3.500000X2.200000*%
%ADD19O,2.641600X1.320800*%
%ADD20C,1.600000*%
%ADD21R,1.600000X1.600000*%
%ADD22C,1.400000*%
%ADD23O,1.400000X1.400000*%
%ADD24O,2.032000X2.540000*%
%ADD25R,3.000000X3.000000*%
%ADD26C,3.000000*%
%ADD27C,1.620000*%
%ADD28R,1.700000X1.700000*%
%ADD29O,1.700000X1.700000*%
%ADD30C,0.250000*%
G04 APERTURE END LIST*
D10*
D11*
X154305000Y-63500000D03*
X154305000Y-66040000D03*
X154305000Y-68580000D03*
X154305000Y-71120000D03*
X154305000Y-73660000D03*
X154305000Y-76200000D03*
X154305000Y-78740000D03*
X154305000Y-81280000D03*
X154305000Y-83820000D03*
X154305000Y-86360000D03*
X154305000Y-88900000D03*
X154305000Y-91440000D03*
X169545000Y-63500000D03*
X169545000Y-66040000D03*
X169545000Y-68580000D03*
X169545000Y-71120000D03*
X169545000Y-73660000D03*
X169545000Y-76200000D03*
X169545000Y-78740000D03*
X169545000Y-81280000D03*
X169545000Y-83820000D03*
X169545000Y-86360000D03*
X169545000Y-88900000D03*
X169545000Y-91440000D03*
D12*
X166624000Y-72263000D03*
X166624000Y-74803000D03*
X166624000Y-82677000D03*
X166624000Y-85217000D03*
D13*
X160921700Y-99783900D03*
D14*
X163523060Y-105346100D02*
X164241480Y-104627680D01*
X165359080Y-102161340D02*
X164640660Y-101442920D01*
D15*
X166415720Y-105102660D03*
X167543480Y-101627940D03*
D14*
X169305840Y-105310540D02*
X168587420Y-104592120D01*
X169707560Y-102069900D02*
X170425980Y-101351480D01*
D13*
X172986700Y-99783900D03*
D16*
X174625000Y-69215000D03*
D17*
X174625000Y-67215000D03*
X174625000Y-65215000D03*
D18*
X174625000Y-71315000D03*
X174625000Y-63115000D03*
D19*
X144145000Y-90170000D03*
X144145000Y-87630000D03*
X144145000Y-74930000D03*
X144145000Y-72390000D03*
X144145000Y-85090000D03*
X144145000Y-82550000D03*
X144145000Y-77470000D03*
X144145000Y-80010000D03*
X136525000Y-72390000D03*
X136525000Y-74930000D03*
X136525000Y-77470000D03*
X136525000Y-80010000D03*
X136525000Y-82550000D03*
X136525000Y-85090000D03*
X136525000Y-87630000D03*
X136525000Y-90170000D03*
D13*
X139331700Y-99783900D03*
D14*
X141933060Y-105346100D02*
X142651480Y-104627680D01*
X143769080Y-102161340D02*
X143050660Y-101442920D01*
D15*
X144825720Y-105102660D03*
X145953480Y-101627940D03*
D14*
X147715840Y-105310540D02*
X146997420Y-104592120D01*
X148117560Y-102069900D02*
X148835980Y-101351480D01*
D13*
X151396700Y-99783900D03*
D20*
X147320000Y-82550000D03*
X149820000Y-82550000D03*
D21*
X149225000Y-64770000D03*
D20*
X149225000Y-67270000D03*
D21*
X147955000Y-88900000D03*
D20*
X150455000Y-88900000D03*
D22*
X151130000Y-71755000D03*
D23*
X151130000Y-79375000D03*
D22*
X147320000Y-71755000D03*
D23*
X147320000Y-79375000D03*
D24*
X140335000Y-66675000D03*
X137795000Y-66675000D03*
X142875000Y-66675000D03*
D25*
X146050000Y-58420000D03*
D26*
X140970000Y-58420000D03*
D27*
X177800000Y-79930000D03*
X172800000Y-77430000D03*
X177800000Y-74930000D03*
X177800000Y-89455000D03*
X172800000Y-86955000D03*
X177800000Y-84455000D03*
D28*
X168275000Y-57785000D03*
D29*
X165735000Y-57785000D03*
X163195000Y-57785000D03*
X160655000Y-57785000D03*
D30*
X153670000Y-79375000D02*
X154305000Y-78740000D01*
X151130000Y-79375000D02*
X153670000Y-79375000D01*
X142488800Y-88513800D02*
X144145000Y-90170000D01*
X142488800Y-87167000D02*
X142488800Y-88513800D01*
X143295800Y-86360000D02*
X142488800Y-87167000D01*
X147613800Y-86360000D02*
X143295800Y-86360000D01*
X151130000Y-82843800D02*
X147613800Y-86360000D01*
X151130000Y-79375000D02*
X151130000Y-82843800D01*
X146199600Y-87221500D02*
X145791100Y-87630000D01*
X148363500Y-87221500D02*
X146199600Y-87221500D01*
X154305000Y-81280000D02*
X148363500Y-87221500D01*
X144145000Y-87630000D02*
X145791100Y-87630000D01*
X168275000Y-64770000D02*
X169545000Y-63500000D01*
X149225000Y-64770000D02*
X168275000Y-64770000D01*
X147670300Y-80400300D02*
X147320000Y-80400300D01*
X149820000Y-82550000D02*
X147670300Y-80400300D01*
X147320000Y-79375000D02*
X147320000Y-80400300D01*
X174625000Y-65215000D02*
X173162300Y-65215000D01*
X165735000Y-57785000D02*
X165735000Y-58960300D01*
X170657000Y-63000800D02*
X170657000Y-65215000D01*
X166616500Y-58960300D02*
X170657000Y-63000800D01*
X165735000Y-58960300D02*
X166616500Y-58960300D01*
X173162300Y-65215000D02*
X170657000Y-65215000D01*
X145791100Y-79878600D02*
X146294700Y-79375000D01*
X145791100Y-80010000D02*
X145791100Y-79878600D01*
X147320000Y-79375000D02*
X146294700Y-79375000D01*
X144145000Y-80010000D02*
X145791100Y-80010000D01*
X151765000Y-71076100D02*
X148979500Y-68290600D01*
X151765000Y-71120000D02*
X151765000Y-71076100D01*
X149225000Y-68045100D02*
X148979500Y-68290600D01*
X149225000Y-67270000D02*
X149225000Y-68045100D01*
X141950600Y-68290600D02*
X140335000Y-66675000D01*
X148979500Y-68290600D02*
X141950600Y-68290600D01*
X144825700Y-94529300D02*
X144825700Y-104594700D01*
X150455000Y-88900000D02*
X144825700Y-94529300D01*
X164672200Y-106338200D02*
X166415700Y-104594700D01*
X146569200Y-106338200D02*
X164672200Y-106338200D01*
X144825700Y-104594700D02*
X146569200Y-106338200D01*
X170370000Y-65215000D02*
X169545000Y-66040000D01*
X170657000Y-65215000D02*
X170370000Y-65215000D01*
X164465000Y-71120000D02*
X154305000Y-71120000D01*
X169545000Y-66040000D02*
X164465000Y-71120000D01*
X154305000Y-71120000D02*
X151765000Y-71120000D01*
X147320000Y-79375000D02*
X147320000Y-78349700D01*
X151765000Y-71120000D02*
X151130000Y-71755000D01*
X151130000Y-74539700D02*
X147320000Y-78349700D01*
X151130000Y-71755000D02*
X151130000Y-74539700D01*
X154305000Y-91440000D02*
X153918000Y-91826600D01*
X137512500Y-71402500D02*
X136525000Y-72390000D01*
X146967500Y-71402500D02*
X137512500Y-71402500D01*
X147320000Y-71755000D02*
X146967500Y-71402500D01*
X136525000Y-75565000D02*
X136525000Y-74930000D01*
X136525000Y-75565000D02*
X135890000Y-75565000D01*
X137160000Y-75565000D02*
X136525000Y-75565000D01*
X142651500Y-104627700D02*
X143330500Y-103948700D01*
X141522200Y-102140400D02*
X143330500Y-103948700D01*
X141522200Y-99689200D02*
X141522200Y-102140400D01*
X134873500Y-93040500D02*
X141522200Y-99689200D01*
X134873500Y-79121500D02*
X134873500Y-93040500D01*
X136525000Y-77470000D02*
X134873500Y-79121500D01*
X136525000Y-85725000D02*
X136525000Y-85090000D01*
X136525000Y-85725000D02*
X137160000Y-85725000D01*
X135890000Y-85725000D02*
X136525000Y-85725000D01*
X170674100Y-87770900D02*
X169545000Y-88900000D01*
X170674100Y-85944400D02*
X170674100Y-87770900D01*
X169660300Y-84930600D02*
X170674100Y-85944400D01*
X169117900Y-84930600D02*
X169660300Y-84930600D01*
X168316000Y-84128700D02*
X169117900Y-84930600D01*
X164288700Y-84128700D02*
X168316000Y-84128700D01*
X163327400Y-85090000D02*
X164288700Y-84128700D01*
X152359300Y-85090000D02*
X163327400Y-85090000D01*
X149674700Y-87774600D02*
X152359300Y-85090000D01*
X147002900Y-87774600D02*
X149674700Y-87774600D01*
X145833200Y-88944300D02*
X147002900Y-87774600D01*
X145833200Y-90599800D02*
X145833200Y-88944300D01*
X145263400Y-91169600D02*
X145833200Y-90599800D01*
X140064600Y-91169600D02*
X145263400Y-91169600D01*
X136525000Y-87630000D02*
X140064600Y-91169600D01*
X161944000Y-86360000D02*
X169545000Y-86360000D01*
X146997400Y-101306600D02*
X161944000Y-86360000D01*
X146997400Y-103234100D02*
X146997400Y-101306600D01*
X146318400Y-103913100D02*
X146997400Y-103234100D01*
X146997400Y-104592100D02*
X146318400Y-103913100D01*
X169545000Y-84455000D02*
X169545000Y-84296200D01*
X169545000Y-84296200D02*
X169545000Y-83820000D01*
X149515000Y-100672400D02*
X149515100Y-100672400D01*
X149515000Y-99429400D02*
X149515000Y-100672400D01*
X151464600Y-97479800D02*
X149515000Y-99429400D01*
X161147800Y-97479800D02*
X151464600Y-97479800D01*
X168457600Y-90170000D02*
X161147800Y-97479800D01*
X169845000Y-90170000D02*
X168457600Y-90170000D01*
X171169300Y-88845700D02*
X169845000Y-90170000D01*
X171169300Y-85738600D02*
X171169300Y-88845700D01*
X169726900Y-84296200D02*
X171169300Y-85738600D01*
X169545000Y-84296200D02*
X169726900Y-84296200D01*
X148117600Y-102069900D02*
X149515100Y-100672400D01*
X167543500Y-95930500D02*
X167543500Y-102135900D01*
X177800000Y-85674000D02*
X167543500Y-95930500D01*
X177800000Y-84455000D02*
X177800000Y-85674000D01*
X171450000Y-69215000D02*
X174625000Y-69215000D01*
X169545000Y-71120000D02*
X171450000Y-69215000D01*
X138015100Y-91660100D02*
X136525000Y-90170000D01*
X146320200Y-91660100D02*
X138015100Y-91660100D01*
X147955000Y-90025300D02*
X146320200Y-91660100D01*
X147955000Y-88900000D02*
X147955000Y-90025300D01*
X178951500Y-81081500D02*
X177800000Y-79930000D01*
X178951500Y-88303500D02*
X178951500Y-81081500D01*
X177800000Y-89455000D02*
X178951500Y-88303500D01*
X170855000Y-77430000D02*
X169545000Y-78740000D01*
X172800000Y-77430000D02*
X170855000Y-77430000D01*
M02*
