G04 #@! TF.FileFunction,Legend,Top*
%FSLAX46Y46*%
G04 Gerber Fmt 4.6, Leading zero omitted, Abs format (unit mm)*
G04 Created by KiCad (PCBNEW 4.0.2-stable) date 3/22/2018 3:29:33 PM*
%MOMM*%
G01*
G04 APERTURE LIST*
%ADD10C,0.100000*%
%ADD11C,0.150000*%
%ADD12C,0.250000*%
%ADD13C,0.203200*%
%ADD14C,0.152400*%
%ADD15C,0.120000*%
%ADD16C,0.050000*%
G04 APERTURE END LIST*
D10*
D11*
X124658381Y-108859085D02*
X123658381Y-108859085D01*
X124658381Y-108344800D01*
X123658381Y-108344800D01*
X123658381Y-108001943D02*
X124658381Y-107401943D01*
X123658381Y-107401943D02*
X124658381Y-108001943D01*
X123658381Y-107187657D02*
X123658381Y-106673371D01*
X124658381Y-106930514D02*
X123658381Y-106930514D01*
X124134571Y-105687657D02*
X124134571Y-105387657D01*
X124658381Y-105259086D02*
X124658381Y-105687657D01*
X123658381Y-105687657D01*
X123658381Y-105259086D01*
X124610762Y-104916228D02*
X124658381Y-104787657D01*
X124658381Y-104573371D01*
X124610762Y-104487657D01*
X124563143Y-104444800D01*
X124467905Y-104401943D01*
X124372667Y-104401943D01*
X124277429Y-104444800D01*
X124229810Y-104487657D01*
X124182190Y-104573371D01*
X124134571Y-104744800D01*
X124086952Y-104830514D01*
X124039333Y-104873371D01*
X123944095Y-104916228D01*
X123848857Y-104916228D01*
X123753619Y-104873371D01*
X123706000Y-104830514D01*
X123658381Y-104744800D01*
X123658381Y-104530514D01*
X123706000Y-104401943D01*
X124563143Y-103501943D02*
X124610762Y-103544800D01*
X124658381Y-103673371D01*
X124658381Y-103759085D01*
X124610762Y-103887657D01*
X124515524Y-103973371D01*
X124420286Y-104016228D01*
X124229810Y-104059085D01*
X124086952Y-104059085D01*
X123896476Y-104016228D01*
X123801238Y-103973371D01*
X123706000Y-103887657D01*
X123658381Y-103759085D01*
X123658381Y-103673371D01*
X123706000Y-103544800D01*
X123753619Y-103501943D01*
X123991714Y-102516229D02*
X124658381Y-102301943D01*
X123991714Y-102087657D01*
X123658381Y-101573372D02*
X123658381Y-101487657D01*
X123706000Y-101401943D01*
X123753619Y-101359086D01*
X123848857Y-101316229D01*
X124039333Y-101273372D01*
X124277429Y-101273372D01*
X124467905Y-101316229D01*
X124563143Y-101359086D01*
X124610762Y-101401943D01*
X124658381Y-101487657D01*
X124658381Y-101573372D01*
X124610762Y-101659086D01*
X124563143Y-101701943D01*
X124467905Y-101744800D01*
X124277429Y-101787657D01*
X124039333Y-101787657D01*
X123848857Y-101744800D01*
X123753619Y-101701943D01*
X123706000Y-101659086D01*
X123658381Y-101573372D01*
X124563143Y-100887657D02*
X124610762Y-100844800D01*
X124658381Y-100887657D01*
X124610762Y-100930514D01*
X124563143Y-100887657D01*
X124658381Y-100887657D01*
X123658381Y-100544801D02*
X123658381Y-99944801D01*
X124658381Y-100330515D01*
D10*
X125945067Y-124526400D02*
X125945067Y-124859733D01*
X125245067Y-124859733D01*
X125911733Y-124026400D02*
X125945067Y-124093066D01*
X125945067Y-124226400D01*
X125911733Y-124293066D01*
X125845067Y-124326400D01*
X125578400Y-124326400D01*
X125511733Y-124293066D01*
X125478400Y-124226400D01*
X125478400Y-124093066D01*
X125511733Y-124026400D01*
X125578400Y-123993066D01*
X125645067Y-123993066D01*
X125711733Y-124326400D01*
X125478400Y-123793066D02*
X125478400Y-123526400D01*
X125945067Y-123693066D02*
X125345067Y-123693066D01*
X125278400Y-123659733D01*
X125245067Y-123593066D01*
X125245067Y-123526400D01*
X125478400Y-123393066D02*
X125478400Y-123126400D01*
X125245067Y-123293066D02*
X125845067Y-123293066D01*
X125911733Y-123259733D01*
X125945067Y-123193066D01*
X125945067Y-123126400D01*
X125211733Y-122393066D02*
X126111733Y-122993066D01*
X125911733Y-122193067D02*
X125945067Y-122093067D01*
X125945067Y-121926400D01*
X125911733Y-121859733D01*
X125878400Y-121826400D01*
X125811733Y-121793067D01*
X125745067Y-121793067D01*
X125678400Y-121826400D01*
X125645067Y-121859733D01*
X125611733Y-121926400D01*
X125578400Y-122059733D01*
X125545067Y-122126400D01*
X125511733Y-122159733D01*
X125445067Y-122193067D01*
X125378400Y-122193067D01*
X125311733Y-122159733D01*
X125278400Y-122126400D01*
X125245067Y-122059733D01*
X125245067Y-121893067D01*
X125278400Y-121793067D01*
X125478400Y-121593066D02*
X125478400Y-121326400D01*
X125245067Y-121493066D02*
X125845067Y-121493066D01*
X125911733Y-121459733D01*
X125945067Y-121393066D01*
X125945067Y-121326400D01*
X125911733Y-120826400D02*
X125945067Y-120893066D01*
X125945067Y-121026400D01*
X125911733Y-121093066D01*
X125845067Y-121126400D01*
X125578400Y-121126400D01*
X125511733Y-121093066D01*
X125478400Y-121026400D01*
X125478400Y-120893066D01*
X125511733Y-120826400D01*
X125578400Y-120793066D01*
X125645067Y-120793066D01*
X125711733Y-121126400D01*
X125911733Y-120226400D02*
X125945067Y-120293066D01*
X125945067Y-120426400D01*
X125911733Y-120493066D01*
X125845067Y-120526400D01*
X125578400Y-120526400D01*
X125511733Y-120493066D01*
X125478400Y-120426400D01*
X125478400Y-120293066D01*
X125511733Y-120226400D01*
X125578400Y-120193066D01*
X125645067Y-120193066D01*
X125711733Y-120526400D01*
X125945067Y-119893066D02*
X125478400Y-119893066D01*
X125611733Y-119893066D02*
X125545067Y-119859733D01*
X125511733Y-119826400D01*
X125478400Y-119759733D01*
X125478400Y-119693066D01*
X144487067Y-124471598D02*
X144153733Y-124704932D01*
X144487067Y-124871598D02*
X143787067Y-124871598D01*
X143787067Y-124604932D01*
X143820400Y-124538265D01*
X143853733Y-124504932D01*
X143920400Y-124471598D01*
X144020400Y-124471598D01*
X144087067Y-124504932D01*
X144120400Y-124538265D01*
X144153733Y-124604932D01*
X144153733Y-124871598D01*
X144487067Y-124171598D02*
X144020400Y-124171598D01*
X143787067Y-124171598D02*
X143820400Y-124204932D01*
X143853733Y-124171598D01*
X143820400Y-124138265D01*
X143787067Y-124171598D01*
X143853733Y-124171598D01*
X144020400Y-123538265D02*
X144587067Y-123538265D01*
X144653733Y-123571599D01*
X144687067Y-123604932D01*
X144720400Y-123671599D01*
X144720400Y-123771599D01*
X144687067Y-123838265D01*
X144453733Y-123538265D02*
X144487067Y-123604932D01*
X144487067Y-123738265D01*
X144453733Y-123804932D01*
X144420400Y-123838265D01*
X144353733Y-123871599D01*
X144153733Y-123871599D01*
X144087067Y-123838265D01*
X144053733Y-123804932D01*
X144020400Y-123738265D01*
X144020400Y-123604932D01*
X144053733Y-123538265D01*
X144487067Y-123204932D02*
X143787067Y-123204932D01*
X144487067Y-122904932D02*
X144120400Y-122904932D01*
X144053733Y-122938266D01*
X144020400Y-123004932D01*
X144020400Y-123104932D01*
X144053733Y-123171599D01*
X144087067Y-123204932D01*
X144020400Y-122671599D02*
X144020400Y-122404933D01*
X143787067Y-122571599D02*
X144387067Y-122571599D01*
X144453733Y-122538266D01*
X144487067Y-122471599D01*
X144487067Y-122404933D01*
X143753733Y-121671599D02*
X144653733Y-122271599D01*
X144487067Y-121438266D02*
X143787067Y-121438266D01*
X143787067Y-121271600D01*
X143820400Y-121171600D01*
X143887067Y-121104933D01*
X143953733Y-121071600D01*
X144087067Y-121038266D01*
X144187067Y-121038266D01*
X144320400Y-121071600D01*
X144387067Y-121104933D01*
X144453733Y-121171600D01*
X144487067Y-121271600D01*
X144487067Y-121438266D01*
X144487067Y-120738266D02*
X144020400Y-120738266D01*
X144153733Y-120738266D02*
X144087067Y-120704933D01*
X144053733Y-120671600D01*
X144020400Y-120604933D01*
X144020400Y-120538266D01*
X144487067Y-120304933D02*
X144020400Y-120304933D01*
X143787067Y-120304933D02*
X143820400Y-120338267D01*
X143853733Y-120304933D01*
X143820400Y-120271600D01*
X143787067Y-120304933D01*
X143853733Y-120304933D01*
X144020400Y-120038267D02*
X144487067Y-119871600D01*
X144020400Y-119704934D01*
X144453733Y-119171601D02*
X144487067Y-119238267D01*
X144487067Y-119371601D01*
X144453733Y-119438267D01*
X144387067Y-119471601D01*
X144120400Y-119471601D01*
X144053733Y-119438267D01*
X144020400Y-119371601D01*
X144020400Y-119238267D01*
X144053733Y-119171601D01*
X144120400Y-119138267D01*
X144187067Y-119138267D01*
X144253733Y-119471601D01*
X127276668Y-110740000D02*
X127243334Y-110773333D01*
X127143334Y-110806667D01*
X127076668Y-110806667D01*
X126976668Y-110773333D01*
X126910001Y-110706667D01*
X126876668Y-110640000D01*
X126843334Y-110506667D01*
X126843334Y-110406667D01*
X126876668Y-110273333D01*
X126910001Y-110206667D01*
X126976668Y-110140000D01*
X127076668Y-110106667D01*
X127143334Y-110106667D01*
X127243334Y-110140000D01*
X127276668Y-110173333D01*
X127843334Y-110773333D02*
X127776668Y-110806667D01*
X127643334Y-110806667D01*
X127576668Y-110773333D01*
X127543334Y-110706667D01*
X127543334Y-110440000D01*
X127576668Y-110373333D01*
X127643334Y-110340000D01*
X127776668Y-110340000D01*
X127843334Y-110373333D01*
X127876668Y-110440000D01*
X127876668Y-110506667D01*
X127543334Y-110573333D01*
X128176668Y-110340000D02*
X128176668Y-110806667D01*
X128176668Y-110406667D02*
X128210001Y-110373333D01*
X128276668Y-110340000D01*
X128376668Y-110340000D01*
X128443334Y-110373333D01*
X128476668Y-110440000D01*
X128476668Y-110806667D01*
X128710001Y-110340000D02*
X128976667Y-110340000D01*
X128810001Y-110106667D02*
X128810001Y-110706667D01*
X128843334Y-110773333D01*
X128910001Y-110806667D01*
X128976667Y-110806667D01*
X129476667Y-110773333D02*
X129410001Y-110806667D01*
X129276667Y-110806667D01*
X129210001Y-110773333D01*
X129176667Y-110706667D01*
X129176667Y-110440000D01*
X129210001Y-110373333D01*
X129276667Y-110340000D01*
X129410001Y-110340000D01*
X129476667Y-110373333D01*
X129510001Y-110440000D01*
X129510001Y-110506667D01*
X129176667Y-110573333D01*
X129810001Y-110806667D02*
X129810001Y-110340000D01*
X129810001Y-110473333D02*
X129843334Y-110406667D01*
X129876667Y-110373333D01*
X129943334Y-110340000D01*
X130010001Y-110340000D01*
X130743333Y-110773333D02*
X130843333Y-110806667D01*
X131010000Y-110806667D01*
X131076667Y-110773333D01*
X131110000Y-110740000D01*
X131143333Y-110673333D01*
X131143333Y-110606667D01*
X131110000Y-110540000D01*
X131076667Y-110506667D01*
X131010000Y-110473333D01*
X130876667Y-110440000D01*
X130810000Y-110406667D01*
X130776667Y-110373333D01*
X130743333Y-110306667D01*
X130743333Y-110240000D01*
X130776667Y-110173333D01*
X130810000Y-110140000D01*
X130876667Y-110106667D01*
X131043333Y-110106667D01*
X131143333Y-110140000D01*
X131343334Y-110340000D02*
X131610000Y-110340000D01*
X131443334Y-110106667D02*
X131443334Y-110706667D01*
X131476667Y-110773333D01*
X131543334Y-110806667D01*
X131610000Y-110806667D01*
X132110000Y-110773333D02*
X132043334Y-110806667D01*
X131910000Y-110806667D01*
X131843334Y-110773333D01*
X131810000Y-110706667D01*
X131810000Y-110440000D01*
X131843334Y-110373333D01*
X131910000Y-110340000D01*
X132043334Y-110340000D01*
X132110000Y-110373333D01*
X132143334Y-110440000D01*
X132143334Y-110506667D01*
X131810000Y-110573333D01*
X132710000Y-110773333D02*
X132643334Y-110806667D01*
X132510000Y-110806667D01*
X132443334Y-110773333D01*
X132410000Y-110706667D01*
X132410000Y-110440000D01*
X132443334Y-110373333D01*
X132510000Y-110340000D01*
X132643334Y-110340000D01*
X132710000Y-110373333D01*
X132743334Y-110440000D01*
X132743334Y-110506667D01*
X132410000Y-110573333D01*
X133043334Y-110806667D02*
X133043334Y-110340000D01*
X133043334Y-110473333D02*
X133076667Y-110406667D01*
X133110000Y-110373333D01*
X133176667Y-110340000D01*
X133243334Y-110340000D01*
X133476667Y-110806667D02*
X133476667Y-110340000D01*
X133476667Y-110106667D02*
X133443333Y-110140000D01*
X133476667Y-110173333D01*
X133510000Y-110140000D01*
X133476667Y-110106667D01*
X133476667Y-110173333D01*
X133810000Y-110340000D02*
X133810000Y-110806667D01*
X133810000Y-110406667D02*
X133843333Y-110373333D01*
X133910000Y-110340000D01*
X134010000Y-110340000D01*
X134076666Y-110373333D01*
X134110000Y-110440000D01*
X134110000Y-110806667D01*
X134743333Y-110340000D02*
X134743333Y-110906667D01*
X134709999Y-110973333D01*
X134676666Y-111006667D01*
X134609999Y-111040000D01*
X134509999Y-111040000D01*
X134443333Y-111006667D01*
X134743333Y-110773333D02*
X134676666Y-110806667D01*
X134543333Y-110806667D01*
X134476666Y-110773333D01*
X134443333Y-110740000D01*
X134409999Y-110673333D01*
X134409999Y-110473333D01*
X134443333Y-110406667D01*
X134476666Y-110373333D01*
X134543333Y-110340000D01*
X134676666Y-110340000D01*
X134743333Y-110373333D01*
D11*
X149898334Y-78466905D02*
X149631667Y-78085952D01*
X149441191Y-78466905D02*
X149441191Y-77666905D01*
X149745953Y-77666905D01*
X149822144Y-77705000D01*
X149860239Y-77743095D01*
X149898334Y-77819286D01*
X149898334Y-77933571D01*
X149860239Y-78009762D01*
X149822144Y-78047857D01*
X149745953Y-78085952D01*
X149441191Y-78085952D01*
X150545953Y-78428810D02*
X150469763Y-78466905D01*
X150317382Y-78466905D01*
X150241191Y-78428810D01*
X150203096Y-78352619D01*
X150203096Y-78047857D01*
X150241191Y-77971667D01*
X150317382Y-77933571D01*
X150469763Y-77933571D01*
X150545953Y-77971667D01*
X150584048Y-78047857D01*
X150584048Y-78124048D01*
X150203096Y-78200238D01*
X151269762Y-78428810D02*
X151193572Y-78466905D01*
X151041191Y-78466905D01*
X150965000Y-78428810D01*
X150926905Y-78390714D01*
X150888810Y-78314524D01*
X150888810Y-78085952D01*
X150926905Y-78009762D01*
X150965000Y-77971667D01*
X151041191Y-77933571D01*
X151193572Y-77933571D01*
X151269762Y-77971667D01*
X151917381Y-78428810D02*
X151841191Y-78466905D01*
X151688810Y-78466905D01*
X151612619Y-78428810D01*
X151574524Y-78352619D01*
X151574524Y-78047857D01*
X151612619Y-77971667D01*
X151688810Y-77933571D01*
X151841191Y-77933571D01*
X151917381Y-77971667D01*
X151955476Y-78047857D01*
X151955476Y-78124048D01*
X151574524Y-78200238D01*
X152298333Y-78466905D02*
X152298333Y-77933571D01*
X152298333Y-77666905D02*
X152260238Y-77705000D01*
X152298333Y-77743095D01*
X152336428Y-77705000D01*
X152298333Y-77666905D01*
X152298333Y-77743095D01*
X152603095Y-77933571D02*
X152793571Y-78466905D01*
X152984047Y-77933571D01*
X153593571Y-78428810D02*
X153517381Y-78466905D01*
X153365000Y-78466905D01*
X153288809Y-78428810D01*
X153250714Y-78352619D01*
X153250714Y-78047857D01*
X153288809Y-77971667D01*
X153365000Y-77933571D01*
X153517381Y-77933571D01*
X153593571Y-77971667D01*
X153631666Y-78047857D01*
X153631666Y-78124048D01*
X153250714Y-78200238D01*
X153974523Y-78466905D02*
X153974523Y-77933571D01*
X153974523Y-78085952D02*
X154012618Y-78009762D01*
X154050714Y-77971667D01*
X154126904Y-77933571D01*
X154203095Y-77933571D01*
D10*
X134073467Y-118799733D02*
X134173467Y-118833067D01*
X134340134Y-118833067D01*
X134406801Y-118799733D01*
X134440134Y-118766400D01*
X134473467Y-118699733D01*
X134473467Y-118633067D01*
X134440134Y-118566400D01*
X134406801Y-118533067D01*
X134340134Y-118499733D01*
X134206801Y-118466400D01*
X134140134Y-118433067D01*
X134106801Y-118399733D01*
X134073467Y-118333067D01*
X134073467Y-118266400D01*
X134106801Y-118199733D01*
X134140134Y-118166400D01*
X134206801Y-118133067D01*
X134373467Y-118133067D01*
X134473467Y-118166400D01*
X134673468Y-118366400D02*
X134940134Y-118366400D01*
X134773468Y-118133067D02*
X134773468Y-118733067D01*
X134806801Y-118799733D01*
X134873468Y-118833067D01*
X134940134Y-118833067D01*
X135440134Y-118799733D02*
X135373468Y-118833067D01*
X135240134Y-118833067D01*
X135173468Y-118799733D01*
X135140134Y-118733067D01*
X135140134Y-118466400D01*
X135173468Y-118399733D01*
X135240134Y-118366400D01*
X135373468Y-118366400D01*
X135440134Y-118399733D01*
X135473468Y-118466400D01*
X135473468Y-118533067D01*
X135140134Y-118599733D01*
X136040134Y-118799733D02*
X135973468Y-118833067D01*
X135840134Y-118833067D01*
X135773468Y-118799733D01*
X135740134Y-118733067D01*
X135740134Y-118466400D01*
X135773468Y-118399733D01*
X135840134Y-118366400D01*
X135973468Y-118366400D01*
X136040134Y-118399733D01*
X136073468Y-118466400D01*
X136073468Y-118533067D01*
X135740134Y-118599733D01*
X136373468Y-118833067D02*
X136373468Y-118366400D01*
X136373468Y-118499733D02*
X136406801Y-118433067D01*
X136440134Y-118399733D01*
X136506801Y-118366400D01*
X136573468Y-118366400D01*
X137306801Y-118099733D02*
X136706801Y-118999733D01*
X137540134Y-118833067D02*
X137540134Y-118133067D01*
X137706800Y-118133067D01*
X137806800Y-118166400D01*
X137873467Y-118233067D01*
X137906800Y-118299733D01*
X137940134Y-118433067D01*
X137940134Y-118533067D01*
X137906800Y-118666400D01*
X137873467Y-118733067D01*
X137806800Y-118799733D01*
X137706800Y-118833067D01*
X137540134Y-118833067D01*
X138240134Y-118833067D02*
X138240134Y-118366400D01*
X138240134Y-118499733D02*
X138273467Y-118433067D01*
X138306800Y-118399733D01*
X138373467Y-118366400D01*
X138440134Y-118366400D01*
X138673467Y-118833067D02*
X138673467Y-118366400D01*
X138673467Y-118133067D02*
X138640133Y-118166400D01*
X138673467Y-118199733D01*
X138706800Y-118166400D01*
X138673467Y-118133067D01*
X138673467Y-118199733D01*
X138940133Y-118366400D02*
X139106800Y-118833067D01*
X139273466Y-118366400D01*
X139806799Y-118799733D02*
X139740133Y-118833067D01*
X139606799Y-118833067D01*
X139540133Y-118799733D01*
X139506799Y-118733067D01*
X139506799Y-118466400D01*
X139540133Y-118399733D01*
X139606799Y-118366400D01*
X139740133Y-118366400D01*
X139806799Y-118399733D01*
X139840133Y-118466400D01*
X139840133Y-118533067D01*
X139506799Y-118599733D01*
X129284533Y-118901333D02*
X129384533Y-118934667D01*
X129551200Y-118934667D01*
X129617867Y-118901333D01*
X129651200Y-118868000D01*
X129684533Y-118801333D01*
X129684533Y-118734667D01*
X129651200Y-118668000D01*
X129617867Y-118634667D01*
X129551200Y-118601333D01*
X129417867Y-118568000D01*
X129351200Y-118534667D01*
X129317867Y-118501333D01*
X129284533Y-118434667D01*
X129284533Y-118368000D01*
X129317867Y-118301333D01*
X129351200Y-118268000D01*
X129417867Y-118234667D01*
X129584533Y-118234667D01*
X129684533Y-118268000D01*
X129984534Y-118934667D02*
X129984534Y-118234667D01*
X130051200Y-118668000D02*
X130251200Y-118934667D01*
X130251200Y-118468000D02*
X129984534Y-118734667D01*
X130551201Y-118934667D02*
X130551201Y-118468000D01*
X130551201Y-118234667D02*
X130517867Y-118268000D01*
X130551201Y-118301333D01*
X130584534Y-118268000D01*
X130551201Y-118234667D01*
X130551201Y-118301333D01*
X131184534Y-118934667D02*
X131184534Y-118234667D01*
X131184534Y-118901333D02*
X131117867Y-118934667D01*
X130984534Y-118934667D01*
X130917867Y-118901333D01*
X130884534Y-118868000D01*
X130851200Y-118801333D01*
X130851200Y-118601333D01*
X130884534Y-118534667D01*
X130917867Y-118501333D01*
X130984534Y-118468000D01*
X131117867Y-118468000D01*
X131184534Y-118501333D01*
X142109067Y-119337467D02*
X142075733Y-119437467D01*
X142075733Y-119604134D01*
X142109067Y-119670801D01*
X142142400Y-119704134D01*
X142209067Y-119737467D01*
X142275733Y-119737467D01*
X142342400Y-119704134D01*
X142375733Y-119670801D01*
X142409067Y-119604134D01*
X142442400Y-119470801D01*
X142475733Y-119404134D01*
X142509067Y-119370801D01*
X142575733Y-119337467D01*
X142642400Y-119337467D01*
X142709067Y-119370801D01*
X142742400Y-119404134D01*
X142775733Y-119470801D01*
X142775733Y-119637467D01*
X142742400Y-119737467D01*
X142542400Y-119937468D02*
X142542400Y-120204134D01*
X142775733Y-120037468D02*
X142175733Y-120037468D01*
X142109067Y-120070801D01*
X142075733Y-120137468D01*
X142075733Y-120204134D01*
X142109067Y-120704134D02*
X142075733Y-120637468D01*
X142075733Y-120504134D01*
X142109067Y-120437468D01*
X142175733Y-120404134D01*
X142442400Y-120404134D01*
X142509067Y-120437468D01*
X142542400Y-120504134D01*
X142542400Y-120637468D01*
X142509067Y-120704134D01*
X142442400Y-120737468D01*
X142375733Y-120737468D01*
X142309067Y-120404134D01*
X142109067Y-121304134D02*
X142075733Y-121237468D01*
X142075733Y-121104134D01*
X142109067Y-121037468D01*
X142175733Y-121004134D01*
X142442400Y-121004134D01*
X142509067Y-121037468D01*
X142542400Y-121104134D01*
X142542400Y-121237468D01*
X142509067Y-121304134D01*
X142442400Y-121337468D01*
X142375733Y-121337468D01*
X142309067Y-121004134D01*
X142075733Y-121637468D02*
X142542400Y-121637468D01*
X142409067Y-121637468D02*
X142475733Y-121670801D01*
X142509067Y-121704134D01*
X142542400Y-121770801D01*
X142542400Y-121837468D01*
X142775733Y-122504134D02*
X142775733Y-122904134D01*
X142075733Y-122704134D02*
X142775733Y-122704134D01*
X142542400Y-123070800D02*
X142075733Y-123237467D01*
X142542400Y-123404133D02*
X142075733Y-123237467D01*
X141909067Y-123170800D01*
X141875733Y-123137467D01*
X141842400Y-123070800D01*
X142542400Y-123670800D02*
X141842400Y-123670800D01*
X142509067Y-123670800D02*
X142542400Y-123737466D01*
X142542400Y-123870800D01*
X142509067Y-123937466D01*
X142475733Y-123970800D01*
X142409067Y-124004133D01*
X142209067Y-124004133D01*
X142142400Y-123970800D01*
X142109067Y-123937466D01*
X142075733Y-123870800D01*
X142075733Y-123737466D01*
X142109067Y-123670800D01*
X142109067Y-124570799D02*
X142075733Y-124504133D01*
X142075733Y-124370799D01*
X142109067Y-124304133D01*
X142175733Y-124270799D01*
X142442400Y-124270799D01*
X142509067Y-124304133D01*
X142542400Y-124370799D01*
X142542400Y-124504133D01*
X142509067Y-124570799D01*
X142442400Y-124604133D01*
X142375733Y-124604133D01*
X142309067Y-124270799D01*
X137583333Y-110773333D02*
X137683333Y-110806667D01*
X137850000Y-110806667D01*
X137916667Y-110773333D01*
X137950000Y-110740000D01*
X137983333Y-110673333D01*
X137983333Y-110606667D01*
X137950000Y-110540000D01*
X137916667Y-110506667D01*
X137850000Y-110473333D01*
X137716667Y-110440000D01*
X137650000Y-110406667D01*
X137616667Y-110373333D01*
X137583333Y-110306667D01*
X137583333Y-110240000D01*
X137616667Y-110173333D01*
X137650000Y-110140000D01*
X137716667Y-110106667D01*
X137883333Y-110106667D01*
X137983333Y-110140000D01*
X138183334Y-110340000D02*
X138450000Y-110340000D01*
X138283334Y-110106667D02*
X138283334Y-110706667D01*
X138316667Y-110773333D01*
X138383334Y-110806667D01*
X138450000Y-110806667D01*
X138683334Y-110806667D02*
X138683334Y-110340000D01*
X138683334Y-110473333D02*
X138716667Y-110406667D01*
X138750000Y-110373333D01*
X138816667Y-110340000D01*
X138883334Y-110340000D01*
X139616666Y-110773333D02*
X139716666Y-110806667D01*
X139883333Y-110806667D01*
X139950000Y-110773333D01*
X139983333Y-110740000D01*
X140016666Y-110673333D01*
X140016666Y-110606667D01*
X139983333Y-110540000D01*
X139950000Y-110506667D01*
X139883333Y-110473333D01*
X139750000Y-110440000D01*
X139683333Y-110406667D01*
X139650000Y-110373333D01*
X139616666Y-110306667D01*
X139616666Y-110240000D01*
X139650000Y-110173333D01*
X139683333Y-110140000D01*
X139750000Y-110106667D01*
X139916666Y-110106667D01*
X140016666Y-110140000D01*
X140583333Y-110773333D02*
X140516667Y-110806667D01*
X140383333Y-110806667D01*
X140316667Y-110773333D01*
X140283333Y-110706667D01*
X140283333Y-110440000D01*
X140316667Y-110373333D01*
X140383333Y-110340000D01*
X140516667Y-110340000D01*
X140583333Y-110373333D01*
X140616667Y-110440000D01*
X140616667Y-110506667D01*
X140283333Y-110573333D01*
X140916667Y-110340000D02*
X140916667Y-110806667D01*
X140916667Y-110406667D02*
X140950000Y-110373333D01*
X141016667Y-110340000D01*
X141116667Y-110340000D01*
X141183333Y-110373333D01*
X141216667Y-110440000D01*
X141216667Y-110806667D01*
X141516666Y-110773333D02*
X141583333Y-110806667D01*
X141716666Y-110806667D01*
X141783333Y-110773333D01*
X141816666Y-110706667D01*
X141816666Y-110673333D01*
X141783333Y-110606667D01*
X141716666Y-110573333D01*
X141616666Y-110573333D01*
X141550000Y-110540000D01*
X141516666Y-110473333D01*
X141516666Y-110440000D01*
X141550000Y-110373333D01*
X141616666Y-110340000D01*
X141716666Y-110340000D01*
X141783333Y-110373333D01*
X155091667Y-82673000D02*
X155058333Y-82706333D01*
X154958333Y-82739667D01*
X154891667Y-82739667D01*
X154791667Y-82706333D01*
X154725000Y-82639667D01*
X154691667Y-82573000D01*
X154658333Y-82439667D01*
X154658333Y-82339667D01*
X154691667Y-82206333D01*
X154725000Y-82139667D01*
X154791667Y-82073000D01*
X154891667Y-82039667D01*
X154958333Y-82039667D01*
X155058333Y-82073000D01*
X155091667Y-82106333D01*
X155391667Y-82739667D02*
X155391667Y-82039667D01*
X155391667Y-82373000D02*
X155791667Y-82373000D01*
X155791667Y-82739667D02*
X155791667Y-82039667D01*
X156091666Y-82106333D02*
X156125000Y-82073000D01*
X156191666Y-82039667D01*
X156358333Y-82039667D01*
X156425000Y-82073000D01*
X156458333Y-82106333D01*
X156491666Y-82173000D01*
X156491666Y-82239667D01*
X156458333Y-82339667D01*
X156058333Y-82739667D01*
X156491666Y-82739667D01*
X152551667Y-82673000D02*
X152518333Y-82706333D01*
X152418333Y-82739667D01*
X152351667Y-82739667D01*
X152251667Y-82706333D01*
X152185000Y-82639667D01*
X152151667Y-82573000D01*
X152118333Y-82439667D01*
X152118333Y-82339667D01*
X152151667Y-82206333D01*
X152185000Y-82139667D01*
X152251667Y-82073000D01*
X152351667Y-82039667D01*
X152418333Y-82039667D01*
X152518333Y-82073000D01*
X152551667Y-82106333D01*
X152851667Y-82739667D02*
X152851667Y-82039667D01*
X152851667Y-82373000D02*
X153251667Y-82373000D01*
X153251667Y-82739667D02*
X153251667Y-82039667D01*
X153951666Y-82739667D02*
X153551666Y-82739667D01*
X153751666Y-82739667D02*
X153751666Y-82039667D01*
X153685000Y-82139667D01*
X153618333Y-82206333D01*
X153551666Y-82239667D01*
X149961667Y-82073000D02*
X149895001Y-82039667D01*
X149795001Y-82039667D01*
X149695001Y-82073000D01*
X149628334Y-82139667D01*
X149595001Y-82206333D01*
X149561667Y-82339667D01*
X149561667Y-82439667D01*
X149595001Y-82573000D01*
X149628334Y-82639667D01*
X149695001Y-82706333D01*
X149795001Y-82739667D01*
X149861667Y-82739667D01*
X149961667Y-82706333D01*
X149995001Y-82673000D01*
X149995001Y-82439667D01*
X149861667Y-82439667D01*
X150295001Y-82739667D02*
X150295001Y-82039667D01*
X150695001Y-82739667D01*
X150695001Y-82039667D01*
X151028334Y-82739667D02*
X151028334Y-82039667D01*
X151195000Y-82039667D01*
X151295000Y-82073000D01*
X151361667Y-82139667D01*
X151395000Y-82206333D01*
X151428334Y-82339667D01*
X151428334Y-82439667D01*
X151395000Y-82573000D01*
X151361667Y-82639667D01*
X151295000Y-82706333D01*
X151195000Y-82739667D01*
X151028334Y-82739667D01*
X147021667Y-82039667D02*
X147255000Y-82739667D01*
X147488333Y-82039667D01*
X148121667Y-82673000D02*
X148088333Y-82706333D01*
X147988333Y-82739667D01*
X147921667Y-82739667D01*
X147821667Y-82706333D01*
X147755000Y-82639667D01*
X147721667Y-82573000D01*
X147688333Y-82439667D01*
X147688333Y-82339667D01*
X147721667Y-82206333D01*
X147755000Y-82139667D01*
X147821667Y-82073000D01*
X147921667Y-82039667D01*
X147988333Y-82039667D01*
X148088333Y-82073000D01*
X148121667Y-82106333D01*
X148821667Y-82673000D02*
X148788333Y-82706333D01*
X148688333Y-82739667D01*
X148621667Y-82739667D01*
X148521667Y-82706333D01*
X148455000Y-82639667D01*
X148421667Y-82573000D01*
X148388333Y-82439667D01*
X148388333Y-82339667D01*
X148421667Y-82206333D01*
X148455000Y-82139667D01*
X148521667Y-82073000D01*
X148621667Y-82039667D01*
X148688333Y-82039667D01*
X148788333Y-82073000D01*
X148821667Y-82106333D01*
D11*
X136886905Y-81133905D02*
X136086905Y-81133905D01*
X136353571Y-80752953D02*
X136886905Y-80752953D01*
X136429762Y-80752953D02*
X136391667Y-80714858D01*
X136353571Y-80638667D01*
X136353571Y-80524381D01*
X136391667Y-80448191D01*
X136467857Y-80410096D01*
X136886905Y-80410096D01*
X136125000Y-83794523D02*
X136086905Y-83870714D01*
X136086905Y-83984999D01*
X136125000Y-84099285D01*
X136201190Y-84175476D01*
X136277381Y-84213571D01*
X136429762Y-84251666D01*
X136544048Y-84251666D01*
X136696429Y-84213571D01*
X136772619Y-84175476D01*
X136848810Y-84099285D01*
X136886905Y-83984999D01*
X136886905Y-83908809D01*
X136848810Y-83794523D01*
X136810714Y-83756428D01*
X136544048Y-83756428D01*
X136544048Y-83908809D01*
X136886905Y-83413571D02*
X136086905Y-83413571D01*
X136886905Y-82956428D01*
X136086905Y-82956428D01*
X136886905Y-82575476D02*
X136086905Y-82575476D01*
X136086905Y-82385000D01*
X136125000Y-82270714D01*
X136201190Y-82194523D01*
X136277381Y-82156428D01*
X136429762Y-82118333D01*
X136544048Y-82118333D01*
X136696429Y-82156428D01*
X136772619Y-82194523D01*
X136848810Y-82270714D01*
X136886905Y-82385000D01*
X136886905Y-82575476D01*
X136086905Y-86518667D02*
X136086905Y-86366286D01*
X136125000Y-86290095D01*
X136201190Y-86213905D01*
X136353571Y-86175810D01*
X136620238Y-86175810D01*
X136772619Y-86213905D01*
X136848810Y-86290095D01*
X136886905Y-86366286D01*
X136886905Y-86518667D01*
X136848810Y-86594857D01*
X136772619Y-86671048D01*
X136620238Y-86709143D01*
X136353571Y-86709143D01*
X136201190Y-86671048D01*
X136125000Y-86594857D01*
X136086905Y-86518667D01*
X136353571Y-85490096D02*
X136886905Y-85490096D01*
X136353571Y-85832953D02*
X136772619Y-85832953D01*
X136848810Y-85794858D01*
X136886905Y-85718667D01*
X136886905Y-85604381D01*
X136848810Y-85528191D01*
X136810714Y-85490096D01*
X136353571Y-85223429D02*
X136353571Y-84918667D01*
X136086905Y-85109143D02*
X136772619Y-85109143D01*
X136848810Y-85071048D01*
X136886905Y-84994857D01*
X136886905Y-84918667D01*
D12*
X119888057Y-87461714D02*
X120802343Y-87461714D01*
X120345200Y-87918857D02*
X120345200Y-87004571D01*
X112064857Y-87461714D02*
X112979143Y-87461714D01*
D13*
X155905000Y-109576000D02*
X155905000Y-111862000D01*
X155905000Y-111862000D02*
X146253000Y-111862000D01*
X146253000Y-111862000D02*
X146253000Y-109576000D01*
X157175000Y-124816000D02*
X144983000Y-124816000D01*
X144983000Y-109576000D02*
X144983000Y-124816000D01*
X157175000Y-109576000D02*
X157175000Y-124816000D01*
X144983000Y-109576000D02*
X157175000Y-109576000D01*
D14*
X114554000Y-88265000D02*
X114554000Y-108585000D01*
X120396000Y-108585000D02*
X120396000Y-88265000D01*
X114554000Y-88265000D02*
X120396000Y-88265000D01*
X114554000Y-108585000D02*
X116459000Y-108585000D01*
X120396000Y-108585000D02*
X118491000Y-108585000D01*
X116459000Y-108585000D02*
G75*
G02X118491000Y-108585000I1016000J0D01*
G01*
D13*
X123647000Y-109576000D02*
X123647000Y-111862000D01*
X123647000Y-111862000D02*
X113995000Y-111862000D01*
X113995000Y-111862000D02*
X113995000Y-109576000D01*
X124917000Y-124816000D02*
X112725000Y-124816000D01*
X112725000Y-109576000D02*
X112725000Y-124816000D01*
X124917000Y-109576000D02*
X124917000Y-124816000D01*
X112725000Y-109576000D02*
X124917000Y-109576000D01*
D15*
X133349722Y-85307277D02*
G75*
G03X128738420Y-85307000I-2305722J-1179723D01*
G01*
X133349722Y-87666723D02*
G75*
G02X128738420Y-87667000I-2305722J1179723D01*
G01*
X133349722Y-87666723D02*
G75*
G03X133349580Y-85307000I-2305722J1179723D01*
G01*
X131044000Y-83937000D02*
X131044000Y-89037000D01*
X131084000Y-83937000D02*
X131084000Y-89037000D01*
X131124000Y-83938000D02*
X131124000Y-89036000D01*
X131164000Y-83939000D02*
X131164000Y-89035000D01*
X131204000Y-83941000D02*
X131204000Y-89033000D01*
X131244000Y-83944000D02*
X131244000Y-89030000D01*
X131284000Y-83948000D02*
X131284000Y-89026000D01*
X131324000Y-83952000D02*
X131324000Y-85507000D01*
X131324000Y-87467000D02*
X131324000Y-89022000D01*
X131364000Y-83956000D02*
X131364000Y-85507000D01*
X131364000Y-87467000D02*
X131364000Y-89018000D01*
X131404000Y-83962000D02*
X131404000Y-85507000D01*
X131404000Y-87467000D02*
X131404000Y-89012000D01*
X131444000Y-83968000D02*
X131444000Y-85507000D01*
X131444000Y-87467000D02*
X131444000Y-89006000D01*
X131484000Y-83974000D02*
X131484000Y-85507000D01*
X131484000Y-87467000D02*
X131484000Y-89000000D01*
X131524000Y-83981000D02*
X131524000Y-85507000D01*
X131524000Y-87467000D02*
X131524000Y-88993000D01*
X131564000Y-83989000D02*
X131564000Y-85507000D01*
X131564000Y-87467000D02*
X131564000Y-88985000D01*
X131604000Y-83998000D02*
X131604000Y-85507000D01*
X131604000Y-87467000D02*
X131604000Y-88976000D01*
X131644000Y-84007000D02*
X131644000Y-85507000D01*
X131644000Y-87467000D02*
X131644000Y-88967000D01*
X131684000Y-84017000D02*
X131684000Y-85507000D01*
X131684000Y-87467000D02*
X131684000Y-88957000D01*
X131724000Y-84027000D02*
X131724000Y-85507000D01*
X131724000Y-87467000D02*
X131724000Y-88947000D01*
X131765000Y-84039000D02*
X131765000Y-85507000D01*
X131765000Y-87467000D02*
X131765000Y-88935000D01*
X131805000Y-84051000D02*
X131805000Y-85507000D01*
X131805000Y-87467000D02*
X131805000Y-88923000D01*
X131845000Y-84063000D02*
X131845000Y-85507000D01*
X131845000Y-87467000D02*
X131845000Y-88911000D01*
X131885000Y-84077000D02*
X131885000Y-85507000D01*
X131885000Y-87467000D02*
X131885000Y-88897000D01*
X131925000Y-84091000D02*
X131925000Y-85507000D01*
X131925000Y-87467000D02*
X131925000Y-88883000D01*
X131965000Y-84105000D02*
X131965000Y-85507000D01*
X131965000Y-87467000D02*
X131965000Y-88869000D01*
X132005000Y-84121000D02*
X132005000Y-85507000D01*
X132005000Y-87467000D02*
X132005000Y-88853000D01*
X132045000Y-84137000D02*
X132045000Y-85507000D01*
X132045000Y-87467000D02*
X132045000Y-88837000D01*
X132085000Y-84154000D02*
X132085000Y-85507000D01*
X132085000Y-87467000D02*
X132085000Y-88820000D01*
X132125000Y-84172000D02*
X132125000Y-85507000D01*
X132125000Y-87467000D02*
X132125000Y-88802000D01*
X132165000Y-84191000D02*
X132165000Y-85507000D01*
X132165000Y-87467000D02*
X132165000Y-88783000D01*
X132205000Y-84211000D02*
X132205000Y-85507000D01*
X132205000Y-87467000D02*
X132205000Y-88763000D01*
X132245000Y-84231000D02*
X132245000Y-85507000D01*
X132245000Y-87467000D02*
X132245000Y-88743000D01*
X132285000Y-84253000D02*
X132285000Y-85507000D01*
X132285000Y-87467000D02*
X132285000Y-88721000D01*
X132325000Y-84275000D02*
X132325000Y-85507000D01*
X132325000Y-87467000D02*
X132325000Y-88699000D01*
X132365000Y-84298000D02*
X132365000Y-85507000D01*
X132365000Y-87467000D02*
X132365000Y-88676000D01*
X132405000Y-84322000D02*
X132405000Y-85507000D01*
X132405000Y-87467000D02*
X132405000Y-88652000D01*
X132445000Y-84347000D02*
X132445000Y-85507000D01*
X132445000Y-87467000D02*
X132445000Y-88627000D01*
X132485000Y-84374000D02*
X132485000Y-85507000D01*
X132485000Y-87467000D02*
X132485000Y-88600000D01*
X132525000Y-84401000D02*
X132525000Y-85507000D01*
X132525000Y-87467000D02*
X132525000Y-88573000D01*
X132565000Y-84429000D02*
X132565000Y-85507000D01*
X132565000Y-87467000D02*
X132565000Y-88545000D01*
X132605000Y-84459000D02*
X132605000Y-85507000D01*
X132605000Y-87467000D02*
X132605000Y-88515000D01*
X132645000Y-84490000D02*
X132645000Y-85507000D01*
X132645000Y-87467000D02*
X132645000Y-88484000D01*
X132685000Y-84522000D02*
X132685000Y-85507000D01*
X132685000Y-87467000D02*
X132685000Y-88452000D01*
X132725000Y-84555000D02*
X132725000Y-85507000D01*
X132725000Y-87467000D02*
X132725000Y-88419000D01*
X132765000Y-84590000D02*
X132765000Y-85507000D01*
X132765000Y-87467000D02*
X132765000Y-88384000D01*
X132805000Y-84626000D02*
X132805000Y-85507000D01*
X132805000Y-87467000D02*
X132805000Y-88348000D01*
X132845000Y-84664000D02*
X132845000Y-85507000D01*
X132845000Y-87467000D02*
X132845000Y-88310000D01*
X132885000Y-84704000D02*
X132885000Y-85507000D01*
X132885000Y-87467000D02*
X132885000Y-88270000D01*
X132925000Y-84745000D02*
X132925000Y-85507000D01*
X132925000Y-87467000D02*
X132925000Y-88229000D01*
X132965000Y-84788000D02*
X132965000Y-85507000D01*
X132965000Y-87467000D02*
X132965000Y-88186000D01*
X133005000Y-84833000D02*
X133005000Y-85507000D01*
X133005000Y-87467000D02*
X133005000Y-88141000D01*
X133045000Y-84881000D02*
X133045000Y-85507000D01*
X133045000Y-87467000D02*
X133045000Y-88093000D01*
X133085000Y-84931000D02*
X133085000Y-85507000D01*
X133085000Y-87467000D02*
X133085000Y-88043000D01*
X133125000Y-84983000D02*
X133125000Y-85507000D01*
X133125000Y-87467000D02*
X133125000Y-87991000D01*
X133165000Y-85039000D02*
X133165000Y-85507000D01*
X133165000Y-87467000D02*
X133165000Y-87935000D01*
X133205000Y-85097000D02*
X133205000Y-85507000D01*
X133205000Y-87467000D02*
X133205000Y-87877000D01*
X133245000Y-85160000D02*
X133245000Y-85507000D01*
X133245000Y-87467000D02*
X133245000Y-87814000D01*
X133285000Y-85226000D02*
X133285000Y-87748000D01*
X133325000Y-85298000D02*
X133325000Y-87676000D01*
X133365000Y-85375000D02*
X133365000Y-87599000D01*
X133405000Y-85459000D02*
X133405000Y-87515000D01*
X133445000Y-85553000D02*
X133445000Y-87421000D01*
X133485000Y-85658000D02*
X133485000Y-87316000D01*
X133525000Y-85780000D02*
X133525000Y-87194000D01*
X133565000Y-85928000D02*
X133565000Y-87046000D01*
X133605000Y-86133000D02*
X133605000Y-86841000D01*
X127594000Y-86487000D02*
X128794000Y-86487000D01*
X128194000Y-85837000D02*
X128194000Y-87137000D01*
X147365000Y-107725000D02*
X147365000Y-109445000D01*
X147365000Y-109445000D02*
X151085000Y-109445000D01*
X151085000Y-109445000D02*
X151085000Y-107725000D01*
X151085000Y-107725000D02*
X147365000Y-107725000D01*
X146295000Y-108585000D02*
X147365000Y-108585000D01*
X152155000Y-108585000D02*
X151085000Y-108585000D01*
X141560000Y-109445000D02*
X141560000Y-107725000D01*
X141560000Y-107725000D02*
X137840000Y-107725000D01*
X137840000Y-107725000D02*
X137840000Y-109445000D01*
X137840000Y-109445000D02*
X141560000Y-109445000D01*
X142630000Y-108585000D02*
X141560000Y-108585000D01*
X136770000Y-108585000D02*
X137840000Y-108585000D01*
D11*
X141478000Y-88138000D02*
X138049000Y-88138000D01*
X141478000Y-78486000D02*
X138049000Y-78486000D01*
X142621000Y-88646000D02*
X142621000Y-77978000D01*
X141605000Y-85090000D02*
X142875000Y-85090000D01*
X141605000Y-81534000D02*
X142875000Y-81534000D01*
X141478000Y-77978000D02*
X141478000Y-88646000D01*
X138049000Y-88646000D02*
X138049000Y-77978000D01*
X142875000Y-77978000D02*
X138049000Y-77978000D01*
X142875000Y-88646000D02*
X138049000Y-88646000D01*
X142875000Y-88646000D02*
X142875000Y-77978000D01*
D15*
X156905000Y-81467000D02*
X156905000Y-78807000D01*
X149225000Y-81467000D02*
X156905000Y-81467000D01*
X149225000Y-78807000D02*
X156905000Y-78807000D01*
X149225000Y-81467000D02*
X149225000Y-78807000D01*
X147955000Y-81467000D02*
X146625000Y-81467000D01*
X146625000Y-81467000D02*
X146625000Y-80137000D01*
X147410277Y-84074278D02*
G75*
G03X147410000Y-88685580I1179723J-2305722D01*
G01*
X149769723Y-84074278D02*
G75*
G02X149770000Y-88685580I-1179723J-2305722D01*
G01*
X149769723Y-84074278D02*
G75*
G03X147410000Y-84074420I-1179723J-2305722D01*
G01*
X146040000Y-86380000D02*
X151140000Y-86380000D01*
X146040000Y-86340000D02*
X151140000Y-86340000D01*
X146041000Y-86300000D02*
X151139000Y-86300000D01*
X146042000Y-86260000D02*
X151138000Y-86260000D01*
X146044000Y-86220000D02*
X151136000Y-86220000D01*
X146047000Y-86180000D02*
X151133000Y-86180000D01*
X146051000Y-86140000D02*
X151129000Y-86140000D01*
X146055000Y-86100000D02*
X147610000Y-86100000D01*
X149570000Y-86100000D02*
X151125000Y-86100000D01*
X146059000Y-86060000D02*
X147610000Y-86060000D01*
X149570000Y-86060000D02*
X151121000Y-86060000D01*
X146065000Y-86020000D02*
X147610000Y-86020000D01*
X149570000Y-86020000D02*
X151115000Y-86020000D01*
X146071000Y-85980000D02*
X147610000Y-85980000D01*
X149570000Y-85980000D02*
X151109000Y-85980000D01*
X146077000Y-85940000D02*
X147610000Y-85940000D01*
X149570000Y-85940000D02*
X151103000Y-85940000D01*
X146084000Y-85900000D02*
X147610000Y-85900000D01*
X149570000Y-85900000D02*
X151096000Y-85900000D01*
X146092000Y-85860000D02*
X147610000Y-85860000D01*
X149570000Y-85860000D02*
X151088000Y-85860000D01*
X146101000Y-85820000D02*
X147610000Y-85820000D01*
X149570000Y-85820000D02*
X151079000Y-85820000D01*
X146110000Y-85780000D02*
X147610000Y-85780000D01*
X149570000Y-85780000D02*
X151070000Y-85780000D01*
X146120000Y-85740000D02*
X147610000Y-85740000D01*
X149570000Y-85740000D02*
X151060000Y-85740000D01*
X146130000Y-85700000D02*
X147610000Y-85700000D01*
X149570000Y-85700000D02*
X151050000Y-85700000D01*
X146142000Y-85659000D02*
X147610000Y-85659000D01*
X149570000Y-85659000D02*
X151038000Y-85659000D01*
X146154000Y-85619000D02*
X147610000Y-85619000D01*
X149570000Y-85619000D02*
X151026000Y-85619000D01*
X146166000Y-85579000D02*
X147610000Y-85579000D01*
X149570000Y-85579000D02*
X151014000Y-85579000D01*
X146180000Y-85539000D02*
X147610000Y-85539000D01*
X149570000Y-85539000D02*
X151000000Y-85539000D01*
X146194000Y-85499000D02*
X147610000Y-85499000D01*
X149570000Y-85499000D02*
X150986000Y-85499000D01*
X146208000Y-85459000D02*
X147610000Y-85459000D01*
X149570000Y-85459000D02*
X150972000Y-85459000D01*
X146224000Y-85419000D02*
X147610000Y-85419000D01*
X149570000Y-85419000D02*
X150956000Y-85419000D01*
X146240000Y-85379000D02*
X147610000Y-85379000D01*
X149570000Y-85379000D02*
X150940000Y-85379000D01*
X146257000Y-85339000D02*
X147610000Y-85339000D01*
X149570000Y-85339000D02*
X150923000Y-85339000D01*
X146275000Y-85299000D02*
X147610000Y-85299000D01*
X149570000Y-85299000D02*
X150905000Y-85299000D01*
X146294000Y-85259000D02*
X147610000Y-85259000D01*
X149570000Y-85259000D02*
X150886000Y-85259000D01*
X146314000Y-85219000D02*
X147610000Y-85219000D01*
X149570000Y-85219000D02*
X150866000Y-85219000D01*
X146334000Y-85179000D02*
X147610000Y-85179000D01*
X149570000Y-85179000D02*
X150846000Y-85179000D01*
X146356000Y-85139000D02*
X147610000Y-85139000D01*
X149570000Y-85139000D02*
X150824000Y-85139000D01*
X146378000Y-85099000D02*
X147610000Y-85099000D01*
X149570000Y-85099000D02*
X150802000Y-85099000D01*
X146401000Y-85059000D02*
X147610000Y-85059000D01*
X149570000Y-85059000D02*
X150779000Y-85059000D01*
X146425000Y-85019000D02*
X147610000Y-85019000D01*
X149570000Y-85019000D02*
X150755000Y-85019000D01*
X146450000Y-84979000D02*
X147610000Y-84979000D01*
X149570000Y-84979000D02*
X150730000Y-84979000D01*
X146477000Y-84939000D02*
X147610000Y-84939000D01*
X149570000Y-84939000D02*
X150703000Y-84939000D01*
X146504000Y-84899000D02*
X147610000Y-84899000D01*
X149570000Y-84899000D02*
X150676000Y-84899000D01*
X146532000Y-84859000D02*
X147610000Y-84859000D01*
X149570000Y-84859000D02*
X150648000Y-84859000D01*
X146562000Y-84819000D02*
X147610000Y-84819000D01*
X149570000Y-84819000D02*
X150618000Y-84819000D01*
X146593000Y-84779000D02*
X147610000Y-84779000D01*
X149570000Y-84779000D02*
X150587000Y-84779000D01*
X146625000Y-84739000D02*
X147610000Y-84739000D01*
X149570000Y-84739000D02*
X150555000Y-84739000D01*
X146658000Y-84699000D02*
X147610000Y-84699000D01*
X149570000Y-84699000D02*
X150522000Y-84699000D01*
X146693000Y-84659000D02*
X147610000Y-84659000D01*
X149570000Y-84659000D02*
X150487000Y-84659000D01*
X146729000Y-84619000D02*
X147610000Y-84619000D01*
X149570000Y-84619000D02*
X150451000Y-84619000D01*
X146767000Y-84579000D02*
X147610000Y-84579000D01*
X149570000Y-84579000D02*
X150413000Y-84579000D01*
X146807000Y-84539000D02*
X147610000Y-84539000D01*
X149570000Y-84539000D02*
X150373000Y-84539000D01*
X146848000Y-84499000D02*
X147610000Y-84499000D01*
X149570000Y-84499000D02*
X150332000Y-84499000D01*
X146891000Y-84459000D02*
X147610000Y-84459000D01*
X149570000Y-84459000D02*
X150289000Y-84459000D01*
X146936000Y-84419000D02*
X147610000Y-84419000D01*
X149570000Y-84419000D02*
X150244000Y-84419000D01*
X146984000Y-84379000D02*
X147610000Y-84379000D01*
X149570000Y-84379000D02*
X150196000Y-84379000D01*
X147034000Y-84339000D02*
X147610000Y-84339000D01*
X149570000Y-84339000D02*
X150146000Y-84339000D01*
X147086000Y-84299000D02*
X147610000Y-84299000D01*
X149570000Y-84299000D02*
X150094000Y-84299000D01*
X147142000Y-84259000D02*
X147610000Y-84259000D01*
X149570000Y-84259000D02*
X150038000Y-84259000D01*
X147200000Y-84219000D02*
X147610000Y-84219000D01*
X149570000Y-84219000D02*
X149980000Y-84219000D01*
X147263000Y-84179000D02*
X147610000Y-84179000D01*
X149570000Y-84179000D02*
X149917000Y-84179000D01*
X147329000Y-84139000D02*
X149851000Y-84139000D01*
X147401000Y-84099000D02*
X149779000Y-84099000D01*
X147478000Y-84059000D02*
X149702000Y-84059000D01*
X147562000Y-84019000D02*
X149618000Y-84019000D01*
X147656000Y-83979000D02*
X149524000Y-83979000D01*
X147761000Y-83939000D02*
X149419000Y-83939000D01*
X147883000Y-83899000D02*
X149297000Y-83899000D01*
X148031000Y-83859000D02*
X149149000Y-83859000D01*
X148236000Y-83819000D02*
X148944000Y-83819000D01*
X148590000Y-89830000D02*
X148590000Y-88630000D01*
X147940000Y-89230000D02*
X149240000Y-89230000D01*
X153830000Y-88140000D02*
X153830000Y-84620000D01*
X156050000Y-88140000D02*
X156050000Y-84620000D01*
X153830000Y-88140000D02*
X153944000Y-88140000D01*
X155936000Y-88140000D02*
X156050000Y-88140000D01*
X153830000Y-84620000D02*
X153944000Y-84620000D01*
X155936000Y-84620000D02*
X156050000Y-84620000D01*
X140640000Y-114340000D02*
G75*
G03X140640000Y-114340000I-900000J0D01*
G01*
X136530000Y-115967000D02*
X136530000Y-111130000D01*
X142950000Y-115967000D02*
X142950000Y-111130000D01*
X137998000Y-117550000D02*
X141483000Y-117550000D01*
X136530000Y-111130000D02*
X138983000Y-111130000D01*
X140498000Y-111130000D02*
X142950000Y-111130000D01*
X128315000Y-107725000D02*
X128315000Y-109445000D01*
X128315000Y-109445000D02*
X132035000Y-109445000D01*
X132035000Y-109445000D02*
X132035000Y-107725000D01*
X132035000Y-107725000D02*
X128315000Y-107725000D01*
X127245000Y-108585000D02*
X128315000Y-108585000D01*
X133105000Y-108585000D02*
X132035000Y-108585000D01*
X128635000Y-117895000D02*
X133135000Y-117895000D01*
X127385000Y-113895000D02*
X127385000Y-115395000D01*
X133135000Y-111395000D02*
X128635000Y-111395000D01*
X134385000Y-115395000D02*
X134385000Y-113895000D01*
X123304000Y-95878000D02*
X126124000Y-95878000D01*
X126124000Y-95878000D02*
X126124000Y-90558000D01*
X126124000Y-90558000D02*
X123304000Y-90558000D01*
X123304000Y-90558000D02*
X123304000Y-95878000D01*
X124714000Y-97218000D02*
X124714000Y-95878000D01*
X124714000Y-89218000D02*
X124714000Y-90558000D01*
X123304000Y-95038000D02*
X126124000Y-95038000D01*
D11*
X121383000Y-86694400D02*
X111383000Y-86694400D01*
X111383000Y-86694400D02*
X111383000Y-77694400D01*
X111383000Y-77694400D02*
X121383000Y-77694400D01*
X121383000Y-77694400D02*
X121383000Y-86694400D01*
X122983000Y-77718000D02*
X135183000Y-77718000D01*
X135183000Y-77718000D02*
X135183000Y-83318000D01*
X135183000Y-83318000D02*
X122983000Y-83318000D01*
X122983000Y-83318000D02*
X122983000Y-77718000D01*
X128571000Y-119222000D02*
X140771000Y-119222000D01*
X140771000Y-119222000D02*
X140771000Y-124822000D01*
X140771000Y-124822000D02*
X128571000Y-124822000D01*
X128571000Y-124822000D02*
X128571000Y-119222000D01*
X154618571Y-100837857D02*
X155618571Y-100837857D01*
X154618571Y-101480714D02*
X155404286Y-101480714D01*
X155547143Y-101409286D01*
X155618571Y-101266428D01*
X155618571Y-101052143D01*
X155547143Y-100909286D01*
X155475714Y-100837857D01*
X155618571Y-100123571D02*
X154118571Y-100123571D01*
X154118571Y-99552143D01*
X154190000Y-99409285D01*
X154261429Y-99337857D01*
X154404286Y-99266428D01*
X154618571Y-99266428D01*
X154761429Y-99337857D01*
X154832857Y-99409285D01*
X154904286Y-99552143D01*
X154904286Y-100123571D01*
X155618571Y-97837857D02*
X155618571Y-98695000D01*
X155618571Y-98266428D02*
X154118571Y-98266428D01*
X154332857Y-98409285D01*
X154475714Y-98552143D01*
X154547143Y-98695000D01*
X132041428Y-99945000D02*
X132755714Y-99945000D01*
X131898571Y-100373571D02*
X132398571Y-98873571D01*
X132898571Y-100373571D01*
X134255714Y-100373571D02*
X133755714Y-99659286D01*
X133398571Y-100373571D02*
X133398571Y-98873571D01*
X133969999Y-98873571D01*
X134112857Y-98945000D01*
X134184285Y-99016429D01*
X134255714Y-99159286D01*
X134255714Y-99373571D01*
X134184285Y-99516429D01*
X134112857Y-99587857D01*
X133969999Y-99659286D01*
X133398571Y-99659286D01*
X134898571Y-100373571D02*
X134898571Y-98873571D01*
X135255714Y-98873571D01*
X135469999Y-98945000D01*
X135612857Y-99087857D01*
X135684285Y-99230714D01*
X135755714Y-99516429D01*
X135755714Y-99730714D01*
X135684285Y-100016429D01*
X135612857Y-100159286D01*
X135469999Y-100302143D01*
X135255714Y-100373571D01*
X134898571Y-100373571D01*
X136398571Y-98873571D02*
X136398571Y-100087857D01*
X136469999Y-100230714D01*
X136541428Y-100302143D01*
X136684285Y-100373571D01*
X136969999Y-100373571D01*
X137112857Y-100302143D01*
X137184285Y-100230714D01*
X137255714Y-100087857D01*
X137255714Y-98873571D01*
X137970000Y-100373571D02*
X137970000Y-98873571D01*
X138541428Y-98873571D01*
X138684286Y-98945000D01*
X138755714Y-99016429D01*
X138827143Y-99159286D01*
X138827143Y-99373571D01*
X138755714Y-99516429D01*
X138684286Y-99587857D01*
X138541428Y-99659286D01*
X137970000Y-99659286D01*
X140327143Y-100373571D02*
X139827143Y-99659286D01*
X139470000Y-100373571D02*
X139470000Y-98873571D01*
X140041428Y-98873571D01*
X140184286Y-98945000D01*
X140255714Y-99016429D01*
X140327143Y-99159286D01*
X140327143Y-99373571D01*
X140255714Y-99516429D01*
X140184286Y-99587857D01*
X140041428Y-99659286D01*
X139470000Y-99659286D01*
X141255714Y-98873571D02*
X141541428Y-98873571D01*
X141684286Y-98945000D01*
X141827143Y-99087857D01*
X141898571Y-99373571D01*
X141898571Y-99873571D01*
X141827143Y-100159286D01*
X141684286Y-100302143D01*
X141541428Y-100373571D01*
X141255714Y-100373571D01*
X141112857Y-100302143D01*
X140970000Y-100159286D01*
X140898571Y-99873571D01*
X140898571Y-99373571D01*
X140970000Y-99087857D01*
X141112857Y-98945000D01*
X141255714Y-98873571D01*
X142541429Y-100373571D02*
X142541429Y-98873571D01*
X143041429Y-99945000D01*
X143541429Y-98873571D01*
X143541429Y-100373571D01*
X144255715Y-100373571D02*
X144255715Y-98873571D01*
X144970001Y-100373571D02*
X144970001Y-98873571D01*
X145827144Y-100373571D01*
X145827144Y-98873571D01*
X146541430Y-100373571D02*
X146541430Y-98873571D01*
X147255716Y-99802143D02*
X148398573Y-99802143D01*
X149755716Y-98873571D02*
X149470002Y-98873571D01*
X149327145Y-98945000D01*
X149255716Y-99016429D01*
X149112859Y-99230714D01*
X149041430Y-99516429D01*
X149041430Y-100087857D01*
X149112859Y-100230714D01*
X149184287Y-100302143D01*
X149327145Y-100373571D01*
X149612859Y-100373571D01*
X149755716Y-100302143D01*
X149827145Y-100230714D01*
X149898573Y-100087857D01*
X149898573Y-99730714D01*
X149827145Y-99587857D01*
X149755716Y-99516429D01*
X149612859Y-99445000D01*
X149327145Y-99445000D01*
X149184287Y-99516429D01*
X149112859Y-99587857D01*
X149041430Y-99730714D01*
D13*
X146990810Y-111305619D02*
X146990810Y-110289619D01*
X147571381Y-111305619D01*
X147571381Y-110289619D01*
X147958429Y-110289619D02*
X148635762Y-111305619D01*
X148635762Y-110289619D02*
X147958429Y-111305619D01*
X148877667Y-110289619D02*
X149458238Y-110289619D01*
X149167953Y-111305619D02*
X149167953Y-110289619D01*
X149555000Y-111402381D02*
X150329095Y-111402381D01*
X150571000Y-111305619D02*
X150571000Y-110289619D01*
X150909666Y-111015333D01*
X151248333Y-110289619D01*
X151248333Y-111305619D01*
X151925667Y-110289619D02*
X152119190Y-110289619D01*
X152215952Y-110338000D01*
X152312714Y-110434762D01*
X152361095Y-110628286D01*
X152361095Y-110966952D01*
X152312714Y-111160476D01*
X152215952Y-111257238D01*
X152119190Y-111305619D01*
X151925667Y-111305619D01*
X151828905Y-111257238D01*
X151732143Y-111160476D01*
X151683762Y-110966952D01*
X151683762Y-110628286D01*
X151732143Y-110434762D01*
X151828905Y-110338000D01*
X151925667Y-110289619D01*
X152651381Y-110289619D02*
X153231952Y-110289619D01*
X152941667Y-111305619D02*
X152941667Y-110289619D01*
X153764143Y-110289619D02*
X153957666Y-110289619D01*
X154054428Y-110338000D01*
X154151190Y-110434762D01*
X154199571Y-110628286D01*
X154199571Y-110966952D01*
X154151190Y-111160476D01*
X154054428Y-111257238D01*
X153957666Y-111305619D01*
X153764143Y-111305619D01*
X153667381Y-111257238D01*
X153570619Y-111160476D01*
X153522238Y-110966952D01*
X153522238Y-110628286D01*
X153570619Y-110434762D01*
X153667381Y-110338000D01*
X153764143Y-110289619D01*
X155215571Y-111305619D02*
X154876905Y-110821810D01*
X154635000Y-111305619D02*
X154635000Y-110289619D01*
X155022047Y-110289619D01*
X155118809Y-110338000D01*
X155167190Y-110386381D01*
X155215571Y-110483143D01*
X155215571Y-110628286D01*
X155167190Y-110725048D01*
X155118809Y-110773429D01*
X155022047Y-110821810D01*
X154635000Y-110821810D01*
D16*
X116497706Y-105227892D02*
X116497706Y-104226762D01*
X117546510Y-105132546D02*
X117498837Y-105180219D01*
X117355818Y-105227892D01*
X117260472Y-105227892D01*
X117117454Y-105180219D01*
X117022108Y-105084874D01*
X116974435Y-104989528D01*
X116926762Y-104798836D01*
X116926762Y-104655818D01*
X116974435Y-104465126D01*
X117022108Y-104369781D01*
X117117454Y-104274435D01*
X117260472Y-104226762D01*
X117355818Y-104226762D01*
X117498837Y-104274435D01*
X117546510Y-104322108D01*
X118499967Y-105227892D02*
X117927892Y-105227892D01*
X118213930Y-105227892D02*
X118213930Y-104226762D01*
X118118584Y-104369781D01*
X118023238Y-104465126D01*
X117927892Y-104512799D01*
X117928087Y-100046574D02*
X117928087Y-100523507D01*
X116926527Y-100523507D01*
X117021913Y-99760414D02*
X116974220Y-99712720D01*
X116926527Y-99617334D01*
X116926527Y-99378867D01*
X116974220Y-99283480D01*
X117021913Y-99235787D01*
X117117300Y-99188094D01*
X117212687Y-99188094D01*
X117355767Y-99235787D01*
X117928087Y-99808107D01*
X117928087Y-99188094D01*
X117928087Y-98711160D02*
X117928087Y-98520387D01*
X117880393Y-98425000D01*
X117832700Y-98377307D01*
X117689620Y-98281920D01*
X117498847Y-98234227D01*
X117117300Y-98234227D01*
X117021913Y-98281920D01*
X116974220Y-98329613D01*
X116926527Y-98425000D01*
X116926527Y-98615773D01*
X116974220Y-98711160D01*
X117021913Y-98758853D01*
X117117300Y-98806547D01*
X117355767Y-98806547D01*
X117451153Y-98758853D01*
X117498847Y-98711160D01*
X117546540Y-98615773D01*
X117546540Y-98425000D01*
X117498847Y-98329613D01*
X117451153Y-98281920D01*
X117355767Y-98234227D01*
X116926527Y-97900373D02*
X116926527Y-97280360D01*
X117308073Y-97614213D01*
X117308073Y-97471133D01*
X117355767Y-97375746D01*
X117403460Y-97328053D01*
X117498847Y-97280360D01*
X117737313Y-97280360D01*
X117832700Y-97328053D01*
X117880393Y-97375746D01*
X117928087Y-97471133D01*
X117928087Y-97757293D01*
X117880393Y-97852680D01*
X117832700Y-97900373D01*
X117928087Y-96851119D02*
X116926527Y-96851119D01*
X116926527Y-96612653D01*
X116974220Y-96469573D01*
X117069607Y-96374186D01*
X117164993Y-96326493D01*
X117355767Y-96278799D01*
X117498847Y-96278799D01*
X117689620Y-96326493D01*
X117785007Y-96374186D01*
X117880393Y-96469573D01*
X117928087Y-96612653D01*
X117928087Y-96851119D01*
D13*
X114732810Y-111305619D02*
X114732810Y-110289619D01*
X115313381Y-111305619D01*
X115313381Y-110289619D01*
X115700429Y-110289619D02*
X116377762Y-111305619D01*
X116377762Y-110289619D02*
X115700429Y-111305619D01*
X116619667Y-110289619D02*
X117200238Y-110289619D01*
X116909953Y-111305619D02*
X116909953Y-110289619D01*
X117297000Y-111402381D02*
X118071095Y-111402381D01*
X118313000Y-111305619D02*
X118313000Y-110289619D01*
X118651666Y-111015333D01*
X118990333Y-110289619D01*
X118990333Y-111305619D01*
X119667667Y-110289619D02*
X119861190Y-110289619D01*
X119957952Y-110338000D01*
X120054714Y-110434762D01*
X120103095Y-110628286D01*
X120103095Y-110966952D01*
X120054714Y-111160476D01*
X119957952Y-111257238D01*
X119861190Y-111305619D01*
X119667667Y-111305619D01*
X119570905Y-111257238D01*
X119474143Y-111160476D01*
X119425762Y-110966952D01*
X119425762Y-110628286D01*
X119474143Y-110434762D01*
X119570905Y-110338000D01*
X119667667Y-110289619D01*
X120393381Y-110289619D02*
X120973952Y-110289619D01*
X120683667Y-111305619D02*
X120683667Y-110289619D01*
X121506143Y-110289619D02*
X121699666Y-110289619D01*
X121796428Y-110338000D01*
X121893190Y-110434762D01*
X121941571Y-110628286D01*
X121941571Y-110966952D01*
X121893190Y-111160476D01*
X121796428Y-111257238D01*
X121699666Y-111305619D01*
X121506143Y-111305619D01*
X121409381Y-111257238D01*
X121312619Y-111160476D01*
X121264238Y-110966952D01*
X121264238Y-110628286D01*
X121312619Y-110434762D01*
X121409381Y-110338000D01*
X121506143Y-110289619D01*
X122957571Y-111305619D02*
X122618905Y-110821810D01*
X122377000Y-111305619D02*
X122377000Y-110289619D01*
X122764047Y-110289619D01*
X122860809Y-110338000D01*
X122909190Y-110386381D01*
X122957571Y-110483143D01*
X122957571Y-110628286D01*
X122909190Y-110725048D01*
X122860809Y-110773429D01*
X122764047Y-110821810D01*
X122377000Y-110821810D01*
D11*
X135231143Y-86653666D02*
X135278762Y-86701285D01*
X135326381Y-86844142D01*
X135326381Y-86939380D01*
X135278762Y-87082238D01*
X135183524Y-87177476D01*
X135088286Y-87225095D01*
X134897810Y-87272714D01*
X134754952Y-87272714D01*
X134564476Y-87225095D01*
X134469238Y-87177476D01*
X134374000Y-87082238D01*
X134326381Y-86939380D01*
X134326381Y-86844142D01*
X134374000Y-86701285D01*
X134421619Y-86653666D01*
X135326381Y-85701285D02*
X135326381Y-86272714D01*
X135326381Y-85987000D02*
X134326381Y-85987000D01*
X134469238Y-86082238D01*
X134564476Y-86177476D01*
X134612095Y-86272714D01*
X149058334Y-109037381D02*
X148725000Y-108561190D01*
X148486905Y-109037381D02*
X148486905Y-108037381D01*
X148867858Y-108037381D01*
X148963096Y-108085000D01*
X149010715Y-108132619D01*
X149058334Y-108227857D01*
X149058334Y-108370714D01*
X149010715Y-108465952D01*
X148963096Y-108513571D01*
X148867858Y-108561190D01*
X148486905Y-108561190D01*
X150010715Y-109037381D02*
X149439286Y-109037381D01*
X149725000Y-109037381D02*
X149725000Y-108037381D01*
X149629762Y-108180238D01*
X149534524Y-108275476D01*
X149439286Y-108323095D01*
X139533334Y-109037381D02*
X139200000Y-108561190D01*
X138961905Y-109037381D02*
X138961905Y-108037381D01*
X139342858Y-108037381D01*
X139438096Y-108085000D01*
X139485715Y-108132619D01*
X139533334Y-108227857D01*
X139533334Y-108370714D01*
X139485715Y-108465952D01*
X139438096Y-108513571D01*
X139342858Y-108561190D01*
X138961905Y-108561190D01*
X139914286Y-108132619D02*
X139961905Y-108085000D01*
X140057143Y-108037381D01*
X140295239Y-108037381D01*
X140390477Y-108085000D01*
X140438096Y-108132619D01*
X140485715Y-108227857D01*
X140485715Y-108323095D01*
X140438096Y-108465952D01*
X139866667Y-109037381D01*
X140485715Y-109037381D01*
X143089381Y-89153905D02*
X143898905Y-89153905D01*
X143994143Y-89106286D01*
X144041762Y-89058667D01*
X144089381Y-88963429D01*
X144089381Y-88772952D01*
X144041762Y-88677714D01*
X143994143Y-88630095D01*
X143898905Y-88582476D01*
X143089381Y-88582476D01*
X144089381Y-87582476D02*
X144089381Y-88153905D01*
X144089381Y-87868191D02*
X143089381Y-87868191D01*
X143232238Y-87963429D01*
X143327476Y-88058667D01*
X143375095Y-88153905D01*
X144113334Y-80335381D02*
X143780000Y-79859190D01*
X143541905Y-80335381D02*
X143541905Y-79335381D01*
X143922858Y-79335381D01*
X144018096Y-79383000D01*
X144065715Y-79430619D01*
X144113334Y-79525857D01*
X144113334Y-79668714D01*
X144065715Y-79763952D01*
X144018096Y-79811571D01*
X143922858Y-79859190D01*
X143541905Y-79859190D01*
X145113334Y-80240143D02*
X145065715Y-80287762D01*
X144922858Y-80335381D01*
X144827620Y-80335381D01*
X144684762Y-80287762D01*
X144589524Y-80192524D01*
X144541905Y-80097286D01*
X144494286Y-79906810D01*
X144494286Y-79763952D01*
X144541905Y-79573476D01*
X144589524Y-79478238D01*
X144684762Y-79383000D01*
X144827620Y-79335381D01*
X144922858Y-79335381D01*
X145065715Y-79383000D01*
X145113334Y-79430619D01*
X146065715Y-80335381D02*
X145494286Y-80335381D01*
X145780000Y-80335381D02*
X145780000Y-79335381D01*
X145684762Y-79478238D01*
X145589524Y-79573476D01*
X145494286Y-79621095D01*
X144486334Y-84685143D02*
X144438715Y-84732762D01*
X144295858Y-84780381D01*
X144200620Y-84780381D01*
X144057762Y-84732762D01*
X143962524Y-84637524D01*
X143914905Y-84542286D01*
X143867286Y-84351810D01*
X143867286Y-84208952D01*
X143914905Y-84018476D01*
X143962524Y-83923238D01*
X144057762Y-83828000D01*
X144200620Y-83780381D01*
X144295858Y-83780381D01*
X144438715Y-83828000D01*
X144486334Y-83875619D01*
X144867286Y-83875619D02*
X144914905Y-83828000D01*
X145010143Y-83780381D01*
X145248239Y-83780381D01*
X145343477Y-83828000D01*
X145391096Y-83875619D01*
X145438715Y-83970857D01*
X145438715Y-84066095D01*
X145391096Y-84208952D01*
X144819667Y-84780381D01*
X145438715Y-84780381D01*
X153265143Y-86526666D02*
X153312762Y-86574285D01*
X153360381Y-86717142D01*
X153360381Y-86812380D01*
X153312762Y-86955238D01*
X153217524Y-87050476D01*
X153122286Y-87098095D01*
X152931810Y-87145714D01*
X152788952Y-87145714D01*
X152598476Y-87098095D01*
X152503238Y-87050476D01*
X152408000Y-86955238D01*
X152360381Y-86812380D01*
X152360381Y-86717142D01*
X152408000Y-86574285D01*
X152455619Y-86526666D01*
X152360381Y-86193333D02*
X152360381Y-85574285D01*
X152741333Y-85907619D01*
X152741333Y-85764761D01*
X152788952Y-85669523D01*
X152836571Y-85621904D01*
X152931810Y-85574285D01*
X153169905Y-85574285D01*
X153265143Y-85621904D01*
X153312762Y-85669523D01*
X153360381Y-85764761D01*
X153360381Y-86050476D01*
X153312762Y-86145714D01*
X153265143Y-86193333D01*
X144597381Y-112355238D02*
X144121190Y-112688572D01*
X144597381Y-112926667D02*
X143597381Y-112926667D01*
X143597381Y-112545714D01*
X143645000Y-112450476D01*
X143692619Y-112402857D01*
X143787857Y-112355238D01*
X143930714Y-112355238D01*
X144025952Y-112402857D01*
X144073571Y-112450476D01*
X144121190Y-112545714D01*
X144121190Y-112926667D01*
X143597381Y-112069524D02*
X144597381Y-111736191D01*
X143597381Y-111402857D01*
X144597381Y-110545714D02*
X144597381Y-111117143D01*
X144597381Y-110831429D02*
X143597381Y-110831429D01*
X143740238Y-110926667D01*
X143835476Y-111021905D01*
X143883095Y-111117143D01*
X130008334Y-109037381D02*
X129675000Y-108561190D01*
X129436905Y-109037381D02*
X129436905Y-108037381D01*
X129817858Y-108037381D01*
X129913096Y-108085000D01*
X129960715Y-108132619D01*
X130008334Y-108227857D01*
X130008334Y-108370714D01*
X129960715Y-108465952D01*
X129913096Y-108513571D01*
X129817858Y-108561190D01*
X129436905Y-108561190D01*
X130341667Y-108037381D02*
X130960715Y-108037381D01*
X130627381Y-108418333D01*
X130770239Y-108418333D01*
X130865477Y-108465952D01*
X130913096Y-108513571D01*
X130960715Y-108608810D01*
X130960715Y-108846905D01*
X130913096Y-108942143D01*
X130865477Y-108989762D01*
X130770239Y-109037381D01*
X130484524Y-109037381D01*
X130389286Y-108989762D01*
X130341667Y-108942143D01*
X126134762Y-113728333D02*
X126182381Y-113585476D01*
X126182381Y-113347380D01*
X126134762Y-113252142D01*
X126087143Y-113204523D01*
X125991905Y-113156904D01*
X125896667Y-113156904D01*
X125801429Y-113204523D01*
X125753810Y-113252142D01*
X125706190Y-113347380D01*
X125658571Y-113537857D01*
X125610952Y-113633095D01*
X125563333Y-113680714D01*
X125468095Y-113728333D01*
X125372857Y-113728333D01*
X125277619Y-113680714D01*
X125230000Y-113633095D01*
X125182381Y-113537857D01*
X125182381Y-113299761D01*
X125230000Y-113156904D01*
X125182381Y-112823571D02*
X126182381Y-112585476D01*
X125468095Y-112394999D01*
X126182381Y-112204523D01*
X125182381Y-111966428D01*
X125277619Y-111633095D02*
X125230000Y-111585476D01*
X125182381Y-111490238D01*
X125182381Y-111252142D01*
X125230000Y-111156904D01*
X125277619Y-111109285D01*
X125372857Y-111061666D01*
X125468095Y-111061666D01*
X125610952Y-111109285D01*
X126182381Y-111680714D01*
X126182381Y-111061666D01*
X125166381Y-92305095D02*
X124166381Y-92305095D01*
X124166381Y-92067000D01*
X124214000Y-91924142D01*
X124309238Y-91828904D01*
X124404476Y-91781285D01*
X124594952Y-91733666D01*
X124737810Y-91733666D01*
X124928286Y-91781285D01*
X125023524Y-91828904D01*
X125118762Y-91924142D01*
X125166381Y-92067000D01*
X125166381Y-92305095D01*
X125166381Y-90781285D02*
X125166381Y-91352714D01*
X125166381Y-91067000D02*
X124166381Y-91067000D01*
X124309238Y-91162238D01*
X124404476Y-91257476D01*
X124452095Y-91352714D01*
D10*
X114933001Y-87376800D02*
X115033001Y-87410133D01*
X115066334Y-87443467D01*
X115099668Y-87510133D01*
X115099668Y-87610133D01*
X115066334Y-87676800D01*
X115033001Y-87710133D01*
X114966334Y-87743467D01*
X114699668Y-87743467D01*
X114699668Y-87043467D01*
X114933001Y-87043467D01*
X114999668Y-87076800D01*
X115033001Y-87110133D01*
X115066334Y-87176800D01*
X115066334Y-87243467D01*
X115033001Y-87310133D01*
X114999668Y-87343467D01*
X114933001Y-87376800D01*
X114699668Y-87376800D01*
X115699668Y-87743467D02*
X115699668Y-87376800D01*
X115666334Y-87310133D01*
X115599668Y-87276800D01*
X115466334Y-87276800D01*
X115399668Y-87310133D01*
X115699668Y-87710133D02*
X115633001Y-87743467D01*
X115466334Y-87743467D01*
X115399668Y-87710133D01*
X115366334Y-87643467D01*
X115366334Y-87576800D01*
X115399668Y-87510133D01*
X115466334Y-87476800D01*
X115633001Y-87476800D01*
X115699668Y-87443467D01*
X115933001Y-87276800D02*
X116199667Y-87276800D01*
X116033001Y-87043467D02*
X116033001Y-87643467D01*
X116066334Y-87710133D01*
X116133001Y-87743467D01*
X116199667Y-87743467D01*
X116333001Y-87276800D02*
X116599667Y-87276800D01*
X116433001Y-87043467D02*
X116433001Y-87643467D01*
X116466334Y-87710133D01*
X116533001Y-87743467D01*
X116599667Y-87743467D01*
X117099667Y-87710133D02*
X117033001Y-87743467D01*
X116899667Y-87743467D01*
X116833001Y-87710133D01*
X116799667Y-87643467D01*
X116799667Y-87376800D01*
X116833001Y-87310133D01*
X116899667Y-87276800D01*
X117033001Y-87276800D01*
X117099667Y-87310133D01*
X117133001Y-87376800D01*
X117133001Y-87443467D01*
X116799667Y-87510133D01*
X117433001Y-87743467D02*
X117433001Y-87276800D01*
X117433001Y-87410133D02*
X117466334Y-87343467D01*
X117499667Y-87310133D01*
X117566334Y-87276800D01*
X117633001Y-87276800D01*
X117799667Y-87276800D02*
X117966334Y-87743467D01*
X118133000Y-87276800D02*
X117966334Y-87743467D01*
X117899667Y-87910133D01*
X117866334Y-87943467D01*
X117799667Y-87976800D01*
X123451534Y-83741467D02*
X123584867Y-83741467D01*
X123651534Y-83774800D01*
X123718201Y-83841467D01*
X123751534Y-83974800D01*
X123751534Y-84208133D01*
X123718201Y-84341467D01*
X123651534Y-84408133D01*
X123584867Y-84441467D01*
X123451534Y-84441467D01*
X123384867Y-84408133D01*
X123318201Y-84341467D01*
X123284867Y-84208133D01*
X123284867Y-83974800D01*
X123318201Y-83841467D01*
X123384867Y-83774800D01*
X123451534Y-83741467D01*
X124051534Y-83974800D02*
X124051534Y-84441467D01*
X124051534Y-84041467D02*
X124084867Y-84008133D01*
X124151534Y-83974800D01*
X124251534Y-83974800D01*
X124318200Y-84008133D01*
X124351534Y-84074800D01*
X124351534Y-84441467D01*
X125184867Y-83708133D02*
X124584867Y-84608133D01*
X125551533Y-83741467D02*
X125684866Y-83741467D01*
X125751533Y-83774800D01*
X125818200Y-83841467D01*
X125851533Y-83974800D01*
X125851533Y-84208133D01*
X125818200Y-84341467D01*
X125751533Y-84408133D01*
X125684866Y-84441467D01*
X125551533Y-84441467D01*
X125484866Y-84408133D01*
X125418200Y-84341467D01*
X125384866Y-84208133D01*
X125384866Y-83974800D01*
X125418200Y-83841467D01*
X125484866Y-83774800D01*
X125551533Y-83741467D01*
X126051533Y-83974800D02*
X126318199Y-83974800D01*
X126151533Y-84441467D02*
X126151533Y-83841467D01*
X126184866Y-83774800D01*
X126251533Y-83741467D01*
X126318199Y-83741467D01*
X126451533Y-83974800D02*
X126718199Y-83974800D01*
X126551533Y-84441467D02*
X126551533Y-83841467D01*
X126584866Y-83774800D01*
X126651533Y-83741467D01*
X126718199Y-83741467D01*
X129622866Y-125912133D02*
X129722866Y-125945467D01*
X129889533Y-125945467D01*
X129956200Y-125912133D01*
X129989533Y-125878800D01*
X130022866Y-125812133D01*
X130022866Y-125745467D01*
X129989533Y-125678800D01*
X129956200Y-125645467D01*
X129889533Y-125612133D01*
X129756200Y-125578800D01*
X129689533Y-125545467D01*
X129656200Y-125512133D01*
X129622866Y-125445467D01*
X129622866Y-125378800D01*
X129656200Y-125312133D01*
X129689533Y-125278800D01*
X129756200Y-125245467D01*
X129922866Y-125245467D01*
X130022866Y-125278800D01*
X130256200Y-125245467D02*
X130422867Y-125945467D01*
X130556200Y-125445467D01*
X130689533Y-125945467D01*
X130856200Y-125245467D01*
X131489533Y-125945467D02*
X131089533Y-125945467D01*
X131289533Y-125945467D02*
X131289533Y-125245467D01*
X131222867Y-125345467D01*
X131156200Y-125412133D01*
X131089533Y-125445467D01*
M02*
