G04 #@! TF.FileFunction,Copper,L1,Top,Signal*
%FSLAX46Y46*%
G04 Gerber Fmt 4.6, Leading zero omitted, Abs format (unit mm)*
G04 Created by KiCad (PCBNEW 4.0.2-stable) date 3/15/2018 10:39:37 AM*
%MOMM*%
G01*
G04 APERTURE LIST*
%ADD10C,0.100000*%
%ADD11C,1.524000*%
%ADD12C,1.500000*%
%ADD13C,2.413000*%
%ADD14C,1.270000*%
%ADD15O,1.270000X2.286000*%
%ADD16R,1.500000X2.500000*%
%ADD17O,1.500000X2.500000*%
%ADD18O,2.200000X3.500000*%
%ADD19O,2.641600X1.320800*%
%ADD20R,1.600000X1.600000*%
%ADD21C,1.600000*%
%ADD22C,1.400000*%
%ADD23O,1.400000X1.400000*%
%ADD24O,2.540000X2.032000*%
%ADD25R,3.000000X3.000000*%
%ADD26C,3.000000*%
%ADD27R,1.700000X1.700000*%
%ADD28O,1.700000X1.700000*%
%ADD29C,1.620000*%
%ADD30C,2.000000*%
%ADD31C,0.600000*%
%ADD32C,0.250000*%
G04 APERTURE END LIST*
D10*
D11*
X128270000Y-106045000D03*
X130810000Y-106045000D03*
X133350000Y-106045000D03*
X135890000Y-106045000D03*
X138430000Y-106045000D03*
X140970000Y-106045000D03*
X143510000Y-106045000D03*
X146050000Y-106045000D03*
X148590000Y-106045000D03*
X151130000Y-106045000D03*
X153670000Y-106045000D03*
X156210000Y-106045000D03*
X128270000Y-90805000D03*
X130810000Y-90805000D03*
X133350000Y-90805000D03*
X135890000Y-90805000D03*
X138430000Y-90805000D03*
X140970000Y-90805000D03*
X143510000Y-90805000D03*
X146050000Y-90805000D03*
X148590000Y-90805000D03*
X151130000Y-90805000D03*
X153670000Y-90805000D03*
X156210000Y-90805000D03*
D12*
X137033000Y-93726000D03*
X139573000Y-93726000D03*
X147447000Y-93726000D03*
X149987000Y-93726000D03*
D13*
X145046700Y-115658900D03*
D14*
X147648060Y-121221100D02*
X148366480Y-120502680D01*
X149484080Y-118036340D02*
X148765660Y-117317920D01*
D15*
X150540720Y-120977660D03*
X151668480Y-117502940D03*
D14*
X153430840Y-121185540D02*
X152712420Y-120467120D01*
X153832560Y-117944900D02*
X154550980Y-117226480D01*
D13*
X157111700Y-115658900D03*
D16*
X132715000Y-122555000D03*
D17*
X134715000Y-122555000D03*
X136715000Y-122555000D03*
D18*
X130615000Y-122555000D03*
X138815000Y-122555000D03*
D19*
X121285000Y-107315000D03*
X121285000Y-104775000D03*
X121285000Y-92075000D03*
X121285000Y-89535000D03*
X121285000Y-102235000D03*
X121285000Y-99695000D03*
X121285000Y-94615000D03*
X121285000Y-97155000D03*
X113665000Y-89535000D03*
X113665000Y-92075000D03*
X113665000Y-94615000D03*
X113665000Y-97155000D03*
X113665000Y-99695000D03*
X113665000Y-102235000D03*
X113665000Y-104775000D03*
X113665000Y-107315000D03*
D13*
X112661700Y-115658900D03*
D14*
X115263060Y-121221100D02*
X115981480Y-120502680D01*
X117099080Y-118036340D02*
X116380660Y-117317920D01*
D15*
X118155720Y-120977660D03*
X119283480Y-117502940D03*
D14*
X121045840Y-121185540D02*
X120327420Y-120467120D01*
X121447560Y-117944900D02*
X122165980Y-117226480D01*
D13*
X124726700Y-115658900D03*
D20*
X126365000Y-81915000D03*
D21*
X126365000Y-84415000D03*
D22*
X145415000Y-108585000D03*
D23*
X153035000Y-108585000D03*
D22*
X143510000Y-108585000D03*
D23*
X135890000Y-108585000D03*
D24*
X132715000Y-83185000D03*
X132715000Y-85725000D03*
X132715000Y-80645000D03*
D25*
X120015000Y-81915000D03*
D26*
X114935000Y-81915000D03*
D27*
X147955000Y-80645000D03*
D28*
X150495000Y-80645000D03*
X153035000Y-80645000D03*
X155575000Y-80645000D03*
D20*
X141605000Y-84455000D03*
D21*
X141605000Y-81955000D03*
X154940000Y-87630000D03*
X154940000Y-85130000D03*
D29*
X137240000Y-116840000D03*
X139740000Y-111840000D03*
X142240000Y-116840000D03*
D22*
X126365000Y-108585000D03*
D23*
X133985000Y-108585000D03*
D30*
X127635000Y-116895000D03*
X127635000Y-112395000D03*
X134135000Y-116895000D03*
X134135000Y-112395000D03*
D31*
X128669700Y-100065100D03*
D32*
X144639700Y-104915300D02*
X143510000Y-106045000D01*
X151562800Y-104915300D02*
X144639700Y-104915300D01*
X152451600Y-105804100D02*
X151562800Y-104915300D01*
X152451600Y-106976300D02*
X152451600Y-105804100D01*
X153035000Y-107559700D02*
X152451600Y-106976300D01*
X153035000Y-108585000D02*
X153035000Y-107559700D01*
X120015000Y-88265000D02*
X121285000Y-89535000D01*
X120015000Y-81915000D02*
X120015000Y-88265000D01*
X118155700Y-120469700D02*
X118155700Y-119509400D01*
X126365000Y-104775000D02*
X121285000Y-99695000D01*
X126365000Y-108585000D02*
X126365000Y-104775000D01*
X119231700Y-119509400D02*
X118155700Y-119509400D01*
X120398500Y-118342600D02*
X119231700Y-119509400D01*
X120398500Y-114551500D02*
X120398500Y-118342600D01*
X126365000Y-108585000D02*
X120398500Y-114551500D01*
X136715000Y-122555000D02*
X136715000Y-120979700D01*
X137240000Y-120454700D02*
X137240000Y-116840000D01*
X136715000Y-120979700D02*
X137240000Y-120454700D01*
X135890000Y-108585000D02*
X135890000Y-109610300D01*
X137240000Y-116840000D02*
X137240000Y-112993000D01*
X137240000Y-110960300D02*
X135890000Y-109610300D01*
X137240000Y-112993000D02*
X137240000Y-110960300D01*
X150540700Y-117644800D02*
X150540700Y-120469700D01*
X144952600Y-112056700D02*
X150540700Y-117644800D01*
X144016300Y-112993000D02*
X144952600Y-112056700D01*
X137240000Y-112993000D02*
X144016300Y-112993000D01*
X145415000Y-111594300D02*
X145415000Y-108585000D01*
X144952600Y-112056700D02*
X145415000Y-111594300D01*
X149319700Y-81453000D02*
X149319700Y-80645000D01*
X148817700Y-81955000D02*
X149319700Y-81453000D01*
X141605000Y-81955000D02*
X148817700Y-81955000D01*
X150495000Y-80645000D02*
X149319700Y-80645000D01*
X121285000Y-98425000D02*
X113665000Y-98425000D01*
X121285000Y-98425000D02*
X121285000Y-99695000D01*
X113665000Y-99695000D02*
X113665000Y-98425000D01*
X113665000Y-98425000D02*
X113665000Y-97155000D01*
X121285000Y-97155000D02*
X121285000Y-98425000D01*
X123663900Y-93871500D02*
X128765600Y-88769800D01*
X123663900Y-94776100D02*
X123663900Y-93871500D01*
X121285000Y-97155000D02*
X123663900Y-94776100D01*
X128774800Y-88769800D02*
X130810000Y-90805000D01*
X128765600Y-88769800D02*
X128774800Y-88769800D01*
X133945000Y-81955000D02*
X132715000Y-83185000D01*
X141605000Y-81955000D02*
X133945000Y-81955000D01*
X132715000Y-83185000D02*
X131119700Y-83185000D01*
X131119700Y-83185000D02*
X128127400Y-86177300D01*
X128765600Y-86815600D02*
X128127400Y-86177300D01*
X128765600Y-88769800D02*
X128765600Y-86815600D01*
X128127400Y-86177300D02*
X126365000Y-84415000D01*
X114866300Y-118029500D02*
X116660500Y-119823700D01*
X114866300Y-114076200D02*
X114866300Y-118029500D01*
X111520800Y-110730700D02*
X114866300Y-114076200D01*
X111520800Y-96759200D02*
X111520800Y-110730700D01*
X113665000Y-94615000D02*
X111520800Y-96759200D01*
X115981500Y-120502700D02*
X116660500Y-119823700D01*
X117099100Y-118036300D02*
X115701700Y-116638800D01*
X111971200Y-103928800D02*
X113665000Y-102235000D01*
X111971200Y-108737300D02*
X111971200Y-103928800D01*
X112421500Y-109187600D02*
X111971200Y-108737300D01*
X112421500Y-109824400D02*
X112421500Y-109187600D01*
X115701700Y-113104600D02*
X112421500Y-109824400D01*
X115701700Y-116638800D02*
X115701700Y-113104600D01*
X151130000Y-109128900D02*
X151130000Y-106045000D01*
X152712400Y-110711300D02*
X151130000Y-109128900D01*
X152712400Y-119109100D02*
X152712400Y-110711300D01*
X152033400Y-119788100D02*
X152712400Y-119109100D01*
X152712400Y-120467100D02*
X152033400Y-119788100D01*
X154074500Y-106449500D02*
X153670000Y-106045000D01*
X154074500Y-115391900D02*
X154074500Y-106449500D01*
X155230100Y-116547400D02*
X154074500Y-115391900D01*
X153832600Y-117944900D02*
X155230100Y-116547400D01*
X127174800Y-101560000D02*
X128669700Y-100065100D01*
X127174800Y-107551800D02*
X127174800Y-101560000D01*
X127404200Y-107781200D02*
X127174800Y-107551800D01*
X127404200Y-109701000D02*
X127404200Y-107781200D01*
X122845000Y-114260200D02*
X127404200Y-109701000D01*
X122845000Y-116547400D02*
X122845000Y-114260200D01*
X122845100Y-116547400D02*
X122845000Y-116547400D01*
X121447600Y-117944900D02*
X122845100Y-116547400D01*
X138430000Y-97788100D02*
X138430000Y-106045000D01*
X144939400Y-91278700D02*
X138430000Y-97788100D01*
X144939400Y-89915900D02*
X144939400Y-91278700D01*
X153035000Y-81820300D02*
X144939400Y-89915900D01*
X153035000Y-80645000D02*
X153035000Y-81820300D01*
X148717000Y-98298000D02*
X140970000Y-106045000D01*
X148717000Y-92691300D02*
X148717000Y-98298000D01*
X150019400Y-91388900D02*
X148717000Y-92691300D01*
X150019400Y-87375900D02*
X150019400Y-91388900D01*
X155575000Y-81820300D02*
X150019400Y-87375900D01*
X155575000Y-80645000D02*
X155575000Y-81820300D01*
X138303000Y-93472000D02*
X140970000Y-90805000D01*
X138303000Y-95153600D02*
X138303000Y-93472000D01*
X132257200Y-101199400D02*
X138303000Y-95153600D01*
X132257200Y-113129600D02*
X132257200Y-101199400D01*
X135505500Y-116377900D02*
X132257200Y-113129600D01*
X135505500Y-120189200D02*
X135505500Y-116377900D01*
X134715000Y-120979700D02*
X135505500Y-120189200D01*
X134715000Y-122555000D02*
X134715000Y-120979700D01*
X119283500Y-112933500D02*
X119283500Y-118010900D01*
X113665000Y-107315000D02*
X119283500Y-112933500D01*
X134135000Y-116895000D02*
X132715000Y-118315000D01*
X132715000Y-118315000D02*
X132715000Y-122555000D01*
X127635000Y-116895000D02*
X129381200Y-116895000D01*
X131295000Y-116895000D02*
X132715000Y-118315000D01*
X129381200Y-116895000D02*
X131295000Y-116895000D01*
X129381200Y-91916200D02*
X128270000Y-90805000D01*
X129381200Y-116895000D02*
X129381200Y-91916200D01*
X139740000Y-97115000D02*
X146050000Y-90805000D01*
X139740000Y-111840000D02*
X139740000Y-97115000D01*
X134135000Y-109760300D02*
X133985000Y-109610300D01*
X134135000Y-112395000D02*
X134135000Y-109760300D01*
X133985000Y-108971700D02*
X133985000Y-109610300D01*
X133985000Y-108971700D02*
X133985000Y-108585000D01*
X143510000Y-91502200D02*
X143510000Y-90805000D01*
X134568400Y-100443800D02*
X143510000Y-91502200D01*
X134568400Y-106976300D02*
X134568400Y-100443800D01*
X133985000Y-107559700D02*
X134568400Y-106976300D01*
X133985000Y-108585000D02*
X133985000Y-107559700D01*
M02*
