G04 #@! TF.FileFunction,Copper,L1,Top,Signal*
%FSLAX46Y46*%
G04 Gerber Fmt 4.6, Leading zero omitted, Abs format (unit mm)*
G04 Created by KiCad (PCBNEW 4.0.2-stable) date 1/9/2018 5:10:49 PM*
%MOMM*%
G01*
G04 APERTURE LIST*
%ADD10C,0.100000*%
%ADD11C,1.524000*%
%ADD12C,1.500000*%
%ADD13C,2.413000*%
%ADD14C,1.270000*%
%ADD15O,1.270000X2.286000*%
%ADD16R,2.500000X1.500000*%
%ADD17O,2.500000X1.500000*%
%ADD18O,3.500000X2.200000*%
%ADD19O,2.641600X1.320800*%
%ADD20C,1.600000*%
%ADD21R,1.600000X1.600000*%
%ADD22C,1.400000*%
%ADD23O,1.400000X1.400000*%
%ADD24O,2.032000X2.540000*%
%ADD25R,3.000000X3.000000*%
%ADD26C,3.000000*%
%ADD27C,1.620000*%
%ADD28R,1.700000X1.700000*%
%ADD29O,1.700000X1.700000*%
%ADD30C,0.250000*%
G04 APERTURE END LIST*
D10*
D11*
X154305000Y-63500000D03*
X154305000Y-66040000D03*
X154305000Y-68580000D03*
X154305000Y-71120000D03*
X154305000Y-73660000D03*
X154305000Y-76200000D03*
X154305000Y-78740000D03*
X154305000Y-81280000D03*
X154305000Y-83820000D03*
X154305000Y-86360000D03*
X154305000Y-88900000D03*
X154305000Y-91440000D03*
X169545000Y-63500000D03*
X169545000Y-66040000D03*
X169545000Y-68580000D03*
X169545000Y-71120000D03*
X169545000Y-73660000D03*
X169545000Y-76200000D03*
X169545000Y-78740000D03*
X169545000Y-81280000D03*
X169545000Y-83820000D03*
X169545000Y-86360000D03*
X169545000Y-88900000D03*
X169545000Y-91440000D03*
D12*
X166624000Y-72263000D03*
X166624000Y-74803000D03*
X166624000Y-82677000D03*
X166624000Y-85217000D03*
D13*
X160921700Y-99783900D03*
D14*
X163523060Y-105346100D02*
X164241480Y-104627680D01*
X165359080Y-102161340D02*
X164640660Y-101442920D01*
D15*
X166415720Y-105102660D03*
X167543480Y-101627940D03*
D14*
X169305840Y-105310540D02*
X168587420Y-104592120D01*
X169707560Y-102069900D02*
X170425980Y-101351480D01*
D13*
X172986700Y-99783900D03*
D16*
X174625000Y-69215000D03*
D17*
X174625000Y-67215000D03*
X174625000Y-65215000D03*
D18*
X174625000Y-71315000D03*
X174625000Y-63115000D03*
D19*
X144145000Y-90170000D03*
X144145000Y-87630000D03*
X144145000Y-74930000D03*
X144145000Y-72390000D03*
X144145000Y-85090000D03*
X144145000Y-82550000D03*
X144145000Y-77470000D03*
X144145000Y-80010000D03*
X136525000Y-72390000D03*
X136525000Y-74930000D03*
X136525000Y-77470000D03*
X136525000Y-80010000D03*
X136525000Y-82550000D03*
X136525000Y-85090000D03*
X136525000Y-87630000D03*
X136525000Y-90170000D03*
D13*
X139331700Y-99783900D03*
D14*
X141933060Y-105346100D02*
X142651480Y-104627680D01*
X143769080Y-102161340D02*
X143050660Y-101442920D01*
D15*
X144825720Y-105102660D03*
X145953480Y-101627940D03*
D14*
X147715840Y-105310540D02*
X146997420Y-104592120D01*
X148117560Y-102069900D02*
X148835980Y-101351480D01*
D13*
X151396700Y-99783900D03*
D20*
X147320000Y-82550000D03*
X149820000Y-82550000D03*
D21*
X149225000Y-64770000D03*
D20*
X149225000Y-67270000D03*
D21*
X147955000Y-88900000D03*
D20*
X150455000Y-88900000D03*
D22*
X151130000Y-71755000D03*
D23*
X151130000Y-79375000D03*
D22*
X147320000Y-71755000D03*
D23*
X147320000Y-79375000D03*
D24*
X140335000Y-66675000D03*
X137795000Y-66675000D03*
X142875000Y-66675000D03*
D25*
X146050000Y-58420000D03*
D26*
X140970000Y-58420000D03*
D27*
X177800000Y-79930000D03*
X172800000Y-77430000D03*
X177800000Y-74930000D03*
X177800000Y-89455000D03*
X172800000Y-86955000D03*
X177800000Y-84455000D03*
D28*
X168275000Y-57785000D03*
D29*
X165735000Y-57785000D03*
X163195000Y-57785000D03*
X160655000Y-57785000D03*
D30*
X154045000Y-83820000D02*
X154305000Y-83820000D01*
X144145000Y-74930000D02*
X145791100Y-74930000D01*
X145791100Y-75566100D02*
X145791100Y-74930000D01*
X154045000Y-83820000D02*
X145791100Y-75566100D01*
X149225000Y-64770000D02*
X149225000Y-65895300D01*
X141814000Y-70694000D02*
X144145000Y-70694000D01*
X137795000Y-66675000D02*
X141814000Y-70694000D01*
X144145000Y-72390000D02*
X144145000Y-70694000D01*
X148943700Y-65895300D02*
X149225000Y-65895300D01*
X144145000Y-70694000D02*
X148943700Y-65895300D01*
X164589600Y-103617800D02*
X164920500Y-103948700D01*
X146063200Y-103617800D02*
X164589600Y-103617800D01*
X144975600Y-102530200D02*
X146063200Y-103617800D01*
X144975600Y-100627600D02*
X144975600Y-102530200D01*
X145837500Y-99765700D02*
X144975600Y-100627600D01*
X145837500Y-86782500D02*
X145837500Y-99765700D01*
X144145000Y-85090000D02*
X145837500Y-86782500D01*
X164241500Y-104627700D02*
X164920500Y-103948700D01*
X140335000Y-59055000D02*
X140335000Y-66675000D01*
X140970000Y-58420000D02*
X140335000Y-59055000D01*
X150455000Y-83185000D02*
X149820000Y-82550000D01*
X150455000Y-88900000D02*
X150455000Y-83185000D01*
X144145000Y-81280000D02*
X136525000Y-81280000D01*
X144145000Y-80010000D02*
X144145000Y-81280000D01*
X144145000Y-81280000D02*
X144145000Y-82550000D01*
X136525000Y-82550000D02*
X136525000Y-81280000D01*
X136525000Y-81280000D02*
X136525000Y-80010000D01*
X144145000Y-77760200D02*
X144145000Y-77470000D01*
X163961700Y-100623100D02*
X163961700Y-100763800D01*
X160341100Y-97002500D02*
X163961700Y-100623100D01*
X156957900Y-97002500D02*
X160341100Y-97002500D01*
X149080400Y-89125000D02*
X156957900Y-97002500D01*
X149080400Y-84185800D02*
X149080400Y-89125000D01*
X148570000Y-83675400D02*
X149080400Y-84185800D01*
X148570000Y-82185200D02*
X148570000Y-83675400D01*
X144145000Y-77760200D02*
X148570000Y-82185200D01*
X165359100Y-102161300D02*
X163961700Y-100763800D01*
X152399100Y-76834100D02*
X147320000Y-71755000D01*
X152399100Y-80923700D02*
X152399100Y-76834100D01*
X154025400Y-82550000D02*
X152399100Y-80923700D01*
X154611800Y-82550000D02*
X154025400Y-82550000D01*
X155406300Y-83344500D02*
X154611800Y-82550000D01*
X155406300Y-84265000D02*
X155406300Y-83344500D01*
X154623800Y-85047500D02*
X155406300Y-84265000D01*
X154038300Y-85047500D02*
X154623800Y-85047500D01*
X153205900Y-85879900D02*
X154038300Y-85047500D01*
X153205900Y-90340900D02*
X153205900Y-85879900D01*
X154305000Y-91440000D02*
X153205900Y-90340900D01*
X155575000Y-77470000D02*
X169545000Y-91440000D01*
X154025500Y-77470000D02*
X155575000Y-77470000D01*
X152849500Y-76294000D02*
X154025500Y-77470000D01*
X152849500Y-75757300D02*
X152849500Y-76294000D01*
X147795100Y-70702900D02*
X152849500Y-75757300D01*
X146877400Y-70702900D02*
X147795100Y-70702900D01*
X146152300Y-71428000D02*
X146877400Y-70702900D01*
X146152300Y-72481400D02*
X146152300Y-71428000D01*
X144988500Y-73645200D02*
X146152300Y-72481400D01*
X137809800Y-73645200D02*
X144988500Y-73645200D01*
X136525000Y-74930000D02*
X137809800Y-73645200D01*
X142371700Y-90936700D02*
X142371700Y-100763800D01*
X136525000Y-85090000D02*
X142371700Y-90936700D01*
X143769100Y-102161300D02*
X142371700Y-100763800D01*
X136525000Y-88265000D02*
X136525000Y-87630000D01*
X136525000Y-88265000D02*
X135890000Y-88265000D01*
X137160000Y-88265000D02*
X136525000Y-88265000D01*
X156828400Y-86360000D02*
X154305000Y-86360000D01*
X171418400Y-100950000D02*
X156828400Y-86360000D01*
X171418400Y-101761100D02*
X171418400Y-100950000D01*
X169266400Y-103913100D02*
X171418400Y-101761100D01*
X167908400Y-103913100D02*
X169266400Y-103913100D01*
X168587400Y-104592100D02*
X167908400Y-103913100D01*
X156684200Y-88900000D02*
X154305000Y-88900000D01*
X169028600Y-101244400D02*
X156684200Y-88900000D01*
X169028600Y-102748900D02*
X169028600Y-101244400D01*
X169707600Y-102069900D02*
X169028600Y-102748900D01*
X155757600Y-72207400D02*
X154305000Y-73660000D01*
X155757600Y-60926800D02*
X155757600Y-72207400D01*
X160115500Y-56568900D02*
X155757600Y-60926800D01*
X161170900Y-56568900D02*
X160115500Y-56568900D01*
X162019700Y-57417700D02*
X161170900Y-56568900D01*
X162019700Y-57785000D02*
X162019700Y-57417700D01*
X163195000Y-57785000D02*
X162019700Y-57785000D01*
X160655000Y-69850000D02*
X154305000Y-76200000D01*
X160655000Y-57785000D02*
X160655000Y-69850000D01*
X169545000Y-71120000D02*
X168910000Y-71120000D01*
X168275000Y-70485000D02*
X168910000Y-71120000D01*
X168275000Y-57785000D02*
X168275000Y-70485000D01*
X147320000Y-87139700D02*
X147320000Y-82550000D01*
X147955000Y-87774700D02*
X147320000Y-87139700D01*
X147955000Y-88900000D02*
X147955000Y-87774700D01*
X178951500Y-83303500D02*
X177800000Y-84455000D01*
X178951500Y-76081500D02*
X178951500Y-83303500D01*
X177800000Y-74930000D02*
X178951500Y-76081500D01*
X167543500Y-102135900D02*
X167543500Y-103096200D01*
X152325300Y-98232800D02*
X147955000Y-98232800D01*
X157259900Y-103167400D02*
X152325300Y-98232800D01*
X167472300Y-103167400D02*
X157259900Y-103167400D01*
X167543500Y-103096200D02*
X167472300Y-103167400D01*
X147955000Y-100134400D02*
X147955000Y-98232800D01*
X145953500Y-102135900D02*
X147955000Y-100134400D01*
X147955000Y-98232800D02*
X147955000Y-88900000D01*
X177800000Y-70814700D02*
X177800000Y-74930000D01*
X176200300Y-69215000D02*
X177800000Y-70814700D01*
X174625000Y-69215000D02*
X176200300Y-69215000D01*
X146050000Y-64841300D02*
X144216300Y-66675000D01*
X146050000Y-58420000D02*
X146050000Y-64841300D01*
X142875000Y-66675000D02*
X144216300Y-66675000D01*
X172800000Y-84535000D02*
X169545000Y-81280000D01*
X172800000Y-86955000D02*
X172800000Y-84535000D01*
X170997600Y-74747400D02*
X169545000Y-76200000D01*
X170997600Y-69267100D02*
X170997600Y-74747400D01*
X173049700Y-67215000D02*
X170997600Y-69267100D01*
X174625000Y-67215000D02*
X173049700Y-67215000D01*
M02*
