G04 #@! TF.GenerationSoftware,KiCad,Pcbnew,5.0.0-fee4fd1~66~ubuntu16.04.1*
G04 #@! TF.CreationDate,2018-09-27T17:05:49-06:00*
G04 #@! TF.ProjectId,nxt_esc,6E78745F6573632E6B696361645F7063,rev?*
G04 #@! TF.SameCoordinates,Original*
G04 #@! TF.FileFunction,Copper,L2,Bot,Signal*
G04 #@! TF.FilePolarity,Positive*
%FSLAX46Y46*%
G04 Gerber Fmt 4.6, Leading zero omitted, Abs format (unit mm)*
G04 Created by KiCad (PCBNEW 5.0.0-fee4fd1~66~ubuntu16.04.1) date Thu Sep 27 17:05:49 2018*
%MOMM*%
%LPD*%
G01*
G04 APERTURE LIST*
G04 #@! TA.AperFunction,ComponentPad*
%ADD10C,1.524000*%
G04 #@! TD*
G04 #@! TA.AperFunction,ComponentPad*
%ADD11C,1.500000*%
G04 #@! TD*
G04 #@! TA.AperFunction,ComponentPad*
%ADD12C,2.413000*%
G04 #@! TD*
G04 #@! TA.AperFunction,ComponentPad*
%ADD13C,1.270000*%
G04 #@! TD*
G04 #@! TA.AperFunction,Conductor*
%ADD14C,1.270000*%
G04 #@! TD*
G04 #@! TA.AperFunction,ComponentPad*
%ADD15O,1.270000X2.286000*%
G04 #@! TD*
G04 #@! TA.AperFunction,ComponentPad*
%ADD16O,2.641600X1.320800*%
G04 #@! TD*
G04 #@! TA.AperFunction,ComponentPad*
%ADD17R,1.600000X1.600000*%
G04 #@! TD*
G04 #@! TA.AperFunction,ComponentPad*
%ADD18C,1.600000*%
G04 #@! TD*
G04 #@! TA.AperFunction,ComponentPad*
%ADD19C,1.400000*%
G04 #@! TD*
G04 #@! TA.AperFunction,ComponentPad*
%ADD20O,1.400000X1.400000*%
G04 #@! TD*
G04 #@! TA.AperFunction,ComponentPad*
%ADD21O,2.540000X2.032000*%
G04 #@! TD*
G04 #@! TA.AperFunction,ComponentPad*
%ADD22R,1.700000X1.700000*%
G04 #@! TD*
G04 #@! TA.AperFunction,ComponentPad*
%ADD23O,1.700000X1.700000*%
G04 #@! TD*
G04 #@! TA.AperFunction,ComponentPad*
%ADD24C,1.620000*%
G04 #@! TD*
G04 #@! TA.AperFunction,ComponentPad*
%ADD25C,2.000000*%
G04 #@! TD*
G04 #@! TA.AperFunction,ComponentPad*
%ADD26R,1.800000X1.800000*%
G04 #@! TD*
G04 #@! TA.AperFunction,ComponentPad*
%ADD27O,1.800000X1.800000*%
G04 #@! TD*
G04 #@! TA.AperFunction,ComponentPad*
%ADD28C,1.762000*%
G04 #@! TD*
G04 #@! TA.AperFunction,ComponentPad*
%ADD29O,2.600000X2.600000*%
G04 #@! TD*
G04 #@! TA.AperFunction,ViaPad*
%ADD30C,0.600000*%
G04 #@! TD*
G04 #@! TA.AperFunction,Conductor*
%ADD31C,0.250000*%
G04 #@! TD*
G04 #@! TA.AperFunction,Conductor*
%ADD32C,0.400000*%
G04 #@! TD*
G04 #@! TA.AperFunction,Conductor*
%ADD33C,0.254000*%
G04 #@! TD*
G04 APERTURE END LIST*
D10*
G04 #@! TO.P,uP1,7*
G04 #@! TO.N,N/C*
X129286000Y-106172000D03*
G04 #@! TO.P,uP1,8*
X131826000Y-106172000D03*
G04 #@! TO.P,uP1,9*
X134366000Y-106172000D03*
G04 #@! TO.P,uP1,10*
G04 #@! TO.N,GND*
X136906000Y-106172000D03*
G04 #@! TO.P,uP1,11*
G04 #@! TO.N,Net-(RC1-Pad3)*
X139446000Y-106172000D03*
G04 #@! TO.P,uP1,12*
G04 #@! TO.N,Net-(RC1-Pad4)*
X141986000Y-106172000D03*
G04 #@! TO.P,uP1,13*
G04 #@! TO.N,Net-(IC1-Pad1)*
X144526000Y-106172000D03*
G04 #@! TO.P,uP1,14*
G04 #@! TO.N,Net-(IC1-Pad2)*
X147066000Y-106172000D03*
G04 #@! TO.P,uP1,15*
G04 #@! TO.N,Net-(IC1-Pad7)*
X149606000Y-106172000D03*
G04 #@! TO.P,uP1,16*
G04 #@! TO.N,Net-(J1-Pad5)*
X152146000Y-106172000D03*
G04 #@! TO.P,uP1,17*
G04 #@! TO.N,Net-(J1-Pad6)*
X154686000Y-106172000D03*
G04 #@! TO.P,uP1,18*
G04 #@! TO.N,Net-(IC1-Pad9)*
X157226000Y-106172000D03*
G04 #@! TO.P,uP1,19*
G04 #@! TO.N,Net-(C2-Pad1)*
X129286000Y-90932000D03*
G04 #@! TO.P,uP1,20*
G04 #@! TO.N,GND*
X131826000Y-90932000D03*
G04 #@! TO.P,uP1,21*
G04 #@! TO.N,N/C*
X134366000Y-90932000D03*
G04 #@! TO.P,uP1,22*
X136906000Y-90932000D03*
G04 #@! TO.P,uP1,23*
X139446000Y-90932000D03*
G04 #@! TO.P,uP1,24*
G04 #@! TO.N,Net-(SW1-Pad2)*
X141986000Y-90932000D03*
G04 #@! TO.P,uP1,25*
G04 #@! TO.N,Net-(R3-Pad2)*
X144526000Y-90932000D03*
G04 #@! TO.P,uP1,26*
G04 #@! TO.N,Net-(RV1-Pad2)*
X147066000Y-90932000D03*
G04 #@! TO.P,uP1,27*
G04 #@! TO.N,Net-(J2-Pad6)*
X149606000Y-90932000D03*
G04 #@! TO.P,uP1,28*
G04 #@! TO.N,Net-(J2-Pad5)*
X152146000Y-90932000D03*
G04 #@! TO.P,uP1,29*
G04 #@! TO.N,Net-(IC1-Pad15)*
X154686000Y-90932000D03*
G04 #@! TO.P,uP1,30*
G04 #@! TO.N,Net-(IC1-Pad10)*
X157226000Y-90932000D03*
D11*
G04 #@! TO.P,uP1,31*
G04 #@! TO.N,N/C*
X138049000Y-93853000D03*
G04 #@! TO.P,uP1,32*
X140589000Y-93853000D03*
G04 #@! TO.P,uP1,34*
X148463000Y-93853000D03*
G04 #@! TO.P,uP1,35*
X151003000Y-93853000D03*
G04 #@! TD*
D12*
G04 #@! TO.P,J1,*
G04 #@! TO.N,*
X157162300Y-118758100D03*
D13*
G04 #@! TO.P,J1,1*
G04 #@! TO.N,Net-(IC1-Pad3)*
X154201730Y-113555110D03*
D14*
G04 #@! TD*
G04 #@! TO.N,Net-(IC1-Pad3)*
G04 #@! TO.C,J1*
X154560940Y-113195900D02*
X153842520Y-113914320D01*
D13*
G04 #@! TO.P,J1,2*
G04 #@! TO.N,Net-(IC1-Pad6)*
X153084130Y-116739870D03*
D14*
G04 #@! TD*
G04 #@! TO.N,Net-(IC1-Pad6)*
G04 #@! TO.C,J1*
X152724920Y-116380660D02*
X153443340Y-117099080D01*
D15*
G04 #@! TO.P,J1,3*
G04 #@! TO.N,GND*
X151668280Y-113439340D03*
G04 #@! TO.P,J1,4*
G04 #@! TO.N,Net-(C2-Pad1)*
X150540520Y-116914060D03*
D13*
G04 #@! TO.P,J1,5*
G04 #@! TO.N,Net-(J1-Pad5)*
X149137370Y-113590670D03*
D14*
G04 #@! TD*
G04 #@! TO.N,Net-(J1-Pad5)*
G04 #@! TO.C,J1*
X148778160Y-113231460D02*
X149496580Y-113949880D01*
D13*
G04 #@! TO.P,J1,6*
G04 #@! TO.N,Net-(J1-Pad6)*
X148017230Y-116831310D03*
D14*
G04 #@! TD*
G04 #@! TO.N,Net-(J1-Pad6)*
G04 #@! TO.C,J1*
X148376440Y-116472100D02*
X147658020Y-117190520D01*
D12*
G04 #@! TO.P,J1,*
G04 #@! TO.N,*
X145097300Y-118758100D03*
G04 #@! TD*
D16*
G04 #@! TO.P,IC1,1*
G04 #@! TO.N,Net-(IC1-Pad1)*
X120650000Y-107315000D03*
G04 #@! TO.P,IC1,2*
G04 #@! TO.N,Net-(IC1-Pad2)*
X120650000Y-104775000D03*
G04 #@! TO.P,IC1,7*
G04 #@! TO.N,Net-(IC1-Pad7)*
X120650000Y-92075000D03*
G04 #@! TO.P,IC1,8*
G04 #@! TO.N,VCC*
X120650000Y-89535000D03*
G04 #@! TO.P,IC1,3*
G04 #@! TO.N,Net-(IC1-Pad3)*
X120650000Y-102235000D03*
G04 #@! TO.P,IC1,4*
G04 #@! TO.N,GND*
X120650000Y-99695000D03*
G04 #@! TO.P,IC1,6*
G04 #@! TO.N,Net-(IC1-Pad6)*
X120650000Y-94615000D03*
G04 #@! TO.P,IC1,5*
G04 #@! TO.N,GND*
X120650000Y-97155000D03*
G04 #@! TO.P,IC1,9*
G04 #@! TO.N,Net-(IC1-Pad9)*
X113030000Y-89535000D03*
G04 #@! TO.P,IC1,10*
G04 #@! TO.N,Net-(IC1-Pad10)*
X113030000Y-92075000D03*
G04 #@! TO.P,IC1,11*
G04 #@! TO.N,Net-(IC1-Pad11)*
X113030000Y-94615000D03*
G04 #@! TO.P,IC1,12*
G04 #@! TO.N,GND*
X113030000Y-97155000D03*
G04 #@! TO.P,IC1,13*
X113030000Y-99695000D03*
G04 #@! TO.P,IC1,14*
G04 #@! TO.N,Net-(IC1-Pad14)*
X113030000Y-102235000D03*
G04 #@! TO.P,IC1,15*
G04 #@! TO.N,Net-(IC1-Pad15)*
X113030000Y-104775000D03*
G04 #@! TO.P,IC1,16*
G04 #@! TO.N,Net-(C2-Pad1)*
X113030000Y-107315000D03*
G04 #@! TD*
D12*
G04 #@! TO.P,J2,*
G04 #@! TO.N,*
X124904300Y-118758100D03*
D13*
G04 #@! TO.P,J2,1*
G04 #@! TO.N,Net-(IC1-Pad11)*
X121943730Y-113555110D03*
D14*
G04 #@! TD*
G04 #@! TO.N,Net-(IC1-Pad11)*
G04 #@! TO.C,J2*
X122302940Y-113195900D02*
X121584520Y-113914320D01*
D13*
G04 #@! TO.P,J2,2*
G04 #@! TO.N,Net-(IC1-Pad14)*
X120826130Y-116739870D03*
D14*
G04 #@! TD*
G04 #@! TO.N,Net-(IC1-Pad14)*
G04 #@! TO.C,J2*
X120466920Y-116380660D02*
X121185340Y-117099080D01*
D15*
G04 #@! TO.P,J2,3*
G04 #@! TO.N,GND*
X119410280Y-113439340D03*
G04 #@! TO.P,J2,4*
G04 #@! TO.N,Net-(C2-Pad1)*
X118282520Y-116914060D03*
D13*
G04 #@! TO.P,J2,5*
G04 #@! TO.N,Net-(J2-Pad5)*
X116879370Y-113590670D03*
D14*
G04 #@! TD*
G04 #@! TO.N,Net-(J2-Pad5)*
G04 #@! TO.C,J2*
X116520160Y-113231460D02*
X117238580Y-113949880D01*
D13*
G04 #@! TO.P,J2,6*
G04 #@! TO.N,Net-(J2-Pad6)*
X115759230Y-116831310D03*
D14*
G04 #@! TD*
G04 #@! TO.N,Net-(J2-Pad6)*
G04 #@! TO.C,J2*
X116118440Y-116472100D02*
X115400020Y-117190520D01*
D12*
G04 #@! TO.P,J2,*
G04 #@! TO.N,*
X112839300Y-118758100D03*
G04 #@! TD*
D17*
G04 #@! TO.P,C1,1*
G04 #@! TO.N,VCC*
X129794000Y-86487000D03*
D18*
G04 #@! TO.P,C1,2*
G04 #@! TO.N,GND*
X132294000Y-86487000D03*
G04 #@! TD*
D19*
G04 #@! TO.P,R1,1*
G04 #@! TO.N,GND*
X145415000Y-108585000D03*
D20*
G04 #@! TO.P,R1,2*
G04 #@! TO.N,Net-(IC1-Pad1)*
X153035000Y-108585000D03*
G04 #@! TD*
D19*
G04 #@! TO.P,R2,1*
G04 #@! TO.N,Net-(IC1-Pad9)*
X143510000Y-108585000D03*
D20*
G04 #@! TO.P,R2,2*
G04 #@! TO.N,GND*
X135890000Y-108585000D03*
G04 #@! TD*
D21*
G04 #@! TO.P,U1,2*
G04 #@! TO.N,GND*
X139827000Y-83312000D03*
G04 #@! TO.P,U1,3*
G04 #@! TO.N,Net-(C2-Pad1)*
X139827000Y-85852000D03*
G04 #@! TO.P,U1,1*
G04 #@! TO.N,VCC*
X139827000Y-80772000D03*
G04 #@! TD*
D22*
G04 #@! TO.P,RC1,1*
G04 #@! TO.N,Net-(C2-Pad1)*
X147955000Y-80137000D03*
D23*
G04 #@! TO.P,RC1,2*
G04 #@! TO.N,GND*
X150495000Y-80137000D03*
G04 #@! TO.P,RC1,3*
G04 #@! TO.N,Net-(RC1-Pad3)*
X153035000Y-80137000D03*
G04 #@! TO.P,RC1,4*
G04 #@! TO.N,Net-(RC1-Pad4)*
X155575000Y-80137000D03*
G04 #@! TD*
D17*
G04 #@! TO.P,C2,1*
G04 #@! TO.N,Net-(C2-Pad1)*
X148590000Y-87630000D03*
D18*
G04 #@! TO.P,C2,2*
G04 #@! TO.N,GND*
X148590000Y-85130000D03*
G04 #@! TD*
G04 #@! TO.P,C3,1*
G04 #@! TO.N,Net-(C2-Pad1)*
X154940000Y-87630000D03*
G04 #@! TO.P,C3,2*
G04 #@! TO.N,GND*
X154940000Y-85130000D03*
G04 #@! TD*
D24*
G04 #@! TO.P,RV1,3*
G04 #@! TO.N,GND*
X137240000Y-116840000D03*
G04 #@! TO.P,RV1,2*
G04 #@! TO.N,Net-(RV1-Pad2)*
X139740000Y-111840000D03*
G04 #@! TO.P,RV1,1*
G04 #@! TO.N,Net-(C2-Pad1)*
X142240000Y-116840000D03*
G04 #@! TD*
D19*
G04 #@! TO.P,R3,1*
G04 #@! TO.N,GND*
X126365000Y-108585000D03*
D20*
G04 #@! TO.P,R3,2*
G04 #@! TO.N,Net-(R3-Pad2)*
X133985000Y-108585000D03*
G04 #@! TD*
D25*
G04 #@! TO.P,SW2,2*
G04 #@! TO.N,Net-(C2-Pad1)*
X127635000Y-116895000D03*
G04 #@! TO.P,SW2,1*
G04 #@! TO.N,Net-(R3-Pad2)*
X127635000Y-112395000D03*
G04 #@! TO.P,SW2,2*
G04 #@! TO.N,Net-(C2-Pad1)*
X134135000Y-116895000D03*
G04 #@! TO.P,SW2,1*
G04 #@! TO.N,Net-(R3-Pad2)*
X134135000Y-112395000D03*
G04 #@! TD*
D26*
G04 #@! TO.P,D1,1*
G04 #@! TO.N,VCC*
X123952000Y-97282000D03*
D27*
G04 #@! TO.P,D1,2*
G04 #@! TO.N,Net-(D1-Pad2)*
X123952000Y-87122000D03*
G04 #@! TD*
D28*
G04 #@! TO.P,Battery,2*
G04 #@! TO.N,GND*
X113883000Y-82194400D03*
G04 #@! TO.P,Battery,1*
G04 #@! TO.N,Net-(BT1-Pad1)*
X118883000Y-82194400D03*
G04 #@! TD*
G04 #@! TO.P,On/Off,2*
G04 #@! TO.N,Net-(BT1-Pad1)*
X129083000Y-80518000D03*
G04 #@! TO.P,On/Off,1*
G04 #@! TO.N,Net-(D1-Pad2)*
X126083000Y-80518000D03*
G04 #@! TO.P,On/Off,3*
G04 #@! TO.N,N/C*
X132083000Y-80518000D03*
D29*
G04 #@! TO.P,On/Off,*
G04 #@! TO.N,*
X134933000Y-80518000D03*
X123233000Y-80518000D03*
G04 #@! TD*
D28*
G04 #@! TO.P,SW1,2*
G04 #@! TO.N,Net-(SW1-Pad2)*
X134671000Y-122022000D03*
G04 #@! TO.P,SW1,1*
G04 #@! TO.N,Net-(C2-Pad1)*
X131671000Y-122022000D03*
G04 #@! TO.P,SW1,3*
G04 #@! TO.N,GND*
X137671000Y-122022000D03*
D29*
G04 #@! TO.P,SW1,*
G04 #@! TO.N,*
X140521000Y-122022000D03*
X128821000Y-122022000D03*
G04 #@! TD*
D30*
G04 #@! TO.N,Net-(IC1-Pad6)*
X130556000Y-106232700D03*
G04 #@! TD*
D31*
G04 #@! TO.N,Net-(IC1-Pad1)*
X143434100Y-105080100D02*
X144526000Y-106172000D01*
X124531000Y-105080100D02*
X143434100Y-105080100D01*
X122296100Y-107315000D02*
X124531000Y-105080100D01*
X120650000Y-107315000D02*
X122296100Y-107315000D01*
G04 #@! TO.N,Net-(IC1-Pad2)*
X120650000Y-104775000D02*
X122296100Y-104775000D01*
X122453700Y-104617400D02*
X122296100Y-104775000D01*
X145511400Y-104617400D02*
X122453700Y-104617400D01*
X147066000Y-106172000D02*
X145511400Y-104617400D01*
G04 #@! TO.N,Net-(IC1-Pad7)*
X120650000Y-92075000D02*
X122296100Y-92075000D01*
X125021600Y-89349500D02*
X122296100Y-92075000D01*
X154647600Y-89349500D02*
X125021600Y-89349500D01*
X155775100Y-90477000D02*
X154647600Y-89349500D01*
X155775100Y-100002900D02*
X155775100Y-90477000D01*
X149606000Y-106172000D02*
X155775100Y-100002900D01*
G04 #@! TO.N,VCC*
X129794000Y-86487000D02*
X130919300Y-86487000D01*
X130919300Y-86252900D02*
X130919300Y-86487000D01*
X132183700Y-84988500D02*
X130919300Y-86252900D01*
X135610500Y-84988500D02*
X132183700Y-84988500D01*
X139827000Y-80772000D02*
X135610500Y-84988500D01*
G04 #@! TO.N,GND*
X130190100Y-92567900D02*
X131826000Y-90932000D01*
X125237100Y-92567900D02*
X130190100Y-92567900D01*
X120650000Y-97155000D02*
X125237100Y-92567900D01*
X120650000Y-99695000D02*
X113030000Y-99695000D01*
X150495000Y-80137000D02*
X150495000Y-81312300D01*
X150495000Y-81312300D02*
X150495000Y-82743000D01*
X152553000Y-82743000D02*
X154940000Y-85130000D01*
X150495000Y-82743000D02*
X152553000Y-82743000D01*
X139827000Y-83312000D02*
X141422300Y-83312000D01*
X148590000Y-83816000D02*
X148590000Y-85130000D01*
X149422000Y-83816000D02*
X148590000Y-83816000D01*
X150495000Y-82743000D02*
X149422000Y-83816000D01*
X141926300Y-83816000D02*
X141422300Y-83312000D01*
X148590000Y-83816000D02*
X141926300Y-83816000D01*
X137240000Y-110960300D02*
X135890000Y-109610300D01*
X137240000Y-116840000D02*
X137240000Y-110960300D01*
X135890000Y-108585000D02*
X135890000Y-109610300D01*
X124772600Y-108585000D02*
X126365000Y-108585000D01*
X119410300Y-113947300D02*
X124772600Y-108585000D01*
X127390300Y-109610300D02*
X135890000Y-109610300D01*
X126365000Y-108585000D02*
X127390300Y-109610300D01*
X140361700Y-109627700D02*
X136906000Y-106172000D01*
X144372300Y-109627700D02*
X140361700Y-109627700D01*
X145415000Y-108585000D02*
X144372300Y-109627700D01*
G04 #@! TO.N,Net-(IC1-Pad6)*
X151275000Y-114930800D02*
X152724900Y-116380700D01*
X144442200Y-114930800D02*
X151275000Y-114930800D01*
X136770800Y-107259400D02*
X144442200Y-114930800D01*
X131325900Y-107259400D02*
X136770800Y-107259400D01*
X130556000Y-106489500D02*
X131325900Y-107259400D01*
X130556000Y-106232700D02*
X130556000Y-106489500D01*
G04 #@! TO.N,Net-(IC1-Pad9)*
X151705600Y-105047200D02*
X156101200Y-105047200D01*
X151054600Y-105698200D02*
X151705600Y-105047200D01*
X151054600Y-106261300D02*
X151054600Y-105698200D01*
X150009300Y-107306600D02*
X151054600Y-106261300D01*
X144788400Y-107306600D02*
X150009300Y-107306600D01*
X143510000Y-108585000D02*
X144788400Y-107306600D01*
X156101200Y-105047200D02*
X157226000Y-106172000D01*
X114217600Y-88347400D02*
X113030000Y-89535000D01*
X140484300Y-88347400D02*
X114217600Y-88347400D01*
X142327100Y-86504600D02*
X140484300Y-88347400D01*
X155440800Y-86504600D02*
X142327100Y-86504600D01*
X158350300Y-89414100D02*
X155440800Y-86504600D01*
X158350300Y-102798100D02*
X158350300Y-89414100D01*
X156101200Y-105047200D02*
X158350300Y-102798100D01*
G04 #@! TO.N,Net-(IC1-Pad10)*
X155193200Y-88899200D02*
X157226000Y-90932000D01*
X124781100Y-88899200D02*
X155193200Y-88899200D01*
X122670900Y-91009400D02*
X124781100Y-88899200D01*
X114095600Y-91009400D02*
X122670900Y-91009400D01*
X113030000Y-92075000D02*
X114095600Y-91009400D01*
G04 #@! TO.N,Net-(IC1-Pad15)*
X116840000Y-100965000D02*
X113030000Y-104775000D01*
X136058500Y-100965000D02*
X116840000Y-100965000D01*
X145978700Y-91044800D02*
X136058500Y-100965000D01*
X145978700Y-90481600D02*
X145978700Y-91044800D01*
X146660400Y-89799900D02*
X145978700Y-90481600D01*
X153553900Y-89799900D02*
X146660400Y-89799900D01*
X154686000Y-90932000D02*
X153553900Y-89799900D01*
G04 #@! TO.N,Net-(J1-Pad5)*
X149496600Y-108821400D02*
X152146000Y-106172000D01*
X149496600Y-111155000D02*
X149496600Y-108821400D01*
X148099200Y-112552400D02*
X149496600Y-111155000D01*
X149496600Y-113949900D02*
X148099200Y-112552400D01*
G04 #@! TO.N,Net-(J2-Pad5)*
X117238600Y-106101700D02*
X117238600Y-113949900D01*
X119580500Y-103759800D02*
X117238600Y-106101700D01*
X136778200Y-103759800D02*
X119580500Y-103759800D01*
X147775600Y-92762400D02*
X136778200Y-103759800D01*
X150315600Y-92762400D02*
X147775600Y-92762400D01*
X152146000Y-90932000D02*
X150315600Y-92762400D01*
G04 #@! TO.N,Net-(J2-Pad6)*
X116118400Y-116472100D02*
X116797400Y-115793100D01*
X115555300Y-114551000D02*
X116797400Y-115793100D01*
X115555300Y-107142800D02*
X115555300Y-114551000D01*
X119453900Y-103244200D02*
X115555300Y-107142800D01*
X136291700Y-103244200D02*
X119453900Y-103244200D01*
X148603900Y-90932000D02*
X136291700Y-103244200D01*
X149606000Y-90932000D02*
X148603900Y-90932000D01*
G04 #@! TO.N,Net-(C2-Pad1)*
X148590000Y-87630000D02*
X154940000Y-87630000D01*
X143634200Y-115445800D02*
X150540500Y-115445800D01*
X142240000Y-116840000D02*
X143634200Y-115445800D01*
X150540500Y-116406100D02*
X150540500Y-115445800D01*
X131671000Y-122022000D02*
X131671000Y-119529200D01*
X134220100Y-116980100D02*
X131671000Y-119529200D01*
X134135000Y-116895000D02*
X134220100Y-116980100D01*
X141063600Y-118016400D02*
X142240000Y-116840000D01*
X135256400Y-118016400D02*
X141063600Y-118016400D01*
X134220100Y-116980100D02*
X135256400Y-118016400D01*
X130269200Y-119529200D02*
X127635000Y-116895000D01*
X131671000Y-119529200D02*
X130269200Y-119529200D01*
X126140100Y-115400100D02*
X127635000Y-116895000D01*
X118328200Y-115400100D02*
X126140100Y-115400100D01*
X118282500Y-115445800D02*
X118328200Y-115400100D01*
X118282500Y-116406100D02*
X118282500Y-115445800D01*
G04 #@! TO.N,Net-(R3-Pad2)*
X134135000Y-112395000D02*
X127635000Y-112395000D01*
D32*
G04 #@! TO.N,Net-(BT1-Pad1)*
X127406600Y-82194400D02*
X118883000Y-82194400D01*
X129083000Y-80518000D02*
X127406600Y-82194400D01*
G04 #@! TD*
D33*
G04 #@! TO.N,GND*
G36*
X156041680Y-106963337D02*
X156434663Y-107356320D01*
X156948119Y-107569000D01*
X157503881Y-107569000D01*
X158017337Y-107356320D01*
X158040000Y-107333657D01*
X158040000Y-117128430D01*
X157528597Y-116916600D01*
X156796003Y-116916600D01*
X156119174Y-117196952D01*
X155601152Y-117714974D01*
X155320800Y-118391803D01*
X155320800Y-119124397D01*
X155601152Y-119801226D01*
X156119174Y-120319248D01*
X156796003Y-120599600D01*
X157528597Y-120599600D01*
X158040000Y-120387770D01*
X158040000Y-124385000D01*
X111835000Y-124385000D01*
X111835000Y-120335330D01*
X112473003Y-120599600D01*
X113205597Y-120599600D01*
X113882426Y-120319248D01*
X114400448Y-119801226D01*
X114680800Y-119124397D01*
X114680800Y-118391803D01*
X114592350Y-118178267D01*
X114904491Y-118386832D01*
X115400020Y-118485399D01*
X115895549Y-118386832D01*
X116209600Y-118176990D01*
X117012520Y-117374070D01*
X117012520Y-117547140D01*
X117086207Y-117917589D01*
X117366903Y-118337678D01*
X117786992Y-118618373D01*
X118282520Y-118716940D01*
X118778049Y-118618373D01*
X119198138Y-118337678D01*
X119478833Y-117917589D01*
X119552520Y-117547140D01*
X119552520Y-117262310D01*
X120375760Y-118085550D01*
X120689810Y-118295392D01*
X121185339Y-118393959D01*
X121680868Y-118295392D01*
X122100958Y-118014698D01*
X122381652Y-117594608D01*
X122480219Y-117099079D01*
X122381652Y-116603550D01*
X122171810Y-116289500D01*
X122042410Y-116160100D01*
X125825299Y-116160100D01*
X126068823Y-116403624D01*
X126000000Y-116569778D01*
X126000000Y-117220222D01*
X126020721Y-117270247D01*
X125947426Y-117196952D01*
X125270597Y-116916600D01*
X124538003Y-116916600D01*
X123861174Y-117196952D01*
X123343152Y-117714974D01*
X123062800Y-118391803D01*
X123062800Y-119124397D01*
X123343152Y-119801226D01*
X123861174Y-120319248D01*
X124538003Y-120599600D01*
X125270597Y-120599600D01*
X125947426Y-120319248D01*
X126465448Y-119801226D01*
X126745800Y-119124397D01*
X126745800Y-118391803D01*
X126693641Y-118265880D01*
X126708847Y-118281086D01*
X127309778Y-118530000D01*
X127960222Y-118530000D01*
X128126375Y-118461177D01*
X129678873Y-120013676D01*
X129721271Y-120077129D01*
X129784724Y-120119527D01*
X129784726Y-120119529D01*
X129904069Y-120199271D01*
X129972663Y-120245104D01*
X130194348Y-120289200D01*
X130194352Y-120289200D01*
X130269199Y-120304088D01*
X130344046Y-120289200D01*
X130911001Y-120289200D01*
X130911001Y-120695895D01*
X130812255Y-120736797D01*
X130498861Y-121050191D01*
X130216057Y-120626943D01*
X129575999Y-120199271D01*
X129011576Y-120087000D01*
X128630424Y-120087000D01*
X128066001Y-120199271D01*
X127425943Y-120626943D01*
X126998271Y-121267001D01*
X126848092Y-122022000D01*
X126998271Y-122776999D01*
X127425943Y-123417057D01*
X128066001Y-123844729D01*
X128630424Y-123957000D01*
X129011576Y-123957000D01*
X129575999Y-123844729D01*
X130216057Y-123417057D01*
X130498861Y-122993809D01*
X130812255Y-123307203D01*
X131369449Y-123538000D01*
X131972551Y-123538000D01*
X132529745Y-123307203D01*
X132956203Y-122880745D01*
X133171000Y-122362178D01*
X133385797Y-122880745D01*
X133812255Y-123307203D01*
X134369449Y-123538000D01*
X134972551Y-123538000D01*
X135529745Y-123307203D01*
X135748544Y-123088404D01*
X136784201Y-123088404D01*
X136868278Y-123342919D01*
X137434874Y-123549559D01*
X138037420Y-123523642D01*
X138473722Y-123342919D01*
X138557799Y-123088404D01*
X137671000Y-122201605D01*
X136784201Y-123088404D01*
X135748544Y-123088404D01*
X135956203Y-122880745D01*
X136168490Y-122368238D01*
X136169358Y-122388420D01*
X136350081Y-122824722D01*
X136604596Y-122908799D01*
X137491395Y-122022000D01*
X137850605Y-122022000D01*
X138737404Y-122908799D01*
X138777489Y-122895557D01*
X139125943Y-123417057D01*
X139766001Y-123844729D01*
X140330424Y-123957000D01*
X140711576Y-123957000D01*
X141275999Y-123844729D01*
X141916057Y-123417057D01*
X142343729Y-122776999D01*
X142493908Y-122022000D01*
X142343729Y-121267001D01*
X141916057Y-120626943D01*
X141275999Y-120199271D01*
X140711576Y-120087000D01*
X140330424Y-120087000D01*
X139766001Y-120199271D01*
X139125943Y-120626943D01*
X138777489Y-121148443D01*
X138737404Y-121135201D01*
X137850605Y-122022000D01*
X137491395Y-122022000D01*
X136604596Y-121135201D01*
X136350081Y-121219278D01*
X136176525Y-121695160D01*
X135956203Y-121163255D01*
X135748544Y-120955596D01*
X136784201Y-120955596D01*
X137671000Y-121842395D01*
X138557799Y-120955596D01*
X138473722Y-120701081D01*
X137907126Y-120494441D01*
X137304580Y-120520358D01*
X136868278Y-120701081D01*
X136784201Y-120955596D01*
X135748544Y-120955596D01*
X135529745Y-120736797D01*
X134972551Y-120506000D01*
X134369449Y-120506000D01*
X133812255Y-120736797D01*
X133385797Y-121163255D01*
X133171000Y-121681822D01*
X132956203Y-121163255D01*
X132529745Y-120736797D01*
X132431000Y-120695896D01*
X132431000Y-119844001D01*
X133763974Y-118511027D01*
X133809778Y-118530000D01*
X134460222Y-118530000D01*
X134626375Y-118461177D01*
X134666071Y-118500873D01*
X134708471Y-118564329D01*
X134959863Y-118732304D01*
X135181548Y-118776400D01*
X135181552Y-118776400D01*
X135256400Y-118791288D01*
X135331248Y-118776400D01*
X140988753Y-118776400D01*
X141063600Y-118791288D01*
X141138447Y-118776400D01*
X141138452Y-118776400D01*
X141360137Y-118732304D01*
X141611529Y-118564329D01*
X141653931Y-118500870D01*
X141894044Y-118260757D01*
X141952572Y-118285000D01*
X142527428Y-118285000D01*
X143058527Y-118065012D01*
X143465012Y-117658527D01*
X143685000Y-117127428D01*
X143685000Y-116552572D01*
X143660757Y-116494044D01*
X143949002Y-116205800D01*
X146846690Y-116205800D01*
X146671550Y-116380940D01*
X146461708Y-116694991D01*
X146363141Y-117190520D01*
X146420039Y-117476565D01*
X146140426Y-117196952D01*
X145463597Y-116916600D01*
X144731003Y-116916600D01*
X144054174Y-117196952D01*
X143536152Y-117714974D01*
X143255800Y-118391803D01*
X143255800Y-119124397D01*
X143536152Y-119801226D01*
X144054174Y-120319248D01*
X144731003Y-120599600D01*
X145463597Y-120599600D01*
X146140426Y-120319248D01*
X146658448Y-119801226D01*
X146938800Y-119124397D01*
X146938800Y-118391803D01*
X146850350Y-118178267D01*
X147162491Y-118386832D01*
X147658020Y-118485399D01*
X148153549Y-118386832D01*
X148467600Y-118176990D01*
X149270520Y-117374070D01*
X149270520Y-117547140D01*
X149344207Y-117917589D01*
X149624903Y-118337678D01*
X150044992Y-118618373D01*
X150540520Y-118716940D01*
X151036049Y-118618373D01*
X151456138Y-118337678D01*
X151736833Y-117917589D01*
X151810520Y-117547140D01*
X151810520Y-117262310D01*
X152633760Y-118085550D01*
X152947810Y-118295392D01*
X153443339Y-118393959D01*
X153938868Y-118295392D01*
X154358958Y-118014698D01*
X154639652Y-117594608D01*
X154738219Y-117099079D01*
X154639652Y-116603550D01*
X154429810Y-116289500D01*
X153534500Y-115394190D01*
X153220449Y-115184348D01*
X152724920Y-115085781D01*
X152541306Y-115122304D01*
X152396682Y-114977680D01*
X152476503Y-114935168D01*
X152763919Y-114586016D01*
X152926902Y-114829938D01*
X153346991Y-115110632D01*
X153842520Y-115209199D01*
X154338049Y-115110632D01*
X154652100Y-114900790D01*
X155547410Y-114005480D01*
X155757252Y-113691430D01*
X155855819Y-113195901D01*
X155757252Y-112700372D01*
X155476558Y-112280282D01*
X155056468Y-111999588D01*
X154560939Y-111901021D01*
X154065410Y-111999588D01*
X153751360Y-112209430D01*
X152938280Y-113022510D01*
X152938280Y-112804340D01*
X152793006Y-112327999D01*
X152476503Y-111943512D01*
X152036955Y-111709412D01*
X151991392Y-111703131D01*
X151795280Y-111827371D01*
X151795280Y-113312340D01*
X151815280Y-113312340D01*
X151815280Y-113566340D01*
X151795280Y-113566340D01*
X151795280Y-113586340D01*
X151541280Y-113586340D01*
X151541280Y-113566340D01*
X151521280Y-113566340D01*
X151521280Y-113312340D01*
X151541280Y-113312340D01*
X151541280Y-111827371D01*
X151345168Y-111703131D01*
X151299605Y-111709412D01*
X150860057Y-111943512D01*
X150543554Y-112327999D01*
X150398280Y-112804340D01*
X150398280Y-113055530D01*
X149587740Y-112244990D01*
X149524001Y-112202401D01*
X149981073Y-111745329D01*
X150044529Y-111702929D01*
X150212504Y-111451537D01*
X150256600Y-111229852D01*
X150256600Y-111229848D01*
X150271488Y-111155001D01*
X150256600Y-111080154D01*
X150256600Y-109136201D01*
X151836782Y-107556020D01*
X151868119Y-107569000D01*
X152152616Y-107569000D01*
X152072519Y-107622519D01*
X151777458Y-108064109D01*
X151673846Y-108585000D01*
X151777458Y-109105891D01*
X152072519Y-109547481D01*
X152514109Y-109842542D01*
X152903515Y-109920000D01*
X153166485Y-109920000D01*
X153555891Y-109842542D01*
X153997481Y-109547481D01*
X154292542Y-109105891D01*
X154396154Y-108585000D01*
X154292542Y-108064109D01*
X153997481Y-107622519D01*
X153555891Y-107327458D01*
X153166485Y-107250000D01*
X153043657Y-107250000D01*
X153330320Y-106963337D01*
X153416000Y-106756487D01*
X153501680Y-106963337D01*
X153894663Y-107356320D01*
X154408119Y-107569000D01*
X154963881Y-107569000D01*
X155477337Y-107356320D01*
X155870320Y-106963337D01*
X155956000Y-106756487D01*
X156041680Y-106963337D01*
X156041680Y-106963337D01*
G37*
X156041680Y-106963337D02*
X156434663Y-107356320D01*
X156948119Y-107569000D01*
X157503881Y-107569000D01*
X158017337Y-107356320D01*
X158040000Y-107333657D01*
X158040000Y-117128430D01*
X157528597Y-116916600D01*
X156796003Y-116916600D01*
X156119174Y-117196952D01*
X155601152Y-117714974D01*
X155320800Y-118391803D01*
X155320800Y-119124397D01*
X155601152Y-119801226D01*
X156119174Y-120319248D01*
X156796003Y-120599600D01*
X157528597Y-120599600D01*
X158040000Y-120387770D01*
X158040000Y-124385000D01*
X111835000Y-124385000D01*
X111835000Y-120335330D01*
X112473003Y-120599600D01*
X113205597Y-120599600D01*
X113882426Y-120319248D01*
X114400448Y-119801226D01*
X114680800Y-119124397D01*
X114680800Y-118391803D01*
X114592350Y-118178267D01*
X114904491Y-118386832D01*
X115400020Y-118485399D01*
X115895549Y-118386832D01*
X116209600Y-118176990D01*
X117012520Y-117374070D01*
X117012520Y-117547140D01*
X117086207Y-117917589D01*
X117366903Y-118337678D01*
X117786992Y-118618373D01*
X118282520Y-118716940D01*
X118778049Y-118618373D01*
X119198138Y-118337678D01*
X119478833Y-117917589D01*
X119552520Y-117547140D01*
X119552520Y-117262310D01*
X120375760Y-118085550D01*
X120689810Y-118295392D01*
X121185339Y-118393959D01*
X121680868Y-118295392D01*
X122100958Y-118014698D01*
X122381652Y-117594608D01*
X122480219Y-117099079D01*
X122381652Y-116603550D01*
X122171810Y-116289500D01*
X122042410Y-116160100D01*
X125825299Y-116160100D01*
X126068823Y-116403624D01*
X126000000Y-116569778D01*
X126000000Y-117220222D01*
X126020721Y-117270247D01*
X125947426Y-117196952D01*
X125270597Y-116916600D01*
X124538003Y-116916600D01*
X123861174Y-117196952D01*
X123343152Y-117714974D01*
X123062800Y-118391803D01*
X123062800Y-119124397D01*
X123343152Y-119801226D01*
X123861174Y-120319248D01*
X124538003Y-120599600D01*
X125270597Y-120599600D01*
X125947426Y-120319248D01*
X126465448Y-119801226D01*
X126745800Y-119124397D01*
X126745800Y-118391803D01*
X126693641Y-118265880D01*
X126708847Y-118281086D01*
X127309778Y-118530000D01*
X127960222Y-118530000D01*
X128126375Y-118461177D01*
X129678873Y-120013676D01*
X129721271Y-120077129D01*
X129784724Y-120119527D01*
X129784726Y-120119529D01*
X129904069Y-120199271D01*
X129972663Y-120245104D01*
X130194348Y-120289200D01*
X130194352Y-120289200D01*
X130269199Y-120304088D01*
X130344046Y-120289200D01*
X130911001Y-120289200D01*
X130911001Y-120695895D01*
X130812255Y-120736797D01*
X130498861Y-121050191D01*
X130216057Y-120626943D01*
X129575999Y-120199271D01*
X129011576Y-120087000D01*
X128630424Y-120087000D01*
X128066001Y-120199271D01*
X127425943Y-120626943D01*
X126998271Y-121267001D01*
X126848092Y-122022000D01*
X126998271Y-122776999D01*
X127425943Y-123417057D01*
X128066001Y-123844729D01*
X128630424Y-123957000D01*
X129011576Y-123957000D01*
X129575999Y-123844729D01*
X130216057Y-123417057D01*
X130498861Y-122993809D01*
X130812255Y-123307203D01*
X131369449Y-123538000D01*
X131972551Y-123538000D01*
X132529745Y-123307203D01*
X132956203Y-122880745D01*
X133171000Y-122362178D01*
X133385797Y-122880745D01*
X133812255Y-123307203D01*
X134369449Y-123538000D01*
X134972551Y-123538000D01*
X135529745Y-123307203D01*
X135748544Y-123088404D01*
X136784201Y-123088404D01*
X136868278Y-123342919D01*
X137434874Y-123549559D01*
X138037420Y-123523642D01*
X138473722Y-123342919D01*
X138557799Y-123088404D01*
X137671000Y-122201605D01*
X136784201Y-123088404D01*
X135748544Y-123088404D01*
X135956203Y-122880745D01*
X136168490Y-122368238D01*
X136169358Y-122388420D01*
X136350081Y-122824722D01*
X136604596Y-122908799D01*
X137491395Y-122022000D01*
X137850605Y-122022000D01*
X138737404Y-122908799D01*
X138777489Y-122895557D01*
X139125943Y-123417057D01*
X139766001Y-123844729D01*
X140330424Y-123957000D01*
X140711576Y-123957000D01*
X141275999Y-123844729D01*
X141916057Y-123417057D01*
X142343729Y-122776999D01*
X142493908Y-122022000D01*
X142343729Y-121267001D01*
X141916057Y-120626943D01*
X141275999Y-120199271D01*
X140711576Y-120087000D01*
X140330424Y-120087000D01*
X139766001Y-120199271D01*
X139125943Y-120626943D01*
X138777489Y-121148443D01*
X138737404Y-121135201D01*
X137850605Y-122022000D01*
X137491395Y-122022000D01*
X136604596Y-121135201D01*
X136350081Y-121219278D01*
X136176525Y-121695160D01*
X135956203Y-121163255D01*
X135748544Y-120955596D01*
X136784201Y-120955596D01*
X137671000Y-121842395D01*
X138557799Y-120955596D01*
X138473722Y-120701081D01*
X137907126Y-120494441D01*
X137304580Y-120520358D01*
X136868278Y-120701081D01*
X136784201Y-120955596D01*
X135748544Y-120955596D01*
X135529745Y-120736797D01*
X134972551Y-120506000D01*
X134369449Y-120506000D01*
X133812255Y-120736797D01*
X133385797Y-121163255D01*
X133171000Y-121681822D01*
X132956203Y-121163255D01*
X132529745Y-120736797D01*
X132431000Y-120695896D01*
X132431000Y-119844001D01*
X133763974Y-118511027D01*
X133809778Y-118530000D01*
X134460222Y-118530000D01*
X134626375Y-118461177D01*
X134666071Y-118500873D01*
X134708471Y-118564329D01*
X134959863Y-118732304D01*
X135181548Y-118776400D01*
X135181552Y-118776400D01*
X135256400Y-118791288D01*
X135331248Y-118776400D01*
X140988753Y-118776400D01*
X141063600Y-118791288D01*
X141138447Y-118776400D01*
X141138452Y-118776400D01*
X141360137Y-118732304D01*
X141611529Y-118564329D01*
X141653931Y-118500870D01*
X141894044Y-118260757D01*
X141952572Y-118285000D01*
X142527428Y-118285000D01*
X143058527Y-118065012D01*
X143465012Y-117658527D01*
X143685000Y-117127428D01*
X143685000Y-116552572D01*
X143660757Y-116494044D01*
X143949002Y-116205800D01*
X146846690Y-116205800D01*
X146671550Y-116380940D01*
X146461708Y-116694991D01*
X146363141Y-117190520D01*
X146420039Y-117476565D01*
X146140426Y-117196952D01*
X145463597Y-116916600D01*
X144731003Y-116916600D01*
X144054174Y-117196952D01*
X143536152Y-117714974D01*
X143255800Y-118391803D01*
X143255800Y-119124397D01*
X143536152Y-119801226D01*
X144054174Y-120319248D01*
X144731003Y-120599600D01*
X145463597Y-120599600D01*
X146140426Y-120319248D01*
X146658448Y-119801226D01*
X146938800Y-119124397D01*
X146938800Y-118391803D01*
X146850350Y-118178267D01*
X147162491Y-118386832D01*
X147658020Y-118485399D01*
X148153549Y-118386832D01*
X148467600Y-118176990D01*
X149270520Y-117374070D01*
X149270520Y-117547140D01*
X149344207Y-117917589D01*
X149624903Y-118337678D01*
X150044992Y-118618373D01*
X150540520Y-118716940D01*
X151036049Y-118618373D01*
X151456138Y-118337678D01*
X151736833Y-117917589D01*
X151810520Y-117547140D01*
X151810520Y-117262310D01*
X152633760Y-118085550D01*
X152947810Y-118295392D01*
X153443339Y-118393959D01*
X153938868Y-118295392D01*
X154358958Y-118014698D01*
X154639652Y-117594608D01*
X154738219Y-117099079D01*
X154639652Y-116603550D01*
X154429810Y-116289500D01*
X153534500Y-115394190D01*
X153220449Y-115184348D01*
X152724920Y-115085781D01*
X152541306Y-115122304D01*
X152396682Y-114977680D01*
X152476503Y-114935168D01*
X152763919Y-114586016D01*
X152926902Y-114829938D01*
X153346991Y-115110632D01*
X153842520Y-115209199D01*
X154338049Y-115110632D01*
X154652100Y-114900790D01*
X155547410Y-114005480D01*
X155757252Y-113691430D01*
X155855819Y-113195901D01*
X155757252Y-112700372D01*
X155476558Y-112280282D01*
X155056468Y-111999588D01*
X154560939Y-111901021D01*
X154065410Y-111999588D01*
X153751360Y-112209430D01*
X152938280Y-113022510D01*
X152938280Y-112804340D01*
X152793006Y-112327999D01*
X152476503Y-111943512D01*
X152036955Y-111709412D01*
X151991392Y-111703131D01*
X151795280Y-111827371D01*
X151795280Y-113312340D01*
X151815280Y-113312340D01*
X151815280Y-113566340D01*
X151795280Y-113566340D01*
X151795280Y-113586340D01*
X151541280Y-113586340D01*
X151541280Y-113566340D01*
X151521280Y-113566340D01*
X151521280Y-113312340D01*
X151541280Y-113312340D01*
X151541280Y-111827371D01*
X151345168Y-111703131D01*
X151299605Y-111709412D01*
X150860057Y-111943512D01*
X150543554Y-112327999D01*
X150398280Y-112804340D01*
X150398280Y-113055530D01*
X149587740Y-112244990D01*
X149524001Y-112202401D01*
X149981073Y-111745329D01*
X150044529Y-111702929D01*
X150212504Y-111451537D01*
X150256600Y-111229852D01*
X150256600Y-111229848D01*
X150271488Y-111155001D01*
X150256600Y-111080154D01*
X150256600Y-109136201D01*
X151836782Y-107556020D01*
X151868119Y-107569000D01*
X152152616Y-107569000D01*
X152072519Y-107622519D01*
X151777458Y-108064109D01*
X151673846Y-108585000D01*
X151777458Y-109105891D01*
X152072519Y-109547481D01*
X152514109Y-109842542D01*
X152903515Y-109920000D01*
X153166485Y-109920000D01*
X153555891Y-109842542D01*
X153997481Y-109547481D01*
X154292542Y-109105891D01*
X154396154Y-108585000D01*
X154292542Y-108064109D01*
X153997481Y-107622519D01*
X153555891Y-107327458D01*
X153166485Y-107250000D01*
X153043657Y-107250000D01*
X153330320Y-106963337D01*
X153416000Y-106756487D01*
X153501680Y-106963337D01*
X153894663Y-107356320D01*
X154408119Y-107569000D01*
X154963881Y-107569000D01*
X155477337Y-107356320D01*
X155870320Y-106963337D01*
X155956000Y-106756487D01*
X156041680Y-106963337D01*
G36*
X119055669Y-105708931D02*
X119484160Y-105995240D01*
X119734321Y-106045000D01*
X119484160Y-106094760D01*
X119055669Y-106381069D01*
X118769360Y-106809560D01*
X118668822Y-107315000D01*
X118769360Y-107820440D01*
X119055669Y-108248931D01*
X119484160Y-108535240D01*
X119862016Y-108610400D01*
X121437984Y-108610400D01*
X121815840Y-108535240D01*
X122030030Y-108392122D01*
X125017581Y-108392122D01*
X125046336Y-108922440D01*
X125193958Y-109278831D01*
X125429725Y-109340669D01*
X126185395Y-108585000D01*
X126544605Y-108585000D01*
X127300275Y-109340669D01*
X127536042Y-109278831D01*
X127712419Y-108777878D01*
X127683664Y-108247560D01*
X127536042Y-107891169D01*
X127300275Y-107829331D01*
X126544605Y-108585000D01*
X126185395Y-108585000D01*
X125429725Y-107829331D01*
X125193958Y-107891169D01*
X125017581Y-108392122D01*
X122030030Y-108392122D01*
X122244331Y-108248931D01*
X122358954Y-108077385D01*
X122370947Y-108075000D01*
X122370952Y-108075000D01*
X122592637Y-108030904D01*
X122844029Y-107862929D01*
X122886431Y-107799470D01*
X123036176Y-107649725D01*
X125609331Y-107649725D01*
X126365000Y-108405395D01*
X127120669Y-107649725D01*
X127058831Y-107413958D01*
X126557878Y-107237581D01*
X126027560Y-107266336D01*
X125671169Y-107413958D01*
X125609331Y-107649725D01*
X123036176Y-107649725D01*
X124845802Y-105840100D01*
X127911375Y-105840100D01*
X127889000Y-105894119D01*
X127889000Y-106449881D01*
X128101680Y-106963337D01*
X128494663Y-107356320D01*
X129008119Y-107569000D01*
X129563881Y-107569000D01*
X130077337Y-107356320D01*
X130212678Y-107220979D01*
X130735570Y-107743872D01*
X130777971Y-107807329D01*
X131029363Y-107975304D01*
X131251048Y-108019400D01*
X131251052Y-108019400D01*
X131325899Y-108034288D01*
X131400746Y-108019400D01*
X132757332Y-108019400D01*
X132727458Y-108064109D01*
X132623846Y-108585000D01*
X132727458Y-109105891D01*
X133022519Y-109547481D01*
X133464109Y-109842542D01*
X133853515Y-109920000D01*
X134116485Y-109920000D01*
X134505891Y-109842542D01*
X134947481Y-109547481D01*
X134967434Y-109517619D01*
X135087337Y-109651764D01*
X135556669Y-109877727D01*
X135763000Y-109755206D01*
X135763000Y-108712000D01*
X135743000Y-108712000D01*
X135743000Y-108458000D01*
X135763000Y-108458000D01*
X135763000Y-108438000D01*
X136017000Y-108438000D01*
X136017000Y-108458000D01*
X136037000Y-108458000D01*
X136037000Y-108712000D01*
X136017000Y-108712000D01*
X136017000Y-109755206D01*
X136223331Y-109877727D01*
X136692663Y-109651764D01*
X137039797Y-109263396D01*
X137182716Y-108918329D01*
X137059375Y-108712002D01*
X137148601Y-108712002D01*
X139013477Y-110576879D01*
X138921473Y-110614988D01*
X138514988Y-111021473D01*
X138295000Y-111552572D01*
X138295000Y-112127428D01*
X138514988Y-112658527D01*
X138921473Y-113065012D01*
X139452572Y-113285000D01*
X140027428Y-113285000D01*
X140558527Y-113065012D01*
X140965012Y-112658527D01*
X141003121Y-112566523D01*
X143235055Y-114798457D01*
X143086271Y-114897871D01*
X143043871Y-114961327D01*
X142585956Y-115419243D01*
X142527428Y-115395000D01*
X141952572Y-115395000D01*
X141421473Y-115614988D01*
X141014988Y-116021473D01*
X140795000Y-116552572D01*
X140795000Y-117127428D01*
X140819243Y-117185956D01*
X140748799Y-117256400D01*
X138625888Y-117256400D01*
X138696916Y-117059166D01*
X138669886Y-116484945D01*
X138502144Y-116079980D01*
X138254988Y-116004617D01*
X137419605Y-116840000D01*
X137433748Y-116854143D01*
X137254143Y-117033748D01*
X137240000Y-117019605D01*
X137225858Y-117033748D01*
X137046253Y-116854143D01*
X137060395Y-116840000D01*
X136225012Y-116004617D01*
X135977856Y-116079980D01*
X135783084Y-116620834D01*
X135810114Y-117195055D01*
X135835524Y-117256400D01*
X135755015Y-117256400D01*
X135770000Y-117220222D01*
X135770000Y-116569778D01*
X135521086Y-115968847D01*
X135377251Y-115825012D01*
X136404617Y-115825012D01*
X137240000Y-116660395D01*
X138075383Y-115825012D01*
X138000020Y-115577856D01*
X137459166Y-115383084D01*
X136884945Y-115410114D01*
X136479980Y-115577856D01*
X136404617Y-115825012D01*
X135377251Y-115825012D01*
X135061153Y-115508914D01*
X134460222Y-115260000D01*
X133809778Y-115260000D01*
X133208847Y-115508914D01*
X132748914Y-115968847D01*
X132500000Y-116569778D01*
X132500000Y-117220222D01*
X132618674Y-117506725D01*
X131356199Y-118769200D01*
X130584003Y-118769200D01*
X129201177Y-117386375D01*
X129270000Y-117220222D01*
X129270000Y-116569778D01*
X129021086Y-115968847D01*
X128561153Y-115508914D01*
X127960222Y-115260000D01*
X127309778Y-115260000D01*
X127143624Y-115328823D01*
X126730431Y-114915630D01*
X126688029Y-114852171D01*
X126436637Y-114684196D01*
X126214952Y-114640100D01*
X126214947Y-114640100D01*
X126140100Y-114625212D01*
X126065253Y-114640100D01*
X122654790Y-114640100D01*
X123289410Y-114005480D01*
X123499252Y-113691430D01*
X123597819Y-113195901D01*
X123499252Y-112700372D01*
X123218558Y-112280282D01*
X122903516Y-112069778D01*
X126000000Y-112069778D01*
X126000000Y-112720222D01*
X126248914Y-113321153D01*
X126708847Y-113781086D01*
X127309778Y-114030000D01*
X127960222Y-114030000D01*
X128561153Y-113781086D01*
X129021086Y-113321153D01*
X129089909Y-113155000D01*
X132680091Y-113155000D01*
X132748914Y-113321153D01*
X133208847Y-113781086D01*
X133809778Y-114030000D01*
X134460222Y-114030000D01*
X135061153Y-113781086D01*
X135521086Y-113321153D01*
X135770000Y-112720222D01*
X135770000Y-112069778D01*
X135521086Y-111468847D01*
X135061153Y-111008914D01*
X134460222Y-110760000D01*
X133809778Y-110760000D01*
X133208847Y-111008914D01*
X132748914Y-111468847D01*
X132680091Y-111635000D01*
X129089909Y-111635000D01*
X129021086Y-111468847D01*
X128561153Y-111008914D01*
X127960222Y-110760000D01*
X127309778Y-110760000D01*
X126708847Y-111008914D01*
X126248914Y-111468847D01*
X126000000Y-112069778D01*
X122903516Y-112069778D01*
X122798468Y-111999588D01*
X122302939Y-111901021D01*
X121807410Y-111999588D01*
X121493360Y-112209430D01*
X120680280Y-113022510D01*
X120680280Y-112804340D01*
X120535006Y-112327999D01*
X120218503Y-111943512D01*
X119778955Y-111709412D01*
X119733392Y-111703131D01*
X119537280Y-111827371D01*
X119537280Y-113312340D01*
X119557280Y-113312340D01*
X119557280Y-113566340D01*
X119537280Y-113566340D01*
X119537280Y-113586340D01*
X119283280Y-113586340D01*
X119283280Y-113566340D01*
X119263280Y-113566340D01*
X119263280Y-113312340D01*
X119283280Y-113312340D01*
X119283280Y-111827371D01*
X119087168Y-111703131D01*
X119041605Y-111709412D01*
X118602057Y-111943512D01*
X118285554Y-112327999D01*
X118140280Y-112804340D01*
X118140280Y-113055530D01*
X117998600Y-112913850D01*
X117998600Y-109520275D01*
X125609331Y-109520275D01*
X125671169Y-109756042D01*
X126172122Y-109932419D01*
X126702440Y-109903664D01*
X127058831Y-109756042D01*
X127120669Y-109520275D01*
X126365000Y-108764605D01*
X125609331Y-109520275D01*
X117998600Y-109520275D01*
X117998600Y-106416501D01*
X118915679Y-105499422D01*
X119055669Y-105708931D01*
X119055669Y-105708931D01*
G37*
X119055669Y-105708931D02*
X119484160Y-105995240D01*
X119734321Y-106045000D01*
X119484160Y-106094760D01*
X119055669Y-106381069D01*
X118769360Y-106809560D01*
X118668822Y-107315000D01*
X118769360Y-107820440D01*
X119055669Y-108248931D01*
X119484160Y-108535240D01*
X119862016Y-108610400D01*
X121437984Y-108610400D01*
X121815840Y-108535240D01*
X122030030Y-108392122D01*
X125017581Y-108392122D01*
X125046336Y-108922440D01*
X125193958Y-109278831D01*
X125429725Y-109340669D01*
X126185395Y-108585000D01*
X126544605Y-108585000D01*
X127300275Y-109340669D01*
X127536042Y-109278831D01*
X127712419Y-108777878D01*
X127683664Y-108247560D01*
X127536042Y-107891169D01*
X127300275Y-107829331D01*
X126544605Y-108585000D01*
X126185395Y-108585000D01*
X125429725Y-107829331D01*
X125193958Y-107891169D01*
X125017581Y-108392122D01*
X122030030Y-108392122D01*
X122244331Y-108248931D01*
X122358954Y-108077385D01*
X122370947Y-108075000D01*
X122370952Y-108075000D01*
X122592637Y-108030904D01*
X122844029Y-107862929D01*
X122886431Y-107799470D01*
X123036176Y-107649725D01*
X125609331Y-107649725D01*
X126365000Y-108405395D01*
X127120669Y-107649725D01*
X127058831Y-107413958D01*
X126557878Y-107237581D01*
X126027560Y-107266336D01*
X125671169Y-107413958D01*
X125609331Y-107649725D01*
X123036176Y-107649725D01*
X124845802Y-105840100D01*
X127911375Y-105840100D01*
X127889000Y-105894119D01*
X127889000Y-106449881D01*
X128101680Y-106963337D01*
X128494663Y-107356320D01*
X129008119Y-107569000D01*
X129563881Y-107569000D01*
X130077337Y-107356320D01*
X130212678Y-107220979D01*
X130735570Y-107743872D01*
X130777971Y-107807329D01*
X131029363Y-107975304D01*
X131251048Y-108019400D01*
X131251052Y-108019400D01*
X131325899Y-108034288D01*
X131400746Y-108019400D01*
X132757332Y-108019400D01*
X132727458Y-108064109D01*
X132623846Y-108585000D01*
X132727458Y-109105891D01*
X133022519Y-109547481D01*
X133464109Y-109842542D01*
X133853515Y-109920000D01*
X134116485Y-109920000D01*
X134505891Y-109842542D01*
X134947481Y-109547481D01*
X134967434Y-109517619D01*
X135087337Y-109651764D01*
X135556669Y-109877727D01*
X135763000Y-109755206D01*
X135763000Y-108712000D01*
X135743000Y-108712000D01*
X135743000Y-108458000D01*
X135763000Y-108458000D01*
X135763000Y-108438000D01*
X136017000Y-108438000D01*
X136017000Y-108458000D01*
X136037000Y-108458000D01*
X136037000Y-108712000D01*
X136017000Y-108712000D01*
X136017000Y-109755206D01*
X136223331Y-109877727D01*
X136692663Y-109651764D01*
X137039797Y-109263396D01*
X137182716Y-108918329D01*
X137059375Y-108712002D01*
X137148601Y-108712002D01*
X139013477Y-110576879D01*
X138921473Y-110614988D01*
X138514988Y-111021473D01*
X138295000Y-111552572D01*
X138295000Y-112127428D01*
X138514988Y-112658527D01*
X138921473Y-113065012D01*
X139452572Y-113285000D01*
X140027428Y-113285000D01*
X140558527Y-113065012D01*
X140965012Y-112658527D01*
X141003121Y-112566523D01*
X143235055Y-114798457D01*
X143086271Y-114897871D01*
X143043871Y-114961327D01*
X142585956Y-115419243D01*
X142527428Y-115395000D01*
X141952572Y-115395000D01*
X141421473Y-115614988D01*
X141014988Y-116021473D01*
X140795000Y-116552572D01*
X140795000Y-117127428D01*
X140819243Y-117185956D01*
X140748799Y-117256400D01*
X138625888Y-117256400D01*
X138696916Y-117059166D01*
X138669886Y-116484945D01*
X138502144Y-116079980D01*
X138254988Y-116004617D01*
X137419605Y-116840000D01*
X137433748Y-116854143D01*
X137254143Y-117033748D01*
X137240000Y-117019605D01*
X137225858Y-117033748D01*
X137046253Y-116854143D01*
X137060395Y-116840000D01*
X136225012Y-116004617D01*
X135977856Y-116079980D01*
X135783084Y-116620834D01*
X135810114Y-117195055D01*
X135835524Y-117256400D01*
X135755015Y-117256400D01*
X135770000Y-117220222D01*
X135770000Y-116569778D01*
X135521086Y-115968847D01*
X135377251Y-115825012D01*
X136404617Y-115825012D01*
X137240000Y-116660395D01*
X138075383Y-115825012D01*
X138000020Y-115577856D01*
X137459166Y-115383084D01*
X136884945Y-115410114D01*
X136479980Y-115577856D01*
X136404617Y-115825012D01*
X135377251Y-115825012D01*
X135061153Y-115508914D01*
X134460222Y-115260000D01*
X133809778Y-115260000D01*
X133208847Y-115508914D01*
X132748914Y-115968847D01*
X132500000Y-116569778D01*
X132500000Y-117220222D01*
X132618674Y-117506725D01*
X131356199Y-118769200D01*
X130584003Y-118769200D01*
X129201177Y-117386375D01*
X129270000Y-117220222D01*
X129270000Y-116569778D01*
X129021086Y-115968847D01*
X128561153Y-115508914D01*
X127960222Y-115260000D01*
X127309778Y-115260000D01*
X127143624Y-115328823D01*
X126730431Y-114915630D01*
X126688029Y-114852171D01*
X126436637Y-114684196D01*
X126214952Y-114640100D01*
X126214947Y-114640100D01*
X126140100Y-114625212D01*
X126065253Y-114640100D01*
X122654790Y-114640100D01*
X123289410Y-114005480D01*
X123499252Y-113691430D01*
X123597819Y-113195901D01*
X123499252Y-112700372D01*
X123218558Y-112280282D01*
X122903516Y-112069778D01*
X126000000Y-112069778D01*
X126000000Y-112720222D01*
X126248914Y-113321153D01*
X126708847Y-113781086D01*
X127309778Y-114030000D01*
X127960222Y-114030000D01*
X128561153Y-113781086D01*
X129021086Y-113321153D01*
X129089909Y-113155000D01*
X132680091Y-113155000D01*
X132748914Y-113321153D01*
X133208847Y-113781086D01*
X133809778Y-114030000D01*
X134460222Y-114030000D01*
X135061153Y-113781086D01*
X135521086Y-113321153D01*
X135770000Y-112720222D01*
X135770000Y-112069778D01*
X135521086Y-111468847D01*
X135061153Y-111008914D01*
X134460222Y-110760000D01*
X133809778Y-110760000D01*
X133208847Y-111008914D01*
X132748914Y-111468847D01*
X132680091Y-111635000D01*
X129089909Y-111635000D01*
X129021086Y-111468847D01*
X128561153Y-111008914D01*
X127960222Y-110760000D01*
X127309778Y-110760000D01*
X126708847Y-111008914D01*
X126248914Y-111468847D01*
X126000000Y-112069778D01*
X122903516Y-112069778D01*
X122798468Y-111999588D01*
X122302939Y-111901021D01*
X121807410Y-111999588D01*
X121493360Y-112209430D01*
X120680280Y-113022510D01*
X120680280Y-112804340D01*
X120535006Y-112327999D01*
X120218503Y-111943512D01*
X119778955Y-111709412D01*
X119733392Y-111703131D01*
X119537280Y-111827371D01*
X119537280Y-113312340D01*
X119557280Y-113312340D01*
X119557280Y-113566340D01*
X119537280Y-113566340D01*
X119537280Y-113586340D01*
X119283280Y-113586340D01*
X119283280Y-113566340D01*
X119263280Y-113566340D01*
X119263280Y-113312340D01*
X119283280Y-113312340D01*
X119283280Y-111827371D01*
X119087168Y-111703131D01*
X119041605Y-111709412D01*
X118602057Y-111943512D01*
X118285554Y-112327999D01*
X118140280Y-112804340D01*
X118140280Y-113055530D01*
X117998600Y-112913850D01*
X117998600Y-109520275D01*
X125609331Y-109520275D01*
X125671169Y-109756042D01*
X126172122Y-109932419D01*
X126702440Y-109903664D01*
X127058831Y-109756042D01*
X127120669Y-109520275D01*
X126365000Y-108764605D01*
X125609331Y-109520275D01*
X117998600Y-109520275D01*
X117998600Y-106416501D01*
X118915679Y-105499422D01*
X119055669Y-105708931D01*
G36*
X137099748Y-106157858D02*
X137085605Y-106172000D01*
X137886213Y-106972608D01*
X138128397Y-106903143D01*
X138178535Y-106762607D01*
X138261680Y-106963337D01*
X138654663Y-107356320D01*
X139168119Y-107569000D01*
X139723881Y-107569000D01*
X140237337Y-107356320D01*
X140630320Y-106963337D01*
X140716000Y-106756487D01*
X140801680Y-106963337D01*
X141194663Y-107356320D01*
X141708119Y-107569000D01*
X142263881Y-107569000D01*
X142777337Y-107356320D01*
X143170320Y-106963337D01*
X143256000Y-106756487D01*
X143341680Y-106963337D01*
X143628343Y-107250000D01*
X143244452Y-107250000D01*
X142753783Y-107453242D01*
X142378242Y-107828783D01*
X142175000Y-108319452D01*
X142175000Y-108850548D01*
X142378242Y-109341217D01*
X142753783Y-109716758D01*
X143244452Y-109920000D01*
X143775548Y-109920000D01*
X144266217Y-109716758D01*
X144462700Y-109520275D01*
X144659331Y-109520275D01*
X144721169Y-109756042D01*
X145222122Y-109932419D01*
X145752440Y-109903664D01*
X146108831Y-109756042D01*
X146170669Y-109520275D01*
X145415000Y-108764605D01*
X144659331Y-109520275D01*
X144462700Y-109520275D01*
X144641758Y-109341217D01*
X144756720Y-109063674D01*
X145235395Y-108585000D01*
X145221252Y-108570858D01*
X145400858Y-108391252D01*
X145415000Y-108405395D01*
X145429143Y-108391253D01*
X145608748Y-108570858D01*
X145594605Y-108585000D01*
X146350275Y-109340669D01*
X146586042Y-109278831D01*
X146762419Y-108777878D01*
X146733664Y-108247560D01*
X146658708Y-108066600D01*
X149176599Y-108066600D01*
X149012128Y-108231071D01*
X148948672Y-108273471D01*
X148906272Y-108336927D01*
X148906271Y-108336928D01*
X148780697Y-108524863D01*
X148721712Y-108821400D01*
X148736601Y-108896252D01*
X148736600Y-110840198D01*
X147614737Y-111962062D01*
X147551291Y-112004452D01*
X147508881Y-112067918D01*
X147508871Y-112067928D01*
X147467051Y-112130517D01*
X147383307Y-112255838D01*
X147383304Y-112255852D01*
X147383297Y-112255863D01*
X147355621Y-112395000D01*
X147324312Y-112552373D01*
X147324315Y-112552387D01*
X147324312Y-112552400D01*
X147351988Y-112691537D01*
X147383286Y-112848911D01*
X147383294Y-112848923D01*
X147383297Y-112848937D01*
X147472974Y-112983149D01*
X147508854Y-113036851D01*
X147508862Y-113036859D01*
X147518978Y-113051999D01*
X147483281Y-113231460D01*
X147581848Y-113726989D01*
X147791690Y-114041040D01*
X147921450Y-114170800D01*
X144757002Y-114170800D01*
X137361131Y-106774930D01*
X137318729Y-106711471D01*
X137159417Y-106605022D01*
X136906000Y-106351605D01*
X136891858Y-106365748D01*
X136712253Y-106186143D01*
X136726395Y-106172000D01*
X136712253Y-106157858D01*
X136891858Y-105978253D01*
X136906000Y-105992395D01*
X136920143Y-105978253D01*
X137099748Y-106157858D01*
X137099748Y-106157858D01*
G37*
X137099748Y-106157858D02*
X137085605Y-106172000D01*
X137886213Y-106972608D01*
X138128397Y-106903143D01*
X138178535Y-106762607D01*
X138261680Y-106963337D01*
X138654663Y-107356320D01*
X139168119Y-107569000D01*
X139723881Y-107569000D01*
X140237337Y-107356320D01*
X140630320Y-106963337D01*
X140716000Y-106756487D01*
X140801680Y-106963337D01*
X141194663Y-107356320D01*
X141708119Y-107569000D01*
X142263881Y-107569000D01*
X142777337Y-107356320D01*
X143170320Y-106963337D01*
X143256000Y-106756487D01*
X143341680Y-106963337D01*
X143628343Y-107250000D01*
X143244452Y-107250000D01*
X142753783Y-107453242D01*
X142378242Y-107828783D01*
X142175000Y-108319452D01*
X142175000Y-108850548D01*
X142378242Y-109341217D01*
X142753783Y-109716758D01*
X143244452Y-109920000D01*
X143775548Y-109920000D01*
X144266217Y-109716758D01*
X144462700Y-109520275D01*
X144659331Y-109520275D01*
X144721169Y-109756042D01*
X145222122Y-109932419D01*
X145752440Y-109903664D01*
X146108831Y-109756042D01*
X146170669Y-109520275D01*
X145415000Y-108764605D01*
X144659331Y-109520275D01*
X144462700Y-109520275D01*
X144641758Y-109341217D01*
X144756720Y-109063674D01*
X145235395Y-108585000D01*
X145221252Y-108570858D01*
X145400858Y-108391252D01*
X145415000Y-108405395D01*
X145429143Y-108391253D01*
X145608748Y-108570858D01*
X145594605Y-108585000D01*
X146350275Y-109340669D01*
X146586042Y-109278831D01*
X146762419Y-108777878D01*
X146733664Y-108247560D01*
X146658708Y-108066600D01*
X149176599Y-108066600D01*
X149012128Y-108231071D01*
X148948672Y-108273471D01*
X148906272Y-108336927D01*
X148906271Y-108336928D01*
X148780697Y-108524863D01*
X148721712Y-108821400D01*
X148736601Y-108896252D01*
X148736600Y-110840198D01*
X147614737Y-111962062D01*
X147551291Y-112004452D01*
X147508881Y-112067918D01*
X147508871Y-112067928D01*
X147467051Y-112130517D01*
X147383307Y-112255838D01*
X147383304Y-112255852D01*
X147383297Y-112255863D01*
X147355621Y-112395000D01*
X147324312Y-112552373D01*
X147324315Y-112552387D01*
X147324312Y-112552400D01*
X147351988Y-112691537D01*
X147383286Y-112848911D01*
X147383294Y-112848923D01*
X147383297Y-112848937D01*
X147472974Y-112983149D01*
X147508854Y-113036851D01*
X147508862Y-113036859D01*
X147518978Y-113051999D01*
X147483281Y-113231460D01*
X147581848Y-113726989D01*
X147791690Y-114041040D01*
X147921450Y-114170800D01*
X144757002Y-114170800D01*
X137361131Y-106774930D01*
X137318729Y-106711471D01*
X137159417Y-106605022D01*
X136906000Y-106351605D01*
X136891858Y-106365748D01*
X136712253Y-106186143D01*
X136726395Y-106172000D01*
X136712253Y-106157858D01*
X136891858Y-105978253D01*
X136906000Y-105992395D01*
X136920143Y-105978253D01*
X137099748Y-106157858D01*
G36*
X128101680Y-90140663D02*
X127889000Y-90654119D01*
X127889000Y-91209881D01*
X128101680Y-91723337D01*
X128494663Y-92116320D01*
X129008119Y-92329000D01*
X129563881Y-92329000D01*
X130077337Y-92116320D01*
X130281444Y-91912213D01*
X131025392Y-91912213D01*
X131094857Y-92154397D01*
X131618302Y-92341144D01*
X132173368Y-92313362D01*
X132557143Y-92154397D01*
X132626608Y-91912213D01*
X131826000Y-91111605D01*
X131025392Y-91912213D01*
X130281444Y-91912213D01*
X130470320Y-91723337D01*
X130549428Y-91532353D01*
X130603603Y-91663143D01*
X130845787Y-91732608D01*
X131646395Y-90932000D01*
X131632253Y-90917858D01*
X131811858Y-90738253D01*
X131826000Y-90752395D01*
X131840143Y-90738253D01*
X132019748Y-90917858D01*
X132005605Y-90932000D01*
X132806213Y-91732608D01*
X133048397Y-91663143D01*
X133098535Y-91522607D01*
X133181680Y-91723337D01*
X133574663Y-92116320D01*
X134088119Y-92329000D01*
X134643881Y-92329000D01*
X135157337Y-92116320D01*
X135550320Y-91723337D01*
X135636000Y-91516487D01*
X135721680Y-91723337D01*
X136114663Y-92116320D01*
X136628119Y-92329000D01*
X137183881Y-92329000D01*
X137697337Y-92116320D01*
X138090320Y-91723337D01*
X138176000Y-91516487D01*
X138261680Y-91723337D01*
X138654663Y-92116320D01*
X139168119Y-92329000D01*
X139723881Y-92329000D01*
X140237337Y-92116320D01*
X140630320Y-91723337D01*
X140716000Y-91516487D01*
X140801680Y-91723337D01*
X141194663Y-92116320D01*
X141708119Y-92329000D01*
X142263881Y-92329000D01*
X142777337Y-92116320D01*
X143170320Y-91723337D01*
X143256000Y-91516487D01*
X143341680Y-91723337D01*
X143734663Y-92116320D01*
X143803758Y-92144940D01*
X141974000Y-93974698D01*
X141974000Y-93577506D01*
X141763147Y-93068460D01*
X141373540Y-92678853D01*
X140864494Y-92468000D01*
X140313506Y-92468000D01*
X139804460Y-92678853D01*
X139414853Y-93068460D01*
X139319000Y-93299870D01*
X139223147Y-93068460D01*
X138833540Y-92678853D01*
X138324494Y-92468000D01*
X137773506Y-92468000D01*
X137264460Y-92678853D01*
X136874853Y-93068460D01*
X136664000Y-93577506D01*
X136664000Y-94128494D01*
X136874853Y-94637540D01*
X137264460Y-95027147D01*
X137773506Y-95238000D01*
X138324494Y-95238000D01*
X138833540Y-95027147D01*
X139223147Y-94637540D01*
X139319000Y-94406130D01*
X139414853Y-94637540D01*
X139804460Y-95027147D01*
X140313506Y-95238000D01*
X140710698Y-95238000D01*
X135743699Y-100205000D01*
X122485375Y-100205000D01*
X122555795Y-100073396D01*
X122563820Y-100022105D01*
X122439933Y-99822000D01*
X120777000Y-99822000D01*
X120777000Y-99842000D01*
X120523000Y-99842000D01*
X120523000Y-99822000D01*
X118860067Y-99822000D01*
X118736180Y-100022105D01*
X118744205Y-100073396D01*
X118814625Y-100205000D01*
X116914848Y-100205000D01*
X116840000Y-100190112D01*
X116765152Y-100205000D01*
X116765148Y-100205000D01*
X116591605Y-100239520D01*
X116543462Y-100249096D01*
X116356418Y-100374076D01*
X116292071Y-100417071D01*
X116249671Y-100480527D01*
X114925572Y-101804627D01*
X114910640Y-101729560D01*
X114624331Y-101301069D01*
X114195840Y-101014760D01*
X113918873Y-100959668D01*
X114303461Y-100843193D01*
X114696189Y-100521184D01*
X114935795Y-100073396D01*
X114943820Y-100022105D01*
X114819933Y-99822000D01*
X113157000Y-99822000D01*
X113157000Y-99842000D01*
X112903000Y-99842000D01*
X112903000Y-99822000D01*
X112883000Y-99822000D01*
X112883000Y-99568000D01*
X112903000Y-99568000D01*
X112903000Y-97282000D01*
X113157000Y-97282000D01*
X113157000Y-99568000D01*
X114819933Y-99568000D01*
X114943820Y-99367895D01*
X114935795Y-99316604D01*
X114696189Y-98868816D01*
X114303461Y-98546807D01*
X113901268Y-98425000D01*
X114303461Y-98303193D01*
X114696189Y-97981184D01*
X114935795Y-97533396D01*
X114943820Y-97482105D01*
X118736180Y-97482105D01*
X118744205Y-97533396D01*
X118983811Y-97981184D01*
X119376539Y-98303193D01*
X119778732Y-98425000D01*
X119376539Y-98546807D01*
X118983811Y-98868816D01*
X118744205Y-99316604D01*
X118736180Y-99367895D01*
X118860067Y-99568000D01*
X120523000Y-99568000D01*
X120523000Y-97282000D01*
X118860067Y-97282000D01*
X118736180Y-97482105D01*
X114943820Y-97482105D01*
X114819933Y-97282000D01*
X113157000Y-97282000D01*
X112903000Y-97282000D01*
X112883000Y-97282000D01*
X112883000Y-97028000D01*
X112903000Y-97028000D01*
X112903000Y-97008000D01*
X113157000Y-97008000D01*
X113157000Y-97028000D01*
X114819933Y-97028000D01*
X114943820Y-96827895D01*
X114935795Y-96776604D01*
X114696189Y-96328816D01*
X114303461Y-96006807D01*
X113918873Y-95890332D01*
X114195840Y-95835240D01*
X114624331Y-95548931D01*
X114910640Y-95120440D01*
X115011178Y-94615000D01*
X114910640Y-94109560D01*
X114624331Y-93681069D01*
X114195840Y-93394760D01*
X113945679Y-93345000D01*
X114195840Y-93295240D01*
X114624331Y-93008931D01*
X114910640Y-92580440D01*
X115011178Y-92075000D01*
X114950391Y-91769400D01*
X118729609Y-91769400D01*
X118668822Y-92075000D01*
X118769360Y-92580440D01*
X119055669Y-93008931D01*
X119484160Y-93295240D01*
X119734321Y-93345000D01*
X119484160Y-93394760D01*
X119055669Y-93681069D01*
X118769360Y-94109560D01*
X118668822Y-94615000D01*
X118769360Y-95120440D01*
X119055669Y-95548931D01*
X119484160Y-95835240D01*
X119761127Y-95890332D01*
X119376539Y-96006807D01*
X118983811Y-96328816D01*
X118744205Y-96776604D01*
X118736180Y-96827895D01*
X118860067Y-97028000D01*
X120523000Y-97028000D01*
X120523000Y-97008000D01*
X120777000Y-97008000D01*
X120777000Y-97028000D01*
X120797000Y-97028000D01*
X120797000Y-97282000D01*
X120777000Y-97282000D01*
X120777000Y-99568000D01*
X122439933Y-99568000D01*
X122563820Y-99367895D01*
X122555795Y-99316604D01*
X122316189Y-98868816D01*
X121923461Y-98546807D01*
X121521268Y-98425000D01*
X121923461Y-98303193D01*
X122316189Y-97981184D01*
X122404560Y-97816032D01*
X122404560Y-98182000D01*
X122453843Y-98429765D01*
X122594191Y-98639809D01*
X122804235Y-98780157D01*
X123052000Y-98829440D01*
X124852000Y-98829440D01*
X125099765Y-98780157D01*
X125309809Y-98639809D01*
X125450157Y-98429765D01*
X125499440Y-98182000D01*
X125499440Y-96382000D01*
X125450157Y-96134235D01*
X125309809Y-95924191D01*
X125099765Y-95783843D01*
X124852000Y-95734560D01*
X123052000Y-95734560D01*
X122804235Y-95783843D01*
X122594191Y-95924191D01*
X122453843Y-96134235D01*
X122404560Y-96382000D01*
X122404560Y-96493968D01*
X122316189Y-96328816D01*
X121923461Y-96006807D01*
X121538873Y-95890332D01*
X121815840Y-95835240D01*
X122244331Y-95548931D01*
X122530640Y-95120440D01*
X122631178Y-94615000D01*
X122530640Y-94109560D01*
X122244331Y-93681069D01*
X121815840Y-93394760D01*
X121565679Y-93345000D01*
X121815840Y-93295240D01*
X122244331Y-93008931D01*
X122358954Y-92837385D01*
X122370947Y-92835000D01*
X122370952Y-92835000D01*
X122592637Y-92790904D01*
X122844029Y-92622929D01*
X122886431Y-92559470D01*
X125336402Y-90109500D01*
X128132843Y-90109500D01*
X128101680Y-90140663D01*
X128101680Y-90140663D01*
G37*
X128101680Y-90140663D02*
X127889000Y-90654119D01*
X127889000Y-91209881D01*
X128101680Y-91723337D01*
X128494663Y-92116320D01*
X129008119Y-92329000D01*
X129563881Y-92329000D01*
X130077337Y-92116320D01*
X130281444Y-91912213D01*
X131025392Y-91912213D01*
X131094857Y-92154397D01*
X131618302Y-92341144D01*
X132173368Y-92313362D01*
X132557143Y-92154397D01*
X132626608Y-91912213D01*
X131826000Y-91111605D01*
X131025392Y-91912213D01*
X130281444Y-91912213D01*
X130470320Y-91723337D01*
X130549428Y-91532353D01*
X130603603Y-91663143D01*
X130845787Y-91732608D01*
X131646395Y-90932000D01*
X131632253Y-90917858D01*
X131811858Y-90738253D01*
X131826000Y-90752395D01*
X131840143Y-90738253D01*
X132019748Y-90917858D01*
X132005605Y-90932000D01*
X132806213Y-91732608D01*
X133048397Y-91663143D01*
X133098535Y-91522607D01*
X133181680Y-91723337D01*
X133574663Y-92116320D01*
X134088119Y-92329000D01*
X134643881Y-92329000D01*
X135157337Y-92116320D01*
X135550320Y-91723337D01*
X135636000Y-91516487D01*
X135721680Y-91723337D01*
X136114663Y-92116320D01*
X136628119Y-92329000D01*
X137183881Y-92329000D01*
X137697337Y-92116320D01*
X138090320Y-91723337D01*
X138176000Y-91516487D01*
X138261680Y-91723337D01*
X138654663Y-92116320D01*
X139168119Y-92329000D01*
X139723881Y-92329000D01*
X140237337Y-92116320D01*
X140630320Y-91723337D01*
X140716000Y-91516487D01*
X140801680Y-91723337D01*
X141194663Y-92116320D01*
X141708119Y-92329000D01*
X142263881Y-92329000D01*
X142777337Y-92116320D01*
X143170320Y-91723337D01*
X143256000Y-91516487D01*
X143341680Y-91723337D01*
X143734663Y-92116320D01*
X143803758Y-92144940D01*
X141974000Y-93974698D01*
X141974000Y-93577506D01*
X141763147Y-93068460D01*
X141373540Y-92678853D01*
X140864494Y-92468000D01*
X140313506Y-92468000D01*
X139804460Y-92678853D01*
X139414853Y-93068460D01*
X139319000Y-93299870D01*
X139223147Y-93068460D01*
X138833540Y-92678853D01*
X138324494Y-92468000D01*
X137773506Y-92468000D01*
X137264460Y-92678853D01*
X136874853Y-93068460D01*
X136664000Y-93577506D01*
X136664000Y-94128494D01*
X136874853Y-94637540D01*
X137264460Y-95027147D01*
X137773506Y-95238000D01*
X138324494Y-95238000D01*
X138833540Y-95027147D01*
X139223147Y-94637540D01*
X139319000Y-94406130D01*
X139414853Y-94637540D01*
X139804460Y-95027147D01*
X140313506Y-95238000D01*
X140710698Y-95238000D01*
X135743699Y-100205000D01*
X122485375Y-100205000D01*
X122555795Y-100073396D01*
X122563820Y-100022105D01*
X122439933Y-99822000D01*
X120777000Y-99822000D01*
X120777000Y-99842000D01*
X120523000Y-99842000D01*
X120523000Y-99822000D01*
X118860067Y-99822000D01*
X118736180Y-100022105D01*
X118744205Y-100073396D01*
X118814625Y-100205000D01*
X116914848Y-100205000D01*
X116840000Y-100190112D01*
X116765152Y-100205000D01*
X116765148Y-100205000D01*
X116591605Y-100239520D01*
X116543462Y-100249096D01*
X116356418Y-100374076D01*
X116292071Y-100417071D01*
X116249671Y-100480527D01*
X114925572Y-101804627D01*
X114910640Y-101729560D01*
X114624331Y-101301069D01*
X114195840Y-101014760D01*
X113918873Y-100959668D01*
X114303461Y-100843193D01*
X114696189Y-100521184D01*
X114935795Y-100073396D01*
X114943820Y-100022105D01*
X114819933Y-99822000D01*
X113157000Y-99822000D01*
X113157000Y-99842000D01*
X112903000Y-99842000D01*
X112903000Y-99822000D01*
X112883000Y-99822000D01*
X112883000Y-99568000D01*
X112903000Y-99568000D01*
X112903000Y-97282000D01*
X113157000Y-97282000D01*
X113157000Y-99568000D01*
X114819933Y-99568000D01*
X114943820Y-99367895D01*
X114935795Y-99316604D01*
X114696189Y-98868816D01*
X114303461Y-98546807D01*
X113901268Y-98425000D01*
X114303461Y-98303193D01*
X114696189Y-97981184D01*
X114935795Y-97533396D01*
X114943820Y-97482105D01*
X118736180Y-97482105D01*
X118744205Y-97533396D01*
X118983811Y-97981184D01*
X119376539Y-98303193D01*
X119778732Y-98425000D01*
X119376539Y-98546807D01*
X118983811Y-98868816D01*
X118744205Y-99316604D01*
X118736180Y-99367895D01*
X118860067Y-99568000D01*
X120523000Y-99568000D01*
X120523000Y-97282000D01*
X118860067Y-97282000D01*
X118736180Y-97482105D01*
X114943820Y-97482105D01*
X114819933Y-97282000D01*
X113157000Y-97282000D01*
X112903000Y-97282000D01*
X112883000Y-97282000D01*
X112883000Y-97028000D01*
X112903000Y-97028000D01*
X112903000Y-97008000D01*
X113157000Y-97008000D01*
X113157000Y-97028000D01*
X114819933Y-97028000D01*
X114943820Y-96827895D01*
X114935795Y-96776604D01*
X114696189Y-96328816D01*
X114303461Y-96006807D01*
X113918873Y-95890332D01*
X114195840Y-95835240D01*
X114624331Y-95548931D01*
X114910640Y-95120440D01*
X115011178Y-94615000D01*
X114910640Y-94109560D01*
X114624331Y-93681069D01*
X114195840Y-93394760D01*
X113945679Y-93345000D01*
X114195840Y-93295240D01*
X114624331Y-93008931D01*
X114910640Y-92580440D01*
X115011178Y-92075000D01*
X114950391Y-91769400D01*
X118729609Y-91769400D01*
X118668822Y-92075000D01*
X118769360Y-92580440D01*
X119055669Y-93008931D01*
X119484160Y-93295240D01*
X119734321Y-93345000D01*
X119484160Y-93394760D01*
X119055669Y-93681069D01*
X118769360Y-94109560D01*
X118668822Y-94615000D01*
X118769360Y-95120440D01*
X119055669Y-95548931D01*
X119484160Y-95835240D01*
X119761127Y-95890332D01*
X119376539Y-96006807D01*
X118983811Y-96328816D01*
X118744205Y-96776604D01*
X118736180Y-96827895D01*
X118860067Y-97028000D01*
X120523000Y-97028000D01*
X120523000Y-97008000D01*
X120777000Y-97008000D01*
X120777000Y-97028000D01*
X120797000Y-97028000D01*
X120797000Y-97282000D01*
X120777000Y-97282000D01*
X120777000Y-99568000D01*
X122439933Y-99568000D01*
X122563820Y-99367895D01*
X122555795Y-99316604D01*
X122316189Y-98868816D01*
X121923461Y-98546807D01*
X121521268Y-98425000D01*
X121923461Y-98303193D01*
X122316189Y-97981184D01*
X122404560Y-97816032D01*
X122404560Y-98182000D01*
X122453843Y-98429765D01*
X122594191Y-98639809D01*
X122804235Y-98780157D01*
X123052000Y-98829440D01*
X124852000Y-98829440D01*
X125099765Y-98780157D01*
X125309809Y-98639809D01*
X125450157Y-98429765D01*
X125499440Y-98182000D01*
X125499440Y-96382000D01*
X125450157Y-96134235D01*
X125309809Y-95924191D01*
X125099765Y-95783843D01*
X124852000Y-95734560D01*
X123052000Y-95734560D01*
X122804235Y-95783843D01*
X122594191Y-95924191D01*
X122453843Y-96134235D01*
X122404560Y-96382000D01*
X122404560Y-96493968D01*
X122316189Y-96328816D01*
X121923461Y-96006807D01*
X121538873Y-95890332D01*
X121815840Y-95835240D01*
X122244331Y-95548931D01*
X122530640Y-95120440D01*
X122631178Y-94615000D01*
X122530640Y-94109560D01*
X122244331Y-93681069D01*
X121815840Y-93394760D01*
X121565679Y-93345000D01*
X121815840Y-93295240D01*
X122244331Y-93008931D01*
X122358954Y-92837385D01*
X122370947Y-92835000D01*
X122370952Y-92835000D01*
X122592637Y-92790904D01*
X122844029Y-92622929D01*
X122886431Y-92559470D01*
X125336402Y-90109500D01*
X128132843Y-90109500D01*
X128101680Y-90140663D01*
G36*
X158040001Y-88028998D02*
X156031131Y-86020130D01*
X155988729Y-85956671D01*
X155977509Y-85949174D01*
X156193864Y-85884005D01*
X156386965Y-85346777D01*
X156359778Y-84776546D01*
X156193864Y-84375995D01*
X155947745Y-84301861D01*
X155119605Y-85130000D01*
X155133748Y-85144142D01*
X154954142Y-85323748D01*
X154940000Y-85309605D01*
X154925858Y-85323748D01*
X154746252Y-85144142D01*
X154760395Y-85130000D01*
X153932255Y-84301861D01*
X153686136Y-84375995D01*
X153493035Y-84913223D01*
X153520222Y-85483454D01*
X153628392Y-85744600D01*
X149893972Y-85744600D01*
X150036965Y-85346777D01*
X150009778Y-84776546D01*
X149843864Y-84375995D01*
X149597745Y-84301861D01*
X148769605Y-85130000D01*
X148783748Y-85144142D01*
X148604142Y-85323748D01*
X148590000Y-85309605D01*
X148575858Y-85323748D01*
X148396252Y-85144142D01*
X148410395Y-85130000D01*
X147582255Y-84301861D01*
X147336136Y-84375995D01*
X147143035Y-84913223D01*
X147170222Y-85483454D01*
X147278392Y-85744600D01*
X142401948Y-85744600D01*
X142327100Y-85729712D01*
X142252252Y-85744600D01*
X142252248Y-85744600D01*
X142078705Y-85779120D01*
X142030562Y-85788696D01*
X141935822Y-85852000D01*
X141779171Y-85956671D01*
X141736771Y-86020127D01*
X141729445Y-86027453D01*
X141764345Y-85852000D01*
X141636208Y-85207812D01*
X141271305Y-84661695D01*
X141120311Y-84560804D01*
X141338236Y-84389630D01*
X141488594Y-84122255D01*
X147761861Y-84122255D01*
X148590000Y-84950395D01*
X149418139Y-84122255D01*
X154111861Y-84122255D01*
X154940000Y-84950395D01*
X155768139Y-84122255D01*
X155694005Y-83876136D01*
X155156777Y-83683035D01*
X154586546Y-83710222D01*
X154185995Y-83876136D01*
X154111861Y-84122255D01*
X149418139Y-84122255D01*
X149344005Y-83876136D01*
X148806777Y-83683035D01*
X148236546Y-83710222D01*
X147835995Y-83876136D01*
X147761861Y-84122255D01*
X141488594Y-84122255D01*
X141654926Y-83826477D01*
X141686975Y-83694944D01*
X141567836Y-83439000D01*
X139954000Y-83439000D01*
X139954000Y-83459000D01*
X139700000Y-83459000D01*
X139700000Y-83439000D01*
X139680000Y-83439000D01*
X139680000Y-83185000D01*
X139700000Y-83185000D01*
X139700000Y-83165000D01*
X139954000Y-83165000D01*
X139954000Y-83185000D01*
X141567836Y-83185000D01*
X141686975Y-82929056D01*
X141654926Y-82797523D01*
X141338236Y-82234370D01*
X141120311Y-82063196D01*
X141271305Y-81962305D01*
X141636208Y-81416188D01*
X141764345Y-80772000D01*
X141636208Y-80127812D01*
X141271305Y-79581695D01*
X140830262Y-79287000D01*
X146457560Y-79287000D01*
X146457560Y-80987000D01*
X146506843Y-81234765D01*
X146647191Y-81444809D01*
X146857235Y-81585157D01*
X147105000Y-81634440D01*
X148805000Y-81634440D01*
X149052765Y-81585157D01*
X149262809Y-81444809D01*
X149403157Y-81234765D01*
X149423739Y-81131292D01*
X149728076Y-81408645D01*
X150138110Y-81578476D01*
X150368000Y-81457155D01*
X150368000Y-80264000D01*
X150348000Y-80264000D01*
X150348000Y-80010000D01*
X150368000Y-80010000D01*
X150368000Y-78816845D01*
X150622000Y-78816845D01*
X150622000Y-80010000D01*
X150642000Y-80010000D01*
X150642000Y-80264000D01*
X150622000Y-80264000D01*
X150622000Y-81457155D01*
X150851890Y-81578476D01*
X151261924Y-81408645D01*
X151690183Y-81018358D01*
X151751157Y-80888522D01*
X151964375Y-81207625D01*
X152455582Y-81535839D01*
X152888744Y-81622000D01*
X153181256Y-81622000D01*
X153614418Y-81535839D01*
X154105625Y-81207625D01*
X154305000Y-80909239D01*
X154504375Y-81207625D01*
X154995582Y-81535839D01*
X155428744Y-81622000D01*
X155721256Y-81622000D01*
X156154418Y-81535839D01*
X156645625Y-81207625D01*
X156973839Y-80716418D01*
X157089092Y-80137000D01*
X156973839Y-79557582D01*
X156645625Y-79066375D01*
X156154418Y-78738161D01*
X155721256Y-78652000D01*
X155428744Y-78652000D01*
X154995582Y-78738161D01*
X154504375Y-79066375D01*
X154305000Y-79364761D01*
X154105625Y-79066375D01*
X153614418Y-78738161D01*
X153181256Y-78652000D01*
X152888744Y-78652000D01*
X152455582Y-78738161D01*
X151964375Y-79066375D01*
X151751157Y-79385478D01*
X151690183Y-79255642D01*
X151261924Y-78865355D01*
X150851890Y-78695524D01*
X150622000Y-78816845D01*
X150368000Y-78816845D01*
X150138110Y-78695524D01*
X149728076Y-78865355D01*
X149423739Y-79142708D01*
X149403157Y-79039235D01*
X149262809Y-78829191D01*
X149052765Y-78688843D01*
X148805000Y-78639560D01*
X147105000Y-78639560D01*
X146857235Y-78688843D01*
X146647191Y-78829191D01*
X146506843Y-79039235D01*
X146457560Y-79287000D01*
X140830262Y-79287000D01*
X140725188Y-79216792D01*
X140243609Y-79121000D01*
X139410391Y-79121000D01*
X138928812Y-79216792D01*
X138382695Y-79581695D01*
X138017792Y-80127812D01*
X137889655Y-80772000D01*
X138017792Y-81416188D01*
X138053928Y-81470270D01*
X135295699Y-84228500D01*
X132258548Y-84228500D01*
X132183700Y-84213612D01*
X132108852Y-84228500D01*
X132108848Y-84228500D01*
X131887163Y-84272596D01*
X131635771Y-84440571D01*
X131593371Y-84504027D01*
X130941748Y-85155650D01*
X130841765Y-85088843D01*
X130594000Y-85039560D01*
X128994000Y-85039560D01*
X128746235Y-85088843D01*
X128536191Y-85229191D01*
X128395843Y-85439235D01*
X128346560Y-85687000D01*
X128346560Y-87287000D01*
X128395843Y-87534765D01*
X128431013Y-87587400D01*
X125424498Y-87587400D01*
X125517072Y-87122000D01*
X125397938Y-86523073D01*
X125058673Y-86015327D01*
X124550927Y-85676062D01*
X124103182Y-85587000D01*
X123800818Y-85587000D01*
X123353073Y-85676062D01*
X122845327Y-86015327D01*
X122506062Y-86523073D01*
X122386928Y-87122000D01*
X122479502Y-87587400D01*
X114292446Y-87587400D01*
X114217599Y-87572512D01*
X114142752Y-87587400D01*
X114142748Y-87587400D01*
X113921063Y-87631496D01*
X113669671Y-87799471D01*
X113627271Y-87862927D01*
X113250598Y-88239600D01*
X112242016Y-88239600D01*
X111864160Y-88314760D01*
X111835000Y-88334244D01*
X111835000Y-83260804D01*
X112996201Y-83260804D01*
X113080278Y-83515319D01*
X113646874Y-83721959D01*
X114249420Y-83696042D01*
X114685722Y-83515319D01*
X114769799Y-83260804D01*
X113883000Y-82374005D01*
X112996201Y-83260804D01*
X111835000Y-83260804D01*
X111835000Y-81958274D01*
X112355441Y-81958274D01*
X112381358Y-82560820D01*
X112562081Y-82997122D01*
X112816596Y-83081199D01*
X113703395Y-82194400D01*
X114062605Y-82194400D01*
X114949404Y-83081199D01*
X115203919Y-82997122D01*
X115410559Y-82430526D01*
X115387433Y-81892849D01*
X117367000Y-81892849D01*
X117367000Y-82495951D01*
X117597797Y-83053145D01*
X118024255Y-83479603D01*
X118581449Y-83710400D01*
X119184551Y-83710400D01*
X119741745Y-83479603D01*
X120168203Y-83053145D01*
X120178038Y-83029400D01*
X127324367Y-83029400D01*
X127406600Y-83045757D01*
X127488833Y-83029400D01*
X127488837Y-83029400D01*
X127732401Y-82980952D01*
X128008601Y-82796401D01*
X128055187Y-82726680D01*
X128757703Y-82024164D01*
X128781449Y-82034000D01*
X129384551Y-82034000D01*
X129941745Y-81803203D01*
X130368203Y-81376745D01*
X130583000Y-80858178D01*
X130797797Y-81376745D01*
X131224255Y-81803203D01*
X131781449Y-82034000D01*
X132384551Y-82034000D01*
X132941745Y-81803203D01*
X133255139Y-81489809D01*
X133537943Y-81913057D01*
X134178001Y-82340729D01*
X134742424Y-82453000D01*
X135123576Y-82453000D01*
X135687999Y-82340729D01*
X136328057Y-81913057D01*
X136755729Y-81272999D01*
X136905908Y-80518000D01*
X136755729Y-79763001D01*
X136328057Y-79122943D01*
X135687999Y-78695271D01*
X135123576Y-78583000D01*
X134742424Y-78583000D01*
X134178001Y-78695271D01*
X133537943Y-79122943D01*
X133255139Y-79546191D01*
X132941745Y-79232797D01*
X132384551Y-79002000D01*
X131781449Y-79002000D01*
X131224255Y-79232797D01*
X130797797Y-79659255D01*
X130583000Y-80177822D01*
X130368203Y-79659255D01*
X129941745Y-79232797D01*
X129384551Y-79002000D01*
X128781449Y-79002000D01*
X128224255Y-79232797D01*
X127797797Y-79659255D01*
X127583000Y-80177822D01*
X127368203Y-79659255D01*
X126941745Y-79232797D01*
X126384551Y-79002000D01*
X125781449Y-79002000D01*
X125224255Y-79232797D01*
X124910861Y-79546191D01*
X124628057Y-79122943D01*
X123987999Y-78695271D01*
X123423576Y-78583000D01*
X123042424Y-78583000D01*
X122478001Y-78695271D01*
X121837943Y-79122943D01*
X121410271Y-79763001D01*
X121260092Y-80518000D01*
X121410271Y-81272999D01*
X121468002Y-81359400D01*
X120178038Y-81359400D01*
X120168203Y-81335655D01*
X119741745Y-80909197D01*
X119184551Y-80678400D01*
X118581449Y-80678400D01*
X118024255Y-80909197D01*
X117597797Y-81335655D01*
X117367000Y-81892849D01*
X115387433Y-81892849D01*
X115384642Y-81827980D01*
X115203919Y-81391678D01*
X114949404Y-81307601D01*
X114062605Y-82194400D01*
X113703395Y-82194400D01*
X112816596Y-81307601D01*
X112562081Y-81391678D01*
X112355441Y-81958274D01*
X111835000Y-81958274D01*
X111835000Y-81127996D01*
X112996201Y-81127996D01*
X113883000Y-82014795D01*
X114769799Y-81127996D01*
X114685722Y-80873481D01*
X114119126Y-80666841D01*
X113516580Y-80692758D01*
X113080278Y-80873481D01*
X112996201Y-81127996D01*
X111835000Y-81127996D01*
X111835000Y-78180000D01*
X158040001Y-78180000D01*
X158040001Y-88028998D01*
X158040001Y-88028998D01*
G37*
X158040001Y-88028998D02*
X156031131Y-86020130D01*
X155988729Y-85956671D01*
X155977509Y-85949174D01*
X156193864Y-85884005D01*
X156386965Y-85346777D01*
X156359778Y-84776546D01*
X156193864Y-84375995D01*
X155947745Y-84301861D01*
X155119605Y-85130000D01*
X155133748Y-85144142D01*
X154954142Y-85323748D01*
X154940000Y-85309605D01*
X154925858Y-85323748D01*
X154746252Y-85144142D01*
X154760395Y-85130000D01*
X153932255Y-84301861D01*
X153686136Y-84375995D01*
X153493035Y-84913223D01*
X153520222Y-85483454D01*
X153628392Y-85744600D01*
X149893972Y-85744600D01*
X150036965Y-85346777D01*
X150009778Y-84776546D01*
X149843864Y-84375995D01*
X149597745Y-84301861D01*
X148769605Y-85130000D01*
X148783748Y-85144142D01*
X148604142Y-85323748D01*
X148590000Y-85309605D01*
X148575858Y-85323748D01*
X148396252Y-85144142D01*
X148410395Y-85130000D01*
X147582255Y-84301861D01*
X147336136Y-84375995D01*
X147143035Y-84913223D01*
X147170222Y-85483454D01*
X147278392Y-85744600D01*
X142401948Y-85744600D01*
X142327100Y-85729712D01*
X142252252Y-85744600D01*
X142252248Y-85744600D01*
X142078705Y-85779120D01*
X142030562Y-85788696D01*
X141935822Y-85852000D01*
X141779171Y-85956671D01*
X141736771Y-86020127D01*
X141729445Y-86027453D01*
X141764345Y-85852000D01*
X141636208Y-85207812D01*
X141271305Y-84661695D01*
X141120311Y-84560804D01*
X141338236Y-84389630D01*
X141488594Y-84122255D01*
X147761861Y-84122255D01*
X148590000Y-84950395D01*
X149418139Y-84122255D01*
X154111861Y-84122255D01*
X154940000Y-84950395D01*
X155768139Y-84122255D01*
X155694005Y-83876136D01*
X155156777Y-83683035D01*
X154586546Y-83710222D01*
X154185995Y-83876136D01*
X154111861Y-84122255D01*
X149418139Y-84122255D01*
X149344005Y-83876136D01*
X148806777Y-83683035D01*
X148236546Y-83710222D01*
X147835995Y-83876136D01*
X147761861Y-84122255D01*
X141488594Y-84122255D01*
X141654926Y-83826477D01*
X141686975Y-83694944D01*
X141567836Y-83439000D01*
X139954000Y-83439000D01*
X139954000Y-83459000D01*
X139700000Y-83459000D01*
X139700000Y-83439000D01*
X139680000Y-83439000D01*
X139680000Y-83185000D01*
X139700000Y-83185000D01*
X139700000Y-83165000D01*
X139954000Y-83165000D01*
X139954000Y-83185000D01*
X141567836Y-83185000D01*
X141686975Y-82929056D01*
X141654926Y-82797523D01*
X141338236Y-82234370D01*
X141120311Y-82063196D01*
X141271305Y-81962305D01*
X141636208Y-81416188D01*
X141764345Y-80772000D01*
X141636208Y-80127812D01*
X141271305Y-79581695D01*
X140830262Y-79287000D01*
X146457560Y-79287000D01*
X146457560Y-80987000D01*
X146506843Y-81234765D01*
X146647191Y-81444809D01*
X146857235Y-81585157D01*
X147105000Y-81634440D01*
X148805000Y-81634440D01*
X149052765Y-81585157D01*
X149262809Y-81444809D01*
X149403157Y-81234765D01*
X149423739Y-81131292D01*
X149728076Y-81408645D01*
X150138110Y-81578476D01*
X150368000Y-81457155D01*
X150368000Y-80264000D01*
X150348000Y-80264000D01*
X150348000Y-80010000D01*
X150368000Y-80010000D01*
X150368000Y-78816845D01*
X150622000Y-78816845D01*
X150622000Y-80010000D01*
X150642000Y-80010000D01*
X150642000Y-80264000D01*
X150622000Y-80264000D01*
X150622000Y-81457155D01*
X150851890Y-81578476D01*
X151261924Y-81408645D01*
X151690183Y-81018358D01*
X151751157Y-80888522D01*
X151964375Y-81207625D01*
X152455582Y-81535839D01*
X152888744Y-81622000D01*
X153181256Y-81622000D01*
X153614418Y-81535839D01*
X154105625Y-81207625D01*
X154305000Y-80909239D01*
X154504375Y-81207625D01*
X154995582Y-81535839D01*
X155428744Y-81622000D01*
X155721256Y-81622000D01*
X156154418Y-81535839D01*
X156645625Y-81207625D01*
X156973839Y-80716418D01*
X157089092Y-80137000D01*
X156973839Y-79557582D01*
X156645625Y-79066375D01*
X156154418Y-78738161D01*
X155721256Y-78652000D01*
X155428744Y-78652000D01*
X154995582Y-78738161D01*
X154504375Y-79066375D01*
X154305000Y-79364761D01*
X154105625Y-79066375D01*
X153614418Y-78738161D01*
X153181256Y-78652000D01*
X152888744Y-78652000D01*
X152455582Y-78738161D01*
X151964375Y-79066375D01*
X151751157Y-79385478D01*
X151690183Y-79255642D01*
X151261924Y-78865355D01*
X150851890Y-78695524D01*
X150622000Y-78816845D01*
X150368000Y-78816845D01*
X150138110Y-78695524D01*
X149728076Y-78865355D01*
X149423739Y-79142708D01*
X149403157Y-79039235D01*
X149262809Y-78829191D01*
X149052765Y-78688843D01*
X148805000Y-78639560D01*
X147105000Y-78639560D01*
X146857235Y-78688843D01*
X146647191Y-78829191D01*
X146506843Y-79039235D01*
X146457560Y-79287000D01*
X140830262Y-79287000D01*
X140725188Y-79216792D01*
X140243609Y-79121000D01*
X139410391Y-79121000D01*
X138928812Y-79216792D01*
X138382695Y-79581695D01*
X138017792Y-80127812D01*
X137889655Y-80772000D01*
X138017792Y-81416188D01*
X138053928Y-81470270D01*
X135295699Y-84228500D01*
X132258548Y-84228500D01*
X132183700Y-84213612D01*
X132108852Y-84228500D01*
X132108848Y-84228500D01*
X131887163Y-84272596D01*
X131635771Y-84440571D01*
X131593371Y-84504027D01*
X130941748Y-85155650D01*
X130841765Y-85088843D01*
X130594000Y-85039560D01*
X128994000Y-85039560D01*
X128746235Y-85088843D01*
X128536191Y-85229191D01*
X128395843Y-85439235D01*
X128346560Y-85687000D01*
X128346560Y-87287000D01*
X128395843Y-87534765D01*
X128431013Y-87587400D01*
X125424498Y-87587400D01*
X125517072Y-87122000D01*
X125397938Y-86523073D01*
X125058673Y-86015327D01*
X124550927Y-85676062D01*
X124103182Y-85587000D01*
X123800818Y-85587000D01*
X123353073Y-85676062D01*
X122845327Y-86015327D01*
X122506062Y-86523073D01*
X122386928Y-87122000D01*
X122479502Y-87587400D01*
X114292446Y-87587400D01*
X114217599Y-87572512D01*
X114142752Y-87587400D01*
X114142748Y-87587400D01*
X113921063Y-87631496D01*
X113669671Y-87799471D01*
X113627271Y-87862927D01*
X113250598Y-88239600D01*
X112242016Y-88239600D01*
X111864160Y-88314760D01*
X111835000Y-88334244D01*
X111835000Y-83260804D01*
X112996201Y-83260804D01*
X113080278Y-83515319D01*
X113646874Y-83721959D01*
X114249420Y-83696042D01*
X114685722Y-83515319D01*
X114769799Y-83260804D01*
X113883000Y-82374005D01*
X112996201Y-83260804D01*
X111835000Y-83260804D01*
X111835000Y-81958274D01*
X112355441Y-81958274D01*
X112381358Y-82560820D01*
X112562081Y-82997122D01*
X112816596Y-83081199D01*
X113703395Y-82194400D01*
X114062605Y-82194400D01*
X114949404Y-83081199D01*
X115203919Y-82997122D01*
X115410559Y-82430526D01*
X115387433Y-81892849D01*
X117367000Y-81892849D01*
X117367000Y-82495951D01*
X117597797Y-83053145D01*
X118024255Y-83479603D01*
X118581449Y-83710400D01*
X119184551Y-83710400D01*
X119741745Y-83479603D01*
X120168203Y-83053145D01*
X120178038Y-83029400D01*
X127324367Y-83029400D01*
X127406600Y-83045757D01*
X127488833Y-83029400D01*
X127488837Y-83029400D01*
X127732401Y-82980952D01*
X128008601Y-82796401D01*
X128055187Y-82726680D01*
X128757703Y-82024164D01*
X128781449Y-82034000D01*
X129384551Y-82034000D01*
X129941745Y-81803203D01*
X130368203Y-81376745D01*
X130583000Y-80858178D01*
X130797797Y-81376745D01*
X131224255Y-81803203D01*
X131781449Y-82034000D01*
X132384551Y-82034000D01*
X132941745Y-81803203D01*
X133255139Y-81489809D01*
X133537943Y-81913057D01*
X134178001Y-82340729D01*
X134742424Y-82453000D01*
X135123576Y-82453000D01*
X135687999Y-82340729D01*
X136328057Y-81913057D01*
X136755729Y-81272999D01*
X136905908Y-80518000D01*
X136755729Y-79763001D01*
X136328057Y-79122943D01*
X135687999Y-78695271D01*
X135123576Y-78583000D01*
X134742424Y-78583000D01*
X134178001Y-78695271D01*
X133537943Y-79122943D01*
X133255139Y-79546191D01*
X132941745Y-79232797D01*
X132384551Y-79002000D01*
X131781449Y-79002000D01*
X131224255Y-79232797D01*
X130797797Y-79659255D01*
X130583000Y-80177822D01*
X130368203Y-79659255D01*
X129941745Y-79232797D01*
X129384551Y-79002000D01*
X128781449Y-79002000D01*
X128224255Y-79232797D01*
X127797797Y-79659255D01*
X127583000Y-80177822D01*
X127368203Y-79659255D01*
X126941745Y-79232797D01*
X126384551Y-79002000D01*
X125781449Y-79002000D01*
X125224255Y-79232797D01*
X124910861Y-79546191D01*
X124628057Y-79122943D01*
X123987999Y-78695271D01*
X123423576Y-78583000D01*
X123042424Y-78583000D01*
X122478001Y-78695271D01*
X121837943Y-79122943D01*
X121410271Y-79763001D01*
X121260092Y-80518000D01*
X121410271Y-81272999D01*
X121468002Y-81359400D01*
X120178038Y-81359400D01*
X120168203Y-81335655D01*
X119741745Y-80909197D01*
X119184551Y-80678400D01*
X118581449Y-80678400D01*
X118024255Y-80909197D01*
X117597797Y-81335655D01*
X117367000Y-81892849D01*
X115387433Y-81892849D01*
X115384642Y-81827980D01*
X115203919Y-81391678D01*
X114949404Y-81307601D01*
X114062605Y-82194400D01*
X113703395Y-82194400D01*
X112816596Y-81307601D01*
X112562081Y-81391678D01*
X112355441Y-81958274D01*
X111835000Y-81958274D01*
X111835000Y-81127996D01*
X112996201Y-81127996D01*
X113883000Y-82014795D01*
X114769799Y-81127996D01*
X114685722Y-80873481D01*
X114119126Y-80666841D01*
X113516580Y-80692758D01*
X113080278Y-80873481D01*
X112996201Y-81127996D01*
X111835000Y-81127996D01*
X111835000Y-78180000D01*
X158040001Y-78180000D01*
X158040001Y-88028998D01*
G36*
X137999074Y-83826477D02*
X138315764Y-84389630D01*
X138533689Y-84560804D01*
X138382695Y-84661695D01*
X138017792Y-85207812D01*
X137889655Y-85852000D01*
X138017792Y-86496188D01*
X138382695Y-87042305D01*
X138928812Y-87407208D01*
X139410391Y-87503000D01*
X140243609Y-87503000D01*
X140256454Y-87500445D01*
X140169499Y-87587400D01*
X133094230Y-87587400D01*
X133122139Y-87494745D01*
X132294000Y-86666605D01*
X131465861Y-87494745D01*
X131493770Y-87587400D01*
X131156987Y-87587400D01*
X131192157Y-87534765D01*
X131238693Y-87300813D01*
X131286255Y-87315139D01*
X132114395Y-86487000D01*
X132100253Y-86472858D01*
X132279858Y-86293253D01*
X132294000Y-86307395D01*
X132308142Y-86293252D01*
X132487748Y-86472858D01*
X132473605Y-86487000D01*
X133301745Y-87315139D01*
X133547864Y-87241005D01*
X133740965Y-86703777D01*
X133713778Y-86133546D01*
X133554286Y-85748500D01*
X135535653Y-85748500D01*
X135610500Y-85763388D01*
X135685347Y-85748500D01*
X135685352Y-85748500D01*
X135907037Y-85704404D01*
X136158429Y-85536429D01*
X136200831Y-85472970D01*
X137969343Y-83704459D01*
X137999074Y-83826477D01*
X137999074Y-83826477D01*
G37*
X137999074Y-83826477D02*
X138315764Y-84389630D01*
X138533689Y-84560804D01*
X138382695Y-84661695D01*
X138017792Y-85207812D01*
X137889655Y-85852000D01*
X138017792Y-86496188D01*
X138382695Y-87042305D01*
X138928812Y-87407208D01*
X139410391Y-87503000D01*
X140243609Y-87503000D01*
X140256454Y-87500445D01*
X140169499Y-87587400D01*
X133094230Y-87587400D01*
X133122139Y-87494745D01*
X132294000Y-86666605D01*
X131465861Y-87494745D01*
X131493770Y-87587400D01*
X131156987Y-87587400D01*
X131192157Y-87534765D01*
X131238693Y-87300813D01*
X131286255Y-87315139D01*
X132114395Y-86487000D01*
X132100253Y-86472858D01*
X132279858Y-86293253D01*
X132294000Y-86307395D01*
X132308142Y-86293252D01*
X132487748Y-86472858D01*
X132473605Y-86487000D01*
X133301745Y-87315139D01*
X133547864Y-87241005D01*
X133740965Y-86703777D01*
X133713778Y-86133546D01*
X133554286Y-85748500D01*
X135535653Y-85748500D01*
X135610500Y-85763388D01*
X135685347Y-85748500D01*
X135685352Y-85748500D01*
X135907037Y-85704404D01*
X136158429Y-85536429D01*
X136200831Y-85472970D01*
X137969343Y-83704459D01*
X137999074Y-83826477D01*
G04 #@! TD*
M02*
