G04 #@! TF.FileFunction,Copper,L2,Bot,Signal*
%FSLAX46Y46*%
G04 Gerber Fmt 4.6, Leading zero omitted, Abs format (unit mm)*
G04 Created by KiCad (PCBNEW 4.0.2-stable) date 3/15/2018 10:39:37 AM*
%MOMM*%
G01*
G04 APERTURE LIST*
%ADD10C,0.100000*%
%ADD11C,1.524000*%
%ADD12C,1.500000*%
%ADD13C,2.413000*%
%ADD14C,1.270000*%
%ADD15O,1.270000X2.286000*%
%ADD16R,1.500000X2.500000*%
%ADD17O,1.500000X2.500000*%
%ADD18O,2.200000X3.500000*%
%ADD19O,2.641600X1.320800*%
%ADD20R,1.600000X1.600000*%
%ADD21C,1.600000*%
%ADD22C,1.400000*%
%ADD23O,1.400000X1.400000*%
%ADD24O,2.540000X2.032000*%
%ADD25R,3.000000X3.000000*%
%ADD26C,3.000000*%
%ADD27R,1.700000X1.700000*%
%ADD28O,1.700000X1.700000*%
%ADD29C,1.620000*%
%ADD30C,2.000000*%
%ADD31C,0.600000*%
%ADD32C,0.250000*%
G04 APERTURE END LIST*
D10*
D11*
X128270000Y-106045000D03*
X130810000Y-106045000D03*
X133350000Y-106045000D03*
X135890000Y-106045000D03*
X138430000Y-106045000D03*
X140970000Y-106045000D03*
X143510000Y-106045000D03*
X146050000Y-106045000D03*
X148590000Y-106045000D03*
X151130000Y-106045000D03*
X153670000Y-106045000D03*
X156210000Y-106045000D03*
X128270000Y-90805000D03*
X130810000Y-90805000D03*
X133350000Y-90805000D03*
X135890000Y-90805000D03*
X138430000Y-90805000D03*
X140970000Y-90805000D03*
X143510000Y-90805000D03*
X146050000Y-90805000D03*
X148590000Y-90805000D03*
X151130000Y-90805000D03*
X153670000Y-90805000D03*
X156210000Y-90805000D03*
D12*
X137033000Y-93726000D03*
X139573000Y-93726000D03*
X147447000Y-93726000D03*
X149987000Y-93726000D03*
D13*
X145046700Y-115658900D03*
D14*
X147648060Y-121221100D02*
X148366480Y-120502680D01*
X149484080Y-118036340D02*
X148765660Y-117317920D01*
D15*
X150540720Y-120977660D03*
X151668480Y-117502940D03*
D14*
X153430840Y-121185540D02*
X152712420Y-120467120D01*
X153832560Y-117944900D02*
X154550980Y-117226480D01*
D13*
X157111700Y-115658900D03*
D16*
X132715000Y-122555000D03*
D17*
X134715000Y-122555000D03*
X136715000Y-122555000D03*
D18*
X130615000Y-122555000D03*
X138815000Y-122555000D03*
D19*
X121285000Y-107315000D03*
X121285000Y-104775000D03*
X121285000Y-92075000D03*
X121285000Y-89535000D03*
X121285000Y-102235000D03*
X121285000Y-99695000D03*
X121285000Y-94615000D03*
X121285000Y-97155000D03*
X113665000Y-89535000D03*
X113665000Y-92075000D03*
X113665000Y-94615000D03*
X113665000Y-97155000D03*
X113665000Y-99695000D03*
X113665000Y-102235000D03*
X113665000Y-104775000D03*
X113665000Y-107315000D03*
D13*
X112661700Y-115658900D03*
D14*
X115263060Y-121221100D02*
X115981480Y-120502680D01*
X117099080Y-118036340D02*
X116380660Y-117317920D01*
D15*
X118155720Y-120977660D03*
X119283480Y-117502940D03*
D14*
X121045840Y-121185540D02*
X120327420Y-120467120D01*
X121447560Y-117944900D02*
X122165980Y-117226480D01*
D13*
X124726700Y-115658900D03*
D20*
X126365000Y-81915000D03*
D21*
X126365000Y-84415000D03*
D22*
X145415000Y-108585000D03*
D23*
X153035000Y-108585000D03*
D22*
X143510000Y-108585000D03*
D23*
X135890000Y-108585000D03*
D24*
X132715000Y-83185000D03*
X132715000Y-85725000D03*
X132715000Y-80645000D03*
D25*
X120015000Y-81915000D03*
D26*
X114935000Y-81915000D03*
D27*
X147955000Y-80645000D03*
D28*
X150495000Y-80645000D03*
X153035000Y-80645000D03*
X155575000Y-80645000D03*
D20*
X141605000Y-84455000D03*
D21*
X141605000Y-81955000D03*
X154940000Y-87630000D03*
X154940000Y-85130000D03*
D29*
X137240000Y-116840000D03*
X139740000Y-111840000D03*
X142240000Y-116840000D03*
D22*
X126365000Y-108585000D03*
D23*
X133985000Y-108585000D03*
D30*
X127635000Y-116895000D03*
X127635000Y-112395000D03*
X134135000Y-116895000D03*
X134135000Y-112395000D03*
D31*
X128669700Y-100065100D03*
D32*
X142408800Y-104943800D02*
X143510000Y-106045000D01*
X123656200Y-104943800D02*
X142408800Y-104943800D01*
X121285000Y-107315000D02*
X123656200Y-104943800D01*
X144486900Y-104481900D02*
X146050000Y-106045000D01*
X123224200Y-104481900D02*
X144486900Y-104481900D01*
X122931100Y-104775000D02*
X123224200Y-104481900D01*
X121285000Y-104775000D02*
X122931100Y-104775000D01*
X143263500Y-100718500D02*
X148590000Y-106045000D01*
X128430300Y-100718500D02*
X143263500Y-100718500D01*
X127757300Y-100045500D02*
X128430300Y-100718500D01*
X127757300Y-96901200D02*
X127757300Y-100045500D01*
X122931100Y-92075000D02*
X127757300Y-96901200D01*
X121285000Y-92075000D02*
X122931100Y-92075000D01*
X120015000Y-81915000D02*
X126365000Y-81915000D01*
X128760300Y-80645000D02*
X132715000Y-80645000D01*
X127490300Y-81915000D02*
X128760300Y-80645000D01*
X126365000Y-81915000D02*
X127490300Y-81915000D01*
X148366500Y-120502700D02*
X149045500Y-119823700D01*
X133995600Y-119823700D02*
X149045500Y-119823700D01*
X129023600Y-114851700D02*
X133995600Y-119823700D01*
X126114700Y-114851700D02*
X129023600Y-114851700D01*
X119188500Y-107925500D02*
X126114700Y-114851700D01*
X119188500Y-102685400D02*
X119188500Y-107925500D01*
X119638900Y-102235000D02*
X119188500Y-102685400D01*
X121285000Y-102235000D02*
X119638900Y-102235000D01*
X117435000Y-84415000D02*
X126365000Y-84415000D01*
X114935000Y-81915000D02*
X117435000Y-84415000D01*
X134838400Y-107096600D02*
X135890000Y-106045000D01*
X134838400Y-107533400D02*
X134838400Y-107096600D01*
X127416600Y-107533400D02*
X134838400Y-107533400D01*
X126365000Y-108585000D02*
X127416600Y-107533400D01*
X134838400Y-107533400D02*
X135890000Y-108585000D01*
X151630300Y-81820300D02*
X154940000Y-85130000D01*
X150495000Y-81820300D02*
X151630300Y-81820300D01*
X150495000Y-80645000D02*
X150495000Y-81820300D01*
X122968200Y-96298200D02*
X121285000Y-94615000D01*
X122968200Y-102629700D02*
X122968200Y-96298200D01*
X122092900Y-103505000D02*
X122968200Y-102629700D01*
X120492500Y-103505000D02*
X122092900Y-103505000D01*
X119638800Y-104358700D02*
X120492500Y-103505000D01*
X119638800Y-107738900D02*
X119638800Y-104358700D01*
X120766100Y-108866200D02*
X119638800Y-107738900D01*
X122199300Y-108866200D02*
X120766100Y-108866200D01*
X127569500Y-114236400D02*
X122199300Y-108866200D01*
X141387100Y-114236400D02*
X127569500Y-114236400D01*
X144401000Y-117250300D02*
X141387100Y-114236400D01*
X147475200Y-117250300D02*
X144401000Y-117250300D01*
X148086700Y-116638800D02*
X147475200Y-117250300D01*
X149484100Y-118036300D02*
X148086700Y-116638800D01*
X144940500Y-107154500D02*
X147151000Y-107154500D01*
X143510000Y-108585000D02*
X144940500Y-107154500D01*
X155100500Y-107154500D02*
X156210000Y-106045000D01*
X147151000Y-107154500D02*
X155100500Y-107154500D01*
X147151000Y-105606100D02*
X147151000Y-107154500D01*
X145419300Y-103874400D02*
X147151000Y-105606100D01*
X130947800Y-103874400D02*
X145419300Y-103874400D01*
X126895800Y-99822400D02*
X130947800Y-103874400D01*
X126895800Y-98106400D02*
X126895800Y-99822400D01*
X122415400Y-93626000D02*
X126895800Y-98106400D01*
X120201300Y-93626000D02*
X122415400Y-93626000D01*
X119006600Y-94820700D02*
X120201300Y-93626000D01*
X119006600Y-101504800D02*
X119006600Y-94820700D01*
X114729300Y-105782100D02*
X119006600Y-101504800D01*
X112597200Y-105782100D02*
X114729300Y-105782100D01*
X111978100Y-105163000D02*
X112597200Y-105782100D01*
X111978100Y-91221900D02*
X111978100Y-105163000D01*
X113665000Y-89535000D02*
X111978100Y-91221900D01*
X115102700Y-90637300D02*
X113665000Y-92075000D01*
X123588900Y-90637300D02*
X115102700Y-90637300D01*
X124888200Y-91936600D02*
X123588900Y-90637300D01*
X136300100Y-91936600D02*
X124888200Y-91936600D01*
X137160000Y-91076700D02*
X136300100Y-91936600D01*
X137160000Y-90482000D02*
X137160000Y-91076700D01*
X138411100Y-89230900D02*
X137160000Y-90482000D01*
X154635900Y-89230900D02*
X138411100Y-89230900D01*
X156210000Y-90805000D02*
X154635900Y-89230900D01*
X152546200Y-89681200D02*
X153670000Y-90805000D01*
X143068300Y-89681200D02*
X152546200Y-89681200D01*
X142240100Y-90509400D02*
X143068300Y-89681200D01*
X142240100Y-91081000D02*
X142240100Y-90509400D01*
X140888900Y-92432200D02*
X142240100Y-91081000D01*
X124071600Y-92432200D02*
X140888900Y-92432200D01*
X122727000Y-91087600D02*
X124071600Y-92432200D01*
X120201100Y-91087600D02*
X122727000Y-91087600D01*
X117475000Y-93813700D02*
X120201100Y-91087600D01*
X117475000Y-100965000D02*
X117475000Y-93813700D01*
X113665000Y-104775000D02*
X117475000Y-100965000D01*
X157325500Y-97000500D02*
X151130000Y-90805000D01*
X157325500Y-107126200D02*
X157325500Y-97000500D01*
X152628900Y-111822800D02*
X157325500Y-107126200D01*
X152628900Y-118660900D02*
X152628900Y-111822800D01*
X151827300Y-119462500D02*
X152628900Y-118660900D01*
X150162000Y-119462500D02*
X151827300Y-119462500D01*
X149495900Y-120128600D02*
X150162000Y-119462500D01*
X149495900Y-120731600D02*
X149495900Y-120128600D01*
X148017400Y-122210100D02*
X149495900Y-120731600D01*
X146645500Y-122210100D02*
X148017400Y-122210100D01*
X144902500Y-120467100D02*
X146645500Y-122210100D01*
X123122300Y-120467100D02*
X144902500Y-120467100D01*
X121724900Y-121864500D02*
X123122300Y-120467100D01*
X120327400Y-120467100D02*
X121724900Y-121864500D01*
X139329900Y-100065100D02*
X128669700Y-100065100D01*
X148590000Y-90805000D02*
X139329900Y-100065100D01*
X147955000Y-80645000D02*
X147955000Y-81232600D01*
X141605000Y-84455000D02*
X140479700Y-84455000D01*
X139209700Y-85725000D02*
X132715000Y-85725000D01*
X140479700Y-84455000D02*
X139209700Y-85725000D01*
X132008700Y-87066300D02*
X128270000Y-90805000D01*
X132715000Y-87066300D02*
X132008700Y-87066300D01*
X132715000Y-85725000D02*
X132715000Y-87066300D01*
X147955000Y-81232600D02*
X147955000Y-84301100D01*
X151611100Y-84301100D02*
X147955000Y-84301100D01*
X154940000Y-87630000D02*
X151611100Y-84301100D01*
X142884200Y-84301100D02*
X142730300Y-84455000D01*
X147955000Y-84301100D02*
X142884200Y-84301100D01*
X141605000Y-84455000D02*
X142730300Y-84455000D01*
X151668500Y-118010900D02*
X151668500Y-118971200D01*
X144401500Y-119001500D02*
X142240000Y-116840000D01*
X151638200Y-119001500D02*
X144401500Y-119001500D01*
X151668500Y-118971200D02*
X151638200Y-119001500D01*
X141104600Y-117975400D02*
X142240000Y-116840000D01*
X135215400Y-117975400D02*
X141104600Y-117975400D01*
X134135000Y-116895000D02*
X135215400Y-117975400D01*
X125558800Y-118971200D02*
X119283500Y-118971200D01*
X127635000Y-116895000D02*
X125558800Y-118971200D01*
X119283500Y-118010900D02*
X119283500Y-118971200D01*
X127635000Y-112395000D02*
X134135000Y-112395000D01*
M02*
