G04 #@! TF.FileFunction,Soldermask,Top*
%FSLAX46Y46*%
G04 Gerber Fmt 4.6, Leading zero omitted, Abs format (unit mm)*
G04 Created by KiCad (PCBNEW 4.0.2-stable) date 1/10/2018 5:31:38 PM*
%MOMM*%
G01*
G04 APERTURE LIST*
%ADD10C,0.100000*%
%ADD11C,1.924000*%
%ADD12C,1.900000*%
%ADD13C,1.670000*%
%ADD14O,1.670000X2.686000*%
%ADD15R,2.900000X1.900000*%
%ADD16O,2.900000X1.900000*%
%ADD17O,3.900000X2.600000*%
%ADD18O,3.041600X1.720800*%
%ADD19C,2.000000*%
%ADD20R,2.000000X2.000000*%
%ADD21C,1.800000*%
%ADD22O,1.800000X1.800000*%
%ADD23O,2.432000X2.940000*%
%ADD24R,3.400000X3.400000*%
%ADD25C,3.400000*%
%ADD26C,2.020000*%
%ADD27R,2.100000X2.100000*%
%ADD28O,2.100000X2.100000*%
G04 APERTURE END LIST*
D10*
D11*
X154305000Y-63500000D03*
X154305000Y-66040000D03*
X154305000Y-68580000D03*
X154305000Y-71120000D03*
X154305000Y-73660000D03*
X154305000Y-76200000D03*
X154305000Y-78740000D03*
X154305000Y-81280000D03*
X154305000Y-83820000D03*
X154305000Y-86360000D03*
X154305000Y-88900000D03*
X154305000Y-91440000D03*
X169545000Y-63500000D03*
X169545000Y-66040000D03*
X169545000Y-68580000D03*
X169545000Y-71120000D03*
X169545000Y-73660000D03*
X169545000Y-76200000D03*
X169545000Y-78740000D03*
X169545000Y-81280000D03*
X169545000Y-83820000D03*
X169545000Y-86360000D03*
X169545000Y-88900000D03*
X169545000Y-91440000D03*
D12*
X166624000Y-72263000D03*
X166624000Y-74803000D03*
X166624000Y-82677000D03*
X166624000Y-85217000D03*
D13*
X167968060Y-105346100D02*
X168686480Y-104627680D01*
X169804080Y-102161340D02*
X169085660Y-101442920D01*
D14*
X170860720Y-105102660D03*
X171988480Y-101627940D03*
D13*
X173750840Y-105310540D02*
X173032420Y-104592120D01*
X174152560Y-102069900D02*
X174870980Y-101351480D01*
D15*
X176530000Y-69215000D03*
D16*
X176530000Y-67215000D03*
X176530000Y-65215000D03*
D17*
X176530000Y-71315000D03*
X176530000Y-63115000D03*
D18*
X144145000Y-90170000D03*
X144145000Y-87630000D03*
X144145000Y-74930000D03*
X144145000Y-72390000D03*
X144145000Y-85090000D03*
X144145000Y-82550000D03*
X144145000Y-77470000D03*
X144145000Y-80010000D03*
X136525000Y-72390000D03*
X136525000Y-74930000D03*
X136525000Y-77470000D03*
X136525000Y-80010000D03*
X136525000Y-82550000D03*
X136525000Y-85090000D03*
X136525000Y-87630000D03*
X136525000Y-90170000D03*
D13*
X138123060Y-105346100D02*
X138841480Y-104627680D01*
X139959080Y-102161340D02*
X139240660Y-101442920D01*
D14*
X141015720Y-105102660D03*
X142143480Y-101627940D03*
D13*
X143905840Y-105310540D02*
X143187420Y-104592120D01*
X144307560Y-102069900D02*
X145025980Y-101351480D01*
D19*
X147320000Y-82550000D03*
X149820000Y-82550000D03*
D20*
X149225000Y-64770000D03*
D19*
X149225000Y-67270000D03*
D20*
X149987000Y-88265000D03*
D19*
X147487000Y-88265000D03*
D21*
X151130000Y-71755000D03*
D22*
X151130000Y-79375000D03*
D21*
X147320000Y-71755000D03*
D22*
X147320000Y-79375000D03*
D23*
X140335000Y-65405000D03*
X137795000Y-65405000D03*
X142875000Y-65405000D03*
D24*
X144780000Y-58420000D03*
D25*
X139700000Y-58420000D03*
D26*
X177800000Y-79930000D03*
X172800000Y-77430000D03*
X177800000Y-74930000D03*
X177800000Y-89455000D03*
X172800000Y-86955000D03*
X177800000Y-84455000D03*
D27*
X171450000Y-57785000D03*
D28*
X168910000Y-57785000D03*
X166370000Y-57785000D03*
X163830000Y-57785000D03*
D20*
X154305000Y-55880000D03*
D19*
X154305000Y-58380000D03*
X158750000Y-59055000D03*
X158750000Y-56555000D03*
D20*
X153035000Y-99060000D03*
D19*
X153035000Y-96560000D03*
D20*
X160655000Y-99060000D03*
D19*
X160655000Y-96560000D03*
X159385000Y-106045000D03*
X159385000Y-103545000D03*
X153670000Y-106045000D03*
X153670000Y-103545000D03*
M02*
