G04 #@! TF.FileFunction,Soldermask,Bot*
%FSLAX46Y46*%
G04 Gerber Fmt 4.6, Leading zero omitted, Abs format (unit mm)*
G04 Created by KiCad (PCBNEW 4.0.2-stable) date 1/11/2018 10:30:46 AM*
%MOMM*%
G01*
G04 APERTURE LIST*
%ADD10C,0.100000*%
%ADD11C,1.924000*%
%ADD12C,1.900000*%
%ADD13C,1.670000*%
%ADD14O,1.670000X2.686000*%
%ADD15R,1.900000X2.900000*%
%ADD16O,1.900000X2.900000*%
%ADD17O,2.600000X3.900000*%
%ADD18O,3.041600X1.720800*%
%ADD19R,2.000000X2.000000*%
%ADD20C,2.000000*%
%ADD21C,1.800000*%
%ADD22O,1.800000X1.800000*%
%ADD23O,2.940000X2.432000*%
%ADD24R,3.400000X3.400000*%
%ADD25C,3.400000*%
%ADD26R,2.100000X2.100000*%
%ADD27O,2.100000X2.100000*%
%ADD28C,2.020000*%
G04 APERTURE END LIST*
D10*
D11*
X128270000Y-106045000D03*
X130810000Y-106045000D03*
X133350000Y-106045000D03*
X135890000Y-106045000D03*
X138430000Y-106045000D03*
X140970000Y-106045000D03*
X143510000Y-106045000D03*
X146050000Y-106045000D03*
X148590000Y-106045000D03*
X151130000Y-106045000D03*
X153670000Y-106045000D03*
X156210000Y-106045000D03*
X128270000Y-90805000D03*
X130810000Y-90805000D03*
X133350000Y-90805000D03*
X135890000Y-90805000D03*
X138430000Y-90805000D03*
X140970000Y-90805000D03*
X143510000Y-90805000D03*
X146050000Y-90805000D03*
X148590000Y-90805000D03*
X151130000Y-90805000D03*
X153670000Y-90805000D03*
X156210000Y-90805000D03*
D12*
X137033000Y-93726000D03*
X139573000Y-93726000D03*
X147447000Y-93726000D03*
X149987000Y-93726000D03*
D13*
X147648060Y-121221100D02*
X148366480Y-120502680D01*
X149484080Y-118036340D02*
X148765660Y-117317920D01*
D14*
X150540720Y-120977660D03*
X151668480Y-117502940D03*
D13*
X153430840Y-121185540D02*
X152712420Y-120467120D01*
X153832560Y-117944900D02*
X154550980Y-117226480D01*
D15*
X132715000Y-122555000D03*
D16*
X134715000Y-122555000D03*
X136715000Y-122555000D03*
D17*
X130615000Y-122555000D03*
X138815000Y-122555000D03*
D18*
X121285000Y-107315000D03*
X121285000Y-104775000D03*
X121285000Y-92075000D03*
X121285000Y-89535000D03*
X121285000Y-102235000D03*
X121285000Y-99695000D03*
X121285000Y-94615000D03*
X121285000Y-97155000D03*
X113665000Y-89535000D03*
X113665000Y-92075000D03*
X113665000Y-94615000D03*
X113665000Y-97155000D03*
X113665000Y-99695000D03*
X113665000Y-102235000D03*
X113665000Y-104775000D03*
X113665000Y-107315000D03*
D13*
X115263060Y-121221100D02*
X115981480Y-120502680D01*
X117099080Y-118036340D02*
X116380660Y-117317920D01*
D14*
X118155720Y-120977660D03*
X119283480Y-117502940D03*
D13*
X121045840Y-121185540D02*
X120327420Y-120467120D01*
X121447560Y-117944900D02*
X122165980Y-117226480D01*
D19*
X126365000Y-81915000D03*
D20*
X126365000Y-84415000D03*
D21*
X128905000Y-109220000D03*
D22*
X128905000Y-116840000D03*
D21*
X131445000Y-109220000D03*
D22*
X131445000Y-116840000D03*
D23*
X132715000Y-83185000D03*
X132715000Y-85725000D03*
X132715000Y-80645000D03*
D24*
X120015000Y-81915000D03*
D25*
X114935000Y-81915000D03*
D26*
X147955000Y-80645000D03*
D27*
X150495000Y-80645000D03*
X153035000Y-80645000D03*
X155575000Y-80645000D03*
D19*
X141605000Y-84455000D03*
D20*
X141605000Y-81955000D03*
X154940000Y-87630000D03*
X154940000Y-85130000D03*
D28*
X136605000Y-114935000D03*
X139105000Y-109935000D03*
X141605000Y-114935000D03*
M02*
