G04 #@! TF.FileFunction,Legend,Top*
%FSLAX46Y46*%
G04 Gerber Fmt 4.6, Leading zero omitted, Abs format (unit mm)*
G04 Created by KiCad (PCBNEW 4.0.2-stable) date 3/22/2018 3:04:23 PM*
%MOMM*%
G01*
G04 APERTURE LIST*
%ADD10C,0.100000*%
%ADD11C,0.150000*%
%ADD12C,0.250000*%
%ADD13C,0.203200*%
%ADD14C,0.152400*%
%ADD15C,0.120000*%
%ADD16C,0.050000*%
G04 APERTURE END LIST*
D10*
D11*
X124658381Y-108859085D02*
X123658381Y-108859085D01*
X124658381Y-108344800D01*
X123658381Y-108344800D01*
X123658381Y-108001943D02*
X124658381Y-107401943D01*
X123658381Y-107401943D02*
X124658381Y-108001943D01*
X123658381Y-107187657D02*
X123658381Y-106673371D01*
X124658381Y-106930514D02*
X123658381Y-106930514D01*
X124134571Y-105687657D02*
X124134571Y-105387657D01*
X124658381Y-105259086D02*
X124658381Y-105687657D01*
X123658381Y-105687657D01*
X123658381Y-105259086D01*
X124610762Y-104916228D02*
X124658381Y-104787657D01*
X124658381Y-104573371D01*
X124610762Y-104487657D01*
X124563143Y-104444800D01*
X124467905Y-104401943D01*
X124372667Y-104401943D01*
X124277429Y-104444800D01*
X124229810Y-104487657D01*
X124182190Y-104573371D01*
X124134571Y-104744800D01*
X124086952Y-104830514D01*
X124039333Y-104873371D01*
X123944095Y-104916228D01*
X123848857Y-104916228D01*
X123753619Y-104873371D01*
X123706000Y-104830514D01*
X123658381Y-104744800D01*
X123658381Y-104530514D01*
X123706000Y-104401943D01*
X124563143Y-103501943D02*
X124610762Y-103544800D01*
X124658381Y-103673371D01*
X124658381Y-103759085D01*
X124610762Y-103887657D01*
X124515524Y-103973371D01*
X124420286Y-104016228D01*
X124229810Y-104059085D01*
X124086952Y-104059085D01*
X123896476Y-104016228D01*
X123801238Y-103973371D01*
X123706000Y-103887657D01*
X123658381Y-103759085D01*
X123658381Y-103673371D01*
X123706000Y-103544800D01*
X123753619Y-103501943D01*
X123991714Y-102516229D02*
X124658381Y-102301943D01*
X123991714Y-102087657D01*
X123658381Y-101573372D02*
X123658381Y-101487657D01*
X123706000Y-101401943D01*
X123753619Y-101359086D01*
X123848857Y-101316229D01*
X124039333Y-101273372D01*
X124277429Y-101273372D01*
X124467905Y-101316229D01*
X124563143Y-101359086D01*
X124610762Y-101401943D01*
X124658381Y-101487657D01*
X124658381Y-101573372D01*
X124610762Y-101659086D01*
X124563143Y-101701943D01*
X124467905Y-101744800D01*
X124277429Y-101787657D01*
X124039333Y-101787657D01*
X123848857Y-101744800D01*
X123753619Y-101701943D01*
X123706000Y-101659086D01*
X123658381Y-101573372D01*
X124563143Y-100887657D02*
X124610762Y-100844800D01*
X124658381Y-100887657D01*
X124610762Y-100930514D01*
X124563143Y-100887657D01*
X124658381Y-100887657D01*
X123658381Y-100544801D02*
X123658381Y-99944801D01*
X124658381Y-100330515D01*
D10*
X125919667Y-123866000D02*
X125919667Y-124199333D01*
X125219667Y-124199333D01*
X125886333Y-123366000D02*
X125919667Y-123432666D01*
X125919667Y-123566000D01*
X125886333Y-123632666D01*
X125819667Y-123666000D01*
X125553000Y-123666000D01*
X125486333Y-123632666D01*
X125453000Y-123566000D01*
X125453000Y-123432666D01*
X125486333Y-123366000D01*
X125553000Y-123332666D01*
X125619667Y-123332666D01*
X125686333Y-123666000D01*
X125453000Y-123132666D02*
X125453000Y-122866000D01*
X125919667Y-123032666D02*
X125319667Y-123032666D01*
X125253000Y-122999333D01*
X125219667Y-122932666D01*
X125219667Y-122866000D01*
X125453000Y-122732666D02*
X125453000Y-122466000D01*
X125219667Y-122632666D02*
X125819667Y-122632666D01*
X125886333Y-122599333D01*
X125919667Y-122532666D01*
X125919667Y-122466000D01*
X125186333Y-121732666D02*
X126086333Y-122332666D01*
X125886333Y-121532667D02*
X125919667Y-121432667D01*
X125919667Y-121266000D01*
X125886333Y-121199333D01*
X125853000Y-121166000D01*
X125786333Y-121132667D01*
X125719667Y-121132667D01*
X125653000Y-121166000D01*
X125619667Y-121199333D01*
X125586333Y-121266000D01*
X125553000Y-121399333D01*
X125519667Y-121466000D01*
X125486333Y-121499333D01*
X125419667Y-121532667D01*
X125353000Y-121532667D01*
X125286333Y-121499333D01*
X125253000Y-121466000D01*
X125219667Y-121399333D01*
X125219667Y-121232667D01*
X125253000Y-121132667D01*
X125453000Y-120932666D02*
X125453000Y-120666000D01*
X125219667Y-120832666D02*
X125819667Y-120832666D01*
X125886333Y-120799333D01*
X125919667Y-120732666D01*
X125919667Y-120666000D01*
X125886333Y-120166000D02*
X125919667Y-120232666D01*
X125919667Y-120366000D01*
X125886333Y-120432666D01*
X125819667Y-120466000D01*
X125553000Y-120466000D01*
X125486333Y-120432666D01*
X125453000Y-120366000D01*
X125453000Y-120232666D01*
X125486333Y-120166000D01*
X125553000Y-120132666D01*
X125619667Y-120132666D01*
X125686333Y-120466000D01*
X125886333Y-119566000D02*
X125919667Y-119632666D01*
X125919667Y-119766000D01*
X125886333Y-119832666D01*
X125819667Y-119866000D01*
X125553000Y-119866000D01*
X125486333Y-119832666D01*
X125453000Y-119766000D01*
X125453000Y-119632666D01*
X125486333Y-119566000D01*
X125553000Y-119532666D01*
X125619667Y-119532666D01*
X125686333Y-119866000D01*
X125919667Y-119232666D02*
X125453000Y-119232666D01*
X125586333Y-119232666D02*
X125519667Y-119199333D01*
X125486333Y-119166000D01*
X125453000Y-119099333D01*
X125453000Y-119032666D01*
X144461667Y-123988998D02*
X144128333Y-124222332D01*
X144461667Y-124388998D02*
X143761667Y-124388998D01*
X143761667Y-124122332D01*
X143795000Y-124055665D01*
X143828333Y-124022332D01*
X143895000Y-123988998D01*
X143995000Y-123988998D01*
X144061667Y-124022332D01*
X144095000Y-124055665D01*
X144128333Y-124122332D01*
X144128333Y-124388998D01*
X144461667Y-123688998D02*
X143995000Y-123688998D01*
X143761667Y-123688998D02*
X143795000Y-123722332D01*
X143828333Y-123688998D01*
X143795000Y-123655665D01*
X143761667Y-123688998D01*
X143828333Y-123688998D01*
X143995000Y-123055665D02*
X144561667Y-123055665D01*
X144628333Y-123088999D01*
X144661667Y-123122332D01*
X144695000Y-123188999D01*
X144695000Y-123288999D01*
X144661667Y-123355665D01*
X144428333Y-123055665D02*
X144461667Y-123122332D01*
X144461667Y-123255665D01*
X144428333Y-123322332D01*
X144395000Y-123355665D01*
X144328333Y-123388999D01*
X144128333Y-123388999D01*
X144061667Y-123355665D01*
X144028333Y-123322332D01*
X143995000Y-123255665D01*
X143995000Y-123122332D01*
X144028333Y-123055665D01*
X144461667Y-122722332D02*
X143761667Y-122722332D01*
X144461667Y-122422332D02*
X144095000Y-122422332D01*
X144028333Y-122455666D01*
X143995000Y-122522332D01*
X143995000Y-122622332D01*
X144028333Y-122688999D01*
X144061667Y-122722332D01*
X143995000Y-122188999D02*
X143995000Y-121922333D01*
X143761667Y-122088999D02*
X144361667Y-122088999D01*
X144428333Y-122055666D01*
X144461667Y-121988999D01*
X144461667Y-121922333D01*
X143728333Y-121188999D02*
X144628333Y-121788999D01*
X144461667Y-120955666D02*
X143761667Y-120955666D01*
X143761667Y-120789000D01*
X143795000Y-120689000D01*
X143861667Y-120622333D01*
X143928333Y-120589000D01*
X144061667Y-120555666D01*
X144161667Y-120555666D01*
X144295000Y-120589000D01*
X144361667Y-120622333D01*
X144428333Y-120689000D01*
X144461667Y-120789000D01*
X144461667Y-120955666D01*
X144461667Y-120255666D02*
X143995000Y-120255666D01*
X144128333Y-120255666D02*
X144061667Y-120222333D01*
X144028333Y-120189000D01*
X143995000Y-120122333D01*
X143995000Y-120055666D01*
X144461667Y-119822333D02*
X143995000Y-119822333D01*
X143761667Y-119822333D02*
X143795000Y-119855667D01*
X143828333Y-119822333D01*
X143795000Y-119789000D01*
X143761667Y-119822333D01*
X143828333Y-119822333D01*
X143995000Y-119555667D02*
X144461667Y-119389000D01*
X143995000Y-119222334D01*
X144428333Y-118689001D02*
X144461667Y-118755667D01*
X144461667Y-118889001D01*
X144428333Y-118955667D01*
X144361667Y-118989001D01*
X144095000Y-118989001D01*
X144028333Y-118955667D01*
X143995000Y-118889001D01*
X143995000Y-118755667D01*
X144028333Y-118689001D01*
X144095000Y-118655667D01*
X144161667Y-118655667D01*
X144228333Y-118989001D01*
X127276668Y-110740000D02*
X127243334Y-110773333D01*
X127143334Y-110806667D01*
X127076668Y-110806667D01*
X126976668Y-110773333D01*
X126910001Y-110706667D01*
X126876668Y-110640000D01*
X126843334Y-110506667D01*
X126843334Y-110406667D01*
X126876668Y-110273333D01*
X126910001Y-110206667D01*
X126976668Y-110140000D01*
X127076668Y-110106667D01*
X127143334Y-110106667D01*
X127243334Y-110140000D01*
X127276668Y-110173333D01*
X127843334Y-110773333D02*
X127776668Y-110806667D01*
X127643334Y-110806667D01*
X127576668Y-110773333D01*
X127543334Y-110706667D01*
X127543334Y-110440000D01*
X127576668Y-110373333D01*
X127643334Y-110340000D01*
X127776668Y-110340000D01*
X127843334Y-110373333D01*
X127876668Y-110440000D01*
X127876668Y-110506667D01*
X127543334Y-110573333D01*
X128176668Y-110340000D02*
X128176668Y-110806667D01*
X128176668Y-110406667D02*
X128210001Y-110373333D01*
X128276668Y-110340000D01*
X128376668Y-110340000D01*
X128443334Y-110373333D01*
X128476668Y-110440000D01*
X128476668Y-110806667D01*
X128710001Y-110340000D02*
X128976667Y-110340000D01*
X128810001Y-110106667D02*
X128810001Y-110706667D01*
X128843334Y-110773333D01*
X128910001Y-110806667D01*
X128976667Y-110806667D01*
X129476667Y-110773333D02*
X129410001Y-110806667D01*
X129276667Y-110806667D01*
X129210001Y-110773333D01*
X129176667Y-110706667D01*
X129176667Y-110440000D01*
X129210001Y-110373333D01*
X129276667Y-110340000D01*
X129410001Y-110340000D01*
X129476667Y-110373333D01*
X129510001Y-110440000D01*
X129510001Y-110506667D01*
X129176667Y-110573333D01*
X129810001Y-110806667D02*
X129810001Y-110340000D01*
X129810001Y-110473333D02*
X129843334Y-110406667D01*
X129876667Y-110373333D01*
X129943334Y-110340000D01*
X130010001Y-110340000D01*
X130743333Y-110773333D02*
X130843333Y-110806667D01*
X131010000Y-110806667D01*
X131076667Y-110773333D01*
X131110000Y-110740000D01*
X131143333Y-110673333D01*
X131143333Y-110606667D01*
X131110000Y-110540000D01*
X131076667Y-110506667D01*
X131010000Y-110473333D01*
X130876667Y-110440000D01*
X130810000Y-110406667D01*
X130776667Y-110373333D01*
X130743333Y-110306667D01*
X130743333Y-110240000D01*
X130776667Y-110173333D01*
X130810000Y-110140000D01*
X130876667Y-110106667D01*
X131043333Y-110106667D01*
X131143333Y-110140000D01*
X131343334Y-110340000D02*
X131610000Y-110340000D01*
X131443334Y-110106667D02*
X131443334Y-110706667D01*
X131476667Y-110773333D01*
X131543334Y-110806667D01*
X131610000Y-110806667D01*
X132110000Y-110773333D02*
X132043334Y-110806667D01*
X131910000Y-110806667D01*
X131843334Y-110773333D01*
X131810000Y-110706667D01*
X131810000Y-110440000D01*
X131843334Y-110373333D01*
X131910000Y-110340000D01*
X132043334Y-110340000D01*
X132110000Y-110373333D01*
X132143334Y-110440000D01*
X132143334Y-110506667D01*
X131810000Y-110573333D01*
X132710000Y-110773333D02*
X132643334Y-110806667D01*
X132510000Y-110806667D01*
X132443334Y-110773333D01*
X132410000Y-110706667D01*
X132410000Y-110440000D01*
X132443334Y-110373333D01*
X132510000Y-110340000D01*
X132643334Y-110340000D01*
X132710000Y-110373333D01*
X132743334Y-110440000D01*
X132743334Y-110506667D01*
X132410000Y-110573333D01*
X133043334Y-110806667D02*
X133043334Y-110340000D01*
X133043334Y-110473333D02*
X133076667Y-110406667D01*
X133110000Y-110373333D01*
X133176667Y-110340000D01*
X133243334Y-110340000D01*
X133476667Y-110806667D02*
X133476667Y-110340000D01*
X133476667Y-110106667D02*
X133443333Y-110140000D01*
X133476667Y-110173333D01*
X133510000Y-110140000D01*
X133476667Y-110106667D01*
X133476667Y-110173333D01*
X133810000Y-110340000D02*
X133810000Y-110806667D01*
X133810000Y-110406667D02*
X133843333Y-110373333D01*
X133910000Y-110340000D01*
X134010000Y-110340000D01*
X134076666Y-110373333D01*
X134110000Y-110440000D01*
X134110000Y-110806667D01*
X134743333Y-110340000D02*
X134743333Y-110906667D01*
X134709999Y-110973333D01*
X134676666Y-111006667D01*
X134609999Y-111040000D01*
X134509999Y-111040000D01*
X134443333Y-111006667D01*
X134743333Y-110773333D02*
X134676666Y-110806667D01*
X134543333Y-110806667D01*
X134476666Y-110773333D01*
X134443333Y-110740000D01*
X134409999Y-110673333D01*
X134409999Y-110473333D01*
X134443333Y-110406667D01*
X134476666Y-110373333D01*
X134543333Y-110340000D01*
X134676666Y-110340000D01*
X134743333Y-110373333D01*
D11*
X149898334Y-78466905D02*
X149631667Y-78085952D01*
X149441191Y-78466905D02*
X149441191Y-77666905D01*
X149745953Y-77666905D01*
X149822144Y-77705000D01*
X149860239Y-77743095D01*
X149898334Y-77819286D01*
X149898334Y-77933571D01*
X149860239Y-78009762D01*
X149822144Y-78047857D01*
X149745953Y-78085952D01*
X149441191Y-78085952D01*
X150545953Y-78428810D02*
X150469763Y-78466905D01*
X150317382Y-78466905D01*
X150241191Y-78428810D01*
X150203096Y-78352619D01*
X150203096Y-78047857D01*
X150241191Y-77971667D01*
X150317382Y-77933571D01*
X150469763Y-77933571D01*
X150545953Y-77971667D01*
X150584048Y-78047857D01*
X150584048Y-78124048D01*
X150203096Y-78200238D01*
X151269762Y-78428810D02*
X151193572Y-78466905D01*
X151041191Y-78466905D01*
X150965000Y-78428810D01*
X150926905Y-78390714D01*
X150888810Y-78314524D01*
X150888810Y-78085952D01*
X150926905Y-78009762D01*
X150965000Y-77971667D01*
X151041191Y-77933571D01*
X151193572Y-77933571D01*
X151269762Y-77971667D01*
X151917381Y-78428810D02*
X151841191Y-78466905D01*
X151688810Y-78466905D01*
X151612619Y-78428810D01*
X151574524Y-78352619D01*
X151574524Y-78047857D01*
X151612619Y-77971667D01*
X151688810Y-77933571D01*
X151841191Y-77933571D01*
X151917381Y-77971667D01*
X151955476Y-78047857D01*
X151955476Y-78124048D01*
X151574524Y-78200238D01*
X152298333Y-78466905D02*
X152298333Y-77933571D01*
X152298333Y-77666905D02*
X152260238Y-77705000D01*
X152298333Y-77743095D01*
X152336428Y-77705000D01*
X152298333Y-77666905D01*
X152298333Y-77743095D01*
X152603095Y-77933571D02*
X152793571Y-78466905D01*
X152984047Y-77933571D01*
X153593571Y-78428810D02*
X153517381Y-78466905D01*
X153365000Y-78466905D01*
X153288809Y-78428810D01*
X153250714Y-78352619D01*
X153250714Y-78047857D01*
X153288809Y-77971667D01*
X153365000Y-77933571D01*
X153517381Y-77933571D01*
X153593571Y-77971667D01*
X153631666Y-78047857D01*
X153631666Y-78124048D01*
X153250714Y-78200238D01*
X153974523Y-78466905D02*
X153974523Y-77933571D01*
X153974523Y-78085952D02*
X154012618Y-78009762D01*
X154050714Y-77971667D01*
X154126904Y-77933571D01*
X154203095Y-77933571D01*
D10*
X134073467Y-118799733D02*
X134173467Y-118833067D01*
X134340134Y-118833067D01*
X134406801Y-118799733D01*
X134440134Y-118766400D01*
X134473467Y-118699733D01*
X134473467Y-118633067D01*
X134440134Y-118566400D01*
X134406801Y-118533067D01*
X134340134Y-118499733D01*
X134206801Y-118466400D01*
X134140134Y-118433067D01*
X134106801Y-118399733D01*
X134073467Y-118333067D01*
X134073467Y-118266400D01*
X134106801Y-118199733D01*
X134140134Y-118166400D01*
X134206801Y-118133067D01*
X134373467Y-118133067D01*
X134473467Y-118166400D01*
X134673468Y-118366400D02*
X134940134Y-118366400D01*
X134773468Y-118133067D02*
X134773468Y-118733067D01*
X134806801Y-118799733D01*
X134873468Y-118833067D01*
X134940134Y-118833067D01*
X135440134Y-118799733D02*
X135373468Y-118833067D01*
X135240134Y-118833067D01*
X135173468Y-118799733D01*
X135140134Y-118733067D01*
X135140134Y-118466400D01*
X135173468Y-118399733D01*
X135240134Y-118366400D01*
X135373468Y-118366400D01*
X135440134Y-118399733D01*
X135473468Y-118466400D01*
X135473468Y-118533067D01*
X135140134Y-118599733D01*
X136040134Y-118799733D02*
X135973468Y-118833067D01*
X135840134Y-118833067D01*
X135773468Y-118799733D01*
X135740134Y-118733067D01*
X135740134Y-118466400D01*
X135773468Y-118399733D01*
X135840134Y-118366400D01*
X135973468Y-118366400D01*
X136040134Y-118399733D01*
X136073468Y-118466400D01*
X136073468Y-118533067D01*
X135740134Y-118599733D01*
X136373468Y-118833067D02*
X136373468Y-118366400D01*
X136373468Y-118499733D02*
X136406801Y-118433067D01*
X136440134Y-118399733D01*
X136506801Y-118366400D01*
X136573468Y-118366400D01*
X137306801Y-118099733D02*
X136706801Y-118999733D01*
X137540134Y-118833067D02*
X137540134Y-118133067D01*
X137706800Y-118133067D01*
X137806800Y-118166400D01*
X137873467Y-118233067D01*
X137906800Y-118299733D01*
X137940134Y-118433067D01*
X137940134Y-118533067D01*
X137906800Y-118666400D01*
X137873467Y-118733067D01*
X137806800Y-118799733D01*
X137706800Y-118833067D01*
X137540134Y-118833067D01*
X138240134Y-118833067D02*
X138240134Y-118366400D01*
X138240134Y-118499733D02*
X138273467Y-118433067D01*
X138306800Y-118399733D01*
X138373467Y-118366400D01*
X138440134Y-118366400D01*
X138673467Y-118833067D02*
X138673467Y-118366400D01*
X138673467Y-118133067D02*
X138640133Y-118166400D01*
X138673467Y-118199733D01*
X138706800Y-118166400D01*
X138673467Y-118133067D01*
X138673467Y-118199733D01*
X138940133Y-118366400D02*
X139106800Y-118833067D01*
X139273466Y-118366400D01*
X139806799Y-118799733D02*
X139740133Y-118833067D01*
X139606799Y-118833067D01*
X139540133Y-118799733D01*
X139506799Y-118733067D01*
X139506799Y-118466400D01*
X139540133Y-118399733D01*
X139606799Y-118366400D01*
X139740133Y-118366400D01*
X139806799Y-118399733D01*
X139840133Y-118466400D01*
X139840133Y-118533067D01*
X139506799Y-118599733D01*
X129284533Y-118901333D02*
X129384533Y-118934667D01*
X129551200Y-118934667D01*
X129617867Y-118901333D01*
X129651200Y-118868000D01*
X129684533Y-118801333D01*
X129684533Y-118734667D01*
X129651200Y-118668000D01*
X129617867Y-118634667D01*
X129551200Y-118601333D01*
X129417867Y-118568000D01*
X129351200Y-118534667D01*
X129317867Y-118501333D01*
X129284533Y-118434667D01*
X129284533Y-118368000D01*
X129317867Y-118301333D01*
X129351200Y-118268000D01*
X129417867Y-118234667D01*
X129584533Y-118234667D01*
X129684533Y-118268000D01*
X129984534Y-118934667D02*
X129984534Y-118234667D01*
X130051200Y-118668000D02*
X130251200Y-118934667D01*
X130251200Y-118468000D02*
X129984534Y-118734667D01*
X130551201Y-118934667D02*
X130551201Y-118468000D01*
X130551201Y-118234667D02*
X130517867Y-118268000D01*
X130551201Y-118301333D01*
X130584534Y-118268000D01*
X130551201Y-118234667D01*
X130551201Y-118301333D01*
X131184534Y-118934667D02*
X131184534Y-118234667D01*
X131184534Y-118901333D02*
X131117867Y-118934667D01*
X130984534Y-118934667D01*
X130917867Y-118901333D01*
X130884534Y-118868000D01*
X130851200Y-118801333D01*
X130851200Y-118601333D01*
X130884534Y-118534667D01*
X130917867Y-118501333D01*
X130984534Y-118468000D01*
X131117867Y-118468000D01*
X131184534Y-118501333D01*
X141804267Y-119540667D02*
X141770933Y-119640667D01*
X141770933Y-119807334D01*
X141804267Y-119874001D01*
X141837600Y-119907334D01*
X141904267Y-119940667D01*
X141970933Y-119940667D01*
X142037600Y-119907334D01*
X142070933Y-119874001D01*
X142104267Y-119807334D01*
X142137600Y-119674001D01*
X142170933Y-119607334D01*
X142204267Y-119574001D01*
X142270933Y-119540667D01*
X142337600Y-119540667D01*
X142404267Y-119574001D01*
X142437600Y-119607334D01*
X142470933Y-119674001D01*
X142470933Y-119840667D01*
X142437600Y-119940667D01*
X142237600Y-120140668D02*
X142237600Y-120407334D01*
X142470933Y-120240668D02*
X141870933Y-120240668D01*
X141804267Y-120274001D01*
X141770933Y-120340668D01*
X141770933Y-120407334D01*
X141804267Y-120907334D02*
X141770933Y-120840668D01*
X141770933Y-120707334D01*
X141804267Y-120640668D01*
X141870933Y-120607334D01*
X142137600Y-120607334D01*
X142204267Y-120640668D01*
X142237600Y-120707334D01*
X142237600Y-120840668D01*
X142204267Y-120907334D01*
X142137600Y-120940668D01*
X142070933Y-120940668D01*
X142004267Y-120607334D01*
X141804267Y-121507334D02*
X141770933Y-121440668D01*
X141770933Y-121307334D01*
X141804267Y-121240668D01*
X141870933Y-121207334D01*
X142137600Y-121207334D01*
X142204267Y-121240668D01*
X142237600Y-121307334D01*
X142237600Y-121440668D01*
X142204267Y-121507334D01*
X142137600Y-121540668D01*
X142070933Y-121540668D01*
X142004267Y-121207334D01*
X141770933Y-121840668D02*
X142237600Y-121840668D01*
X142104267Y-121840668D02*
X142170933Y-121874001D01*
X142204267Y-121907334D01*
X142237600Y-121974001D01*
X142237600Y-122040668D01*
X142470933Y-122707334D02*
X142470933Y-123107334D01*
X141770933Y-122907334D02*
X142470933Y-122907334D01*
X142237600Y-123274000D02*
X141770933Y-123440667D01*
X142237600Y-123607333D02*
X141770933Y-123440667D01*
X141604267Y-123374000D01*
X141570933Y-123340667D01*
X141537600Y-123274000D01*
X142237600Y-123874000D02*
X141537600Y-123874000D01*
X142204267Y-123874000D02*
X142237600Y-123940666D01*
X142237600Y-124074000D01*
X142204267Y-124140666D01*
X142170933Y-124174000D01*
X142104267Y-124207333D01*
X141904267Y-124207333D01*
X141837600Y-124174000D01*
X141804267Y-124140666D01*
X141770933Y-124074000D01*
X141770933Y-123940666D01*
X141804267Y-123874000D01*
X141804267Y-124773999D02*
X141770933Y-124707333D01*
X141770933Y-124573999D01*
X141804267Y-124507333D01*
X141870933Y-124473999D01*
X142137600Y-124473999D01*
X142204267Y-124507333D01*
X142237600Y-124573999D01*
X142237600Y-124707333D01*
X142204267Y-124773999D01*
X142137600Y-124807333D01*
X142070933Y-124807333D01*
X142004267Y-124473999D01*
X137583333Y-110773333D02*
X137683333Y-110806667D01*
X137850000Y-110806667D01*
X137916667Y-110773333D01*
X137950000Y-110740000D01*
X137983333Y-110673333D01*
X137983333Y-110606667D01*
X137950000Y-110540000D01*
X137916667Y-110506667D01*
X137850000Y-110473333D01*
X137716667Y-110440000D01*
X137650000Y-110406667D01*
X137616667Y-110373333D01*
X137583333Y-110306667D01*
X137583333Y-110240000D01*
X137616667Y-110173333D01*
X137650000Y-110140000D01*
X137716667Y-110106667D01*
X137883333Y-110106667D01*
X137983333Y-110140000D01*
X138183334Y-110340000D02*
X138450000Y-110340000D01*
X138283334Y-110106667D02*
X138283334Y-110706667D01*
X138316667Y-110773333D01*
X138383334Y-110806667D01*
X138450000Y-110806667D01*
X138683334Y-110806667D02*
X138683334Y-110340000D01*
X138683334Y-110473333D02*
X138716667Y-110406667D01*
X138750000Y-110373333D01*
X138816667Y-110340000D01*
X138883334Y-110340000D01*
X139616666Y-110773333D02*
X139716666Y-110806667D01*
X139883333Y-110806667D01*
X139950000Y-110773333D01*
X139983333Y-110740000D01*
X140016666Y-110673333D01*
X140016666Y-110606667D01*
X139983333Y-110540000D01*
X139950000Y-110506667D01*
X139883333Y-110473333D01*
X139750000Y-110440000D01*
X139683333Y-110406667D01*
X139650000Y-110373333D01*
X139616666Y-110306667D01*
X139616666Y-110240000D01*
X139650000Y-110173333D01*
X139683333Y-110140000D01*
X139750000Y-110106667D01*
X139916666Y-110106667D01*
X140016666Y-110140000D01*
X140583333Y-110773333D02*
X140516667Y-110806667D01*
X140383333Y-110806667D01*
X140316667Y-110773333D01*
X140283333Y-110706667D01*
X140283333Y-110440000D01*
X140316667Y-110373333D01*
X140383333Y-110340000D01*
X140516667Y-110340000D01*
X140583333Y-110373333D01*
X140616667Y-110440000D01*
X140616667Y-110506667D01*
X140283333Y-110573333D01*
X140916667Y-110340000D02*
X140916667Y-110806667D01*
X140916667Y-110406667D02*
X140950000Y-110373333D01*
X141016667Y-110340000D01*
X141116667Y-110340000D01*
X141183333Y-110373333D01*
X141216667Y-110440000D01*
X141216667Y-110806667D01*
X141516666Y-110773333D02*
X141583333Y-110806667D01*
X141716666Y-110806667D01*
X141783333Y-110773333D01*
X141816666Y-110706667D01*
X141816666Y-110673333D01*
X141783333Y-110606667D01*
X141716666Y-110573333D01*
X141616666Y-110573333D01*
X141550000Y-110540000D01*
X141516666Y-110473333D01*
X141516666Y-110440000D01*
X141550000Y-110373333D01*
X141616666Y-110340000D01*
X141716666Y-110340000D01*
X141783333Y-110373333D01*
X155091667Y-82673000D02*
X155058333Y-82706333D01*
X154958333Y-82739667D01*
X154891667Y-82739667D01*
X154791667Y-82706333D01*
X154725000Y-82639667D01*
X154691667Y-82573000D01*
X154658333Y-82439667D01*
X154658333Y-82339667D01*
X154691667Y-82206333D01*
X154725000Y-82139667D01*
X154791667Y-82073000D01*
X154891667Y-82039667D01*
X154958333Y-82039667D01*
X155058333Y-82073000D01*
X155091667Y-82106333D01*
X155391667Y-82739667D02*
X155391667Y-82039667D01*
X155391667Y-82373000D02*
X155791667Y-82373000D01*
X155791667Y-82739667D02*
X155791667Y-82039667D01*
X156091666Y-82106333D02*
X156125000Y-82073000D01*
X156191666Y-82039667D01*
X156358333Y-82039667D01*
X156425000Y-82073000D01*
X156458333Y-82106333D01*
X156491666Y-82173000D01*
X156491666Y-82239667D01*
X156458333Y-82339667D01*
X156058333Y-82739667D01*
X156491666Y-82739667D01*
X152551667Y-82673000D02*
X152518333Y-82706333D01*
X152418333Y-82739667D01*
X152351667Y-82739667D01*
X152251667Y-82706333D01*
X152185000Y-82639667D01*
X152151667Y-82573000D01*
X152118333Y-82439667D01*
X152118333Y-82339667D01*
X152151667Y-82206333D01*
X152185000Y-82139667D01*
X152251667Y-82073000D01*
X152351667Y-82039667D01*
X152418333Y-82039667D01*
X152518333Y-82073000D01*
X152551667Y-82106333D01*
X152851667Y-82739667D02*
X152851667Y-82039667D01*
X152851667Y-82373000D02*
X153251667Y-82373000D01*
X153251667Y-82739667D02*
X153251667Y-82039667D01*
X153951666Y-82739667D02*
X153551666Y-82739667D01*
X153751666Y-82739667D02*
X153751666Y-82039667D01*
X153685000Y-82139667D01*
X153618333Y-82206333D01*
X153551666Y-82239667D01*
X149961667Y-82073000D02*
X149895001Y-82039667D01*
X149795001Y-82039667D01*
X149695001Y-82073000D01*
X149628334Y-82139667D01*
X149595001Y-82206333D01*
X149561667Y-82339667D01*
X149561667Y-82439667D01*
X149595001Y-82573000D01*
X149628334Y-82639667D01*
X149695001Y-82706333D01*
X149795001Y-82739667D01*
X149861667Y-82739667D01*
X149961667Y-82706333D01*
X149995001Y-82673000D01*
X149995001Y-82439667D01*
X149861667Y-82439667D01*
X150295001Y-82739667D02*
X150295001Y-82039667D01*
X150695001Y-82739667D01*
X150695001Y-82039667D01*
X151028334Y-82739667D02*
X151028334Y-82039667D01*
X151195000Y-82039667D01*
X151295000Y-82073000D01*
X151361667Y-82139667D01*
X151395000Y-82206333D01*
X151428334Y-82339667D01*
X151428334Y-82439667D01*
X151395000Y-82573000D01*
X151361667Y-82639667D01*
X151295000Y-82706333D01*
X151195000Y-82739667D01*
X151028334Y-82739667D01*
X147021667Y-82039667D02*
X147255000Y-82739667D01*
X147488333Y-82039667D01*
X148121667Y-82673000D02*
X148088333Y-82706333D01*
X147988333Y-82739667D01*
X147921667Y-82739667D01*
X147821667Y-82706333D01*
X147755000Y-82639667D01*
X147721667Y-82573000D01*
X147688333Y-82439667D01*
X147688333Y-82339667D01*
X147721667Y-82206333D01*
X147755000Y-82139667D01*
X147821667Y-82073000D01*
X147921667Y-82039667D01*
X147988333Y-82039667D01*
X148088333Y-82073000D01*
X148121667Y-82106333D01*
X148821667Y-82673000D02*
X148788333Y-82706333D01*
X148688333Y-82739667D01*
X148621667Y-82739667D01*
X148521667Y-82706333D01*
X148455000Y-82639667D01*
X148421667Y-82573000D01*
X148388333Y-82439667D01*
X148388333Y-82339667D01*
X148421667Y-82206333D01*
X148455000Y-82139667D01*
X148521667Y-82073000D01*
X148621667Y-82039667D01*
X148688333Y-82039667D01*
X148788333Y-82073000D01*
X148821667Y-82106333D01*
D11*
X136886905Y-81133905D02*
X136086905Y-81133905D01*
X136353571Y-80752953D02*
X136886905Y-80752953D01*
X136429762Y-80752953D02*
X136391667Y-80714858D01*
X136353571Y-80638667D01*
X136353571Y-80524381D01*
X136391667Y-80448191D01*
X136467857Y-80410096D01*
X136886905Y-80410096D01*
X136125000Y-83794523D02*
X136086905Y-83870714D01*
X136086905Y-83984999D01*
X136125000Y-84099285D01*
X136201190Y-84175476D01*
X136277381Y-84213571D01*
X136429762Y-84251666D01*
X136544048Y-84251666D01*
X136696429Y-84213571D01*
X136772619Y-84175476D01*
X136848810Y-84099285D01*
X136886905Y-83984999D01*
X136886905Y-83908809D01*
X136848810Y-83794523D01*
X136810714Y-83756428D01*
X136544048Y-83756428D01*
X136544048Y-83908809D01*
X136886905Y-83413571D02*
X136086905Y-83413571D01*
X136886905Y-82956428D01*
X136086905Y-82956428D01*
X136886905Y-82575476D02*
X136086905Y-82575476D01*
X136086905Y-82385000D01*
X136125000Y-82270714D01*
X136201190Y-82194523D01*
X136277381Y-82156428D01*
X136429762Y-82118333D01*
X136544048Y-82118333D01*
X136696429Y-82156428D01*
X136772619Y-82194523D01*
X136848810Y-82270714D01*
X136886905Y-82385000D01*
X136886905Y-82575476D01*
X136086905Y-86518667D02*
X136086905Y-86366286D01*
X136125000Y-86290095D01*
X136201190Y-86213905D01*
X136353571Y-86175810D01*
X136620238Y-86175810D01*
X136772619Y-86213905D01*
X136848810Y-86290095D01*
X136886905Y-86366286D01*
X136886905Y-86518667D01*
X136848810Y-86594857D01*
X136772619Y-86671048D01*
X136620238Y-86709143D01*
X136353571Y-86709143D01*
X136201190Y-86671048D01*
X136125000Y-86594857D01*
X136086905Y-86518667D01*
X136353571Y-85490096D02*
X136886905Y-85490096D01*
X136353571Y-85832953D02*
X136772619Y-85832953D01*
X136848810Y-85794858D01*
X136886905Y-85718667D01*
X136886905Y-85604381D01*
X136848810Y-85528191D01*
X136810714Y-85490096D01*
X136353571Y-85223429D02*
X136353571Y-84918667D01*
X136086905Y-85109143D02*
X136772619Y-85109143D01*
X136848810Y-85071048D01*
X136886905Y-84994857D01*
X136886905Y-84918667D01*
D12*
X119888057Y-87461714D02*
X120802343Y-87461714D01*
X120345200Y-87918857D02*
X120345200Y-87004571D01*
X112064857Y-87461714D02*
X112979143Y-87461714D01*
D13*
X146304000Y-124841000D02*
X146304000Y-122555000D01*
X146304000Y-122555000D02*
X155956000Y-122555000D01*
X155956000Y-122555000D02*
X155956000Y-124841000D01*
X145034000Y-109601000D02*
X157226000Y-109601000D01*
X157226000Y-124841000D02*
X157226000Y-109601000D01*
X145034000Y-124841000D02*
X145034000Y-109601000D01*
X157226000Y-124841000D02*
X145034000Y-124841000D01*
D14*
X114554000Y-88265000D02*
X114554000Y-108585000D01*
X120396000Y-108585000D02*
X120396000Y-88265000D01*
X114554000Y-88265000D02*
X120396000Y-88265000D01*
X114554000Y-108585000D02*
X116459000Y-108585000D01*
X120396000Y-108585000D02*
X118491000Y-108585000D01*
X116459000Y-108585000D02*
G75*
G02X118491000Y-108585000I1016000J0D01*
G01*
D13*
X113919000Y-124841000D02*
X113919000Y-122555000D01*
X113919000Y-122555000D02*
X123571000Y-122555000D01*
X123571000Y-122555000D02*
X123571000Y-124841000D01*
X112649000Y-109601000D02*
X124841000Y-109601000D01*
X124841000Y-124841000D02*
X124841000Y-109601000D01*
X112649000Y-124841000D02*
X112649000Y-109601000D01*
X124841000Y-124841000D02*
X112649000Y-124841000D01*
D15*
X133349722Y-85307277D02*
G75*
G03X128738420Y-85307000I-2305722J-1179723D01*
G01*
X133349722Y-87666723D02*
G75*
G02X128738420Y-87667000I-2305722J1179723D01*
G01*
X133349722Y-87666723D02*
G75*
G03X133349580Y-85307000I-2305722J1179723D01*
G01*
X131044000Y-83937000D02*
X131044000Y-89037000D01*
X131084000Y-83937000D02*
X131084000Y-89037000D01*
X131124000Y-83938000D02*
X131124000Y-89036000D01*
X131164000Y-83939000D02*
X131164000Y-89035000D01*
X131204000Y-83941000D02*
X131204000Y-89033000D01*
X131244000Y-83944000D02*
X131244000Y-89030000D01*
X131284000Y-83948000D02*
X131284000Y-89026000D01*
X131324000Y-83952000D02*
X131324000Y-85507000D01*
X131324000Y-87467000D02*
X131324000Y-89022000D01*
X131364000Y-83956000D02*
X131364000Y-85507000D01*
X131364000Y-87467000D02*
X131364000Y-89018000D01*
X131404000Y-83962000D02*
X131404000Y-85507000D01*
X131404000Y-87467000D02*
X131404000Y-89012000D01*
X131444000Y-83968000D02*
X131444000Y-85507000D01*
X131444000Y-87467000D02*
X131444000Y-89006000D01*
X131484000Y-83974000D02*
X131484000Y-85507000D01*
X131484000Y-87467000D02*
X131484000Y-89000000D01*
X131524000Y-83981000D02*
X131524000Y-85507000D01*
X131524000Y-87467000D02*
X131524000Y-88993000D01*
X131564000Y-83989000D02*
X131564000Y-85507000D01*
X131564000Y-87467000D02*
X131564000Y-88985000D01*
X131604000Y-83998000D02*
X131604000Y-85507000D01*
X131604000Y-87467000D02*
X131604000Y-88976000D01*
X131644000Y-84007000D02*
X131644000Y-85507000D01*
X131644000Y-87467000D02*
X131644000Y-88967000D01*
X131684000Y-84017000D02*
X131684000Y-85507000D01*
X131684000Y-87467000D02*
X131684000Y-88957000D01*
X131724000Y-84027000D02*
X131724000Y-85507000D01*
X131724000Y-87467000D02*
X131724000Y-88947000D01*
X131765000Y-84039000D02*
X131765000Y-85507000D01*
X131765000Y-87467000D02*
X131765000Y-88935000D01*
X131805000Y-84051000D02*
X131805000Y-85507000D01*
X131805000Y-87467000D02*
X131805000Y-88923000D01*
X131845000Y-84063000D02*
X131845000Y-85507000D01*
X131845000Y-87467000D02*
X131845000Y-88911000D01*
X131885000Y-84077000D02*
X131885000Y-85507000D01*
X131885000Y-87467000D02*
X131885000Y-88897000D01*
X131925000Y-84091000D02*
X131925000Y-85507000D01*
X131925000Y-87467000D02*
X131925000Y-88883000D01*
X131965000Y-84105000D02*
X131965000Y-85507000D01*
X131965000Y-87467000D02*
X131965000Y-88869000D01*
X132005000Y-84121000D02*
X132005000Y-85507000D01*
X132005000Y-87467000D02*
X132005000Y-88853000D01*
X132045000Y-84137000D02*
X132045000Y-85507000D01*
X132045000Y-87467000D02*
X132045000Y-88837000D01*
X132085000Y-84154000D02*
X132085000Y-85507000D01*
X132085000Y-87467000D02*
X132085000Y-88820000D01*
X132125000Y-84172000D02*
X132125000Y-85507000D01*
X132125000Y-87467000D02*
X132125000Y-88802000D01*
X132165000Y-84191000D02*
X132165000Y-85507000D01*
X132165000Y-87467000D02*
X132165000Y-88783000D01*
X132205000Y-84211000D02*
X132205000Y-85507000D01*
X132205000Y-87467000D02*
X132205000Y-88763000D01*
X132245000Y-84231000D02*
X132245000Y-85507000D01*
X132245000Y-87467000D02*
X132245000Y-88743000D01*
X132285000Y-84253000D02*
X132285000Y-85507000D01*
X132285000Y-87467000D02*
X132285000Y-88721000D01*
X132325000Y-84275000D02*
X132325000Y-85507000D01*
X132325000Y-87467000D02*
X132325000Y-88699000D01*
X132365000Y-84298000D02*
X132365000Y-85507000D01*
X132365000Y-87467000D02*
X132365000Y-88676000D01*
X132405000Y-84322000D02*
X132405000Y-85507000D01*
X132405000Y-87467000D02*
X132405000Y-88652000D01*
X132445000Y-84347000D02*
X132445000Y-85507000D01*
X132445000Y-87467000D02*
X132445000Y-88627000D01*
X132485000Y-84374000D02*
X132485000Y-85507000D01*
X132485000Y-87467000D02*
X132485000Y-88600000D01*
X132525000Y-84401000D02*
X132525000Y-85507000D01*
X132525000Y-87467000D02*
X132525000Y-88573000D01*
X132565000Y-84429000D02*
X132565000Y-85507000D01*
X132565000Y-87467000D02*
X132565000Y-88545000D01*
X132605000Y-84459000D02*
X132605000Y-85507000D01*
X132605000Y-87467000D02*
X132605000Y-88515000D01*
X132645000Y-84490000D02*
X132645000Y-85507000D01*
X132645000Y-87467000D02*
X132645000Y-88484000D01*
X132685000Y-84522000D02*
X132685000Y-85507000D01*
X132685000Y-87467000D02*
X132685000Y-88452000D01*
X132725000Y-84555000D02*
X132725000Y-85507000D01*
X132725000Y-87467000D02*
X132725000Y-88419000D01*
X132765000Y-84590000D02*
X132765000Y-85507000D01*
X132765000Y-87467000D02*
X132765000Y-88384000D01*
X132805000Y-84626000D02*
X132805000Y-85507000D01*
X132805000Y-87467000D02*
X132805000Y-88348000D01*
X132845000Y-84664000D02*
X132845000Y-85507000D01*
X132845000Y-87467000D02*
X132845000Y-88310000D01*
X132885000Y-84704000D02*
X132885000Y-85507000D01*
X132885000Y-87467000D02*
X132885000Y-88270000D01*
X132925000Y-84745000D02*
X132925000Y-85507000D01*
X132925000Y-87467000D02*
X132925000Y-88229000D01*
X132965000Y-84788000D02*
X132965000Y-85507000D01*
X132965000Y-87467000D02*
X132965000Y-88186000D01*
X133005000Y-84833000D02*
X133005000Y-85507000D01*
X133005000Y-87467000D02*
X133005000Y-88141000D01*
X133045000Y-84881000D02*
X133045000Y-85507000D01*
X133045000Y-87467000D02*
X133045000Y-88093000D01*
X133085000Y-84931000D02*
X133085000Y-85507000D01*
X133085000Y-87467000D02*
X133085000Y-88043000D01*
X133125000Y-84983000D02*
X133125000Y-85507000D01*
X133125000Y-87467000D02*
X133125000Y-87991000D01*
X133165000Y-85039000D02*
X133165000Y-85507000D01*
X133165000Y-87467000D02*
X133165000Y-87935000D01*
X133205000Y-85097000D02*
X133205000Y-85507000D01*
X133205000Y-87467000D02*
X133205000Y-87877000D01*
X133245000Y-85160000D02*
X133245000Y-85507000D01*
X133245000Y-87467000D02*
X133245000Y-87814000D01*
X133285000Y-85226000D02*
X133285000Y-87748000D01*
X133325000Y-85298000D02*
X133325000Y-87676000D01*
X133365000Y-85375000D02*
X133365000Y-87599000D01*
X133405000Y-85459000D02*
X133405000Y-87515000D01*
X133445000Y-85553000D02*
X133445000Y-87421000D01*
X133485000Y-85658000D02*
X133485000Y-87316000D01*
X133525000Y-85780000D02*
X133525000Y-87194000D01*
X133565000Y-85928000D02*
X133565000Y-87046000D01*
X133605000Y-86133000D02*
X133605000Y-86841000D01*
X127594000Y-86487000D02*
X128794000Y-86487000D01*
X128194000Y-85837000D02*
X128194000Y-87137000D01*
X147365000Y-107725000D02*
X147365000Y-109445000D01*
X147365000Y-109445000D02*
X151085000Y-109445000D01*
X151085000Y-109445000D02*
X151085000Y-107725000D01*
X151085000Y-107725000D02*
X147365000Y-107725000D01*
X146295000Y-108585000D02*
X147365000Y-108585000D01*
X152155000Y-108585000D02*
X151085000Y-108585000D01*
X141560000Y-109445000D02*
X141560000Y-107725000D01*
X141560000Y-107725000D02*
X137840000Y-107725000D01*
X137840000Y-107725000D02*
X137840000Y-109445000D01*
X137840000Y-109445000D02*
X141560000Y-109445000D01*
X142630000Y-108585000D02*
X141560000Y-108585000D01*
X136770000Y-108585000D02*
X137840000Y-108585000D01*
D11*
X141478000Y-88138000D02*
X138049000Y-88138000D01*
X141478000Y-78486000D02*
X138049000Y-78486000D01*
X142621000Y-88646000D02*
X142621000Y-77978000D01*
X141605000Y-85090000D02*
X142875000Y-85090000D01*
X141605000Y-81534000D02*
X142875000Y-81534000D01*
X141478000Y-77978000D02*
X141478000Y-88646000D01*
X138049000Y-88646000D02*
X138049000Y-77978000D01*
X142875000Y-77978000D02*
X138049000Y-77978000D01*
X142875000Y-88646000D02*
X138049000Y-88646000D01*
X142875000Y-88646000D02*
X142875000Y-77978000D01*
D15*
X156905000Y-81467000D02*
X156905000Y-78807000D01*
X149225000Y-81467000D02*
X156905000Y-81467000D01*
X149225000Y-78807000D02*
X156905000Y-78807000D01*
X149225000Y-81467000D02*
X149225000Y-78807000D01*
X147955000Y-81467000D02*
X146625000Y-81467000D01*
X146625000Y-81467000D02*
X146625000Y-80137000D01*
X147410277Y-84074278D02*
G75*
G03X147410000Y-88685580I1179723J-2305722D01*
G01*
X149769723Y-84074278D02*
G75*
G02X149770000Y-88685580I-1179723J-2305722D01*
G01*
X149769723Y-84074278D02*
G75*
G03X147410000Y-84074420I-1179723J-2305722D01*
G01*
X146040000Y-86380000D02*
X151140000Y-86380000D01*
X146040000Y-86340000D02*
X151140000Y-86340000D01*
X146041000Y-86300000D02*
X151139000Y-86300000D01*
X146042000Y-86260000D02*
X151138000Y-86260000D01*
X146044000Y-86220000D02*
X151136000Y-86220000D01*
X146047000Y-86180000D02*
X151133000Y-86180000D01*
X146051000Y-86140000D02*
X151129000Y-86140000D01*
X146055000Y-86100000D02*
X147610000Y-86100000D01*
X149570000Y-86100000D02*
X151125000Y-86100000D01*
X146059000Y-86060000D02*
X147610000Y-86060000D01*
X149570000Y-86060000D02*
X151121000Y-86060000D01*
X146065000Y-86020000D02*
X147610000Y-86020000D01*
X149570000Y-86020000D02*
X151115000Y-86020000D01*
X146071000Y-85980000D02*
X147610000Y-85980000D01*
X149570000Y-85980000D02*
X151109000Y-85980000D01*
X146077000Y-85940000D02*
X147610000Y-85940000D01*
X149570000Y-85940000D02*
X151103000Y-85940000D01*
X146084000Y-85900000D02*
X147610000Y-85900000D01*
X149570000Y-85900000D02*
X151096000Y-85900000D01*
X146092000Y-85860000D02*
X147610000Y-85860000D01*
X149570000Y-85860000D02*
X151088000Y-85860000D01*
X146101000Y-85820000D02*
X147610000Y-85820000D01*
X149570000Y-85820000D02*
X151079000Y-85820000D01*
X146110000Y-85780000D02*
X147610000Y-85780000D01*
X149570000Y-85780000D02*
X151070000Y-85780000D01*
X146120000Y-85740000D02*
X147610000Y-85740000D01*
X149570000Y-85740000D02*
X151060000Y-85740000D01*
X146130000Y-85700000D02*
X147610000Y-85700000D01*
X149570000Y-85700000D02*
X151050000Y-85700000D01*
X146142000Y-85659000D02*
X147610000Y-85659000D01*
X149570000Y-85659000D02*
X151038000Y-85659000D01*
X146154000Y-85619000D02*
X147610000Y-85619000D01*
X149570000Y-85619000D02*
X151026000Y-85619000D01*
X146166000Y-85579000D02*
X147610000Y-85579000D01*
X149570000Y-85579000D02*
X151014000Y-85579000D01*
X146180000Y-85539000D02*
X147610000Y-85539000D01*
X149570000Y-85539000D02*
X151000000Y-85539000D01*
X146194000Y-85499000D02*
X147610000Y-85499000D01*
X149570000Y-85499000D02*
X150986000Y-85499000D01*
X146208000Y-85459000D02*
X147610000Y-85459000D01*
X149570000Y-85459000D02*
X150972000Y-85459000D01*
X146224000Y-85419000D02*
X147610000Y-85419000D01*
X149570000Y-85419000D02*
X150956000Y-85419000D01*
X146240000Y-85379000D02*
X147610000Y-85379000D01*
X149570000Y-85379000D02*
X150940000Y-85379000D01*
X146257000Y-85339000D02*
X147610000Y-85339000D01*
X149570000Y-85339000D02*
X150923000Y-85339000D01*
X146275000Y-85299000D02*
X147610000Y-85299000D01*
X149570000Y-85299000D02*
X150905000Y-85299000D01*
X146294000Y-85259000D02*
X147610000Y-85259000D01*
X149570000Y-85259000D02*
X150886000Y-85259000D01*
X146314000Y-85219000D02*
X147610000Y-85219000D01*
X149570000Y-85219000D02*
X150866000Y-85219000D01*
X146334000Y-85179000D02*
X147610000Y-85179000D01*
X149570000Y-85179000D02*
X150846000Y-85179000D01*
X146356000Y-85139000D02*
X147610000Y-85139000D01*
X149570000Y-85139000D02*
X150824000Y-85139000D01*
X146378000Y-85099000D02*
X147610000Y-85099000D01*
X149570000Y-85099000D02*
X150802000Y-85099000D01*
X146401000Y-85059000D02*
X147610000Y-85059000D01*
X149570000Y-85059000D02*
X150779000Y-85059000D01*
X146425000Y-85019000D02*
X147610000Y-85019000D01*
X149570000Y-85019000D02*
X150755000Y-85019000D01*
X146450000Y-84979000D02*
X147610000Y-84979000D01*
X149570000Y-84979000D02*
X150730000Y-84979000D01*
X146477000Y-84939000D02*
X147610000Y-84939000D01*
X149570000Y-84939000D02*
X150703000Y-84939000D01*
X146504000Y-84899000D02*
X147610000Y-84899000D01*
X149570000Y-84899000D02*
X150676000Y-84899000D01*
X146532000Y-84859000D02*
X147610000Y-84859000D01*
X149570000Y-84859000D02*
X150648000Y-84859000D01*
X146562000Y-84819000D02*
X147610000Y-84819000D01*
X149570000Y-84819000D02*
X150618000Y-84819000D01*
X146593000Y-84779000D02*
X147610000Y-84779000D01*
X149570000Y-84779000D02*
X150587000Y-84779000D01*
X146625000Y-84739000D02*
X147610000Y-84739000D01*
X149570000Y-84739000D02*
X150555000Y-84739000D01*
X146658000Y-84699000D02*
X147610000Y-84699000D01*
X149570000Y-84699000D02*
X150522000Y-84699000D01*
X146693000Y-84659000D02*
X147610000Y-84659000D01*
X149570000Y-84659000D02*
X150487000Y-84659000D01*
X146729000Y-84619000D02*
X147610000Y-84619000D01*
X149570000Y-84619000D02*
X150451000Y-84619000D01*
X146767000Y-84579000D02*
X147610000Y-84579000D01*
X149570000Y-84579000D02*
X150413000Y-84579000D01*
X146807000Y-84539000D02*
X147610000Y-84539000D01*
X149570000Y-84539000D02*
X150373000Y-84539000D01*
X146848000Y-84499000D02*
X147610000Y-84499000D01*
X149570000Y-84499000D02*
X150332000Y-84499000D01*
X146891000Y-84459000D02*
X147610000Y-84459000D01*
X149570000Y-84459000D02*
X150289000Y-84459000D01*
X146936000Y-84419000D02*
X147610000Y-84419000D01*
X149570000Y-84419000D02*
X150244000Y-84419000D01*
X146984000Y-84379000D02*
X147610000Y-84379000D01*
X149570000Y-84379000D02*
X150196000Y-84379000D01*
X147034000Y-84339000D02*
X147610000Y-84339000D01*
X149570000Y-84339000D02*
X150146000Y-84339000D01*
X147086000Y-84299000D02*
X147610000Y-84299000D01*
X149570000Y-84299000D02*
X150094000Y-84299000D01*
X147142000Y-84259000D02*
X147610000Y-84259000D01*
X149570000Y-84259000D02*
X150038000Y-84259000D01*
X147200000Y-84219000D02*
X147610000Y-84219000D01*
X149570000Y-84219000D02*
X149980000Y-84219000D01*
X147263000Y-84179000D02*
X147610000Y-84179000D01*
X149570000Y-84179000D02*
X149917000Y-84179000D01*
X147329000Y-84139000D02*
X149851000Y-84139000D01*
X147401000Y-84099000D02*
X149779000Y-84099000D01*
X147478000Y-84059000D02*
X149702000Y-84059000D01*
X147562000Y-84019000D02*
X149618000Y-84019000D01*
X147656000Y-83979000D02*
X149524000Y-83979000D01*
X147761000Y-83939000D02*
X149419000Y-83939000D01*
X147883000Y-83899000D02*
X149297000Y-83899000D01*
X148031000Y-83859000D02*
X149149000Y-83859000D01*
X148236000Y-83819000D02*
X148944000Y-83819000D01*
X148590000Y-89830000D02*
X148590000Y-88630000D01*
X147940000Y-89230000D02*
X149240000Y-89230000D01*
X153830000Y-88140000D02*
X153830000Y-84620000D01*
X156050000Y-88140000D02*
X156050000Y-84620000D01*
X153830000Y-88140000D02*
X153944000Y-88140000D01*
X155936000Y-88140000D02*
X156050000Y-88140000D01*
X153830000Y-84620000D02*
X153944000Y-84620000D01*
X155936000Y-84620000D02*
X156050000Y-84620000D01*
X140640000Y-114340000D02*
G75*
G03X140640000Y-114340000I-900000J0D01*
G01*
X136530000Y-115967000D02*
X136530000Y-111130000D01*
X142950000Y-115967000D02*
X142950000Y-111130000D01*
X137998000Y-117550000D02*
X141483000Y-117550000D01*
X136530000Y-111130000D02*
X138983000Y-111130000D01*
X140498000Y-111130000D02*
X142950000Y-111130000D01*
X128315000Y-107725000D02*
X128315000Y-109445000D01*
X128315000Y-109445000D02*
X132035000Y-109445000D01*
X132035000Y-109445000D02*
X132035000Y-107725000D01*
X132035000Y-107725000D02*
X128315000Y-107725000D01*
X127245000Y-108585000D02*
X128315000Y-108585000D01*
X133105000Y-108585000D02*
X132035000Y-108585000D01*
X128635000Y-117895000D02*
X133135000Y-117895000D01*
X127385000Y-113895000D02*
X127385000Y-115395000D01*
X133135000Y-111395000D02*
X128635000Y-111395000D01*
X134385000Y-115395000D02*
X134385000Y-113895000D01*
X123304000Y-95878000D02*
X126124000Y-95878000D01*
X126124000Y-95878000D02*
X126124000Y-90558000D01*
X126124000Y-90558000D02*
X123304000Y-90558000D01*
X123304000Y-90558000D02*
X123304000Y-95878000D01*
X124714000Y-97218000D02*
X124714000Y-95878000D01*
X124714000Y-89218000D02*
X124714000Y-90558000D01*
X123304000Y-95038000D02*
X126124000Y-95038000D01*
D11*
X121434000Y-86694400D02*
X111434000Y-86694400D01*
X111434000Y-86694400D02*
X111434000Y-77694400D01*
X111434000Y-77694400D02*
X121434000Y-77694400D01*
X121434000Y-77694400D02*
X121434000Y-86694400D01*
X128164000Y-119222000D02*
X140364000Y-119222000D01*
X140364000Y-119222000D02*
X140364000Y-124822000D01*
X140364000Y-124822000D02*
X128164000Y-124822000D01*
X128164000Y-124822000D02*
X128164000Y-119222000D01*
X122729000Y-77718000D02*
X134929000Y-77718000D01*
X134929000Y-77718000D02*
X134929000Y-83318000D01*
X134929000Y-83318000D02*
X122729000Y-83318000D01*
X122729000Y-83318000D02*
X122729000Y-77718000D01*
X154618571Y-100837857D02*
X155618571Y-100837857D01*
X154618571Y-101480714D02*
X155404286Y-101480714D01*
X155547143Y-101409286D01*
X155618571Y-101266428D01*
X155618571Y-101052143D01*
X155547143Y-100909286D01*
X155475714Y-100837857D01*
X155618571Y-100123571D02*
X154118571Y-100123571D01*
X154118571Y-99552143D01*
X154190000Y-99409285D01*
X154261429Y-99337857D01*
X154404286Y-99266428D01*
X154618571Y-99266428D01*
X154761429Y-99337857D01*
X154832857Y-99409285D01*
X154904286Y-99552143D01*
X154904286Y-100123571D01*
X155618571Y-97837857D02*
X155618571Y-98695000D01*
X155618571Y-98266428D02*
X154118571Y-98266428D01*
X154332857Y-98409285D01*
X154475714Y-98552143D01*
X154547143Y-98695000D01*
X132041428Y-99945000D02*
X132755714Y-99945000D01*
X131898571Y-100373571D02*
X132398571Y-98873571D01*
X132898571Y-100373571D01*
X134255714Y-100373571D02*
X133755714Y-99659286D01*
X133398571Y-100373571D02*
X133398571Y-98873571D01*
X133969999Y-98873571D01*
X134112857Y-98945000D01*
X134184285Y-99016429D01*
X134255714Y-99159286D01*
X134255714Y-99373571D01*
X134184285Y-99516429D01*
X134112857Y-99587857D01*
X133969999Y-99659286D01*
X133398571Y-99659286D01*
X134898571Y-100373571D02*
X134898571Y-98873571D01*
X135255714Y-98873571D01*
X135469999Y-98945000D01*
X135612857Y-99087857D01*
X135684285Y-99230714D01*
X135755714Y-99516429D01*
X135755714Y-99730714D01*
X135684285Y-100016429D01*
X135612857Y-100159286D01*
X135469999Y-100302143D01*
X135255714Y-100373571D01*
X134898571Y-100373571D01*
X136398571Y-98873571D02*
X136398571Y-100087857D01*
X136469999Y-100230714D01*
X136541428Y-100302143D01*
X136684285Y-100373571D01*
X136969999Y-100373571D01*
X137112857Y-100302143D01*
X137184285Y-100230714D01*
X137255714Y-100087857D01*
X137255714Y-98873571D01*
X137970000Y-100373571D02*
X137970000Y-98873571D01*
X138541428Y-98873571D01*
X138684286Y-98945000D01*
X138755714Y-99016429D01*
X138827143Y-99159286D01*
X138827143Y-99373571D01*
X138755714Y-99516429D01*
X138684286Y-99587857D01*
X138541428Y-99659286D01*
X137970000Y-99659286D01*
X140327143Y-100373571D02*
X139827143Y-99659286D01*
X139470000Y-100373571D02*
X139470000Y-98873571D01*
X140041428Y-98873571D01*
X140184286Y-98945000D01*
X140255714Y-99016429D01*
X140327143Y-99159286D01*
X140327143Y-99373571D01*
X140255714Y-99516429D01*
X140184286Y-99587857D01*
X140041428Y-99659286D01*
X139470000Y-99659286D01*
X141255714Y-98873571D02*
X141541428Y-98873571D01*
X141684286Y-98945000D01*
X141827143Y-99087857D01*
X141898571Y-99373571D01*
X141898571Y-99873571D01*
X141827143Y-100159286D01*
X141684286Y-100302143D01*
X141541428Y-100373571D01*
X141255714Y-100373571D01*
X141112857Y-100302143D01*
X140970000Y-100159286D01*
X140898571Y-99873571D01*
X140898571Y-99373571D01*
X140970000Y-99087857D01*
X141112857Y-98945000D01*
X141255714Y-98873571D01*
X142541429Y-100373571D02*
X142541429Y-98873571D01*
X143041429Y-99945000D01*
X143541429Y-98873571D01*
X143541429Y-100373571D01*
X144255715Y-100373571D02*
X144255715Y-98873571D01*
X144970001Y-100373571D02*
X144970001Y-98873571D01*
X145827144Y-100373571D01*
X145827144Y-98873571D01*
X146541430Y-100373571D02*
X146541430Y-98873571D01*
X147255716Y-99802143D02*
X148398573Y-99802143D01*
X149755716Y-98873571D02*
X149470002Y-98873571D01*
X149327145Y-98945000D01*
X149255716Y-99016429D01*
X149112859Y-99230714D01*
X149041430Y-99516429D01*
X149041430Y-100087857D01*
X149112859Y-100230714D01*
X149184287Y-100302143D01*
X149327145Y-100373571D01*
X149612859Y-100373571D01*
X149755716Y-100302143D01*
X149827145Y-100230714D01*
X149898573Y-100087857D01*
X149898573Y-99730714D01*
X149827145Y-99587857D01*
X149755716Y-99516429D01*
X149612859Y-99445000D01*
X149327145Y-99445000D01*
X149184287Y-99516429D01*
X149112859Y-99587857D01*
X149041430Y-99730714D01*
D13*
X147041810Y-124030619D02*
X147041810Y-123014619D01*
X147622381Y-124030619D01*
X147622381Y-123014619D01*
X148009429Y-123014619D02*
X148686762Y-124030619D01*
X148686762Y-123014619D02*
X148009429Y-124030619D01*
X148928667Y-123014619D02*
X149509238Y-123014619D01*
X149218953Y-124030619D02*
X149218953Y-123014619D01*
X149606000Y-124127381D02*
X150380095Y-124127381D01*
X150622000Y-124030619D02*
X150622000Y-123014619D01*
X150960666Y-123740333D01*
X151299333Y-123014619D01*
X151299333Y-124030619D01*
X151976667Y-123014619D02*
X152170190Y-123014619D01*
X152266952Y-123063000D01*
X152363714Y-123159762D01*
X152412095Y-123353286D01*
X152412095Y-123691952D01*
X152363714Y-123885476D01*
X152266952Y-123982238D01*
X152170190Y-124030619D01*
X151976667Y-124030619D01*
X151879905Y-123982238D01*
X151783143Y-123885476D01*
X151734762Y-123691952D01*
X151734762Y-123353286D01*
X151783143Y-123159762D01*
X151879905Y-123063000D01*
X151976667Y-123014619D01*
X152702381Y-123014619D02*
X153282952Y-123014619D01*
X152992667Y-124030619D02*
X152992667Y-123014619D01*
X153815143Y-123014619D02*
X154008666Y-123014619D01*
X154105428Y-123063000D01*
X154202190Y-123159762D01*
X154250571Y-123353286D01*
X154250571Y-123691952D01*
X154202190Y-123885476D01*
X154105428Y-123982238D01*
X154008666Y-124030619D01*
X153815143Y-124030619D01*
X153718381Y-123982238D01*
X153621619Y-123885476D01*
X153573238Y-123691952D01*
X153573238Y-123353286D01*
X153621619Y-123159762D01*
X153718381Y-123063000D01*
X153815143Y-123014619D01*
X155266571Y-124030619D02*
X154927905Y-123546810D01*
X154686000Y-124030619D02*
X154686000Y-123014619D01*
X155073047Y-123014619D01*
X155169809Y-123063000D01*
X155218190Y-123111381D01*
X155266571Y-123208143D01*
X155266571Y-123353286D01*
X155218190Y-123450048D01*
X155169809Y-123498429D01*
X155073047Y-123546810D01*
X154686000Y-123546810D01*
D16*
X116497706Y-105227892D02*
X116497706Y-104226762D01*
X117546510Y-105132546D02*
X117498837Y-105180219D01*
X117355818Y-105227892D01*
X117260472Y-105227892D01*
X117117454Y-105180219D01*
X117022108Y-105084874D01*
X116974435Y-104989528D01*
X116926762Y-104798836D01*
X116926762Y-104655818D01*
X116974435Y-104465126D01*
X117022108Y-104369781D01*
X117117454Y-104274435D01*
X117260472Y-104226762D01*
X117355818Y-104226762D01*
X117498837Y-104274435D01*
X117546510Y-104322108D01*
X118499967Y-105227892D02*
X117927892Y-105227892D01*
X118213930Y-105227892D02*
X118213930Y-104226762D01*
X118118584Y-104369781D01*
X118023238Y-104465126D01*
X117927892Y-104512799D01*
X117928087Y-100046574D02*
X117928087Y-100523507D01*
X116926527Y-100523507D01*
X117021913Y-99760414D02*
X116974220Y-99712720D01*
X116926527Y-99617334D01*
X116926527Y-99378867D01*
X116974220Y-99283480D01*
X117021913Y-99235787D01*
X117117300Y-99188094D01*
X117212687Y-99188094D01*
X117355767Y-99235787D01*
X117928087Y-99808107D01*
X117928087Y-99188094D01*
X117928087Y-98711160D02*
X117928087Y-98520387D01*
X117880393Y-98425000D01*
X117832700Y-98377307D01*
X117689620Y-98281920D01*
X117498847Y-98234227D01*
X117117300Y-98234227D01*
X117021913Y-98281920D01*
X116974220Y-98329613D01*
X116926527Y-98425000D01*
X116926527Y-98615773D01*
X116974220Y-98711160D01*
X117021913Y-98758853D01*
X117117300Y-98806547D01*
X117355767Y-98806547D01*
X117451153Y-98758853D01*
X117498847Y-98711160D01*
X117546540Y-98615773D01*
X117546540Y-98425000D01*
X117498847Y-98329613D01*
X117451153Y-98281920D01*
X117355767Y-98234227D01*
X116926527Y-97900373D02*
X116926527Y-97280360D01*
X117308073Y-97614213D01*
X117308073Y-97471133D01*
X117355767Y-97375746D01*
X117403460Y-97328053D01*
X117498847Y-97280360D01*
X117737313Y-97280360D01*
X117832700Y-97328053D01*
X117880393Y-97375746D01*
X117928087Y-97471133D01*
X117928087Y-97757293D01*
X117880393Y-97852680D01*
X117832700Y-97900373D01*
X117928087Y-96851119D02*
X116926527Y-96851119D01*
X116926527Y-96612653D01*
X116974220Y-96469573D01*
X117069607Y-96374186D01*
X117164993Y-96326493D01*
X117355767Y-96278799D01*
X117498847Y-96278799D01*
X117689620Y-96326493D01*
X117785007Y-96374186D01*
X117880393Y-96469573D01*
X117928087Y-96612653D01*
X117928087Y-96851119D01*
D13*
X114656810Y-124030619D02*
X114656810Y-123014619D01*
X115237381Y-124030619D01*
X115237381Y-123014619D01*
X115624429Y-123014619D02*
X116301762Y-124030619D01*
X116301762Y-123014619D02*
X115624429Y-124030619D01*
X116543667Y-123014619D02*
X117124238Y-123014619D01*
X116833953Y-124030619D02*
X116833953Y-123014619D01*
X117221000Y-124127381D02*
X117995095Y-124127381D01*
X118237000Y-124030619D02*
X118237000Y-123014619D01*
X118575666Y-123740333D01*
X118914333Y-123014619D01*
X118914333Y-124030619D01*
X119591667Y-123014619D02*
X119785190Y-123014619D01*
X119881952Y-123063000D01*
X119978714Y-123159762D01*
X120027095Y-123353286D01*
X120027095Y-123691952D01*
X119978714Y-123885476D01*
X119881952Y-123982238D01*
X119785190Y-124030619D01*
X119591667Y-124030619D01*
X119494905Y-123982238D01*
X119398143Y-123885476D01*
X119349762Y-123691952D01*
X119349762Y-123353286D01*
X119398143Y-123159762D01*
X119494905Y-123063000D01*
X119591667Y-123014619D01*
X120317381Y-123014619D02*
X120897952Y-123014619D01*
X120607667Y-124030619D02*
X120607667Y-123014619D01*
X121430143Y-123014619D02*
X121623666Y-123014619D01*
X121720428Y-123063000D01*
X121817190Y-123159762D01*
X121865571Y-123353286D01*
X121865571Y-123691952D01*
X121817190Y-123885476D01*
X121720428Y-123982238D01*
X121623666Y-124030619D01*
X121430143Y-124030619D01*
X121333381Y-123982238D01*
X121236619Y-123885476D01*
X121188238Y-123691952D01*
X121188238Y-123353286D01*
X121236619Y-123159762D01*
X121333381Y-123063000D01*
X121430143Y-123014619D01*
X122881571Y-124030619D02*
X122542905Y-123546810D01*
X122301000Y-124030619D02*
X122301000Y-123014619D01*
X122688047Y-123014619D01*
X122784809Y-123063000D01*
X122833190Y-123111381D01*
X122881571Y-123208143D01*
X122881571Y-123353286D01*
X122833190Y-123450048D01*
X122784809Y-123498429D01*
X122688047Y-123546810D01*
X122301000Y-123546810D01*
D11*
X135231143Y-86653666D02*
X135278762Y-86701285D01*
X135326381Y-86844142D01*
X135326381Y-86939380D01*
X135278762Y-87082238D01*
X135183524Y-87177476D01*
X135088286Y-87225095D01*
X134897810Y-87272714D01*
X134754952Y-87272714D01*
X134564476Y-87225095D01*
X134469238Y-87177476D01*
X134374000Y-87082238D01*
X134326381Y-86939380D01*
X134326381Y-86844142D01*
X134374000Y-86701285D01*
X134421619Y-86653666D01*
X135326381Y-85701285D02*
X135326381Y-86272714D01*
X135326381Y-85987000D02*
X134326381Y-85987000D01*
X134469238Y-86082238D01*
X134564476Y-86177476D01*
X134612095Y-86272714D01*
X149058334Y-109037381D02*
X148725000Y-108561190D01*
X148486905Y-109037381D02*
X148486905Y-108037381D01*
X148867858Y-108037381D01*
X148963096Y-108085000D01*
X149010715Y-108132619D01*
X149058334Y-108227857D01*
X149058334Y-108370714D01*
X149010715Y-108465952D01*
X148963096Y-108513571D01*
X148867858Y-108561190D01*
X148486905Y-108561190D01*
X150010715Y-109037381D02*
X149439286Y-109037381D01*
X149725000Y-109037381D02*
X149725000Y-108037381D01*
X149629762Y-108180238D01*
X149534524Y-108275476D01*
X149439286Y-108323095D01*
X139533334Y-109037381D02*
X139200000Y-108561190D01*
X138961905Y-109037381D02*
X138961905Y-108037381D01*
X139342858Y-108037381D01*
X139438096Y-108085000D01*
X139485715Y-108132619D01*
X139533334Y-108227857D01*
X139533334Y-108370714D01*
X139485715Y-108465952D01*
X139438096Y-108513571D01*
X139342858Y-108561190D01*
X138961905Y-108561190D01*
X139914286Y-108132619D02*
X139961905Y-108085000D01*
X140057143Y-108037381D01*
X140295239Y-108037381D01*
X140390477Y-108085000D01*
X140438096Y-108132619D01*
X140485715Y-108227857D01*
X140485715Y-108323095D01*
X140438096Y-108465952D01*
X139866667Y-109037381D01*
X140485715Y-109037381D01*
X143089381Y-89153905D02*
X143898905Y-89153905D01*
X143994143Y-89106286D01*
X144041762Y-89058667D01*
X144089381Y-88963429D01*
X144089381Y-88772952D01*
X144041762Y-88677714D01*
X143994143Y-88630095D01*
X143898905Y-88582476D01*
X143089381Y-88582476D01*
X144089381Y-87582476D02*
X144089381Y-88153905D01*
X144089381Y-87868191D02*
X143089381Y-87868191D01*
X143232238Y-87963429D01*
X143327476Y-88058667D01*
X143375095Y-88153905D01*
X144113334Y-80335381D02*
X143780000Y-79859190D01*
X143541905Y-80335381D02*
X143541905Y-79335381D01*
X143922858Y-79335381D01*
X144018096Y-79383000D01*
X144065715Y-79430619D01*
X144113334Y-79525857D01*
X144113334Y-79668714D01*
X144065715Y-79763952D01*
X144018096Y-79811571D01*
X143922858Y-79859190D01*
X143541905Y-79859190D01*
X145113334Y-80240143D02*
X145065715Y-80287762D01*
X144922858Y-80335381D01*
X144827620Y-80335381D01*
X144684762Y-80287762D01*
X144589524Y-80192524D01*
X144541905Y-80097286D01*
X144494286Y-79906810D01*
X144494286Y-79763952D01*
X144541905Y-79573476D01*
X144589524Y-79478238D01*
X144684762Y-79383000D01*
X144827620Y-79335381D01*
X144922858Y-79335381D01*
X145065715Y-79383000D01*
X145113334Y-79430619D01*
X146065715Y-80335381D02*
X145494286Y-80335381D01*
X145780000Y-80335381D02*
X145780000Y-79335381D01*
X145684762Y-79478238D01*
X145589524Y-79573476D01*
X145494286Y-79621095D01*
X144486334Y-84685143D02*
X144438715Y-84732762D01*
X144295858Y-84780381D01*
X144200620Y-84780381D01*
X144057762Y-84732762D01*
X143962524Y-84637524D01*
X143914905Y-84542286D01*
X143867286Y-84351810D01*
X143867286Y-84208952D01*
X143914905Y-84018476D01*
X143962524Y-83923238D01*
X144057762Y-83828000D01*
X144200620Y-83780381D01*
X144295858Y-83780381D01*
X144438715Y-83828000D01*
X144486334Y-83875619D01*
X144867286Y-83875619D02*
X144914905Y-83828000D01*
X145010143Y-83780381D01*
X145248239Y-83780381D01*
X145343477Y-83828000D01*
X145391096Y-83875619D01*
X145438715Y-83970857D01*
X145438715Y-84066095D01*
X145391096Y-84208952D01*
X144819667Y-84780381D01*
X145438715Y-84780381D01*
X153265143Y-86526666D02*
X153312762Y-86574285D01*
X153360381Y-86717142D01*
X153360381Y-86812380D01*
X153312762Y-86955238D01*
X153217524Y-87050476D01*
X153122286Y-87098095D01*
X152931810Y-87145714D01*
X152788952Y-87145714D01*
X152598476Y-87098095D01*
X152503238Y-87050476D01*
X152408000Y-86955238D01*
X152360381Y-86812380D01*
X152360381Y-86717142D01*
X152408000Y-86574285D01*
X152455619Y-86526666D01*
X152360381Y-86193333D02*
X152360381Y-85574285D01*
X152741333Y-85907619D01*
X152741333Y-85764761D01*
X152788952Y-85669523D01*
X152836571Y-85621904D01*
X152931810Y-85574285D01*
X153169905Y-85574285D01*
X153265143Y-85621904D01*
X153312762Y-85669523D01*
X153360381Y-85764761D01*
X153360381Y-86050476D01*
X153312762Y-86145714D01*
X153265143Y-86193333D01*
X144597381Y-112355238D02*
X144121190Y-112688572D01*
X144597381Y-112926667D02*
X143597381Y-112926667D01*
X143597381Y-112545714D01*
X143645000Y-112450476D01*
X143692619Y-112402857D01*
X143787857Y-112355238D01*
X143930714Y-112355238D01*
X144025952Y-112402857D01*
X144073571Y-112450476D01*
X144121190Y-112545714D01*
X144121190Y-112926667D01*
X143597381Y-112069524D02*
X144597381Y-111736191D01*
X143597381Y-111402857D01*
X144597381Y-110545714D02*
X144597381Y-111117143D01*
X144597381Y-110831429D02*
X143597381Y-110831429D01*
X143740238Y-110926667D01*
X143835476Y-111021905D01*
X143883095Y-111117143D01*
X130008334Y-109037381D02*
X129675000Y-108561190D01*
X129436905Y-109037381D02*
X129436905Y-108037381D01*
X129817858Y-108037381D01*
X129913096Y-108085000D01*
X129960715Y-108132619D01*
X130008334Y-108227857D01*
X130008334Y-108370714D01*
X129960715Y-108465952D01*
X129913096Y-108513571D01*
X129817858Y-108561190D01*
X129436905Y-108561190D01*
X130341667Y-108037381D02*
X130960715Y-108037381D01*
X130627381Y-108418333D01*
X130770239Y-108418333D01*
X130865477Y-108465952D01*
X130913096Y-108513571D01*
X130960715Y-108608810D01*
X130960715Y-108846905D01*
X130913096Y-108942143D01*
X130865477Y-108989762D01*
X130770239Y-109037381D01*
X130484524Y-109037381D01*
X130389286Y-108989762D01*
X130341667Y-108942143D01*
X126134762Y-113728333D02*
X126182381Y-113585476D01*
X126182381Y-113347380D01*
X126134762Y-113252142D01*
X126087143Y-113204523D01*
X125991905Y-113156904D01*
X125896667Y-113156904D01*
X125801429Y-113204523D01*
X125753810Y-113252142D01*
X125706190Y-113347380D01*
X125658571Y-113537857D01*
X125610952Y-113633095D01*
X125563333Y-113680714D01*
X125468095Y-113728333D01*
X125372857Y-113728333D01*
X125277619Y-113680714D01*
X125230000Y-113633095D01*
X125182381Y-113537857D01*
X125182381Y-113299761D01*
X125230000Y-113156904D01*
X125182381Y-112823571D02*
X126182381Y-112585476D01*
X125468095Y-112394999D01*
X126182381Y-112204523D01*
X125182381Y-111966428D01*
X125277619Y-111633095D02*
X125230000Y-111585476D01*
X125182381Y-111490238D01*
X125182381Y-111252142D01*
X125230000Y-111156904D01*
X125277619Y-111109285D01*
X125372857Y-111061666D01*
X125468095Y-111061666D01*
X125610952Y-111109285D01*
X126182381Y-111680714D01*
X126182381Y-111061666D01*
X125166381Y-92305095D02*
X124166381Y-92305095D01*
X124166381Y-92067000D01*
X124214000Y-91924142D01*
X124309238Y-91828904D01*
X124404476Y-91781285D01*
X124594952Y-91733666D01*
X124737810Y-91733666D01*
X124928286Y-91781285D01*
X125023524Y-91828904D01*
X125118762Y-91924142D01*
X125166381Y-92067000D01*
X125166381Y-92305095D01*
X125166381Y-90781285D02*
X125166381Y-91352714D01*
X125166381Y-91067000D02*
X124166381Y-91067000D01*
X124309238Y-91162238D01*
X124404476Y-91257476D01*
X124452095Y-91352714D01*
D10*
X114984001Y-87427600D02*
X115084001Y-87460933D01*
X115117334Y-87494267D01*
X115150668Y-87560933D01*
X115150668Y-87660933D01*
X115117334Y-87727600D01*
X115084001Y-87760933D01*
X115017334Y-87794267D01*
X114750668Y-87794267D01*
X114750668Y-87094267D01*
X114984001Y-87094267D01*
X115050668Y-87127600D01*
X115084001Y-87160933D01*
X115117334Y-87227600D01*
X115117334Y-87294267D01*
X115084001Y-87360933D01*
X115050668Y-87394267D01*
X114984001Y-87427600D01*
X114750668Y-87427600D01*
X115750668Y-87794267D02*
X115750668Y-87427600D01*
X115717334Y-87360933D01*
X115650668Y-87327600D01*
X115517334Y-87327600D01*
X115450668Y-87360933D01*
X115750668Y-87760933D02*
X115684001Y-87794267D01*
X115517334Y-87794267D01*
X115450668Y-87760933D01*
X115417334Y-87694267D01*
X115417334Y-87627600D01*
X115450668Y-87560933D01*
X115517334Y-87527600D01*
X115684001Y-87527600D01*
X115750668Y-87494267D01*
X115984001Y-87327600D02*
X116250667Y-87327600D01*
X116084001Y-87094267D02*
X116084001Y-87694267D01*
X116117334Y-87760933D01*
X116184001Y-87794267D01*
X116250667Y-87794267D01*
X116384001Y-87327600D02*
X116650667Y-87327600D01*
X116484001Y-87094267D02*
X116484001Y-87694267D01*
X116517334Y-87760933D01*
X116584001Y-87794267D01*
X116650667Y-87794267D01*
X117150667Y-87760933D02*
X117084001Y-87794267D01*
X116950667Y-87794267D01*
X116884001Y-87760933D01*
X116850667Y-87694267D01*
X116850667Y-87427600D01*
X116884001Y-87360933D01*
X116950667Y-87327600D01*
X117084001Y-87327600D01*
X117150667Y-87360933D01*
X117184001Y-87427600D01*
X117184001Y-87494267D01*
X116850667Y-87560933D01*
X117484001Y-87794267D02*
X117484001Y-87327600D01*
X117484001Y-87460933D02*
X117517334Y-87394267D01*
X117550667Y-87360933D01*
X117617334Y-87327600D01*
X117684001Y-87327600D01*
X117850667Y-87327600D02*
X118017334Y-87794267D01*
X118184000Y-87327600D02*
X118017334Y-87794267D01*
X117950667Y-87960933D01*
X117917334Y-87994267D01*
X117850667Y-88027600D01*
D11*
X132676667Y-124255562D02*
X132819524Y-124303181D01*
X133057620Y-124303181D01*
X133152858Y-124255562D01*
X133200477Y-124207943D01*
X133248096Y-124112705D01*
X133248096Y-124017467D01*
X133200477Y-123922229D01*
X133152858Y-123874610D01*
X133057620Y-123826990D01*
X132867143Y-123779371D01*
X132771905Y-123731752D01*
X132724286Y-123684133D01*
X132676667Y-123588895D01*
X132676667Y-123493657D01*
X132724286Y-123398419D01*
X132771905Y-123350800D01*
X132867143Y-123303181D01*
X133105239Y-123303181D01*
X133248096Y-123350800D01*
X133581429Y-123303181D02*
X133819524Y-124303181D01*
X134010001Y-123588895D01*
X134200477Y-124303181D01*
X134438572Y-123303181D01*
X135343334Y-124303181D02*
X134771905Y-124303181D01*
X135057619Y-124303181D02*
X135057619Y-123303181D01*
X134962381Y-123446038D01*
X134867143Y-123541276D01*
X134771905Y-123588895D01*
D10*
X123248134Y-83897829D02*
X123381467Y-83897829D01*
X123448134Y-83926400D01*
X123514801Y-83983543D01*
X123548134Y-84097829D01*
X123548134Y-84297829D01*
X123514801Y-84412114D01*
X123448134Y-84469257D01*
X123381467Y-84497829D01*
X123248134Y-84497829D01*
X123181467Y-84469257D01*
X123114801Y-84412114D01*
X123081467Y-84297829D01*
X123081467Y-84097829D01*
X123114801Y-83983543D01*
X123181467Y-83926400D01*
X123248134Y-83897829D01*
X123848134Y-84097829D02*
X123848134Y-84497829D01*
X123848134Y-84154971D02*
X123881467Y-84126400D01*
X123948134Y-84097829D01*
X124048134Y-84097829D01*
X124114800Y-84126400D01*
X124148134Y-84183543D01*
X124148134Y-84497829D01*
X124981467Y-83869257D02*
X124381467Y-84640686D01*
X125348133Y-83897829D02*
X125481466Y-83897829D01*
X125548133Y-83926400D01*
X125614800Y-83983543D01*
X125648133Y-84097829D01*
X125648133Y-84297829D01*
X125614800Y-84412114D01*
X125548133Y-84469257D01*
X125481466Y-84497829D01*
X125348133Y-84497829D01*
X125281466Y-84469257D01*
X125214800Y-84412114D01*
X125181466Y-84297829D01*
X125181466Y-84097829D01*
X125214800Y-83983543D01*
X125281466Y-83926400D01*
X125348133Y-83897829D01*
X125848133Y-84097829D02*
X126114799Y-84097829D01*
X125948133Y-84497829D02*
X125948133Y-83983543D01*
X125981466Y-83926400D01*
X126048133Y-83897829D01*
X126114799Y-83897829D01*
X126248133Y-84097829D02*
X126514799Y-84097829D01*
X126348133Y-84497829D02*
X126348133Y-83983543D01*
X126381466Y-83926400D01*
X126448133Y-83897829D01*
X126514799Y-83897829D01*
M02*
