M48
;DRILL file {KiCad 4.0.2-stable} date 1/10/2018 5:31:32 PM
;FORMAT={-:-/ absolute / inch / decimal}
FMAT,2
INCH,TZ
T1C0.016
T2C0.024
T3C0.028
T4C0.028
T5C0.030
T6C0.031
T7C0.032
T8C0.035
T9C0.039
T10C0.045
T11C0.059
T12C0.060
T13C0.095
%
G90
G05
M72
T1
X5.8562Y-3.3469
T2
X6.56Y-2.845
X6.56Y-2.945
X6.56Y-3.255
X6.56Y-3.355
T3
X5.8Y-2.825
X5.8Y-3.125
X5.95Y-2.825
X5.95Y-3.125
T4
X5.4662Y-4.1192
X5.5102Y-4.0221
X5.5518Y-4.1179
X5.5962Y-4.0211
X5.6373Y-4.1178
X5.6814Y-4.0185
X6.6412Y-4.1192
X6.6852Y-4.0221
X6.7268Y-4.1179
X6.7712Y-4.0211
X6.8123Y-4.1178
X6.8564Y-4.0185
T5
X6.075Y-2.5
X6.075Y-2.6
X6.075Y-2.7
X6.075Y-2.8
X6.075Y-2.9
X6.075Y-3.
X6.075Y-3.1
X6.075Y-3.2
X6.075Y-3.3
X6.075Y-3.4
X6.075Y-3.5
X6.075Y-3.6
X6.675Y-2.5
X6.675Y-2.6
X6.675Y-2.7
X6.675Y-2.8
X6.675Y-2.9
X6.675Y-3.
X6.675Y-3.1
X6.675Y-3.2
X6.675Y-3.3
X6.675Y-3.4
X6.675Y-3.5
X6.675Y-3.6
T6
X5.8Y-3.25
X5.8066Y-3.475
X5.875Y-2.55
X5.875Y-2.6484
X5.8984Y-3.25
X5.905Y-3.475
X6.025Y-3.8016
X6.025Y-3.9
X6.05Y-4.0766
X6.05Y-4.175
X6.075Y-2.2
X6.075Y-2.2984
X6.25Y-2.2266
X6.25Y-2.325
X6.275Y-4.0766
X6.275Y-4.175
X6.325Y-3.8016
X6.325Y-3.9
T7
X5.375Y-2.85
X5.375Y-2.95
X5.375Y-3.05
X5.375Y-3.15
X5.375Y-3.25
X5.375Y-3.35
X5.375Y-3.45
X5.375Y-3.55
X5.675Y-2.85
X5.675Y-2.95
X5.675Y-3.05
X5.675Y-3.15
X5.675Y-3.25
X5.675Y-3.35
X5.675Y-3.45
X5.675Y-3.55
T8
X6.8031Y-3.0484
X6.8031Y-3.4234
X6.95Y-2.5675
X6.95Y-2.6463
X6.95Y-2.725
X7.Y-2.95
X7.Y-3.1469
X7.Y-3.325
X7.Y-3.5219
T9
X6.45Y-2.275
X6.55Y-2.275
X6.65Y-2.275
X6.75Y-2.275
T10
X5.425Y-2.575
X5.525Y-2.575
X5.625Y-2.575
T11
X6.95Y-2.4848
X6.95Y-2.8077
T12
X5.5Y-2.3
X5.7Y-2.3
T13
X5.3355Y-3.9285
X5.8105Y-3.9285
X6.5105Y-3.9285
X6.9855Y-3.9285
T0
M30
