M48
;DRILL file {KiCad 4.0.2-stable} date 3/22/2018 3:29:31 PM
;FORMAT={-:-/ absolute / inch / decimal}
FMAT,2
INCH,TZ
T1C0.016
T2C0.024
T3C0.028
T4C0.028
T5C0.030
T6C0.031
T7C0.032
T8C0.035
T9C0.039
T10C0.043
T11C0.045
T12C0.095
T13C0.102
%
G90
G05
M72
T1
X5.4595Y-4.0224
T2
X5.395Y-3.69
X5.495Y-3.69
X5.805Y-3.69
X5.905Y-3.69
T3
X4.975Y-4.275
X5.275Y-4.275
X5.35Y-4.275
X5.65Y-4.275
X5.725Y-4.275
X6.025Y-4.275
T4
X4.5716Y-4.5855
X4.6157Y-4.4862
X4.6568Y-4.5829
X4.7012Y-4.4861
X4.7428Y-4.5819
X4.7868Y-4.4848
X5.8416Y-4.5855
X5.8857Y-4.4862
X5.9268Y-4.5829
X5.9712Y-4.4861
X6.0128Y-4.5819
X6.0568Y-4.4848
T5
X5.05Y-3.575
X5.05Y-4.175
X5.15Y-3.575
X5.15Y-4.175
X5.25Y-3.575
X5.25Y-4.175
X5.35Y-3.575
X5.35Y-4.175
X5.45Y-3.575
X5.45Y-4.175
X5.55Y-3.575
X5.55Y-4.175
X5.65Y-3.575
X5.65Y-4.175
X5.75Y-3.575
X5.75Y-4.175
X5.85Y-3.575
X5.85Y-4.175
X5.95Y-3.575
X5.95Y-4.175
X6.05Y-3.575
X6.05Y-4.175
X6.15Y-3.575
X6.15Y-4.175
T6
X5.11Y-3.405
X5.2084Y-3.405
X5.85Y-3.3516
X5.85Y-3.45
X6.1Y-3.3516
X6.1Y-3.45
T7
X4.475Y-3.525
X4.475Y-3.625
X4.475Y-3.725
X4.475Y-3.825
X4.475Y-3.925
X4.475Y-4.025
X4.475Y-4.125
X4.475Y-4.225
X4.775Y-3.525
X4.775Y-3.625
X4.775Y-3.725
X4.775Y-3.825
X4.775Y-3.925
X4.775Y-4.025
X4.775Y-4.125
X4.775Y-4.225
T8
X4.91Y-3.47
X4.91Y-3.87
X5.4031Y-4.6
X5.5016Y-4.4031
X5.6Y-4.6
T9
X4.4836Y-3.236
X4.6804Y-3.236
X4.9639Y-3.17
X5.082Y-3.17
X5.1839Y-4.804
X5.2001Y-3.17
X5.302Y-4.804
X5.4201Y-4.804
X5.825Y-3.155
X5.925Y-3.155
X6.025Y-3.155
X6.125Y-3.155
T10
X5.025Y-4.425
X5.025Y-4.6022
X5.2809Y-4.425
X5.2809Y-4.6022
T11
X5.505Y-3.18
X5.505Y-3.28
X5.505Y-3.38
T12
X4.4425Y-4.6755
X4.9175Y-4.6755
X5.7125Y-4.6755
X6.1875Y-4.6755
T13
X4.8517Y-3.17G85X4.8517Y-3.17
G05
X5.0717Y-4.804G85X5.0717Y-4.804
G05
X5.3123Y-3.17G85X5.3123Y-3.17
G05
X5.5323Y-4.804G85X5.5323Y-4.804
G05
T0
M30
