G04 #@! TF.FileFunction,Legend,Top*
%FSLAX46Y46*%
G04 Gerber Fmt 4.6, Leading zero omitted, Abs format (unit mm)*
G04 Created by KiCad (PCBNEW 4.0.2-stable) date 1/9/2018 5:10:49 PM*
%MOMM*%
G01*
G04 APERTURE LIST*
%ADD10C,0.100000*%
%ADD11C,0.150000*%
%ADD12C,0.500000*%
%ADD13C,0.203200*%
%ADD14C,0.152400*%
%ADD15C,0.120000*%
%ADD16C,0.050000*%
G04 APERTURE END LIST*
D10*
D11*
X158476905Y-59651666D02*
X158095952Y-59918333D01*
X158476905Y-60108809D02*
X157676905Y-60108809D01*
X157676905Y-59804047D01*
X157715000Y-59727856D01*
X157753095Y-59689761D01*
X157829286Y-59651666D01*
X157943571Y-59651666D01*
X158019762Y-59689761D01*
X158057857Y-59727856D01*
X158095952Y-59804047D01*
X158095952Y-60108809D01*
X158438810Y-59004047D02*
X158476905Y-59080237D01*
X158476905Y-59232618D01*
X158438810Y-59308809D01*
X158362619Y-59346904D01*
X158057857Y-59346904D01*
X157981667Y-59308809D01*
X157943571Y-59232618D01*
X157943571Y-59080237D01*
X157981667Y-59004047D01*
X158057857Y-58965952D01*
X158134048Y-58965952D01*
X158210238Y-59346904D01*
X158438810Y-58280238D02*
X158476905Y-58356428D01*
X158476905Y-58508809D01*
X158438810Y-58585000D01*
X158400714Y-58623095D01*
X158324524Y-58661190D01*
X158095952Y-58661190D01*
X158019762Y-58623095D01*
X157981667Y-58585000D01*
X157943571Y-58508809D01*
X157943571Y-58356428D01*
X157981667Y-58280238D01*
X158438810Y-57632619D02*
X158476905Y-57708809D01*
X158476905Y-57861190D01*
X158438810Y-57937381D01*
X158362619Y-57975476D01*
X158057857Y-57975476D01*
X157981667Y-57937381D01*
X157943571Y-57861190D01*
X157943571Y-57708809D01*
X157981667Y-57632619D01*
X158057857Y-57594524D01*
X158134048Y-57594524D01*
X158210238Y-57975476D01*
X158476905Y-57251667D02*
X157943571Y-57251667D01*
X157676905Y-57251667D02*
X157715000Y-57289762D01*
X157753095Y-57251667D01*
X157715000Y-57213572D01*
X157676905Y-57251667D01*
X157753095Y-57251667D01*
X157943571Y-56946905D02*
X158476905Y-56756429D01*
X157943571Y-56565953D01*
X158438810Y-55956429D02*
X158476905Y-56032619D01*
X158476905Y-56185000D01*
X158438810Y-56261191D01*
X158362619Y-56299286D01*
X158057857Y-56299286D01*
X157981667Y-56261191D01*
X157943571Y-56185000D01*
X157943571Y-56032619D01*
X157981667Y-55956429D01*
X158057857Y-55918334D01*
X158134048Y-55918334D01*
X158210238Y-56299286D01*
X158476905Y-55575477D02*
X157943571Y-55575477D01*
X158095952Y-55575477D02*
X158019762Y-55537382D01*
X157981667Y-55499286D01*
X157943571Y-55423096D01*
X157943571Y-55346905D01*
D10*
X173310000Y-59973333D02*
X173410000Y-60006667D01*
X173576667Y-60006667D01*
X173643334Y-59973333D01*
X173676667Y-59940000D01*
X173710000Y-59873333D01*
X173710000Y-59806667D01*
X173676667Y-59740000D01*
X173643334Y-59706667D01*
X173576667Y-59673333D01*
X173443334Y-59640000D01*
X173376667Y-59606667D01*
X173343334Y-59573333D01*
X173310000Y-59506667D01*
X173310000Y-59440000D01*
X173343334Y-59373333D01*
X173376667Y-59340000D01*
X173443334Y-59306667D01*
X173610000Y-59306667D01*
X173710000Y-59340000D01*
X173910001Y-59540000D02*
X174176667Y-59540000D01*
X174010001Y-59306667D02*
X174010001Y-59906667D01*
X174043334Y-59973333D01*
X174110001Y-60006667D01*
X174176667Y-60006667D01*
X174410001Y-60006667D02*
X174410001Y-59540000D01*
X174410001Y-59673333D02*
X174443334Y-59606667D01*
X174476667Y-59573333D01*
X174543334Y-59540000D01*
X174610001Y-59540000D01*
X175343334Y-59273333D02*
X174743334Y-60173333D01*
X175543333Y-59973333D02*
X175643333Y-60006667D01*
X175810000Y-60006667D01*
X175876667Y-59973333D01*
X175910000Y-59940000D01*
X175943333Y-59873333D01*
X175943333Y-59806667D01*
X175910000Y-59740000D01*
X175876667Y-59706667D01*
X175810000Y-59673333D01*
X175676667Y-59640000D01*
X175610000Y-59606667D01*
X175576667Y-59573333D01*
X175543333Y-59506667D01*
X175543333Y-59440000D01*
X175576667Y-59373333D01*
X175610000Y-59340000D01*
X175676667Y-59306667D01*
X175843333Y-59306667D01*
X175943333Y-59340000D01*
X176243334Y-59540000D02*
X176243334Y-60240000D01*
X176243334Y-59573333D02*
X176310000Y-59540000D01*
X176443334Y-59540000D01*
X176510000Y-59573333D01*
X176543334Y-59606667D01*
X176576667Y-59673333D01*
X176576667Y-59873333D01*
X176543334Y-59940000D01*
X176510000Y-59973333D01*
X176443334Y-60006667D01*
X176310000Y-60006667D01*
X176243334Y-59973333D01*
X177176667Y-60006667D02*
X177176667Y-59306667D01*
X177176667Y-59973333D02*
X177110000Y-60006667D01*
X176976667Y-60006667D01*
X176910000Y-59973333D01*
X176876667Y-59940000D01*
X176843333Y-59873333D01*
X176843333Y-59673333D01*
X176876667Y-59606667D01*
X176910000Y-59573333D01*
X176976667Y-59540000D01*
X177110000Y-59540000D01*
X177176667Y-59573333D01*
X174293333Y-61243333D02*
X174393333Y-61276667D01*
X174560000Y-61276667D01*
X174626667Y-61243333D01*
X174660000Y-61210000D01*
X174693333Y-61143333D01*
X174693333Y-61076667D01*
X174660000Y-61010000D01*
X174626667Y-60976667D01*
X174560000Y-60943333D01*
X174426667Y-60910000D01*
X174360000Y-60876667D01*
X174326667Y-60843333D01*
X174293333Y-60776667D01*
X174293333Y-60710000D01*
X174326667Y-60643333D01*
X174360000Y-60610000D01*
X174426667Y-60576667D01*
X174593333Y-60576667D01*
X174693333Y-60610000D01*
X174993334Y-61276667D02*
X174993334Y-60576667D01*
X175060000Y-61010000D02*
X175260000Y-61276667D01*
X175260000Y-60810000D02*
X174993334Y-61076667D01*
X175560001Y-61276667D02*
X175560001Y-60810000D01*
X175560001Y-60576667D02*
X175526667Y-60610000D01*
X175560001Y-60643333D01*
X175593334Y-60610000D01*
X175560001Y-60576667D01*
X175560001Y-60643333D01*
X176193334Y-61276667D02*
X176193334Y-60576667D01*
X176193334Y-61243333D02*
X176126667Y-61276667D01*
X175993334Y-61276667D01*
X175926667Y-61243333D01*
X175893334Y-61210000D01*
X175860000Y-61143333D01*
X175860000Y-60943333D01*
X175893334Y-60876667D01*
X175926667Y-60843333D01*
X175993334Y-60810000D01*
X176126667Y-60810000D01*
X176193334Y-60843333D01*
X172626667Y-58703333D02*
X172726667Y-58736667D01*
X172893334Y-58736667D01*
X172960001Y-58703333D01*
X172993334Y-58670000D01*
X173026667Y-58603333D01*
X173026667Y-58536667D01*
X172993334Y-58470000D01*
X172960001Y-58436667D01*
X172893334Y-58403333D01*
X172760001Y-58370000D01*
X172693334Y-58336667D01*
X172660001Y-58303333D01*
X172626667Y-58236667D01*
X172626667Y-58170000D01*
X172660001Y-58103333D01*
X172693334Y-58070000D01*
X172760001Y-58036667D01*
X172926667Y-58036667D01*
X173026667Y-58070000D01*
X173226668Y-58270000D02*
X173493334Y-58270000D01*
X173326668Y-58036667D02*
X173326668Y-58636667D01*
X173360001Y-58703333D01*
X173426668Y-58736667D01*
X173493334Y-58736667D01*
X173993334Y-58703333D02*
X173926668Y-58736667D01*
X173793334Y-58736667D01*
X173726668Y-58703333D01*
X173693334Y-58636667D01*
X173693334Y-58370000D01*
X173726668Y-58303333D01*
X173793334Y-58270000D01*
X173926668Y-58270000D01*
X173993334Y-58303333D01*
X174026668Y-58370000D01*
X174026668Y-58436667D01*
X173693334Y-58503333D01*
X174593334Y-58703333D02*
X174526668Y-58736667D01*
X174393334Y-58736667D01*
X174326668Y-58703333D01*
X174293334Y-58636667D01*
X174293334Y-58370000D01*
X174326668Y-58303333D01*
X174393334Y-58270000D01*
X174526668Y-58270000D01*
X174593334Y-58303333D01*
X174626668Y-58370000D01*
X174626668Y-58436667D01*
X174293334Y-58503333D01*
X174926668Y-58736667D02*
X174926668Y-58270000D01*
X174926668Y-58403333D02*
X174960001Y-58336667D01*
X174993334Y-58303333D01*
X175060001Y-58270000D01*
X175126668Y-58270000D01*
X175793334Y-58036667D02*
X176193334Y-58036667D01*
X175993334Y-58736667D02*
X175993334Y-58036667D01*
X176360000Y-58270000D02*
X176526667Y-58736667D01*
X176693333Y-58270000D02*
X176526667Y-58736667D01*
X176460000Y-58903333D01*
X176426667Y-58936667D01*
X176360000Y-58970000D01*
X176960000Y-58270000D02*
X176960000Y-58970000D01*
X176960000Y-58303333D02*
X177026666Y-58270000D01*
X177160000Y-58270000D01*
X177226666Y-58303333D01*
X177260000Y-58336667D01*
X177293333Y-58403333D01*
X177293333Y-58603333D01*
X177260000Y-58670000D01*
X177226666Y-58703333D01*
X177160000Y-58736667D01*
X177026666Y-58736667D01*
X176960000Y-58703333D01*
X177859999Y-58703333D02*
X177793333Y-58736667D01*
X177659999Y-58736667D01*
X177593333Y-58703333D01*
X177559999Y-58636667D01*
X177559999Y-58370000D01*
X177593333Y-58303333D01*
X177659999Y-58270000D01*
X177793333Y-58270000D01*
X177859999Y-58303333D01*
X177893333Y-58370000D01*
X177893333Y-58436667D01*
X177559999Y-58503333D01*
X173143333Y-81817333D02*
X173243333Y-81850667D01*
X173410000Y-81850667D01*
X173476667Y-81817333D01*
X173510000Y-81784000D01*
X173543333Y-81717333D01*
X173543333Y-81650667D01*
X173510000Y-81584000D01*
X173476667Y-81550667D01*
X173410000Y-81517333D01*
X173276667Y-81484000D01*
X173210000Y-81450667D01*
X173176667Y-81417333D01*
X173143333Y-81350667D01*
X173143333Y-81284000D01*
X173176667Y-81217333D01*
X173210000Y-81184000D01*
X173276667Y-81150667D01*
X173443333Y-81150667D01*
X173543333Y-81184000D01*
X173743334Y-81384000D02*
X174010000Y-81384000D01*
X173843334Y-81150667D02*
X173843334Y-81750667D01*
X173876667Y-81817333D01*
X173943334Y-81850667D01*
X174010000Y-81850667D01*
X174243334Y-81850667D02*
X174243334Y-81384000D01*
X174243334Y-81517333D02*
X174276667Y-81450667D01*
X174310000Y-81417333D01*
X174376667Y-81384000D01*
X174443334Y-81384000D01*
X175176666Y-81817333D02*
X175276666Y-81850667D01*
X175443333Y-81850667D01*
X175510000Y-81817333D01*
X175543333Y-81784000D01*
X175576666Y-81717333D01*
X175576666Y-81650667D01*
X175543333Y-81584000D01*
X175510000Y-81550667D01*
X175443333Y-81517333D01*
X175310000Y-81484000D01*
X175243333Y-81450667D01*
X175210000Y-81417333D01*
X175176666Y-81350667D01*
X175176666Y-81284000D01*
X175210000Y-81217333D01*
X175243333Y-81184000D01*
X175310000Y-81150667D01*
X175476666Y-81150667D01*
X175576666Y-81184000D01*
X176143333Y-81817333D02*
X176076667Y-81850667D01*
X175943333Y-81850667D01*
X175876667Y-81817333D01*
X175843333Y-81750667D01*
X175843333Y-81484000D01*
X175876667Y-81417333D01*
X175943333Y-81384000D01*
X176076667Y-81384000D01*
X176143333Y-81417333D01*
X176176667Y-81484000D01*
X176176667Y-81550667D01*
X175843333Y-81617333D01*
X176476667Y-81384000D02*
X176476667Y-81850667D01*
X176476667Y-81450667D02*
X176510000Y-81417333D01*
X176576667Y-81384000D01*
X176676667Y-81384000D01*
X176743333Y-81417333D01*
X176776667Y-81484000D01*
X176776667Y-81850667D01*
X177076666Y-81817333D02*
X177143333Y-81850667D01*
X177276666Y-81850667D01*
X177343333Y-81817333D01*
X177376666Y-81750667D01*
X177376666Y-81717333D01*
X177343333Y-81650667D01*
X177276666Y-81617333D01*
X177176666Y-81617333D01*
X177110000Y-81584000D01*
X177076666Y-81517333D01*
X177076666Y-81484000D01*
X177110000Y-81417333D01*
X177176666Y-81384000D01*
X177276666Y-81384000D01*
X177343333Y-81417333D01*
X173143333Y-91342333D02*
X173243333Y-91375667D01*
X173410000Y-91375667D01*
X173476667Y-91342333D01*
X173510000Y-91309000D01*
X173543333Y-91242333D01*
X173543333Y-91175667D01*
X173510000Y-91109000D01*
X173476667Y-91075667D01*
X173410000Y-91042333D01*
X173276667Y-91009000D01*
X173210000Y-90975667D01*
X173176667Y-90942333D01*
X173143333Y-90875667D01*
X173143333Y-90809000D01*
X173176667Y-90742333D01*
X173210000Y-90709000D01*
X173276667Y-90675667D01*
X173443333Y-90675667D01*
X173543333Y-90709000D01*
X173743334Y-90909000D02*
X174010000Y-90909000D01*
X173843334Y-90675667D02*
X173843334Y-91275667D01*
X173876667Y-91342333D01*
X173943334Y-91375667D01*
X174010000Y-91375667D01*
X174243334Y-91375667D02*
X174243334Y-90909000D01*
X174243334Y-91042333D02*
X174276667Y-90975667D01*
X174310000Y-90942333D01*
X174376667Y-90909000D01*
X174443334Y-90909000D01*
X175176666Y-91342333D02*
X175276666Y-91375667D01*
X175443333Y-91375667D01*
X175510000Y-91342333D01*
X175543333Y-91309000D01*
X175576666Y-91242333D01*
X175576666Y-91175667D01*
X175543333Y-91109000D01*
X175510000Y-91075667D01*
X175443333Y-91042333D01*
X175310000Y-91009000D01*
X175243333Y-90975667D01*
X175210000Y-90942333D01*
X175176666Y-90875667D01*
X175176666Y-90809000D01*
X175210000Y-90742333D01*
X175243333Y-90709000D01*
X175310000Y-90675667D01*
X175476666Y-90675667D01*
X175576666Y-90709000D01*
X176143333Y-91342333D02*
X176076667Y-91375667D01*
X175943333Y-91375667D01*
X175876667Y-91342333D01*
X175843333Y-91275667D01*
X175843333Y-91009000D01*
X175876667Y-90942333D01*
X175943333Y-90909000D01*
X176076667Y-90909000D01*
X176143333Y-90942333D01*
X176176667Y-91009000D01*
X176176667Y-91075667D01*
X175843333Y-91142333D01*
X176476667Y-90909000D02*
X176476667Y-91375667D01*
X176476667Y-90975667D02*
X176510000Y-90942333D01*
X176576667Y-90909000D01*
X176676667Y-90909000D01*
X176743333Y-90942333D01*
X176776667Y-91009000D01*
X176776667Y-91375667D01*
X177076666Y-91342333D02*
X177143333Y-91375667D01*
X177276666Y-91375667D01*
X177343333Y-91342333D01*
X177376666Y-91275667D01*
X177376666Y-91242333D01*
X177343333Y-91175667D01*
X177276666Y-91142333D01*
X177176666Y-91142333D01*
X177110000Y-91109000D01*
X177076666Y-91042333D01*
X177076666Y-91009000D01*
X177110000Y-90942333D01*
X177176666Y-90909000D01*
X177276666Y-90909000D01*
X177343333Y-90942333D01*
X160171667Y-55495000D02*
X160138333Y-55528333D01*
X160038333Y-55561667D01*
X159971667Y-55561667D01*
X159871667Y-55528333D01*
X159805000Y-55461667D01*
X159771667Y-55395000D01*
X159738333Y-55261667D01*
X159738333Y-55161667D01*
X159771667Y-55028333D01*
X159805000Y-54961667D01*
X159871667Y-54895000D01*
X159971667Y-54861667D01*
X160038333Y-54861667D01*
X160138333Y-54895000D01*
X160171667Y-54928333D01*
X160471667Y-55561667D02*
X160471667Y-54861667D01*
X160471667Y-55195000D02*
X160871667Y-55195000D01*
X160871667Y-55561667D02*
X160871667Y-54861667D01*
X161171666Y-54928333D02*
X161205000Y-54895000D01*
X161271666Y-54861667D01*
X161438333Y-54861667D01*
X161505000Y-54895000D01*
X161538333Y-54928333D01*
X161571666Y-54995000D01*
X161571666Y-55061667D01*
X161538333Y-55161667D01*
X161138333Y-55561667D01*
X161571666Y-55561667D01*
X162711667Y-55495000D02*
X162678333Y-55528333D01*
X162578333Y-55561667D01*
X162511667Y-55561667D01*
X162411667Y-55528333D01*
X162345000Y-55461667D01*
X162311667Y-55395000D01*
X162278333Y-55261667D01*
X162278333Y-55161667D01*
X162311667Y-55028333D01*
X162345000Y-54961667D01*
X162411667Y-54895000D01*
X162511667Y-54861667D01*
X162578333Y-54861667D01*
X162678333Y-54895000D01*
X162711667Y-54928333D01*
X163011667Y-55561667D02*
X163011667Y-54861667D01*
X163011667Y-55195000D02*
X163411667Y-55195000D01*
X163411667Y-55561667D02*
X163411667Y-54861667D01*
X164111666Y-55561667D02*
X163711666Y-55561667D01*
X163911666Y-55561667D02*
X163911666Y-54861667D01*
X163845000Y-54961667D01*
X163778333Y-55028333D01*
X163711666Y-55061667D01*
X165201667Y-54895000D02*
X165135001Y-54861667D01*
X165035001Y-54861667D01*
X164935001Y-54895000D01*
X164868334Y-54961667D01*
X164835001Y-55028333D01*
X164801667Y-55161667D01*
X164801667Y-55261667D01*
X164835001Y-55395000D01*
X164868334Y-55461667D01*
X164935001Y-55528333D01*
X165035001Y-55561667D01*
X165101667Y-55561667D01*
X165201667Y-55528333D01*
X165235001Y-55495000D01*
X165235001Y-55261667D01*
X165101667Y-55261667D01*
X165535001Y-55561667D02*
X165535001Y-54861667D01*
X165935001Y-55561667D01*
X165935001Y-54861667D01*
X166268334Y-55561667D02*
X166268334Y-54861667D01*
X166435000Y-54861667D01*
X166535000Y-54895000D01*
X166601667Y-54961667D01*
X166635000Y-55028333D01*
X166668334Y-55161667D01*
X166668334Y-55261667D01*
X166635000Y-55395000D01*
X166601667Y-55461667D01*
X166535000Y-55528333D01*
X166435000Y-55561667D01*
X166268334Y-55561667D01*
X167341667Y-54861667D02*
X167575000Y-55561667D01*
X167808333Y-54861667D01*
X168441667Y-55495000D02*
X168408333Y-55528333D01*
X168308333Y-55561667D01*
X168241667Y-55561667D01*
X168141667Y-55528333D01*
X168075000Y-55461667D01*
X168041667Y-55395000D01*
X168008333Y-55261667D01*
X168008333Y-55161667D01*
X168041667Y-55028333D01*
X168075000Y-54961667D01*
X168141667Y-54895000D01*
X168241667Y-54861667D01*
X168308333Y-54861667D01*
X168408333Y-54895000D01*
X168441667Y-54928333D01*
X169141667Y-55495000D02*
X169108333Y-55528333D01*
X169008333Y-55561667D01*
X168941667Y-55561667D01*
X168841667Y-55528333D01*
X168775000Y-55461667D01*
X168741667Y-55395000D01*
X168708333Y-55261667D01*
X168708333Y-55161667D01*
X168741667Y-55028333D01*
X168775000Y-54961667D01*
X168841667Y-54895000D01*
X168941667Y-54861667D01*
X169008333Y-54861667D01*
X169108333Y-54895000D01*
X169141667Y-54928333D01*
D11*
X143148095Y-64496905D02*
X143148095Y-63696905D01*
X143529047Y-63963571D02*
X143529047Y-64496905D01*
X143529047Y-64039762D02*
X143567142Y-64001667D01*
X143643333Y-63963571D01*
X143757619Y-63963571D01*
X143833809Y-64001667D01*
X143871904Y-64077857D01*
X143871904Y-64496905D01*
X139725477Y-63735000D02*
X139649286Y-63696905D01*
X139535001Y-63696905D01*
X139420715Y-63735000D01*
X139344524Y-63811190D01*
X139306429Y-63887381D01*
X139268334Y-64039762D01*
X139268334Y-64154048D01*
X139306429Y-64306429D01*
X139344524Y-64382619D01*
X139420715Y-64458810D01*
X139535001Y-64496905D01*
X139611191Y-64496905D01*
X139725477Y-64458810D01*
X139763572Y-64420714D01*
X139763572Y-64154048D01*
X139611191Y-64154048D01*
X140106429Y-64496905D02*
X140106429Y-63696905D01*
X140563572Y-64496905D01*
X140563572Y-63696905D01*
X140944524Y-64496905D02*
X140944524Y-63696905D01*
X141135000Y-63696905D01*
X141249286Y-63735000D01*
X141325477Y-63811190D01*
X141363572Y-63887381D01*
X141401667Y-64039762D01*
X141401667Y-64154048D01*
X141363572Y-64306429D01*
X141325477Y-64382619D01*
X141249286Y-64458810D01*
X141135000Y-64496905D01*
X140944524Y-64496905D01*
X136493333Y-63696905D02*
X136645714Y-63696905D01*
X136721905Y-63735000D01*
X136798095Y-63811190D01*
X136836190Y-63963571D01*
X136836190Y-64230238D01*
X136798095Y-64382619D01*
X136721905Y-64458810D01*
X136645714Y-64496905D01*
X136493333Y-64496905D01*
X136417143Y-64458810D01*
X136340952Y-64382619D01*
X136302857Y-64230238D01*
X136302857Y-63963571D01*
X136340952Y-63811190D01*
X136417143Y-63735000D01*
X136493333Y-63696905D01*
X137521904Y-63963571D02*
X137521904Y-64496905D01*
X137179047Y-63963571D02*
X137179047Y-64382619D01*
X137217142Y-64458810D01*
X137293333Y-64496905D01*
X137407619Y-64496905D01*
X137483809Y-64458810D01*
X137521904Y-64420714D01*
X137788571Y-63963571D02*
X138093333Y-63963571D01*
X137902857Y-63696905D02*
X137902857Y-64382619D01*
X137940952Y-64458810D01*
X138017143Y-64496905D01*
X138093333Y-64496905D01*
D12*
X149542619Y-58598571D02*
X151447381Y-58598571D01*
X150495000Y-59550952D02*
X150495000Y-57646190D01*
X135572619Y-58598571D02*
X137477381Y-58598571D01*
D13*
X162179000Y-108966000D02*
X162179000Y-106680000D01*
X162179000Y-106680000D02*
X171831000Y-106680000D01*
X171831000Y-106680000D02*
X171831000Y-108966000D01*
X160909000Y-93726000D02*
X173101000Y-93726000D01*
X173101000Y-108966000D02*
X173101000Y-93726000D01*
X160909000Y-108966000D02*
X160909000Y-93726000D01*
X173101000Y-108966000D02*
X160909000Y-108966000D01*
D11*
X172325000Y-71515000D02*
X172325000Y-62915000D01*
X176925000Y-71515000D02*
X176925000Y-69315000D01*
X176925000Y-65215000D02*
X176925000Y-62915000D01*
D14*
X137414000Y-71120000D02*
X137414000Y-91440000D01*
X143256000Y-91440000D02*
X143256000Y-71120000D01*
X137414000Y-71120000D02*
X143256000Y-71120000D01*
X137414000Y-91440000D02*
X139319000Y-91440000D01*
X143256000Y-91440000D02*
X141351000Y-91440000D01*
X139319000Y-91440000D02*
G75*
G02X141351000Y-91440000I1016000J0D01*
G01*
D13*
X140589000Y-108966000D02*
X140589000Y-106680000D01*
X140589000Y-106680000D02*
X150241000Y-106680000D01*
X150241000Y-106680000D02*
X150241000Y-108966000D01*
X139319000Y-93726000D02*
X151511000Y-93726000D01*
X151511000Y-108966000D02*
X151511000Y-93726000D01*
X139319000Y-108966000D02*
X139319000Y-93726000D01*
X151511000Y-108966000D02*
X139319000Y-108966000D01*
D15*
X146810000Y-81440000D02*
X150330000Y-81440000D01*
X146810000Y-83660000D02*
X150330000Y-83660000D01*
X146810000Y-81440000D02*
X146810000Y-81554000D01*
X146810000Y-83546000D02*
X146810000Y-83660000D01*
X150330000Y-81440000D02*
X150330000Y-81554000D01*
X150330000Y-83546000D02*
X150330000Y-83660000D01*
X150404723Y-68325722D02*
G75*
G03X150405000Y-63714420I-1179723J2305722D01*
G01*
X148045277Y-68325722D02*
G75*
G02X148045000Y-63714420I1179723J2305722D01*
G01*
X148045277Y-68325722D02*
G75*
G03X150405000Y-68325580I1179723J2305722D01*
G01*
X151775000Y-66020000D02*
X146675000Y-66020000D01*
X151775000Y-66060000D02*
X146675000Y-66060000D01*
X151774000Y-66100000D02*
X146676000Y-66100000D01*
X151773000Y-66140000D02*
X146677000Y-66140000D01*
X151771000Y-66180000D02*
X146679000Y-66180000D01*
X151768000Y-66220000D02*
X146682000Y-66220000D01*
X151764000Y-66260000D02*
X146686000Y-66260000D01*
X151760000Y-66300000D02*
X150205000Y-66300000D01*
X148245000Y-66300000D02*
X146690000Y-66300000D01*
X151756000Y-66340000D02*
X150205000Y-66340000D01*
X148245000Y-66340000D02*
X146694000Y-66340000D01*
X151750000Y-66380000D02*
X150205000Y-66380000D01*
X148245000Y-66380000D02*
X146700000Y-66380000D01*
X151744000Y-66420000D02*
X150205000Y-66420000D01*
X148245000Y-66420000D02*
X146706000Y-66420000D01*
X151738000Y-66460000D02*
X150205000Y-66460000D01*
X148245000Y-66460000D02*
X146712000Y-66460000D01*
X151731000Y-66500000D02*
X150205000Y-66500000D01*
X148245000Y-66500000D02*
X146719000Y-66500000D01*
X151723000Y-66540000D02*
X150205000Y-66540000D01*
X148245000Y-66540000D02*
X146727000Y-66540000D01*
X151714000Y-66580000D02*
X150205000Y-66580000D01*
X148245000Y-66580000D02*
X146736000Y-66580000D01*
X151705000Y-66620000D02*
X150205000Y-66620000D01*
X148245000Y-66620000D02*
X146745000Y-66620000D01*
X151695000Y-66660000D02*
X150205000Y-66660000D01*
X148245000Y-66660000D02*
X146755000Y-66660000D01*
X151685000Y-66700000D02*
X150205000Y-66700000D01*
X148245000Y-66700000D02*
X146765000Y-66700000D01*
X151673000Y-66741000D02*
X150205000Y-66741000D01*
X148245000Y-66741000D02*
X146777000Y-66741000D01*
X151661000Y-66781000D02*
X150205000Y-66781000D01*
X148245000Y-66781000D02*
X146789000Y-66781000D01*
X151649000Y-66821000D02*
X150205000Y-66821000D01*
X148245000Y-66821000D02*
X146801000Y-66821000D01*
X151635000Y-66861000D02*
X150205000Y-66861000D01*
X148245000Y-66861000D02*
X146815000Y-66861000D01*
X151621000Y-66901000D02*
X150205000Y-66901000D01*
X148245000Y-66901000D02*
X146829000Y-66901000D01*
X151607000Y-66941000D02*
X150205000Y-66941000D01*
X148245000Y-66941000D02*
X146843000Y-66941000D01*
X151591000Y-66981000D02*
X150205000Y-66981000D01*
X148245000Y-66981000D02*
X146859000Y-66981000D01*
X151575000Y-67021000D02*
X150205000Y-67021000D01*
X148245000Y-67021000D02*
X146875000Y-67021000D01*
X151558000Y-67061000D02*
X150205000Y-67061000D01*
X148245000Y-67061000D02*
X146892000Y-67061000D01*
X151540000Y-67101000D02*
X150205000Y-67101000D01*
X148245000Y-67101000D02*
X146910000Y-67101000D01*
X151521000Y-67141000D02*
X150205000Y-67141000D01*
X148245000Y-67141000D02*
X146929000Y-67141000D01*
X151501000Y-67181000D02*
X150205000Y-67181000D01*
X148245000Y-67181000D02*
X146949000Y-67181000D01*
X151481000Y-67221000D02*
X150205000Y-67221000D01*
X148245000Y-67221000D02*
X146969000Y-67221000D01*
X151459000Y-67261000D02*
X150205000Y-67261000D01*
X148245000Y-67261000D02*
X146991000Y-67261000D01*
X151437000Y-67301000D02*
X150205000Y-67301000D01*
X148245000Y-67301000D02*
X147013000Y-67301000D01*
X151414000Y-67341000D02*
X150205000Y-67341000D01*
X148245000Y-67341000D02*
X147036000Y-67341000D01*
X151390000Y-67381000D02*
X150205000Y-67381000D01*
X148245000Y-67381000D02*
X147060000Y-67381000D01*
X151365000Y-67421000D02*
X150205000Y-67421000D01*
X148245000Y-67421000D02*
X147085000Y-67421000D01*
X151338000Y-67461000D02*
X150205000Y-67461000D01*
X148245000Y-67461000D02*
X147112000Y-67461000D01*
X151311000Y-67501000D02*
X150205000Y-67501000D01*
X148245000Y-67501000D02*
X147139000Y-67501000D01*
X151283000Y-67541000D02*
X150205000Y-67541000D01*
X148245000Y-67541000D02*
X147167000Y-67541000D01*
X151253000Y-67581000D02*
X150205000Y-67581000D01*
X148245000Y-67581000D02*
X147197000Y-67581000D01*
X151222000Y-67621000D02*
X150205000Y-67621000D01*
X148245000Y-67621000D02*
X147228000Y-67621000D01*
X151190000Y-67661000D02*
X150205000Y-67661000D01*
X148245000Y-67661000D02*
X147260000Y-67661000D01*
X151157000Y-67701000D02*
X150205000Y-67701000D01*
X148245000Y-67701000D02*
X147293000Y-67701000D01*
X151122000Y-67741000D02*
X150205000Y-67741000D01*
X148245000Y-67741000D02*
X147328000Y-67741000D01*
X151086000Y-67781000D02*
X150205000Y-67781000D01*
X148245000Y-67781000D02*
X147364000Y-67781000D01*
X151048000Y-67821000D02*
X150205000Y-67821000D01*
X148245000Y-67821000D02*
X147402000Y-67821000D01*
X151008000Y-67861000D02*
X150205000Y-67861000D01*
X148245000Y-67861000D02*
X147442000Y-67861000D01*
X150967000Y-67901000D02*
X150205000Y-67901000D01*
X148245000Y-67901000D02*
X147483000Y-67901000D01*
X150924000Y-67941000D02*
X150205000Y-67941000D01*
X148245000Y-67941000D02*
X147526000Y-67941000D01*
X150879000Y-67981000D02*
X150205000Y-67981000D01*
X148245000Y-67981000D02*
X147571000Y-67981000D01*
X150831000Y-68021000D02*
X150205000Y-68021000D01*
X148245000Y-68021000D02*
X147619000Y-68021000D01*
X150781000Y-68061000D02*
X150205000Y-68061000D01*
X148245000Y-68061000D02*
X147669000Y-68061000D01*
X150729000Y-68101000D02*
X150205000Y-68101000D01*
X148245000Y-68101000D02*
X147721000Y-68101000D01*
X150673000Y-68141000D02*
X150205000Y-68141000D01*
X148245000Y-68141000D02*
X147777000Y-68141000D01*
X150615000Y-68181000D02*
X150205000Y-68181000D01*
X148245000Y-68181000D02*
X147835000Y-68181000D01*
X150552000Y-68221000D02*
X150205000Y-68221000D01*
X148245000Y-68221000D02*
X147898000Y-68221000D01*
X150486000Y-68261000D02*
X147964000Y-68261000D01*
X150414000Y-68301000D02*
X148036000Y-68301000D01*
X150337000Y-68341000D02*
X148113000Y-68341000D01*
X150253000Y-68381000D02*
X148197000Y-68381000D01*
X150159000Y-68421000D02*
X148291000Y-68421000D01*
X150054000Y-68461000D02*
X148396000Y-68461000D01*
X149932000Y-68501000D02*
X148518000Y-68501000D01*
X149784000Y-68541000D02*
X148666000Y-68541000D01*
X149579000Y-68581000D02*
X148871000Y-68581000D01*
X149225000Y-62570000D02*
X149225000Y-63770000D01*
X149875000Y-63170000D02*
X148575000Y-63170000D01*
X151510722Y-87720277D02*
G75*
G03X146899420Y-87720000I-2305722J-1179723D01*
G01*
X151510722Y-90079723D02*
G75*
G02X146899420Y-90080000I-2305722J1179723D01*
G01*
X151510722Y-90079723D02*
G75*
G03X151510580Y-87720000I-2305722J1179723D01*
G01*
X149205000Y-86350000D02*
X149205000Y-91450000D01*
X149245000Y-86350000D02*
X149245000Y-91450000D01*
X149285000Y-86351000D02*
X149285000Y-91449000D01*
X149325000Y-86352000D02*
X149325000Y-91448000D01*
X149365000Y-86354000D02*
X149365000Y-91446000D01*
X149405000Y-86357000D02*
X149405000Y-91443000D01*
X149445000Y-86361000D02*
X149445000Y-91439000D01*
X149485000Y-86365000D02*
X149485000Y-87920000D01*
X149485000Y-89880000D02*
X149485000Y-91435000D01*
X149525000Y-86369000D02*
X149525000Y-87920000D01*
X149525000Y-89880000D02*
X149525000Y-91431000D01*
X149565000Y-86375000D02*
X149565000Y-87920000D01*
X149565000Y-89880000D02*
X149565000Y-91425000D01*
X149605000Y-86381000D02*
X149605000Y-87920000D01*
X149605000Y-89880000D02*
X149605000Y-91419000D01*
X149645000Y-86387000D02*
X149645000Y-87920000D01*
X149645000Y-89880000D02*
X149645000Y-91413000D01*
X149685000Y-86394000D02*
X149685000Y-87920000D01*
X149685000Y-89880000D02*
X149685000Y-91406000D01*
X149725000Y-86402000D02*
X149725000Y-87920000D01*
X149725000Y-89880000D02*
X149725000Y-91398000D01*
X149765000Y-86411000D02*
X149765000Y-87920000D01*
X149765000Y-89880000D02*
X149765000Y-91389000D01*
X149805000Y-86420000D02*
X149805000Y-87920000D01*
X149805000Y-89880000D02*
X149805000Y-91380000D01*
X149845000Y-86430000D02*
X149845000Y-87920000D01*
X149845000Y-89880000D02*
X149845000Y-91370000D01*
X149885000Y-86440000D02*
X149885000Y-87920000D01*
X149885000Y-89880000D02*
X149885000Y-91360000D01*
X149926000Y-86452000D02*
X149926000Y-87920000D01*
X149926000Y-89880000D02*
X149926000Y-91348000D01*
X149966000Y-86464000D02*
X149966000Y-87920000D01*
X149966000Y-89880000D02*
X149966000Y-91336000D01*
X150006000Y-86476000D02*
X150006000Y-87920000D01*
X150006000Y-89880000D02*
X150006000Y-91324000D01*
X150046000Y-86490000D02*
X150046000Y-87920000D01*
X150046000Y-89880000D02*
X150046000Y-91310000D01*
X150086000Y-86504000D02*
X150086000Y-87920000D01*
X150086000Y-89880000D02*
X150086000Y-91296000D01*
X150126000Y-86518000D02*
X150126000Y-87920000D01*
X150126000Y-89880000D02*
X150126000Y-91282000D01*
X150166000Y-86534000D02*
X150166000Y-87920000D01*
X150166000Y-89880000D02*
X150166000Y-91266000D01*
X150206000Y-86550000D02*
X150206000Y-87920000D01*
X150206000Y-89880000D02*
X150206000Y-91250000D01*
X150246000Y-86567000D02*
X150246000Y-87920000D01*
X150246000Y-89880000D02*
X150246000Y-91233000D01*
X150286000Y-86585000D02*
X150286000Y-87920000D01*
X150286000Y-89880000D02*
X150286000Y-91215000D01*
X150326000Y-86604000D02*
X150326000Y-87920000D01*
X150326000Y-89880000D02*
X150326000Y-91196000D01*
X150366000Y-86624000D02*
X150366000Y-87920000D01*
X150366000Y-89880000D02*
X150366000Y-91176000D01*
X150406000Y-86644000D02*
X150406000Y-87920000D01*
X150406000Y-89880000D02*
X150406000Y-91156000D01*
X150446000Y-86666000D02*
X150446000Y-87920000D01*
X150446000Y-89880000D02*
X150446000Y-91134000D01*
X150486000Y-86688000D02*
X150486000Y-87920000D01*
X150486000Y-89880000D02*
X150486000Y-91112000D01*
X150526000Y-86711000D02*
X150526000Y-87920000D01*
X150526000Y-89880000D02*
X150526000Y-91089000D01*
X150566000Y-86735000D02*
X150566000Y-87920000D01*
X150566000Y-89880000D02*
X150566000Y-91065000D01*
X150606000Y-86760000D02*
X150606000Y-87920000D01*
X150606000Y-89880000D02*
X150606000Y-91040000D01*
X150646000Y-86787000D02*
X150646000Y-87920000D01*
X150646000Y-89880000D02*
X150646000Y-91013000D01*
X150686000Y-86814000D02*
X150686000Y-87920000D01*
X150686000Y-89880000D02*
X150686000Y-90986000D01*
X150726000Y-86842000D02*
X150726000Y-87920000D01*
X150726000Y-89880000D02*
X150726000Y-90958000D01*
X150766000Y-86872000D02*
X150766000Y-87920000D01*
X150766000Y-89880000D02*
X150766000Y-90928000D01*
X150806000Y-86903000D02*
X150806000Y-87920000D01*
X150806000Y-89880000D02*
X150806000Y-90897000D01*
X150846000Y-86935000D02*
X150846000Y-87920000D01*
X150846000Y-89880000D02*
X150846000Y-90865000D01*
X150886000Y-86968000D02*
X150886000Y-87920000D01*
X150886000Y-89880000D02*
X150886000Y-90832000D01*
X150926000Y-87003000D02*
X150926000Y-87920000D01*
X150926000Y-89880000D02*
X150926000Y-90797000D01*
X150966000Y-87039000D02*
X150966000Y-87920000D01*
X150966000Y-89880000D02*
X150966000Y-90761000D01*
X151006000Y-87077000D02*
X151006000Y-87920000D01*
X151006000Y-89880000D02*
X151006000Y-90723000D01*
X151046000Y-87117000D02*
X151046000Y-87920000D01*
X151046000Y-89880000D02*
X151046000Y-90683000D01*
X151086000Y-87158000D02*
X151086000Y-87920000D01*
X151086000Y-89880000D02*
X151086000Y-90642000D01*
X151126000Y-87201000D02*
X151126000Y-87920000D01*
X151126000Y-89880000D02*
X151126000Y-90599000D01*
X151166000Y-87246000D02*
X151166000Y-87920000D01*
X151166000Y-89880000D02*
X151166000Y-90554000D01*
X151206000Y-87294000D02*
X151206000Y-87920000D01*
X151206000Y-89880000D02*
X151206000Y-90506000D01*
X151246000Y-87344000D02*
X151246000Y-87920000D01*
X151246000Y-89880000D02*
X151246000Y-90456000D01*
X151286000Y-87396000D02*
X151286000Y-87920000D01*
X151286000Y-89880000D02*
X151286000Y-90404000D01*
X151326000Y-87452000D02*
X151326000Y-87920000D01*
X151326000Y-89880000D02*
X151326000Y-90348000D01*
X151366000Y-87510000D02*
X151366000Y-87920000D01*
X151366000Y-89880000D02*
X151366000Y-90290000D01*
X151406000Y-87573000D02*
X151406000Y-87920000D01*
X151406000Y-89880000D02*
X151406000Y-90227000D01*
X151446000Y-87639000D02*
X151446000Y-90161000D01*
X151486000Y-87711000D02*
X151486000Y-90089000D01*
X151526000Y-87788000D02*
X151526000Y-90012000D01*
X151566000Y-87872000D02*
X151566000Y-89928000D01*
X151606000Y-87966000D02*
X151606000Y-89834000D01*
X151646000Y-88071000D02*
X151646000Y-89729000D01*
X151686000Y-88193000D02*
X151686000Y-89607000D01*
X151726000Y-88341000D02*
X151726000Y-89459000D01*
X151766000Y-88546000D02*
X151766000Y-89254000D01*
X145755000Y-88900000D02*
X146955000Y-88900000D01*
X146355000Y-88250000D02*
X146355000Y-89550000D01*
X151990000Y-73705000D02*
X150270000Y-73705000D01*
X150270000Y-73705000D02*
X150270000Y-77425000D01*
X150270000Y-77425000D02*
X151990000Y-77425000D01*
X151990000Y-77425000D02*
X151990000Y-73705000D01*
X151130000Y-72635000D02*
X151130000Y-73705000D01*
X151130000Y-78495000D02*
X151130000Y-77425000D01*
X148180000Y-73705000D02*
X146460000Y-73705000D01*
X146460000Y-73705000D02*
X146460000Y-77425000D01*
X146460000Y-77425000D02*
X148180000Y-77425000D01*
X148180000Y-77425000D02*
X148180000Y-73705000D01*
X147320000Y-72635000D02*
X147320000Y-73705000D01*
X147320000Y-78495000D02*
X147320000Y-77425000D01*
D11*
X135509000Y-68326000D02*
X135509000Y-64897000D01*
X145161000Y-68326000D02*
X145161000Y-64897000D01*
X135001000Y-69469000D02*
X145669000Y-69469000D01*
X138557000Y-68453000D02*
X138557000Y-69723000D01*
X142113000Y-68453000D02*
X142113000Y-69723000D01*
X145669000Y-68326000D02*
X135001000Y-68326000D01*
X135001000Y-64897000D02*
X145669000Y-64897000D01*
X145669000Y-69723000D02*
X145669000Y-64897000D01*
X135001000Y-69723000D02*
X135001000Y-64897000D01*
X135001000Y-69723000D02*
X145669000Y-69723000D01*
D15*
X138430000Y-55880000D02*
X148590000Y-55880000D01*
X138430000Y-54610000D02*
X138430000Y-62230000D01*
X138430000Y-62230000D02*
X148590000Y-62230000D01*
X148590000Y-62230000D02*
X148590000Y-54610000D01*
X148590000Y-54610000D02*
X138430000Y-54610000D01*
X176200000Y-77430000D02*
G75*
G03X176200000Y-77430000I-900000J0D01*
G01*
X176927000Y-80640000D02*
X172090000Y-80640000D01*
X176927000Y-74220000D02*
X172090000Y-74220000D01*
X178510000Y-79172000D02*
X178510000Y-75687000D01*
X172090000Y-80640000D02*
X172090000Y-78187000D01*
X172090000Y-76672000D02*
X172090000Y-74220000D01*
X176200000Y-86955000D02*
G75*
G03X176200000Y-86955000I-900000J0D01*
G01*
X176927000Y-90165000D02*
X172090000Y-90165000D01*
X176927000Y-83745000D02*
X172090000Y-83745000D01*
X178510000Y-88697000D02*
X178510000Y-85212000D01*
X172090000Y-90165000D02*
X172090000Y-87712000D01*
X172090000Y-86197000D02*
X172090000Y-83745000D01*
X159325000Y-56455000D02*
X159325000Y-59115000D01*
X167005000Y-56455000D02*
X159325000Y-56455000D01*
X167005000Y-59115000D02*
X159325000Y-59115000D01*
X167005000Y-56455000D02*
X167005000Y-59115000D01*
X168275000Y-56455000D02*
X169605000Y-56455000D01*
X169605000Y-56455000D02*
X169605000Y-57785000D01*
D11*
X159512143Y-89848571D02*
X159512143Y-90848571D01*
X158869286Y-89848571D02*
X158869286Y-90634286D01*
X158940714Y-90777143D01*
X159083572Y-90848571D01*
X159297857Y-90848571D01*
X159440714Y-90777143D01*
X159512143Y-90705714D01*
X160226429Y-90848571D02*
X160226429Y-89348571D01*
X160797857Y-89348571D01*
X160940715Y-89420000D01*
X161012143Y-89491429D01*
X161083572Y-89634286D01*
X161083572Y-89848571D01*
X161012143Y-89991429D01*
X160940715Y-90062857D01*
X160797857Y-90134286D01*
X160226429Y-90134286D01*
X162512143Y-90848571D02*
X161655000Y-90848571D01*
X162083572Y-90848571D02*
X162083572Y-89348571D01*
X161940715Y-89562857D01*
X161797857Y-89705714D01*
X161655000Y-89777143D01*
X160905000Y-85128572D02*
X160905000Y-84414286D01*
X161333571Y-85271429D02*
X159833571Y-84771429D01*
X161333571Y-84271429D01*
X161333571Y-82914286D02*
X160619286Y-83414286D01*
X161333571Y-83771429D02*
X159833571Y-83771429D01*
X159833571Y-83200001D01*
X159905000Y-83057143D01*
X159976429Y-82985715D01*
X160119286Y-82914286D01*
X160333571Y-82914286D01*
X160476429Y-82985715D01*
X160547857Y-83057143D01*
X160619286Y-83200001D01*
X160619286Y-83771429D01*
X161333571Y-82271429D02*
X159833571Y-82271429D01*
X159833571Y-81914286D01*
X159905000Y-81700001D01*
X160047857Y-81557143D01*
X160190714Y-81485715D01*
X160476429Y-81414286D01*
X160690714Y-81414286D01*
X160976429Y-81485715D01*
X161119286Y-81557143D01*
X161262143Y-81700001D01*
X161333571Y-81914286D01*
X161333571Y-82271429D01*
X159833571Y-80771429D02*
X161047857Y-80771429D01*
X161190714Y-80700001D01*
X161262143Y-80628572D01*
X161333571Y-80485715D01*
X161333571Y-80200001D01*
X161262143Y-80057143D01*
X161190714Y-79985715D01*
X161047857Y-79914286D01*
X159833571Y-79914286D01*
X161333571Y-79200000D02*
X159833571Y-79200000D01*
X159833571Y-78628572D01*
X159905000Y-78485714D01*
X159976429Y-78414286D01*
X160119286Y-78342857D01*
X160333571Y-78342857D01*
X160476429Y-78414286D01*
X160547857Y-78485714D01*
X160619286Y-78628572D01*
X160619286Y-79200000D01*
X161333571Y-76842857D02*
X160619286Y-77342857D01*
X161333571Y-77700000D02*
X159833571Y-77700000D01*
X159833571Y-77128572D01*
X159905000Y-76985714D01*
X159976429Y-76914286D01*
X160119286Y-76842857D01*
X160333571Y-76842857D01*
X160476429Y-76914286D01*
X160547857Y-76985714D01*
X160619286Y-77128572D01*
X160619286Y-77700000D01*
X159833571Y-75914286D02*
X159833571Y-75628572D01*
X159905000Y-75485714D01*
X160047857Y-75342857D01*
X160333571Y-75271429D01*
X160833571Y-75271429D01*
X161119286Y-75342857D01*
X161262143Y-75485714D01*
X161333571Y-75628572D01*
X161333571Y-75914286D01*
X161262143Y-76057143D01*
X161119286Y-76200000D01*
X160833571Y-76271429D01*
X160333571Y-76271429D01*
X160047857Y-76200000D01*
X159905000Y-76057143D01*
X159833571Y-75914286D01*
X161333571Y-74628571D02*
X159833571Y-74628571D01*
X160905000Y-74128571D01*
X159833571Y-73628571D01*
X161333571Y-73628571D01*
X161333571Y-72914285D02*
X159833571Y-72914285D01*
X161333571Y-72199999D02*
X159833571Y-72199999D01*
X161333571Y-71342856D01*
X159833571Y-71342856D01*
X161333571Y-70628570D02*
X159833571Y-70628570D01*
X160762143Y-69914284D02*
X160762143Y-68771427D01*
X159833571Y-67414284D02*
X159833571Y-67699998D01*
X159905000Y-67842855D01*
X159976429Y-67914284D01*
X160190714Y-68057141D01*
X160476429Y-68128570D01*
X161047857Y-68128570D01*
X161190714Y-68057141D01*
X161262143Y-67985713D01*
X161333571Y-67842855D01*
X161333571Y-67557141D01*
X161262143Y-67414284D01*
X161190714Y-67342855D01*
X161047857Y-67271427D01*
X160690714Y-67271427D01*
X160547857Y-67342855D01*
X160476429Y-67414284D01*
X160405000Y-67557141D01*
X160405000Y-67842855D01*
X160476429Y-67985713D01*
X160547857Y-68057141D01*
X160690714Y-68128570D01*
D13*
X162916810Y-108155619D02*
X162916810Y-107139619D01*
X163497381Y-108155619D01*
X163497381Y-107139619D01*
X163884429Y-107139619D02*
X164561762Y-108155619D01*
X164561762Y-107139619D02*
X163884429Y-108155619D01*
X164803667Y-107139619D02*
X165384238Y-107139619D01*
X165093953Y-108155619D02*
X165093953Y-107139619D01*
X165481000Y-108252381D02*
X166255095Y-108252381D01*
X166497000Y-108155619D02*
X166497000Y-107139619D01*
X166835666Y-107865333D01*
X167174333Y-107139619D01*
X167174333Y-108155619D01*
X167851667Y-107139619D02*
X168045190Y-107139619D01*
X168141952Y-107188000D01*
X168238714Y-107284762D01*
X168287095Y-107478286D01*
X168287095Y-107816952D01*
X168238714Y-108010476D01*
X168141952Y-108107238D01*
X168045190Y-108155619D01*
X167851667Y-108155619D01*
X167754905Y-108107238D01*
X167658143Y-108010476D01*
X167609762Y-107816952D01*
X167609762Y-107478286D01*
X167658143Y-107284762D01*
X167754905Y-107188000D01*
X167851667Y-107139619D01*
X168577381Y-107139619D02*
X169157952Y-107139619D01*
X168867667Y-108155619D02*
X168867667Y-107139619D01*
X169690143Y-107139619D02*
X169883666Y-107139619D01*
X169980428Y-107188000D01*
X170077190Y-107284762D01*
X170125571Y-107478286D01*
X170125571Y-107816952D01*
X170077190Y-108010476D01*
X169980428Y-108107238D01*
X169883666Y-108155619D01*
X169690143Y-108155619D01*
X169593381Y-108107238D01*
X169496619Y-108010476D01*
X169448238Y-107816952D01*
X169448238Y-107478286D01*
X169496619Y-107284762D01*
X169593381Y-107188000D01*
X169690143Y-107139619D01*
X171141571Y-108155619D02*
X170802905Y-107671810D01*
X170561000Y-108155619D02*
X170561000Y-107139619D01*
X170948047Y-107139619D01*
X171044809Y-107188000D01*
X171093190Y-107236381D01*
X171141571Y-107333143D01*
X171141571Y-107478286D01*
X171093190Y-107575048D01*
X171044809Y-107623429D01*
X170948047Y-107671810D01*
X170561000Y-107671810D01*
D11*
X171429762Y-69148333D02*
X171477381Y-69005476D01*
X171477381Y-68767380D01*
X171429762Y-68672142D01*
X171382143Y-68624523D01*
X171286905Y-68576904D01*
X171191667Y-68576904D01*
X171096429Y-68624523D01*
X171048810Y-68672142D01*
X171001190Y-68767380D01*
X170953571Y-68957857D01*
X170905952Y-69053095D01*
X170858333Y-69100714D01*
X170763095Y-69148333D01*
X170667857Y-69148333D01*
X170572619Y-69100714D01*
X170525000Y-69053095D01*
X170477381Y-68957857D01*
X170477381Y-68719761D01*
X170525000Y-68576904D01*
X170477381Y-68243571D02*
X171477381Y-68005476D01*
X170763095Y-67814999D01*
X171477381Y-67624523D01*
X170477381Y-67386428D01*
X171477381Y-66481666D02*
X171477381Y-67053095D01*
X171477381Y-66767381D02*
X170477381Y-66767381D01*
X170620238Y-66862619D01*
X170715476Y-66957857D01*
X170763095Y-67053095D01*
D16*
X139739139Y-92921592D02*
X139739139Y-91920462D01*
X140787943Y-92826246D02*
X140740270Y-92873919D01*
X140597251Y-92921592D01*
X140501905Y-92921592D01*
X140358887Y-92873919D01*
X140263541Y-92778574D01*
X140215868Y-92683228D01*
X140168195Y-92492536D01*
X140168195Y-92349518D01*
X140215868Y-92158826D01*
X140263541Y-92063481D01*
X140358887Y-91968135D01*
X140501905Y-91920462D01*
X140597251Y-91920462D01*
X140740270Y-91968135D01*
X140787943Y-92015808D01*
X141741400Y-92921592D02*
X141169325Y-92921592D01*
X141455363Y-92921592D02*
X141455363Y-91920462D01*
X141360017Y-92063481D01*
X141264671Y-92158826D01*
X141169325Y-92206499D01*
X140788086Y-87226284D02*
X140788086Y-87703217D01*
X139786526Y-87703217D01*
X139881912Y-86940124D02*
X139834219Y-86892430D01*
X139786526Y-86797044D01*
X139786526Y-86558577D01*
X139834219Y-86463190D01*
X139881912Y-86415497D01*
X139977299Y-86367804D01*
X140072686Y-86367804D01*
X140215766Y-86415497D01*
X140788086Y-86987817D01*
X140788086Y-86367804D01*
X140788086Y-85890870D02*
X140788086Y-85700097D01*
X140740392Y-85604710D01*
X140692699Y-85557017D01*
X140549619Y-85461630D01*
X140358846Y-85413937D01*
X139977299Y-85413937D01*
X139881912Y-85461630D01*
X139834219Y-85509323D01*
X139786526Y-85604710D01*
X139786526Y-85795483D01*
X139834219Y-85890870D01*
X139881912Y-85938563D01*
X139977299Y-85986257D01*
X140215766Y-85986257D01*
X140311152Y-85938563D01*
X140358846Y-85890870D01*
X140406539Y-85795483D01*
X140406539Y-85604710D01*
X140358846Y-85509323D01*
X140311152Y-85461630D01*
X140215766Y-85413937D01*
X139786526Y-85080083D02*
X139786526Y-84460070D01*
X140168072Y-84793923D01*
X140168072Y-84650843D01*
X140215766Y-84555456D01*
X140263459Y-84507763D01*
X140358846Y-84460070D01*
X140597312Y-84460070D01*
X140692699Y-84507763D01*
X140740392Y-84555456D01*
X140788086Y-84650843D01*
X140788086Y-84937003D01*
X140740392Y-85032390D01*
X140692699Y-85080083D01*
X140788086Y-84030829D02*
X139786526Y-84030829D01*
X139786526Y-83792363D01*
X139834219Y-83649283D01*
X139929606Y-83553896D01*
X140024992Y-83506203D01*
X140215766Y-83458509D01*
X140358846Y-83458509D01*
X140549619Y-83506203D01*
X140645006Y-83553896D01*
X140740392Y-83649283D01*
X140788086Y-83792363D01*
X140788086Y-84030829D01*
D13*
X141326810Y-108155619D02*
X141326810Y-107139619D01*
X141907381Y-108155619D01*
X141907381Y-107139619D01*
X142294429Y-107139619D02*
X142971762Y-108155619D01*
X142971762Y-107139619D02*
X142294429Y-108155619D01*
X143213667Y-107139619D02*
X143794238Y-107139619D01*
X143503953Y-108155619D02*
X143503953Y-107139619D01*
X143891000Y-108252381D02*
X144665095Y-108252381D01*
X144907000Y-108155619D02*
X144907000Y-107139619D01*
X145245666Y-107865333D01*
X145584333Y-107139619D01*
X145584333Y-108155619D01*
X146261667Y-107139619D02*
X146455190Y-107139619D01*
X146551952Y-107188000D01*
X146648714Y-107284762D01*
X146697095Y-107478286D01*
X146697095Y-107816952D01*
X146648714Y-108010476D01*
X146551952Y-108107238D01*
X146455190Y-108155619D01*
X146261667Y-108155619D01*
X146164905Y-108107238D01*
X146068143Y-108010476D01*
X146019762Y-107816952D01*
X146019762Y-107478286D01*
X146068143Y-107284762D01*
X146164905Y-107188000D01*
X146261667Y-107139619D01*
X146987381Y-107139619D02*
X147567952Y-107139619D01*
X147277667Y-108155619D02*
X147277667Y-107139619D01*
X148100143Y-107139619D02*
X148293666Y-107139619D01*
X148390428Y-107188000D01*
X148487190Y-107284762D01*
X148535571Y-107478286D01*
X148535571Y-107816952D01*
X148487190Y-108010476D01*
X148390428Y-108107238D01*
X148293666Y-108155619D01*
X148100143Y-108155619D01*
X148003381Y-108107238D01*
X147906619Y-108010476D01*
X147858238Y-107816952D01*
X147858238Y-107478286D01*
X147906619Y-107284762D01*
X148003381Y-107188000D01*
X148100143Y-107139619D01*
X149551571Y-108155619D02*
X149212905Y-107671810D01*
X148971000Y-108155619D02*
X148971000Y-107139619D01*
X149358047Y-107139619D01*
X149454809Y-107188000D01*
X149503190Y-107236381D01*
X149551571Y-107333143D01*
X149551571Y-107478286D01*
X149503190Y-107575048D01*
X149454809Y-107623429D01*
X149358047Y-107671810D01*
X148971000Y-107671810D01*
D11*
X148403334Y-80547143D02*
X148355715Y-80594762D01*
X148212858Y-80642381D01*
X148117620Y-80642381D01*
X147974762Y-80594762D01*
X147879524Y-80499524D01*
X147831905Y-80404286D01*
X147784286Y-80213810D01*
X147784286Y-80070952D01*
X147831905Y-79880476D01*
X147879524Y-79785238D01*
X147974762Y-79690000D01*
X148117620Y-79642381D01*
X148212858Y-79642381D01*
X148355715Y-79690000D01*
X148403334Y-79737619D01*
X148736667Y-79642381D02*
X149355715Y-79642381D01*
X149022381Y-80023333D01*
X149165239Y-80023333D01*
X149260477Y-80070952D01*
X149308096Y-80118571D01*
X149355715Y-80213810D01*
X149355715Y-80451905D01*
X149308096Y-80547143D01*
X149260477Y-80594762D01*
X149165239Y-80642381D01*
X148879524Y-80642381D01*
X148784286Y-80594762D01*
X148736667Y-80547143D01*
X153392143Y-66186666D02*
X153439762Y-66234285D01*
X153487381Y-66377142D01*
X153487381Y-66472380D01*
X153439762Y-66615238D01*
X153344524Y-66710476D01*
X153249286Y-66758095D01*
X153058810Y-66805714D01*
X152915952Y-66805714D01*
X152725476Y-66758095D01*
X152630238Y-66710476D01*
X152535000Y-66615238D01*
X152487381Y-66472380D01*
X152487381Y-66377142D01*
X152535000Y-66234285D01*
X152582619Y-66186666D01*
X153487381Y-65234285D02*
X153487381Y-65805714D01*
X153487381Y-65520000D02*
X152487381Y-65520000D01*
X152630238Y-65615238D01*
X152725476Y-65710476D01*
X152773095Y-65805714D01*
X149038334Y-85447143D02*
X148990715Y-85494762D01*
X148847858Y-85542381D01*
X148752620Y-85542381D01*
X148609762Y-85494762D01*
X148514524Y-85399524D01*
X148466905Y-85304286D01*
X148419286Y-85113810D01*
X148419286Y-84970952D01*
X148466905Y-84780476D01*
X148514524Y-84685238D01*
X148609762Y-84590000D01*
X148752620Y-84542381D01*
X148847858Y-84542381D01*
X148990715Y-84590000D01*
X149038334Y-84637619D01*
X149419286Y-84637619D02*
X149466905Y-84590000D01*
X149562143Y-84542381D01*
X149800239Y-84542381D01*
X149895477Y-84590000D01*
X149943096Y-84637619D01*
X149990715Y-84732857D01*
X149990715Y-84828095D01*
X149943096Y-84970952D01*
X149371667Y-85542381D01*
X149990715Y-85542381D01*
X153442381Y-75731666D02*
X152966190Y-76065000D01*
X153442381Y-76303095D02*
X152442381Y-76303095D01*
X152442381Y-75922142D01*
X152490000Y-75826904D01*
X152537619Y-75779285D01*
X152632857Y-75731666D01*
X152775714Y-75731666D01*
X152870952Y-75779285D01*
X152918571Y-75826904D01*
X152966190Y-75922142D01*
X152966190Y-76303095D01*
X153442381Y-74779285D02*
X153442381Y-75350714D01*
X153442381Y-75065000D02*
X152442381Y-75065000D01*
X152585238Y-75160238D01*
X152680476Y-75255476D01*
X152728095Y-75350714D01*
X149632381Y-75731666D02*
X149156190Y-76065000D01*
X149632381Y-76303095D02*
X148632381Y-76303095D01*
X148632381Y-75922142D01*
X148680000Y-75826904D01*
X148727619Y-75779285D01*
X148822857Y-75731666D01*
X148965714Y-75731666D01*
X149060952Y-75779285D01*
X149108571Y-75826904D01*
X149156190Y-75922142D01*
X149156190Y-76303095D01*
X148727619Y-75350714D02*
X148680000Y-75303095D01*
X148632381Y-75207857D01*
X148632381Y-74969761D01*
X148680000Y-74874523D01*
X148727619Y-74826904D01*
X148822857Y-74779285D01*
X148918095Y-74779285D01*
X149060952Y-74826904D01*
X149632381Y-75398333D01*
X149632381Y-74779285D01*
X139573095Y-70445381D02*
X139573095Y-71254905D01*
X139620714Y-71350143D01*
X139668333Y-71397762D01*
X139763571Y-71445381D01*
X139954048Y-71445381D01*
X140049286Y-71397762D01*
X140096905Y-71350143D01*
X140144524Y-71254905D01*
X140144524Y-70445381D01*
X141144524Y-71445381D02*
X140573095Y-71445381D01*
X140858809Y-71445381D02*
X140858809Y-70445381D01*
X140763571Y-70588238D01*
X140668333Y-70683476D01*
X140573095Y-70731095D01*
X135739286Y-60888571D02*
X135882143Y-60936190D01*
X135929762Y-60983810D01*
X135977381Y-61079048D01*
X135977381Y-61221905D01*
X135929762Y-61317143D01*
X135882143Y-61364762D01*
X135786905Y-61412381D01*
X135405952Y-61412381D01*
X135405952Y-60412381D01*
X135739286Y-60412381D01*
X135834524Y-60460000D01*
X135882143Y-60507619D01*
X135929762Y-60602857D01*
X135929762Y-60698095D01*
X135882143Y-60793333D01*
X135834524Y-60840952D01*
X135739286Y-60888571D01*
X135405952Y-60888571D01*
X136263095Y-60412381D02*
X136834524Y-60412381D01*
X136548809Y-61412381D02*
X136548809Y-60412381D01*
X137691667Y-61412381D02*
X137120238Y-61412381D01*
X137405952Y-61412381D02*
X137405952Y-60412381D01*
X137310714Y-60555238D01*
X137215476Y-60650476D01*
X137120238Y-60698095D01*
X174664762Y-79827381D02*
X174331428Y-79351190D01*
X174093333Y-79827381D02*
X174093333Y-78827381D01*
X174474286Y-78827381D01*
X174569524Y-78875000D01*
X174617143Y-78922619D01*
X174664762Y-79017857D01*
X174664762Y-79160714D01*
X174617143Y-79255952D01*
X174569524Y-79303571D01*
X174474286Y-79351190D01*
X174093333Y-79351190D01*
X174950476Y-78827381D02*
X175283809Y-79827381D01*
X175617143Y-78827381D01*
X176474286Y-79827381D02*
X175902857Y-79827381D01*
X176188571Y-79827381D02*
X176188571Y-78827381D01*
X176093333Y-78970238D01*
X175998095Y-79065476D01*
X175902857Y-79113095D01*
X174664762Y-89352381D02*
X174331428Y-88876190D01*
X174093333Y-89352381D02*
X174093333Y-88352381D01*
X174474286Y-88352381D01*
X174569524Y-88400000D01*
X174617143Y-88447619D01*
X174664762Y-88542857D01*
X174664762Y-88685714D01*
X174617143Y-88780952D01*
X174569524Y-88828571D01*
X174474286Y-88876190D01*
X174093333Y-88876190D01*
X174950476Y-88352381D02*
X175283809Y-89352381D01*
X175617143Y-88352381D01*
X175902857Y-88447619D02*
X175950476Y-88400000D01*
X176045714Y-88352381D01*
X176283810Y-88352381D01*
X176379048Y-88400000D01*
X176426667Y-88447619D01*
X176474286Y-88542857D01*
X176474286Y-88638095D01*
X176426667Y-88780952D01*
X175855238Y-89352381D01*
X176474286Y-89352381D01*
X171057381Y-58451666D02*
X170581190Y-58785000D01*
X171057381Y-59023095D02*
X170057381Y-59023095D01*
X170057381Y-58642142D01*
X170105000Y-58546904D01*
X170152619Y-58499285D01*
X170247857Y-58451666D01*
X170390714Y-58451666D01*
X170485952Y-58499285D01*
X170533571Y-58546904D01*
X170581190Y-58642142D01*
X170581190Y-59023095D01*
X170962143Y-57451666D02*
X171009762Y-57499285D01*
X171057381Y-57642142D01*
X171057381Y-57737380D01*
X171009762Y-57880238D01*
X170914524Y-57975476D01*
X170819286Y-58023095D01*
X170628810Y-58070714D01*
X170485952Y-58070714D01*
X170295476Y-58023095D01*
X170200238Y-57975476D01*
X170105000Y-57880238D01*
X170057381Y-57737380D01*
X170057381Y-57642142D01*
X170105000Y-57499285D01*
X170152619Y-57451666D01*
X171057381Y-56499285D02*
X171057381Y-57070714D01*
X171057381Y-56785000D02*
X170057381Y-56785000D01*
X170200238Y-56880238D01*
X170295476Y-56975476D01*
X170343095Y-57070714D01*
M02*
