G04 #@! TF.FileFunction,Legend,Top*
%FSLAX46Y46*%
G04 Gerber Fmt 4.6, Leading zero omitted, Abs format (unit mm)*
G04 Created by KiCad (PCBNEW 4.0.2-stable) date 3/16/2018 10:56:44 AM*
%MOMM*%
G01*
G04 APERTURE LIST*
%ADD10C,0.100000*%
%ADD11C,0.150000*%
%ADD12C,0.500000*%
%ADD13C,0.203200*%
%ADD14C,0.152400*%
%ADD15C,0.120000*%
%ADD16C,0.050000*%
G04 APERTURE END LIST*
D10*
X126300667Y-123866000D02*
X126300667Y-124199333D01*
X125600667Y-124199333D01*
X126267333Y-123366000D02*
X126300667Y-123432666D01*
X126300667Y-123566000D01*
X126267333Y-123632666D01*
X126200667Y-123666000D01*
X125934000Y-123666000D01*
X125867333Y-123632666D01*
X125834000Y-123566000D01*
X125834000Y-123432666D01*
X125867333Y-123366000D01*
X125934000Y-123332666D01*
X126000667Y-123332666D01*
X126067333Y-123666000D01*
X125834000Y-123132666D02*
X125834000Y-122866000D01*
X126300667Y-123032666D02*
X125700667Y-123032666D01*
X125634000Y-122999333D01*
X125600667Y-122932666D01*
X125600667Y-122866000D01*
X125834000Y-122732666D02*
X125834000Y-122466000D01*
X125600667Y-122632666D02*
X126200667Y-122632666D01*
X126267333Y-122599333D01*
X126300667Y-122532666D01*
X126300667Y-122466000D01*
X125567333Y-121732666D02*
X126467333Y-122332666D01*
X126267333Y-121532667D02*
X126300667Y-121432667D01*
X126300667Y-121266000D01*
X126267333Y-121199333D01*
X126234000Y-121166000D01*
X126167333Y-121132667D01*
X126100667Y-121132667D01*
X126034000Y-121166000D01*
X126000667Y-121199333D01*
X125967333Y-121266000D01*
X125934000Y-121399333D01*
X125900667Y-121466000D01*
X125867333Y-121499333D01*
X125800667Y-121532667D01*
X125734000Y-121532667D01*
X125667333Y-121499333D01*
X125634000Y-121466000D01*
X125600667Y-121399333D01*
X125600667Y-121232667D01*
X125634000Y-121132667D01*
X125834000Y-120932666D02*
X125834000Y-120666000D01*
X125600667Y-120832666D02*
X126200667Y-120832666D01*
X126267333Y-120799333D01*
X126300667Y-120732666D01*
X126300667Y-120666000D01*
X126267333Y-120166000D02*
X126300667Y-120232666D01*
X126300667Y-120366000D01*
X126267333Y-120432666D01*
X126200667Y-120466000D01*
X125934000Y-120466000D01*
X125867333Y-120432666D01*
X125834000Y-120366000D01*
X125834000Y-120232666D01*
X125867333Y-120166000D01*
X125934000Y-120132666D01*
X126000667Y-120132666D01*
X126067333Y-120466000D01*
X126267333Y-119566000D02*
X126300667Y-119632666D01*
X126300667Y-119766000D01*
X126267333Y-119832666D01*
X126200667Y-119866000D01*
X125934000Y-119866000D01*
X125867333Y-119832666D01*
X125834000Y-119766000D01*
X125834000Y-119632666D01*
X125867333Y-119566000D01*
X125934000Y-119532666D01*
X126000667Y-119532666D01*
X126067333Y-119866000D01*
X126300667Y-119232666D02*
X125834000Y-119232666D01*
X125967333Y-119232666D02*
X125900667Y-119199333D01*
X125867333Y-119166000D01*
X125834000Y-119099333D01*
X125834000Y-119032666D01*
X144461667Y-123988998D02*
X144128333Y-124222332D01*
X144461667Y-124388998D02*
X143761667Y-124388998D01*
X143761667Y-124122332D01*
X143795000Y-124055665D01*
X143828333Y-124022332D01*
X143895000Y-123988998D01*
X143995000Y-123988998D01*
X144061667Y-124022332D01*
X144095000Y-124055665D01*
X144128333Y-124122332D01*
X144128333Y-124388998D01*
X144461667Y-123688998D02*
X143995000Y-123688998D01*
X143761667Y-123688998D02*
X143795000Y-123722332D01*
X143828333Y-123688998D01*
X143795000Y-123655665D01*
X143761667Y-123688998D01*
X143828333Y-123688998D01*
X143995000Y-123055665D02*
X144561667Y-123055665D01*
X144628333Y-123088999D01*
X144661667Y-123122332D01*
X144695000Y-123188999D01*
X144695000Y-123288999D01*
X144661667Y-123355665D01*
X144428333Y-123055665D02*
X144461667Y-123122332D01*
X144461667Y-123255665D01*
X144428333Y-123322332D01*
X144395000Y-123355665D01*
X144328333Y-123388999D01*
X144128333Y-123388999D01*
X144061667Y-123355665D01*
X144028333Y-123322332D01*
X143995000Y-123255665D01*
X143995000Y-123122332D01*
X144028333Y-123055665D01*
X144461667Y-122722332D02*
X143761667Y-122722332D01*
X144461667Y-122422332D02*
X144095000Y-122422332D01*
X144028333Y-122455666D01*
X143995000Y-122522332D01*
X143995000Y-122622332D01*
X144028333Y-122688999D01*
X144061667Y-122722332D01*
X143995000Y-122188999D02*
X143995000Y-121922333D01*
X143761667Y-122088999D02*
X144361667Y-122088999D01*
X144428333Y-122055666D01*
X144461667Y-121988999D01*
X144461667Y-121922333D01*
X143728333Y-121188999D02*
X144628333Y-121788999D01*
X144461667Y-120955666D02*
X143761667Y-120955666D01*
X143761667Y-120789000D01*
X143795000Y-120689000D01*
X143861667Y-120622333D01*
X143928333Y-120589000D01*
X144061667Y-120555666D01*
X144161667Y-120555666D01*
X144295000Y-120589000D01*
X144361667Y-120622333D01*
X144428333Y-120689000D01*
X144461667Y-120789000D01*
X144461667Y-120955666D01*
X144461667Y-120255666D02*
X143995000Y-120255666D01*
X144128333Y-120255666D02*
X144061667Y-120222333D01*
X144028333Y-120189000D01*
X143995000Y-120122333D01*
X143995000Y-120055666D01*
X144461667Y-119822333D02*
X143995000Y-119822333D01*
X143761667Y-119822333D02*
X143795000Y-119855667D01*
X143828333Y-119822333D01*
X143795000Y-119789000D01*
X143761667Y-119822333D01*
X143828333Y-119822333D01*
X143995000Y-119555667D02*
X144461667Y-119389000D01*
X143995000Y-119222334D01*
X144428333Y-118689001D02*
X144461667Y-118755667D01*
X144461667Y-118889001D01*
X144428333Y-118955667D01*
X144361667Y-118989001D01*
X144095000Y-118989001D01*
X144028333Y-118955667D01*
X143995000Y-118889001D01*
X143995000Y-118755667D01*
X144028333Y-118689001D01*
X144095000Y-118655667D01*
X144161667Y-118655667D01*
X144228333Y-118989001D01*
X127276668Y-110740000D02*
X127243334Y-110773333D01*
X127143334Y-110806667D01*
X127076668Y-110806667D01*
X126976668Y-110773333D01*
X126910001Y-110706667D01*
X126876668Y-110640000D01*
X126843334Y-110506667D01*
X126843334Y-110406667D01*
X126876668Y-110273333D01*
X126910001Y-110206667D01*
X126976668Y-110140000D01*
X127076668Y-110106667D01*
X127143334Y-110106667D01*
X127243334Y-110140000D01*
X127276668Y-110173333D01*
X127843334Y-110773333D02*
X127776668Y-110806667D01*
X127643334Y-110806667D01*
X127576668Y-110773333D01*
X127543334Y-110706667D01*
X127543334Y-110440000D01*
X127576668Y-110373333D01*
X127643334Y-110340000D01*
X127776668Y-110340000D01*
X127843334Y-110373333D01*
X127876668Y-110440000D01*
X127876668Y-110506667D01*
X127543334Y-110573333D01*
X128176668Y-110340000D02*
X128176668Y-110806667D01*
X128176668Y-110406667D02*
X128210001Y-110373333D01*
X128276668Y-110340000D01*
X128376668Y-110340000D01*
X128443334Y-110373333D01*
X128476668Y-110440000D01*
X128476668Y-110806667D01*
X128710001Y-110340000D02*
X128976667Y-110340000D01*
X128810001Y-110106667D02*
X128810001Y-110706667D01*
X128843334Y-110773333D01*
X128910001Y-110806667D01*
X128976667Y-110806667D01*
X129476667Y-110773333D02*
X129410001Y-110806667D01*
X129276667Y-110806667D01*
X129210001Y-110773333D01*
X129176667Y-110706667D01*
X129176667Y-110440000D01*
X129210001Y-110373333D01*
X129276667Y-110340000D01*
X129410001Y-110340000D01*
X129476667Y-110373333D01*
X129510001Y-110440000D01*
X129510001Y-110506667D01*
X129176667Y-110573333D01*
X129810001Y-110806667D02*
X129810001Y-110340000D01*
X129810001Y-110473333D02*
X129843334Y-110406667D01*
X129876667Y-110373333D01*
X129943334Y-110340000D01*
X130010001Y-110340000D01*
X130743333Y-110773333D02*
X130843333Y-110806667D01*
X131010000Y-110806667D01*
X131076667Y-110773333D01*
X131110000Y-110740000D01*
X131143333Y-110673333D01*
X131143333Y-110606667D01*
X131110000Y-110540000D01*
X131076667Y-110506667D01*
X131010000Y-110473333D01*
X130876667Y-110440000D01*
X130810000Y-110406667D01*
X130776667Y-110373333D01*
X130743333Y-110306667D01*
X130743333Y-110240000D01*
X130776667Y-110173333D01*
X130810000Y-110140000D01*
X130876667Y-110106667D01*
X131043333Y-110106667D01*
X131143333Y-110140000D01*
X131343334Y-110340000D02*
X131610000Y-110340000D01*
X131443334Y-110106667D02*
X131443334Y-110706667D01*
X131476667Y-110773333D01*
X131543334Y-110806667D01*
X131610000Y-110806667D01*
X132110000Y-110773333D02*
X132043334Y-110806667D01*
X131910000Y-110806667D01*
X131843334Y-110773333D01*
X131810000Y-110706667D01*
X131810000Y-110440000D01*
X131843334Y-110373333D01*
X131910000Y-110340000D01*
X132043334Y-110340000D01*
X132110000Y-110373333D01*
X132143334Y-110440000D01*
X132143334Y-110506667D01*
X131810000Y-110573333D01*
X132710000Y-110773333D02*
X132643334Y-110806667D01*
X132510000Y-110806667D01*
X132443334Y-110773333D01*
X132410000Y-110706667D01*
X132410000Y-110440000D01*
X132443334Y-110373333D01*
X132510000Y-110340000D01*
X132643334Y-110340000D01*
X132710000Y-110373333D01*
X132743334Y-110440000D01*
X132743334Y-110506667D01*
X132410000Y-110573333D01*
X133043334Y-110806667D02*
X133043334Y-110340000D01*
X133043334Y-110473333D02*
X133076667Y-110406667D01*
X133110000Y-110373333D01*
X133176667Y-110340000D01*
X133243334Y-110340000D01*
X133476667Y-110806667D02*
X133476667Y-110340000D01*
X133476667Y-110106667D02*
X133443333Y-110140000D01*
X133476667Y-110173333D01*
X133510000Y-110140000D01*
X133476667Y-110106667D01*
X133476667Y-110173333D01*
X133810000Y-110340000D02*
X133810000Y-110806667D01*
X133810000Y-110406667D02*
X133843333Y-110373333D01*
X133910000Y-110340000D01*
X134010000Y-110340000D01*
X134076666Y-110373333D01*
X134110000Y-110440000D01*
X134110000Y-110806667D01*
X134743333Y-110340000D02*
X134743333Y-110906667D01*
X134709999Y-110973333D01*
X134676666Y-111006667D01*
X134609999Y-111040000D01*
X134509999Y-111040000D01*
X134443333Y-111006667D01*
X134743333Y-110773333D02*
X134676666Y-110806667D01*
X134543333Y-110806667D01*
X134476666Y-110773333D01*
X134443333Y-110740000D01*
X134409999Y-110673333D01*
X134409999Y-110473333D01*
X134443333Y-110406667D01*
X134476666Y-110373333D01*
X134543333Y-110340000D01*
X134676666Y-110340000D01*
X134743333Y-110373333D01*
D11*
X149898334Y-78466905D02*
X149631667Y-78085952D01*
X149441191Y-78466905D02*
X149441191Y-77666905D01*
X149745953Y-77666905D01*
X149822144Y-77705000D01*
X149860239Y-77743095D01*
X149898334Y-77819286D01*
X149898334Y-77933571D01*
X149860239Y-78009762D01*
X149822144Y-78047857D01*
X149745953Y-78085952D01*
X149441191Y-78085952D01*
X150545953Y-78428810D02*
X150469763Y-78466905D01*
X150317382Y-78466905D01*
X150241191Y-78428810D01*
X150203096Y-78352619D01*
X150203096Y-78047857D01*
X150241191Y-77971667D01*
X150317382Y-77933571D01*
X150469763Y-77933571D01*
X150545953Y-77971667D01*
X150584048Y-78047857D01*
X150584048Y-78124048D01*
X150203096Y-78200238D01*
X151269762Y-78428810D02*
X151193572Y-78466905D01*
X151041191Y-78466905D01*
X150965000Y-78428810D01*
X150926905Y-78390714D01*
X150888810Y-78314524D01*
X150888810Y-78085952D01*
X150926905Y-78009762D01*
X150965000Y-77971667D01*
X151041191Y-77933571D01*
X151193572Y-77933571D01*
X151269762Y-77971667D01*
X151917381Y-78428810D02*
X151841191Y-78466905D01*
X151688810Y-78466905D01*
X151612619Y-78428810D01*
X151574524Y-78352619D01*
X151574524Y-78047857D01*
X151612619Y-77971667D01*
X151688810Y-77933571D01*
X151841191Y-77933571D01*
X151917381Y-77971667D01*
X151955476Y-78047857D01*
X151955476Y-78124048D01*
X151574524Y-78200238D01*
X152298333Y-78466905D02*
X152298333Y-77933571D01*
X152298333Y-77666905D02*
X152260238Y-77705000D01*
X152298333Y-77743095D01*
X152336428Y-77705000D01*
X152298333Y-77666905D01*
X152298333Y-77743095D01*
X152603095Y-77933571D02*
X152793571Y-78466905D01*
X152984047Y-77933571D01*
X153593571Y-78428810D02*
X153517381Y-78466905D01*
X153365000Y-78466905D01*
X153288809Y-78428810D01*
X153250714Y-78352619D01*
X153250714Y-78047857D01*
X153288809Y-77971667D01*
X153365000Y-77933571D01*
X153517381Y-77933571D01*
X153593571Y-77971667D01*
X153631666Y-78047857D01*
X153631666Y-78124048D01*
X153250714Y-78200238D01*
X153974523Y-78466905D02*
X153974523Y-77933571D01*
X153974523Y-78085952D02*
X154012618Y-78009762D01*
X154050714Y-77971667D01*
X154126904Y-77933571D01*
X154203095Y-77933571D01*
D10*
X134276667Y-119917333D02*
X134376667Y-119950667D01*
X134543334Y-119950667D01*
X134610001Y-119917333D01*
X134643334Y-119884000D01*
X134676667Y-119817333D01*
X134676667Y-119750667D01*
X134643334Y-119684000D01*
X134610001Y-119650667D01*
X134543334Y-119617333D01*
X134410001Y-119584000D01*
X134343334Y-119550667D01*
X134310001Y-119517333D01*
X134276667Y-119450667D01*
X134276667Y-119384000D01*
X134310001Y-119317333D01*
X134343334Y-119284000D01*
X134410001Y-119250667D01*
X134576667Y-119250667D01*
X134676667Y-119284000D01*
X134876668Y-119484000D02*
X135143334Y-119484000D01*
X134976668Y-119250667D02*
X134976668Y-119850667D01*
X135010001Y-119917333D01*
X135076668Y-119950667D01*
X135143334Y-119950667D01*
X135643334Y-119917333D02*
X135576668Y-119950667D01*
X135443334Y-119950667D01*
X135376668Y-119917333D01*
X135343334Y-119850667D01*
X135343334Y-119584000D01*
X135376668Y-119517333D01*
X135443334Y-119484000D01*
X135576668Y-119484000D01*
X135643334Y-119517333D01*
X135676668Y-119584000D01*
X135676668Y-119650667D01*
X135343334Y-119717333D01*
X136243334Y-119917333D02*
X136176668Y-119950667D01*
X136043334Y-119950667D01*
X135976668Y-119917333D01*
X135943334Y-119850667D01*
X135943334Y-119584000D01*
X135976668Y-119517333D01*
X136043334Y-119484000D01*
X136176668Y-119484000D01*
X136243334Y-119517333D01*
X136276668Y-119584000D01*
X136276668Y-119650667D01*
X135943334Y-119717333D01*
X136576668Y-119950667D02*
X136576668Y-119484000D01*
X136576668Y-119617333D02*
X136610001Y-119550667D01*
X136643334Y-119517333D01*
X136710001Y-119484000D01*
X136776668Y-119484000D01*
X137510001Y-119217333D02*
X136910001Y-120117333D01*
X137743334Y-119950667D02*
X137743334Y-119250667D01*
X137910000Y-119250667D01*
X138010000Y-119284000D01*
X138076667Y-119350667D01*
X138110000Y-119417333D01*
X138143334Y-119550667D01*
X138143334Y-119650667D01*
X138110000Y-119784000D01*
X138076667Y-119850667D01*
X138010000Y-119917333D01*
X137910000Y-119950667D01*
X137743334Y-119950667D01*
X138443334Y-119950667D02*
X138443334Y-119484000D01*
X138443334Y-119617333D02*
X138476667Y-119550667D01*
X138510000Y-119517333D01*
X138576667Y-119484000D01*
X138643334Y-119484000D01*
X138876667Y-119950667D02*
X138876667Y-119484000D01*
X138876667Y-119250667D02*
X138843333Y-119284000D01*
X138876667Y-119317333D01*
X138910000Y-119284000D01*
X138876667Y-119250667D01*
X138876667Y-119317333D01*
X139143333Y-119484000D02*
X139310000Y-119950667D01*
X139476666Y-119484000D01*
X140009999Y-119917333D02*
X139943333Y-119950667D01*
X139809999Y-119950667D01*
X139743333Y-119917333D01*
X139709999Y-119850667D01*
X139709999Y-119584000D01*
X139743333Y-119517333D01*
X139809999Y-119484000D01*
X139943333Y-119484000D01*
X140009999Y-119517333D01*
X140043333Y-119584000D01*
X140043333Y-119650667D01*
X139709999Y-119717333D01*
X130478333Y-119917333D02*
X130578333Y-119950667D01*
X130745000Y-119950667D01*
X130811667Y-119917333D01*
X130845000Y-119884000D01*
X130878333Y-119817333D01*
X130878333Y-119750667D01*
X130845000Y-119684000D01*
X130811667Y-119650667D01*
X130745000Y-119617333D01*
X130611667Y-119584000D01*
X130545000Y-119550667D01*
X130511667Y-119517333D01*
X130478333Y-119450667D01*
X130478333Y-119384000D01*
X130511667Y-119317333D01*
X130545000Y-119284000D01*
X130611667Y-119250667D01*
X130778333Y-119250667D01*
X130878333Y-119284000D01*
X131178334Y-119950667D02*
X131178334Y-119250667D01*
X131245000Y-119684000D02*
X131445000Y-119950667D01*
X131445000Y-119484000D02*
X131178334Y-119750667D01*
X131745001Y-119950667D02*
X131745001Y-119484000D01*
X131745001Y-119250667D02*
X131711667Y-119284000D01*
X131745001Y-119317333D01*
X131778334Y-119284000D01*
X131745001Y-119250667D01*
X131745001Y-119317333D01*
X132378334Y-119950667D02*
X132378334Y-119250667D01*
X132378334Y-119917333D02*
X132311667Y-119950667D01*
X132178334Y-119950667D01*
X132111667Y-119917333D01*
X132078334Y-119884000D01*
X132045000Y-119817333D01*
X132045000Y-119617333D01*
X132078334Y-119550667D01*
X132111667Y-119517333D01*
X132178334Y-119484000D01*
X132311667Y-119484000D01*
X132378334Y-119517333D01*
X131986667Y-118774333D02*
X132086667Y-118807667D01*
X132253334Y-118807667D01*
X132320001Y-118774333D01*
X132353334Y-118741000D01*
X132386667Y-118674333D01*
X132386667Y-118607667D01*
X132353334Y-118541000D01*
X132320001Y-118507667D01*
X132253334Y-118474333D01*
X132120001Y-118441000D01*
X132053334Y-118407667D01*
X132020001Y-118374333D01*
X131986667Y-118307667D01*
X131986667Y-118241000D01*
X132020001Y-118174333D01*
X132053334Y-118141000D01*
X132120001Y-118107667D01*
X132286667Y-118107667D01*
X132386667Y-118141000D01*
X132586668Y-118341000D02*
X132853334Y-118341000D01*
X132686668Y-118107667D02*
X132686668Y-118707667D01*
X132720001Y-118774333D01*
X132786668Y-118807667D01*
X132853334Y-118807667D01*
X133353334Y-118774333D02*
X133286668Y-118807667D01*
X133153334Y-118807667D01*
X133086668Y-118774333D01*
X133053334Y-118707667D01*
X133053334Y-118441000D01*
X133086668Y-118374333D01*
X133153334Y-118341000D01*
X133286668Y-118341000D01*
X133353334Y-118374333D01*
X133386668Y-118441000D01*
X133386668Y-118507667D01*
X133053334Y-118574333D01*
X133953334Y-118774333D02*
X133886668Y-118807667D01*
X133753334Y-118807667D01*
X133686668Y-118774333D01*
X133653334Y-118707667D01*
X133653334Y-118441000D01*
X133686668Y-118374333D01*
X133753334Y-118341000D01*
X133886668Y-118341000D01*
X133953334Y-118374333D01*
X133986668Y-118441000D01*
X133986668Y-118507667D01*
X133653334Y-118574333D01*
X134286668Y-118807667D02*
X134286668Y-118341000D01*
X134286668Y-118474333D02*
X134320001Y-118407667D01*
X134353334Y-118374333D01*
X134420001Y-118341000D01*
X134486668Y-118341000D01*
X135153334Y-118107667D02*
X135553334Y-118107667D01*
X135353334Y-118807667D02*
X135353334Y-118107667D01*
X135720000Y-118341000D02*
X135886667Y-118807667D01*
X136053333Y-118341000D02*
X135886667Y-118807667D01*
X135820000Y-118974333D01*
X135786667Y-119007667D01*
X135720000Y-119041000D01*
X136320000Y-118341000D02*
X136320000Y-119041000D01*
X136320000Y-118374333D02*
X136386666Y-118341000D01*
X136520000Y-118341000D01*
X136586666Y-118374333D01*
X136620000Y-118407667D01*
X136653333Y-118474333D01*
X136653333Y-118674333D01*
X136620000Y-118741000D01*
X136586666Y-118774333D01*
X136520000Y-118807667D01*
X136386666Y-118807667D01*
X136320000Y-118774333D01*
X137219999Y-118774333D02*
X137153333Y-118807667D01*
X137019999Y-118807667D01*
X136953333Y-118774333D01*
X136919999Y-118707667D01*
X136919999Y-118441000D01*
X136953333Y-118374333D01*
X137019999Y-118341000D01*
X137153333Y-118341000D01*
X137219999Y-118374333D01*
X137253333Y-118441000D01*
X137253333Y-118507667D01*
X136919999Y-118574333D01*
X137583333Y-110773333D02*
X137683333Y-110806667D01*
X137850000Y-110806667D01*
X137916667Y-110773333D01*
X137950000Y-110740000D01*
X137983333Y-110673333D01*
X137983333Y-110606667D01*
X137950000Y-110540000D01*
X137916667Y-110506667D01*
X137850000Y-110473333D01*
X137716667Y-110440000D01*
X137650000Y-110406667D01*
X137616667Y-110373333D01*
X137583333Y-110306667D01*
X137583333Y-110240000D01*
X137616667Y-110173333D01*
X137650000Y-110140000D01*
X137716667Y-110106667D01*
X137883333Y-110106667D01*
X137983333Y-110140000D01*
X138183334Y-110340000D02*
X138450000Y-110340000D01*
X138283334Y-110106667D02*
X138283334Y-110706667D01*
X138316667Y-110773333D01*
X138383334Y-110806667D01*
X138450000Y-110806667D01*
X138683334Y-110806667D02*
X138683334Y-110340000D01*
X138683334Y-110473333D02*
X138716667Y-110406667D01*
X138750000Y-110373333D01*
X138816667Y-110340000D01*
X138883334Y-110340000D01*
X139616666Y-110773333D02*
X139716666Y-110806667D01*
X139883333Y-110806667D01*
X139950000Y-110773333D01*
X139983333Y-110740000D01*
X140016666Y-110673333D01*
X140016666Y-110606667D01*
X139983333Y-110540000D01*
X139950000Y-110506667D01*
X139883333Y-110473333D01*
X139750000Y-110440000D01*
X139683333Y-110406667D01*
X139650000Y-110373333D01*
X139616666Y-110306667D01*
X139616666Y-110240000D01*
X139650000Y-110173333D01*
X139683333Y-110140000D01*
X139750000Y-110106667D01*
X139916666Y-110106667D01*
X140016666Y-110140000D01*
X140583333Y-110773333D02*
X140516667Y-110806667D01*
X140383333Y-110806667D01*
X140316667Y-110773333D01*
X140283333Y-110706667D01*
X140283333Y-110440000D01*
X140316667Y-110373333D01*
X140383333Y-110340000D01*
X140516667Y-110340000D01*
X140583333Y-110373333D01*
X140616667Y-110440000D01*
X140616667Y-110506667D01*
X140283333Y-110573333D01*
X140916667Y-110340000D02*
X140916667Y-110806667D01*
X140916667Y-110406667D02*
X140950000Y-110373333D01*
X141016667Y-110340000D01*
X141116667Y-110340000D01*
X141183333Y-110373333D01*
X141216667Y-110440000D01*
X141216667Y-110806667D01*
X141516666Y-110773333D02*
X141583333Y-110806667D01*
X141716666Y-110806667D01*
X141783333Y-110773333D01*
X141816666Y-110706667D01*
X141816666Y-110673333D01*
X141783333Y-110606667D01*
X141716666Y-110573333D01*
X141616666Y-110573333D01*
X141550000Y-110540000D01*
X141516666Y-110473333D01*
X141516666Y-110440000D01*
X141550000Y-110373333D01*
X141616666Y-110340000D01*
X141716666Y-110340000D01*
X141783333Y-110373333D01*
X155091667Y-83435000D02*
X155058333Y-83468333D01*
X154958333Y-83501667D01*
X154891667Y-83501667D01*
X154791667Y-83468333D01*
X154725000Y-83401667D01*
X154691667Y-83335000D01*
X154658333Y-83201667D01*
X154658333Y-83101667D01*
X154691667Y-82968333D01*
X154725000Y-82901667D01*
X154791667Y-82835000D01*
X154891667Y-82801667D01*
X154958333Y-82801667D01*
X155058333Y-82835000D01*
X155091667Y-82868333D01*
X155391667Y-83501667D02*
X155391667Y-82801667D01*
X155391667Y-83135000D02*
X155791667Y-83135000D01*
X155791667Y-83501667D02*
X155791667Y-82801667D01*
X156091666Y-82868333D02*
X156125000Y-82835000D01*
X156191666Y-82801667D01*
X156358333Y-82801667D01*
X156425000Y-82835000D01*
X156458333Y-82868333D01*
X156491666Y-82935000D01*
X156491666Y-83001667D01*
X156458333Y-83101667D01*
X156058333Y-83501667D01*
X156491666Y-83501667D01*
X152551667Y-83435000D02*
X152518333Y-83468333D01*
X152418333Y-83501667D01*
X152351667Y-83501667D01*
X152251667Y-83468333D01*
X152185000Y-83401667D01*
X152151667Y-83335000D01*
X152118333Y-83201667D01*
X152118333Y-83101667D01*
X152151667Y-82968333D01*
X152185000Y-82901667D01*
X152251667Y-82835000D01*
X152351667Y-82801667D01*
X152418333Y-82801667D01*
X152518333Y-82835000D01*
X152551667Y-82868333D01*
X152851667Y-83501667D02*
X152851667Y-82801667D01*
X152851667Y-83135000D02*
X153251667Y-83135000D01*
X153251667Y-83501667D02*
X153251667Y-82801667D01*
X153951666Y-83501667D02*
X153551666Y-83501667D01*
X153751666Y-83501667D02*
X153751666Y-82801667D01*
X153685000Y-82901667D01*
X153618333Y-82968333D01*
X153551666Y-83001667D01*
X149961667Y-82835000D02*
X149895001Y-82801667D01*
X149795001Y-82801667D01*
X149695001Y-82835000D01*
X149628334Y-82901667D01*
X149595001Y-82968333D01*
X149561667Y-83101667D01*
X149561667Y-83201667D01*
X149595001Y-83335000D01*
X149628334Y-83401667D01*
X149695001Y-83468333D01*
X149795001Y-83501667D01*
X149861667Y-83501667D01*
X149961667Y-83468333D01*
X149995001Y-83435000D01*
X149995001Y-83201667D01*
X149861667Y-83201667D01*
X150295001Y-83501667D02*
X150295001Y-82801667D01*
X150695001Y-83501667D01*
X150695001Y-82801667D01*
X151028334Y-83501667D02*
X151028334Y-82801667D01*
X151195000Y-82801667D01*
X151295000Y-82835000D01*
X151361667Y-82901667D01*
X151395000Y-82968333D01*
X151428334Y-83101667D01*
X151428334Y-83201667D01*
X151395000Y-83335000D01*
X151361667Y-83401667D01*
X151295000Y-83468333D01*
X151195000Y-83501667D01*
X151028334Y-83501667D01*
X147021667Y-82801667D02*
X147255000Y-83501667D01*
X147488333Y-82801667D01*
X148121667Y-83435000D02*
X148088333Y-83468333D01*
X147988333Y-83501667D01*
X147921667Y-83501667D01*
X147821667Y-83468333D01*
X147755000Y-83401667D01*
X147721667Y-83335000D01*
X147688333Y-83201667D01*
X147688333Y-83101667D01*
X147721667Y-82968333D01*
X147755000Y-82901667D01*
X147821667Y-82835000D01*
X147921667Y-82801667D01*
X147988333Y-82801667D01*
X148088333Y-82835000D01*
X148121667Y-82868333D01*
X148821667Y-83435000D02*
X148788333Y-83468333D01*
X148688333Y-83501667D01*
X148621667Y-83501667D01*
X148521667Y-83468333D01*
X148455000Y-83401667D01*
X148421667Y-83335000D01*
X148388333Y-83201667D01*
X148388333Y-83101667D01*
X148421667Y-82968333D01*
X148455000Y-82901667D01*
X148521667Y-82835000D01*
X148621667Y-82801667D01*
X148688333Y-82801667D01*
X148788333Y-82835000D01*
X148821667Y-82868333D01*
D11*
X136886905Y-81133905D02*
X136086905Y-81133905D01*
X136353571Y-80752953D02*
X136886905Y-80752953D01*
X136429762Y-80752953D02*
X136391667Y-80714858D01*
X136353571Y-80638667D01*
X136353571Y-80524381D01*
X136391667Y-80448191D01*
X136467857Y-80410096D01*
X136886905Y-80410096D01*
X136125000Y-83794523D02*
X136086905Y-83870714D01*
X136086905Y-83984999D01*
X136125000Y-84099285D01*
X136201190Y-84175476D01*
X136277381Y-84213571D01*
X136429762Y-84251666D01*
X136544048Y-84251666D01*
X136696429Y-84213571D01*
X136772619Y-84175476D01*
X136848810Y-84099285D01*
X136886905Y-83984999D01*
X136886905Y-83908809D01*
X136848810Y-83794523D01*
X136810714Y-83756428D01*
X136544048Y-83756428D01*
X136544048Y-83908809D01*
X136886905Y-83413571D02*
X136086905Y-83413571D01*
X136886905Y-82956428D01*
X136086905Y-82956428D01*
X136886905Y-82575476D02*
X136086905Y-82575476D01*
X136086905Y-82385000D01*
X136125000Y-82270714D01*
X136201190Y-82194523D01*
X136277381Y-82156428D01*
X136429762Y-82118333D01*
X136544048Y-82118333D01*
X136696429Y-82156428D01*
X136772619Y-82194523D01*
X136848810Y-82270714D01*
X136886905Y-82385000D01*
X136886905Y-82575476D01*
X136086905Y-86518667D02*
X136086905Y-86366286D01*
X136125000Y-86290095D01*
X136201190Y-86213905D01*
X136353571Y-86175810D01*
X136620238Y-86175810D01*
X136772619Y-86213905D01*
X136848810Y-86290095D01*
X136886905Y-86366286D01*
X136886905Y-86518667D01*
X136848810Y-86594857D01*
X136772619Y-86671048D01*
X136620238Y-86709143D01*
X136353571Y-86709143D01*
X136201190Y-86671048D01*
X136125000Y-86594857D01*
X136086905Y-86518667D01*
X136353571Y-85490096D02*
X136886905Y-85490096D01*
X136353571Y-85832953D02*
X136772619Y-85832953D01*
X136848810Y-85794858D01*
X136886905Y-85718667D01*
X136886905Y-85604381D01*
X136848810Y-85528191D01*
X136810714Y-85490096D01*
X136353571Y-85223429D02*
X136353571Y-84918667D01*
X136086905Y-85109143D02*
X136772619Y-85109143D01*
X136848810Y-85071048D01*
X136886905Y-84994857D01*
X136886905Y-84918667D01*
D12*
X120332619Y-87173571D02*
X122237381Y-87173571D01*
X121285000Y-88125952D02*
X121285000Y-86221190D01*
X112712619Y-87173571D02*
X114617381Y-87173571D01*
D13*
X146304000Y-124841000D02*
X146304000Y-122555000D01*
X146304000Y-122555000D02*
X155956000Y-122555000D01*
X155956000Y-122555000D02*
X155956000Y-124841000D01*
X145034000Y-109601000D02*
X157226000Y-109601000D01*
X157226000Y-124841000D02*
X157226000Y-109601000D01*
X145034000Y-124841000D02*
X145034000Y-109601000D01*
X157226000Y-124841000D02*
X145034000Y-124841000D01*
D11*
X130415000Y-120255000D02*
X139015000Y-120255000D01*
X130415000Y-124855000D02*
X132615000Y-124855000D01*
X136715000Y-124855000D02*
X139015000Y-124855000D01*
D14*
X114554000Y-88265000D02*
X114554000Y-108585000D01*
X120396000Y-108585000D02*
X120396000Y-88265000D01*
X114554000Y-88265000D02*
X120396000Y-88265000D01*
X114554000Y-108585000D02*
X116459000Y-108585000D01*
X120396000Y-108585000D02*
X118491000Y-108585000D01*
X116459000Y-108585000D02*
G75*
G02X118491000Y-108585000I1016000J0D01*
G01*
D13*
X113919000Y-124841000D02*
X113919000Y-122555000D01*
X113919000Y-122555000D02*
X123571000Y-122555000D01*
X123571000Y-122555000D02*
X123571000Y-124841000D01*
X112649000Y-109601000D02*
X124841000Y-109601000D01*
X124841000Y-124841000D02*
X124841000Y-109601000D01*
X112649000Y-124841000D02*
X112649000Y-109601000D01*
X124841000Y-124841000D02*
X112649000Y-124841000D01*
D15*
X134529723Y-88645722D02*
G75*
G03X134530000Y-84034420I-1179723J2305722D01*
G01*
X132170277Y-88645722D02*
G75*
G02X132170000Y-84034420I1179723J2305722D01*
G01*
X132170277Y-88645722D02*
G75*
G03X134530000Y-88645580I1179723J2305722D01*
G01*
X135900000Y-86340000D02*
X130800000Y-86340000D01*
X135900000Y-86380000D02*
X130800000Y-86380000D01*
X135899000Y-86420000D02*
X130801000Y-86420000D01*
X135898000Y-86460000D02*
X130802000Y-86460000D01*
X135896000Y-86500000D02*
X130804000Y-86500000D01*
X135893000Y-86540000D02*
X130807000Y-86540000D01*
X135889000Y-86580000D02*
X130811000Y-86580000D01*
X135885000Y-86620000D02*
X134330000Y-86620000D01*
X132370000Y-86620000D02*
X130815000Y-86620000D01*
X135881000Y-86660000D02*
X134330000Y-86660000D01*
X132370000Y-86660000D02*
X130819000Y-86660000D01*
X135875000Y-86700000D02*
X134330000Y-86700000D01*
X132370000Y-86700000D02*
X130825000Y-86700000D01*
X135869000Y-86740000D02*
X134330000Y-86740000D01*
X132370000Y-86740000D02*
X130831000Y-86740000D01*
X135863000Y-86780000D02*
X134330000Y-86780000D01*
X132370000Y-86780000D02*
X130837000Y-86780000D01*
X135856000Y-86820000D02*
X134330000Y-86820000D01*
X132370000Y-86820000D02*
X130844000Y-86820000D01*
X135848000Y-86860000D02*
X134330000Y-86860000D01*
X132370000Y-86860000D02*
X130852000Y-86860000D01*
X135839000Y-86900000D02*
X134330000Y-86900000D01*
X132370000Y-86900000D02*
X130861000Y-86900000D01*
X135830000Y-86940000D02*
X134330000Y-86940000D01*
X132370000Y-86940000D02*
X130870000Y-86940000D01*
X135820000Y-86980000D02*
X134330000Y-86980000D01*
X132370000Y-86980000D02*
X130880000Y-86980000D01*
X135810000Y-87020000D02*
X134330000Y-87020000D01*
X132370000Y-87020000D02*
X130890000Y-87020000D01*
X135798000Y-87061000D02*
X134330000Y-87061000D01*
X132370000Y-87061000D02*
X130902000Y-87061000D01*
X135786000Y-87101000D02*
X134330000Y-87101000D01*
X132370000Y-87101000D02*
X130914000Y-87101000D01*
X135774000Y-87141000D02*
X134330000Y-87141000D01*
X132370000Y-87141000D02*
X130926000Y-87141000D01*
X135760000Y-87181000D02*
X134330000Y-87181000D01*
X132370000Y-87181000D02*
X130940000Y-87181000D01*
X135746000Y-87221000D02*
X134330000Y-87221000D01*
X132370000Y-87221000D02*
X130954000Y-87221000D01*
X135732000Y-87261000D02*
X134330000Y-87261000D01*
X132370000Y-87261000D02*
X130968000Y-87261000D01*
X135716000Y-87301000D02*
X134330000Y-87301000D01*
X132370000Y-87301000D02*
X130984000Y-87301000D01*
X135700000Y-87341000D02*
X134330000Y-87341000D01*
X132370000Y-87341000D02*
X131000000Y-87341000D01*
X135683000Y-87381000D02*
X134330000Y-87381000D01*
X132370000Y-87381000D02*
X131017000Y-87381000D01*
X135665000Y-87421000D02*
X134330000Y-87421000D01*
X132370000Y-87421000D02*
X131035000Y-87421000D01*
X135646000Y-87461000D02*
X134330000Y-87461000D01*
X132370000Y-87461000D02*
X131054000Y-87461000D01*
X135626000Y-87501000D02*
X134330000Y-87501000D01*
X132370000Y-87501000D02*
X131074000Y-87501000D01*
X135606000Y-87541000D02*
X134330000Y-87541000D01*
X132370000Y-87541000D02*
X131094000Y-87541000D01*
X135584000Y-87581000D02*
X134330000Y-87581000D01*
X132370000Y-87581000D02*
X131116000Y-87581000D01*
X135562000Y-87621000D02*
X134330000Y-87621000D01*
X132370000Y-87621000D02*
X131138000Y-87621000D01*
X135539000Y-87661000D02*
X134330000Y-87661000D01*
X132370000Y-87661000D02*
X131161000Y-87661000D01*
X135515000Y-87701000D02*
X134330000Y-87701000D01*
X132370000Y-87701000D02*
X131185000Y-87701000D01*
X135490000Y-87741000D02*
X134330000Y-87741000D01*
X132370000Y-87741000D02*
X131210000Y-87741000D01*
X135463000Y-87781000D02*
X134330000Y-87781000D01*
X132370000Y-87781000D02*
X131237000Y-87781000D01*
X135436000Y-87821000D02*
X134330000Y-87821000D01*
X132370000Y-87821000D02*
X131264000Y-87821000D01*
X135408000Y-87861000D02*
X134330000Y-87861000D01*
X132370000Y-87861000D02*
X131292000Y-87861000D01*
X135378000Y-87901000D02*
X134330000Y-87901000D01*
X132370000Y-87901000D02*
X131322000Y-87901000D01*
X135347000Y-87941000D02*
X134330000Y-87941000D01*
X132370000Y-87941000D02*
X131353000Y-87941000D01*
X135315000Y-87981000D02*
X134330000Y-87981000D01*
X132370000Y-87981000D02*
X131385000Y-87981000D01*
X135282000Y-88021000D02*
X134330000Y-88021000D01*
X132370000Y-88021000D02*
X131418000Y-88021000D01*
X135247000Y-88061000D02*
X134330000Y-88061000D01*
X132370000Y-88061000D02*
X131453000Y-88061000D01*
X135211000Y-88101000D02*
X134330000Y-88101000D01*
X132370000Y-88101000D02*
X131489000Y-88101000D01*
X135173000Y-88141000D02*
X134330000Y-88141000D01*
X132370000Y-88141000D02*
X131527000Y-88141000D01*
X135133000Y-88181000D02*
X134330000Y-88181000D01*
X132370000Y-88181000D02*
X131567000Y-88181000D01*
X135092000Y-88221000D02*
X134330000Y-88221000D01*
X132370000Y-88221000D02*
X131608000Y-88221000D01*
X135049000Y-88261000D02*
X134330000Y-88261000D01*
X132370000Y-88261000D02*
X131651000Y-88261000D01*
X135004000Y-88301000D02*
X134330000Y-88301000D01*
X132370000Y-88301000D02*
X131696000Y-88301000D01*
X134956000Y-88341000D02*
X134330000Y-88341000D01*
X132370000Y-88341000D02*
X131744000Y-88341000D01*
X134906000Y-88381000D02*
X134330000Y-88381000D01*
X132370000Y-88381000D02*
X131794000Y-88381000D01*
X134854000Y-88421000D02*
X134330000Y-88421000D01*
X132370000Y-88421000D02*
X131846000Y-88421000D01*
X134798000Y-88461000D02*
X134330000Y-88461000D01*
X132370000Y-88461000D02*
X131902000Y-88461000D01*
X134740000Y-88501000D02*
X134330000Y-88501000D01*
X132370000Y-88501000D02*
X131960000Y-88501000D01*
X134677000Y-88541000D02*
X134330000Y-88541000D01*
X132370000Y-88541000D02*
X132023000Y-88541000D01*
X134611000Y-88581000D02*
X132089000Y-88581000D01*
X134539000Y-88621000D02*
X132161000Y-88621000D01*
X134462000Y-88661000D02*
X132238000Y-88661000D01*
X134378000Y-88701000D02*
X132322000Y-88701000D01*
X134284000Y-88741000D02*
X132416000Y-88741000D01*
X134179000Y-88781000D02*
X132521000Y-88781000D01*
X134057000Y-88821000D02*
X132643000Y-88821000D01*
X133909000Y-88861000D02*
X132791000Y-88861000D01*
X133704000Y-88901000D02*
X132996000Y-88901000D01*
X133350000Y-82890000D02*
X133350000Y-84090000D01*
X134000000Y-83490000D02*
X132700000Y-83490000D01*
X147365000Y-107725000D02*
X147365000Y-109445000D01*
X147365000Y-109445000D02*
X151085000Y-109445000D01*
X151085000Y-109445000D02*
X151085000Y-107725000D01*
X151085000Y-107725000D02*
X147365000Y-107725000D01*
X146295000Y-108585000D02*
X147365000Y-108585000D01*
X152155000Y-108585000D02*
X151085000Y-108585000D01*
X141560000Y-109445000D02*
X141560000Y-107725000D01*
X141560000Y-107725000D02*
X137840000Y-107725000D01*
X137840000Y-107725000D02*
X137840000Y-109445000D01*
X137840000Y-109445000D02*
X141560000Y-109445000D01*
X142630000Y-108585000D02*
X141560000Y-108585000D01*
X136770000Y-108585000D02*
X137840000Y-108585000D01*
D11*
X141478000Y-88138000D02*
X138049000Y-88138000D01*
X141478000Y-78486000D02*
X138049000Y-78486000D01*
X142621000Y-88646000D02*
X142621000Y-77978000D01*
X141605000Y-85090000D02*
X142875000Y-85090000D01*
X141605000Y-81534000D02*
X142875000Y-81534000D01*
X141478000Y-77978000D02*
X141478000Y-88646000D01*
X138049000Y-88646000D02*
X138049000Y-77978000D01*
X142875000Y-77978000D02*
X138049000Y-77978000D01*
X142875000Y-88646000D02*
X138049000Y-88646000D01*
X142875000Y-88646000D02*
X142875000Y-77978000D01*
D15*
X112395000Y-79375000D02*
X122555000Y-79375000D01*
X112395000Y-78105000D02*
X112395000Y-85725000D01*
X112395000Y-85725000D02*
X122555000Y-85725000D01*
X122555000Y-85725000D02*
X122555000Y-78105000D01*
X122555000Y-78105000D02*
X112395000Y-78105000D01*
X156905000Y-81975000D02*
X156905000Y-79315000D01*
X149225000Y-81975000D02*
X156905000Y-81975000D01*
X149225000Y-79315000D02*
X156905000Y-79315000D01*
X149225000Y-81975000D02*
X149225000Y-79315000D01*
X147955000Y-81975000D02*
X146625000Y-81975000D01*
X146625000Y-81975000D02*
X146625000Y-80645000D01*
X147410277Y-84074278D02*
G75*
G03X147410000Y-88685580I1179723J-2305722D01*
G01*
X149769723Y-84074278D02*
G75*
G02X149770000Y-88685580I-1179723J-2305722D01*
G01*
X149769723Y-84074278D02*
G75*
G03X147410000Y-84074420I-1179723J-2305722D01*
G01*
X146040000Y-86380000D02*
X151140000Y-86380000D01*
X146040000Y-86340000D02*
X151140000Y-86340000D01*
X146041000Y-86300000D02*
X151139000Y-86300000D01*
X146042000Y-86260000D02*
X151138000Y-86260000D01*
X146044000Y-86220000D02*
X151136000Y-86220000D01*
X146047000Y-86180000D02*
X151133000Y-86180000D01*
X146051000Y-86140000D02*
X151129000Y-86140000D01*
X146055000Y-86100000D02*
X147610000Y-86100000D01*
X149570000Y-86100000D02*
X151125000Y-86100000D01*
X146059000Y-86060000D02*
X147610000Y-86060000D01*
X149570000Y-86060000D02*
X151121000Y-86060000D01*
X146065000Y-86020000D02*
X147610000Y-86020000D01*
X149570000Y-86020000D02*
X151115000Y-86020000D01*
X146071000Y-85980000D02*
X147610000Y-85980000D01*
X149570000Y-85980000D02*
X151109000Y-85980000D01*
X146077000Y-85940000D02*
X147610000Y-85940000D01*
X149570000Y-85940000D02*
X151103000Y-85940000D01*
X146084000Y-85900000D02*
X147610000Y-85900000D01*
X149570000Y-85900000D02*
X151096000Y-85900000D01*
X146092000Y-85860000D02*
X147610000Y-85860000D01*
X149570000Y-85860000D02*
X151088000Y-85860000D01*
X146101000Y-85820000D02*
X147610000Y-85820000D01*
X149570000Y-85820000D02*
X151079000Y-85820000D01*
X146110000Y-85780000D02*
X147610000Y-85780000D01*
X149570000Y-85780000D02*
X151070000Y-85780000D01*
X146120000Y-85740000D02*
X147610000Y-85740000D01*
X149570000Y-85740000D02*
X151060000Y-85740000D01*
X146130000Y-85700000D02*
X147610000Y-85700000D01*
X149570000Y-85700000D02*
X151050000Y-85700000D01*
X146142000Y-85659000D02*
X147610000Y-85659000D01*
X149570000Y-85659000D02*
X151038000Y-85659000D01*
X146154000Y-85619000D02*
X147610000Y-85619000D01*
X149570000Y-85619000D02*
X151026000Y-85619000D01*
X146166000Y-85579000D02*
X147610000Y-85579000D01*
X149570000Y-85579000D02*
X151014000Y-85579000D01*
X146180000Y-85539000D02*
X147610000Y-85539000D01*
X149570000Y-85539000D02*
X151000000Y-85539000D01*
X146194000Y-85499000D02*
X147610000Y-85499000D01*
X149570000Y-85499000D02*
X150986000Y-85499000D01*
X146208000Y-85459000D02*
X147610000Y-85459000D01*
X149570000Y-85459000D02*
X150972000Y-85459000D01*
X146224000Y-85419000D02*
X147610000Y-85419000D01*
X149570000Y-85419000D02*
X150956000Y-85419000D01*
X146240000Y-85379000D02*
X147610000Y-85379000D01*
X149570000Y-85379000D02*
X150940000Y-85379000D01*
X146257000Y-85339000D02*
X147610000Y-85339000D01*
X149570000Y-85339000D02*
X150923000Y-85339000D01*
X146275000Y-85299000D02*
X147610000Y-85299000D01*
X149570000Y-85299000D02*
X150905000Y-85299000D01*
X146294000Y-85259000D02*
X147610000Y-85259000D01*
X149570000Y-85259000D02*
X150886000Y-85259000D01*
X146314000Y-85219000D02*
X147610000Y-85219000D01*
X149570000Y-85219000D02*
X150866000Y-85219000D01*
X146334000Y-85179000D02*
X147610000Y-85179000D01*
X149570000Y-85179000D02*
X150846000Y-85179000D01*
X146356000Y-85139000D02*
X147610000Y-85139000D01*
X149570000Y-85139000D02*
X150824000Y-85139000D01*
X146378000Y-85099000D02*
X147610000Y-85099000D01*
X149570000Y-85099000D02*
X150802000Y-85099000D01*
X146401000Y-85059000D02*
X147610000Y-85059000D01*
X149570000Y-85059000D02*
X150779000Y-85059000D01*
X146425000Y-85019000D02*
X147610000Y-85019000D01*
X149570000Y-85019000D02*
X150755000Y-85019000D01*
X146450000Y-84979000D02*
X147610000Y-84979000D01*
X149570000Y-84979000D02*
X150730000Y-84979000D01*
X146477000Y-84939000D02*
X147610000Y-84939000D01*
X149570000Y-84939000D02*
X150703000Y-84939000D01*
X146504000Y-84899000D02*
X147610000Y-84899000D01*
X149570000Y-84899000D02*
X150676000Y-84899000D01*
X146532000Y-84859000D02*
X147610000Y-84859000D01*
X149570000Y-84859000D02*
X150648000Y-84859000D01*
X146562000Y-84819000D02*
X147610000Y-84819000D01*
X149570000Y-84819000D02*
X150618000Y-84819000D01*
X146593000Y-84779000D02*
X147610000Y-84779000D01*
X149570000Y-84779000D02*
X150587000Y-84779000D01*
X146625000Y-84739000D02*
X147610000Y-84739000D01*
X149570000Y-84739000D02*
X150555000Y-84739000D01*
X146658000Y-84699000D02*
X147610000Y-84699000D01*
X149570000Y-84699000D02*
X150522000Y-84699000D01*
X146693000Y-84659000D02*
X147610000Y-84659000D01*
X149570000Y-84659000D02*
X150487000Y-84659000D01*
X146729000Y-84619000D02*
X147610000Y-84619000D01*
X149570000Y-84619000D02*
X150451000Y-84619000D01*
X146767000Y-84579000D02*
X147610000Y-84579000D01*
X149570000Y-84579000D02*
X150413000Y-84579000D01*
X146807000Y-84539000D02*
X147610000Y-84539000D01*
X149570000Y-84539000D02*
X150373000Y-84539000D01*
X146848000Y-84499000D02*
X147610000Y-84499000D01*
X149570000Y-84499000D02*
X150332000Y-84499000D01*
X146891000Y-84459000D02*
X147610000Y-84459000D01*
X149570000Y-84459000D02*
X150289000Y-84459000D01*
X146936000Y-84419000D02*
X147610000Y-84419000D01*
X149570000Y-84419000D02*
X150244000Y-84419000D01*
X146984000Y-84379000D02*
X147610000Y-84379000D01*
X149570000Y-84379000D02*
X150196000Y-84379000D01*
X147034000Y-84339000D02*
X147610000Y-84339000D01*
X149570000Y-84339000D02*
X150146000Y-84339000D01*
X147086000Y-84299000D02*
X147610000Y-84299000D01*
X149570000Y-84299000D02*
X150094000Y-84299000D01*
X147142000Y-84259000D02*
X147610000Y-84259000D01*
X149570000Y-84259000D02*
X150038000Y-84259000D01*
X147200000Y-84219000D02*
X147610000Y-84219000D01*
X149570000Y-84219000D02*
X149980000Y-84219000D01*
X147263000Y-84179000D02*
X147610000Y-84179000D01*
X149570000Y-84179000D02*
X149917000Y-84179000D01*
X147329000Y-84139000D02*
X149851000Y-84139000D01*
X147401000Y-84099000D02*
X149779000Y-84099000D01*
X147478000Y-84059000D02*
X149702000Y-84059000D01*
X147562000Y-84019000D02*
X149618000Y-84019000D01*
X147656000Y-83979000D02*
X149524000Y-83979000D01*
X147761000Y-83939000D02*
X149419000Y-83939000D01*
X147883000Y-83899000D02*
X149297000Y-83899000D01*
X148031000Y-83859000D02*
X149149000Y-83859000D01*
X148236000Y-83819000D02*
X148944000Y-83819000D01*
X148590000Y-89830000D02*
X148590000Y-88630000D01*
X147940000Y-89230000D02*
X149240000Y-89230000D01*
X153830000Y-88140000D02*
X153830000Y-84620000D01*
X156050000Y-88140000D02*
X156050000Y-84620000D01*
X153830000Y-88140000D02*
X153944000Y-88140000D01*
X155936000Y-88140000D02*
X156050000Y-88140000D01*
X153830000Y-84620000D02*
X153944000Y-84620000D01*
X155936000Y-84620000D02*
X156050000Y-84620000D01*
X140640000Y-114340000D02*
G75*
G03X140640000Y-114340000I-900000J0D01*
G01*
X136530000Y-115967000D02*
X136530000Y-111130000D01*
X142950000Y-115967000D02*
X142950000Y-111130000D01*
X137998000Y-117550000D02*
X141483000Y-117550000D01*
X136530000Y-111130000D02*
X138983000Y-111130000D01*
X140498000Y-111130000D02*
X142950000Y-111130000D01*
X128315000Y-107725000D02*
X128315000Y-109445000D01*
X128315000Y-109445000D02*
X132035000Y-109445000D01*
X132035000Y-109445000D02*
X132035000Y-107725000D01*
X132035000Y-107725000D02*
X128315000Y-107725000D01*
X127245000Y-108585000D02*
X128315000Y-108585000D01*
X133105000Y-108585000D02*
X132035000Y-108585000D01*
X128635000Y-117895000D02*
X133135000Y-117895000D01*
X127385000Y-113895000D02*
X127385000Y-115395000D01*
X133135000Y-111395000D02*
X128635000Y-111395000D01*
X134385000Y-115395000D02*
X134385000Y-113895000D01*
X123304000Y-95878000D02*
X126124000Y-95878000D01*
X126124000Y-95878000D02*
X126124000Y-90558000D01*
X126124000Y-90558000D02*
X123304000Y-90558000D01*
X123304000Y-90558000D02*
X123304000Y-95878000D01*
X124714000Y-97218000D02*
X124714000Y-95878000D01*
X124714000Y-89218000D02*
X124714000Y-90558000D01*
X123304000Y-95038000D02*
X126124000Y-95038000D01*
X123441000Y-77965000D02*
X123441000Y-79235000D01*
X123441000Y-77965000D02*
X125981000Y-77965000D01*
X123641000Y-78165000D02*
X133661000Y-78165000D01*
X133661000Y-78165000D02*
X133661000Y-83125000D01*
X133661000Y-83125000D02*
X123641000Y-83125000D01*
X123641000Y-83125000D02*
X123641000Y-78165000D01*
X126621000Y-80010000D02*
X126621000Y-81280000D01*
X126621000Y-81280000D02*
X130681000Y-81280000D01*
X130681000Y-81280000D02*
X130681000Y-80010000D01*
X130681000Y-80010000D02*
X126621000Y-80010000D01*
X128651000Y-80010000D02*
X128651000Y-81280000D01*
D11*
X154618571Y-100837857D02*
X155618571Y-100837857D01*
X154618571Y-101480714D02*
X155404286Y-101480714D01*
X155547143Y-101409286D01*
X155618571Y-101266428D01*
X155618571Y-101052143D01*
X155547143Y-100909286D01*
X155475714Y-100837857D01*
X155618571Y-100123571D02*
X154118571Y-100123571D01*
X154118571Y-99552143D01*
X154190000Y-99409285D01*
X154261429Y-99337857D01*
X154404286Y-99266428D01*
X154618571Y-99266428D01*
X154761429Y-99337857D01*
X154832857Y-99409285D01*
X154904286Y-99552143D01*
X154904286Y-100123571D01*
X155618571Y-97837857D02*
X155618571Y-98695000D01*
X155618571Y-98266428D02*
X154118571Y-98266428D01*
X154332857Y-98409285D01*
X154475714Y-98552143D01*
X154547143Y-98695000D01*
X132041428Y-99945000D02*
X132755714Y-99945000D01*
X131898571Y-100373571D02*
X132398571Y-98873571D01*
X132898571Y-100373571D01*
X134255714Y-100373571D02*
X133755714Y-99659286D01*
X133398571Y-100373571D02*
X133398571Y-98873571D01*
X133969999Y-98873571D01*
X134112857Y-98945000D01*
X134184285Y-99016429D01*
X134255714Y-99159286D01*
X134255714Y-99373571D01*
X134184285Y-99516429D01*
X134112857Y-99587857D01*
X133969999Y-99659286D01*
X133398571Y-99659286D01*
X134898571Y-100373571D02*
X134898571Y-98873571D01*
X135255714Y-98873571D01*
X135469999Y-98945000D01*
X135612857Y-99087857D01*
X135684285Y-99230714D01*
X135755714Y-99516429D01*
X135755714Y-99730714D01*
X135684285Y-100016429D01*
X135612857Y-100159286D01*
X135469999Y-100302143D01*
X135255714Y-100373571D01*
X134898571Y-100373571D01*
X136398571Y-98873571D02*
X136398571Y-100087857D01*
X136469999Y-100230714D01*
X136541428Y-100302143D01*
X136684285Y-100373571D01*
X136969999Y-100373571D01*
X137112857Y-100302143D01*
X137184285Y-100230714D01*
X137255714Y-100087857D01*
X137255714Y-98873571D01*
X137970000Y-100373571D02*
X137970000Y-98873571D01*
X138541428Y-98873571D01*
X138684286Y-98945000D01*
X138755714Y-99016429D01*
X138827143Y-99159286D01*
X138827143Y-99373571D01*
X138755714Y-99516429D01*
X138684286Y-99587857D01*
X138541428Y-99659286D01*
X137970000Y-99659286D01*
X140327143Y-100373571D02*
X139827143Y-99659286D01*
X139470000Y-100373571D02*
X139470000Y-98873571D01*
X140041428Y-98873571D01*
X140184286Y-98945000D01*
X140255714Y-99016429D01*
X140327143Y-99159286D01*
X140327143Y-99373571D01*
X140255714Y-99516429D01*
X140184286Y-99587857D01*
X140041428Y-99659286D01*
X139470000Y-99659286D01*
X141255714Y-98873571D02*
X141541428Y-98873571D01*
X141684286Y-98945000D01*
X141827143Y-99087857D01*
X141898571Y-99373571D01*
X141898571Y-99873571D01*
X141827143Y-100159286D01*
X141684286Y-100302143D01*
X141541428Y-100373571D01*
X141255714Y-100373571D01*
X141112857Y-100302143D01*
X140970000Y-100159286D01*
X140898571Y-99873571D01*
X140898571Y-99373571D01*
X140970000Y-99087857D01*
X141112857Y-98945000D01*
X141255714Y-98873571D01*
X142541429Y-100373571D02*
X142541429Y-98873571D01*
X143041429Y-99945000D01*
X143541429Y-98873571D01*
X143541429Y-100373571D01*
X144255715Y-100373571D02*
X144255715Y-98873571D01*
X144970001Y-100373571D02*
X144970001Y-98873571D01*
X145827144Y-100373571D01*
X145827144Y-98873571D01*
X146541430Y-100373571D02*
X146541430Y-98873571D01*
X147255716Y-99802143D02*
X148398573Y-99802143D01*
X149755716Y-98873571D02*
X149470002Y-98873571D01*
X149327145Y-98945000D01*
X149255716Y-99016429D01*
X149112859Y-99230714D01*
X149041430Y-99516429D01*
X149041430Y-100087857D01*
X149112859Y-100230714D01*
X149184287Y-100302143D01*
X149327145Y-100373571D01*
X149612859Y-100373571D01*
X149755716Y-100302143D01*
X149827145Y-100230714D01*
X149898573Y-100087857D01*
X149898573Y-99730714D01*
X149827145Y-99587857D01*
X149755716Y-99516429D01*
X149612859Y-99445000D01*
X149327145Y-99445000D01*
X149184287Y-99516429D01*
X149112859Y-99587857D01*
X149041430Y-99730714D01*
D13*
X147041810Y-124030619D02*
X147041810Y-123014619D01*
X147622381Y-124030619D01*
X147622381Y-123014619D01*
X148009429Y-123014619D02*
X148686762Y-124030619D01*
X148686762Y-123014619D02*
X148009429Y-124030619D01*
X148928667Y-123014619D02*
X149509238Y-123014619D01*
X149218953Y-124030619D02*
X149218953Y-123014619D01*
X149606000Y-124127381D02*
X150380095Y-124127381D01*
X150622000Y-124030619D02*
X150622000Y-123014619D01*
X150960666Y-123740333D01*
X151299333Y-123014619D01*
X151299333Y-124030619D01*
X151976667Y-123014619D02*
X152170190Y-123014619D01*
X152266952Y-123063000D01*
X152363714Y-123159762D01*
X152412095Y-123353286D01*
X152412095Y-123691952D01*
X152363714Y-123885476D01*
X152266952Y-123982238D01*
X152170190Y-124030619D01*
X151976667Y-124030619D01*
X151879905Y-123982238D01*
X151783143Y-123885476D01*
X151734762Y-123691952D01*
X151734762Y-123353286D01*
X151783143Y-123159762D01*
X151879905Y-123063000D01*
X151976667Y-123014619D01*
X152702381Y-123014619D02*
X153282952Y-123014619D01*
X152992667Y-124030619D02*
X152992667Y-123014619D01*
X153815143Y-123014619D02*
X154008666Y-123014619D01*
X154105428Y-123063000D01*
X154202190Y-123159762D01*
X154250571Y-123353286D01*
X154250571Y-123691952D01*
X154202190Y-123885476D01*
X154105428Y-123982238D01*
X154008666Y-124030619D01*
X153815143Y-124030619D01*
X153718381Y-123982238D01*
X153621619Y-123885476D01*
X153573238Y-123691952D01*
X153573238Y-123353286D01*
X153621619Y-123159762D01*
X153718381Y-123063000D01*
X153815143Y-123014619D01*
X155266571Y-124030619D02*
X154927905Y-123546810D01*
X154686000Y-124030619D02*
X154686000Y-123014619D01*
X155073047Y-123014619D01*
X155169809Y-123063000D01*
X155218190Y-123111381D01*
X155266571Y-123208143D01*
X155266571Y-123353286D01*
X155218190Y-123450048D01*
X155169809Y-123498429D01*
X155073047Y-123546810D01*
X154686000Y-123546810D01*
D11*
X128674762Y-123888333D02*
X128722381Y-123745476D01*
X128722381Y-123507380D01*
X128674762Y-123412142D01*
X128627143Y-123364523D01*
X128531905Y-123316904D01*
X128436667Y-123316904D01*
X128341429Y-123364523D01*
X128293810Y-123412142D01*
X128246190Y-123507380D01*
X128198571Y-123697857D01*
X128150952Y-123793095D01*
X128103333Y-123840714D01*
X128008095Y-123888333D01*
X127912857Y-123888333D01*
X127817619Y-123840714D01*
X127770000Y-123793095D01*
X127722381Y-123697857D01*
X127722381Y-123459761D01*
X127770000Y-123316904D01*
X127722381Y-122983571D02*
X128722381Y-122745476D01*
X128008095Y-122554999D01*
X128722381Y-122364523D01*
X127722381Y-122126428D01*
X128722381Y-121221666D02*
X128722381Y-121793095D01*
X128722381Y-121507381D02*
X127722381Y-121507381D01*
X127865238Y-121602619D01*
X127960476Y-121697857D01*
X128008095Y-121793095D01*
D16*
X116497706Y-105227892D02*
X116497706Y-104226762D01*
X117546510Y-105132546D02*
X117498837Y-105180219D01*
X117355818Y-105227892D01*
X117260472Y-105227892D01*
X117117454Y-105180219D01*
X117022108Y-105084874D01*
X116974435Y-104989528D01*
X116926762Y-104798836D01*
X116926762Y-104655818D01*
X116974435Y-104465126D01*
X117022108Y-104369781D01*
X117117454Y-104274435D01*
X117260472Y-104226762D01*
X117355818Y-104226762D01*
X117498837Y-104274435D01*
X117546510Y-104322108D01*
X118499967Y-105227892D02*
X117927892Y-105227892D01*
X118213930Y-105227892D02*
X118213930Y-104226762D01*
X118118584Y-104369781D01*
X118023238Y-104465126D01*
X117927892Y-104512799D01*
X117928087Y-100046574D02*
X117928087Y-100523507D01*
X116926527Y-100523507D01*
X117021913Y-99760414D02*
X116974220Y-99712720D01*
X116926527Y-99617334D01*
X116926527Y-99378867D01*
X116974220Y-99283480D01*
X117021913Y-99235787D01*
X117117300Y-99188094D01*
X117212687Y-99188094D01*
X117355767Y-99235787D01*
X117928087Y-99808107D01*
X117928087Y-99188094D01*
X117928087Y-98711160D02*
X117928087Y-98520387D01*
X117880393Y-98425000D01*
X117832700Y-98377307D01*
X117689620Y-98281920D01*
X117498847Y-98234227D01*
X117117300Y-98234227D01*
X117021913Y-98281920D01*
X116974220Y-98329613D01*
X116926527Y-98425000D01*
X116926527Y-98615773D01*
X116974220Y-98711160D01*
X117021913Y-98758853D01*
X117117300Y-98806547D01*
X117355767Y-98806547D01*
X117451153Y-98758853D01*
X117498847Y-98711160D01*
X117546540Y-98615773D01*
X117546540Y-98425000D01*
X117498847Y-98329613D01*
X117451153Y-98281920D01*
X117355767Y-98234227D01*
X116926527Y-97900373D02*
X116926527Y-97280360D01*
X117308073Y-97614213D01*
X117308073Y-97471133D01*
X117355767Y-97375746D01*
X117403460Y-97328053D01*
X117498847Y-97280360D01*
X117737313Y-97280360D01*
X117832700Y-97328053D01*
X117880393Y-97375746D01*
X117928087Y-97471133D01*
X117928087Y-97757293D01*
X117880393Y-97852680D01*
X117832700Y-97900373D01*
X117928087Y-96851119D02*
X116926527Y-96851119D01*
X116926527Y-96612653D01*
X116974220Y-96469573D01*
X117069607Y-96374186D01*
X117164993Y-96326493D01*
X117355767Y-96278799D01*
X117498847Y-96278799D01*
X117689620Y-96326493D01*
X117785007Y-96374186D01*
X117880393Y-96469573D01*
X117928087Y-96612653D01*
X117928087Y-96851119D01*
D13*
X114656810Y-124030619D02*
X114656810Y-123014619D01*
X115237381Y-124030619D01*
X115237381Y-123014619D01*
X115624429Y-123014619D02*
X116301762Y-124030619D01*
X116301762Y-123014619D02*
X115624429Y-124030619D01*
X116543667Y-123014619D02*
X117124238Y-123014619D01*
X116833953Y-124030619D02*
X116833953Y-123014619D01*
X117221000Y-124127381D02*
X117995095Y-124127381D01*
X118237000Y-124030619D02*
X118237000Y-123014619D01*
X118575666Y-123740333D01*
X118914333Y-123014619D01*
X118914333Y-124030619D01*
X119591667Y-123014619D02*
X119785190Y-123014619D01*
X119881952Y-123063000D01*
X119978714Y-123159762D01*
X120027095Y-123353286D01*
X120027095Y-123691952D01*
X119978714Y-123885476D01*
X119881952Y-123982238D01*
X119785190Y-124030619D01*
X119591667Y-124030619D01*
X119494905Y-123982238D01*
X119398143Y-123885476D01*
X119349762Y-123691952D01*
X119349762Y-123353286D01*
X119398143Y-123159762D01*
X119494905Y-123063000D01*
X119591667Y-123014619D01*
X120317381Y-123014619D02*
X120897952Y-123014619D01*
X120607667Y-124030619D02*
X120607667Y-123014619D01*
X121430143Y-123014619D02*
X121623666Y-123014619D01*
X121720428Y-123063000D01*
X121817190Y-123159762D01*
X121865571Y-123353286D01*
X121865571Y-123691952D01*
X121817190Y-123885476D01*
X121720428Y-123982238D01*
X121623666Y-124030619D01*
X121430143Y-124030619D01*
X121333381Y-123982238D01*
X121236619Y-123885476D01*
X121188238Y-123691952D01*
X121188238Y-123353286D01*
X121236619Y-123159762D01*
X121333381Y-123063000D01*
X121430143Y-123014619D01*
X122881571Y-124030619D02*
X122542905Y-123546810D01*
X122301000Y-124030619D02*
X122301000Y-123014619D01*
X122688047Y-123014619D01*
X122784809Y-123063000D01*
X122833190Y-123111381D01*
X122881571Y-123208143D01*
X122881571Y-123353286D01*
X122833190Y-123450048D01*
X122784809Y-123498429D01*
X122688047Y-123546810D01*
X122301000Y-123546810D01*
D11*
X133183334Y-90527143D02*
X133135715Y-90574762D01*
X132992858Y-90622381D01*
X132897620Y-90622381D01*
X132754762Y-90574762D01*
X132659524Y-90479524D01*
X132611905Y-90384286D01*
X132564286Y-90193810D01*
X132564286Y-90050952D01*
X132611905Y-89860476D01*
X132659524Y-89765238D01*
X132754762Y-89670000D01*
X132897620Y-89622381D01*
X132992858Y-89622381D01*
X133135715Y-89670000D01*
X133183334Y-89717619D01*
X134135715Y-90622381D02*
X133564286Y-90622381D01*
X133850000Y-90622381D02*
X133850000Y-89622381D01*
X133754762Y-89765238D01*
X133659524Y-89860476D01*
X133564286Y-89908095D01*
X149058334Y-109037381D02*
X148725000Y-108561190D01*
X148486905Y-109037381D02*
X148486905Y-108037381D01*
X148867858Y-108037381D01*
X148963096Y-108085000D01*
X149010715Y-108132619D01*
X149058334Y-108227857D01*
X149058334Y-108370714D01*
X149010715Y-108465952D01*
X148963096Y-108513571D01*
X148867858Y-108561190D01*
X148486905Y-108561190D01*
X150010715Y-109037381D02*
X149439286Y-109037381D01*
X149725000Y-109037381D02*
X149725000Y-108037381D01*
X149629762Y-108180238D01*
X149534524Y-108275476D01*
X149439286Y-108323095D01*
X139533334Y-109037381D02*
X139200000Y-108561190D01*
X138961905Y-109037381D02*
X138961905Y-108037381D01*
X139342858Y-108037381D01*
X139438096Y-108085000D01*
X139485715Y-108132619D01*
X139533334Y-108227857D01*
X139533334Y-108370714D01*
X139485715Y-108465952D01*
X139438096Y-108513571D01*
X139342858Y-108561190D01*
X138961905Y-108561190D01*
X139914286Y-108132619D02*
X139961905Y-108085000D01*
X140057143Y-108037381D01*
X140295239Y-108037381D01*
X140390477Y-108085000D01*
X140438096Y-108132619D01*
X140485715Y-108227857D01*
X140485715Y-108323095D01*
X140438096Y-108465952D01*
X139866667Y-109037381D01*
X140485715Y-109037381D01*
X143089381Y-89153905D02*
X143898905Y-89153905D01*
X143994143Y-89106286D01*
X144041762Y-89058667D01*
X144089381Y-88963429D01*
X144089381Y-88772952D01*
X144041762Y-88677714D01*
X143994143Y-88630095D01*
X143898905Y-88582476D01*
X143089381Y-88582476D01*
X144089381Y-87582476D02*
X144089381Y-88153905D01*
X144089381Y-87868191D02*
X143089381Y-87868191D01*
X143232238Y-87963429D01*
X143327476Y-88058667D01*
X143375095Y-88153905D01*
X116355953Y-87050571D02*
X116498810Y-87098190D01*
X116546429Y-87145810D01*
X116594048Y-87241048D01*
X116594048Y-87383905D01*
X116546429Y-87479143D01*
X116498810Y-87526762D01*
X116403572Y-87574381D01*
X116022619Y-87574381D01*
X116022619Y-86574381D01*
X116355953Y-86574381D01*
X116451191Y-86622000D01*
X116498810Y-86669619D01*
X116546429Y-86764857D01*
X116546429Y-86860095D01*
X116498810Y-86955333D01*
X116451191Y-87002952D01*
X116355953Y-87050571D01*
X116022619Y-87050571D01*
X116975000Y-87288667D02*
X117451191Y-87288667D01*
X116879762Y-87574381D02*
X117213095Y-86574381D01*
X117546429Y-87574381D01*
X117736905Y-86574381D02*
X118308334Y-86574381D01*
X118022619Y-87574381D02*
X118022619Y-86574381D01*
X118498810Y-86574381D02*
X119070239Y-86574381D01*
X118784524Y-87574381D02*
X118784524Y-86574381D01*
X144113334Y-80843381D02*
X143780000Y-80367190D01*
X143541905Y-80843381D02*
X143541905Y-79843381D01*
X143922858Y-79843381D01*
X144018096Y-79891000D01*
X144065715Y-79938619D01*
X144113334Y-80033857D01*
X144113334Y-80176714D01*
X144065715Y-80271952D01*
X144018096Y-80319571D01*
X143922858Y-80367190D01*
X143541905Y-80367190D01*
X145113334Y-80748143D02*
X145065715Y-80795762D01*
X144922858Y-80843381D01*
X144827620Y-80843381D01*
X144684762Y-80795762D01*
X144589524Y-80700524D01*
X144541905Y-80605286D01*
X144494286Y-80414810D01*
X144494286Y-80271952D01*
X144541905Y-80081476D01*
X144589524Y-79986238D01*
X144684762Y-79891000D01*
X144827620Y-79843381D01*
X144922858Y-79843381D01*
X145065715Y-79891000D01*
X145113334Y-79938619D01*
X146065715Y-80843381D02*
X145494286Y-80843381D01*
X145780000Y-80843381D02*
X145780000Y-79843381D01*
X145684762Y-79986238D01*
X145589524Y-80081476D01*
X145494286Y-80129095D01*
X144486334Y-84685143D02*
X144438715Y-84732762D01*
X144295858Y-84780381D01*
X144200620Y-84780381D01*
X144057762Y-84732762D01*
X143962524Y-84637524D01*
X143914905Y-84542286D01*
X143867286Y-84351810D01*
X143867286Y-84208952D01*
X143914905Y-84018476D01*
X143962524Y-83923238D01*
X144057762Y-83828000D01*
X144200620Y-83780381D01*
X144295858Y-83780381D01*
X144438715Y-83828000D01*
X144486334Y-83875619D01*
X144867286Y-83875619D02*
X144914905Y-83828000D01*
X145010143Y-83780381D01*
X145248239Y-83780381D01*
X145343477Y-83828000D01*
X145391096Y-83875619D01*
X145438715Y-83970857D01*
X145438715Y-84066095D01*
X145391096Y-84208952D01*
X144819667Y-84780381D01*
X145438715Y-84780381D01*
X153265143Y-86526666D02*
X153312762Y-86574285D01*
X153360381Y-86717142D01*
X153360381Y-86812380D01*
X153312762Y-86955238D01*
X153217524Y-87050476D01*
X153122286Y-87098095D01*
X152931810Y-87145714D01*
X152788952Y-87145714D01*
X152598476Y-87098095D01*
X152503238Y-87050476D01*
X152408000Y-86955238D01*
X152360381Y-86812380D01*
X152360381Y-86717142D01*
X152408000Y-86574285D01*
X152455619Y-86526666D01*
X152360381Y-86193333D02*
X152360381Y-85574285D01*
X152741333Y-85907619D01*
X152741333Y-85764761D01*
X152788952Y-85669523D01*
X152836571Y-85621904D01*
X152931810Y-85574285D01*
X153169905Y-85574285D01*
X153265143Y-85621904D01*
X153312762Y-85669523D01*
X153360381Y-85764761D01*
X153360381Y-86050476D01*
X153312762Y-86145714D01*
X153265143Y-86193333D01*
X144597381Y-112355238D02*
X144121190Y-112688572D01*
X144597381Y-112926667D02*
X143597381Y-112926667D01*
X143597381Y-112545714D01*
X143645000Y-112450476D01*
X143692619Y-112402857D01*
X143787857Y-112355238D01*
X143930714Y-112355238D01*
X144025952Y-112402857D01*
X144073571Y-112450476D01*
X144121190Y-112545714D01*
X144121190Y-112926667D01*
X143597381Y-112069524D02*
X144597381Y-111736191D01*
X143597381Y-111402857D01*
X144597381Y-110545714D02*
X144597381Y-111117143D01*
X144597381Y-110831429D02*
X143597381Y-110831429D01*
X143740238Y-110926667D01*
X143835476Y-111021905D01*
X143883095Y-111117143D01*
X130008334Y-109037381D02*
X129675000Y-108561190D01*
X129436905Y-109037381D02*
X129436905Y-108037381D01*
X129817858Y-108037381D01*
X129913096Y-108085000D01*
X129960715Y-108132619D01*
X130008334Y-108227857D01*
X130008334Y-108370714D01*
X129960715Y-108465952D01*
X129913096Y-108513571D01*
X129817858Y-108561190D01*
X129436905Y-108561190D01*
X130341667Y-108037381D02*
X130960715Y-108037381D01*
X130627381Y-108418333D01*
X130770239Y-108418333D01*
X130865477Y-108465952D01*
X130913096Y-108513571D01*
X130960715Y-108608810D01*
X130960715Y-108846905D01*
X130913096Y-108942143D01*
X130865477Y-108989762D01*
X130770239Y-109037381D01*
X130484524Y-109037381D01*
X130389286Y-108989762D01*
X130341667Y-108942143D01*
X126134762Y-113728333D02*
X126182381Y-113585476D01*
X126182381Y-113347380D01*
X126134762Y-113252142D01*
X126087143Y-113204523D01*
X125991905Y-113156904D01*
X125896667Y-113156904D01*
X125801429Y-113204523D01*
X125753810Y-113252142D01*
X125706190Y-113347380D01*
X125658571Y-113537857D01*
X125610952Y-113633095D01*
X125563333Y-113680714D01*
X125468095Y-113728333D01*
X125372857Y-113728333D01*
X125277619Y-113680714D01*
X125230000Y-113633095D01*
X125182381Y-113537857D01*
X125182381Y-113299761D01*
X125230000Y-113156904D01*
X125182381Y-112823571D02*
X126182381Y-112585476D01*
X125468095Y-112394999D01*
X126182381Y-112204523D01*
X125182381Y-111966428D01*
X125277619Y-111633095D02*
X125230000Y-111585476D01*
X125182381Y-111490238D01*
X125182381Y-111252142D01*
X125230000Y-111156904D01*
X125277619Y-111109285D01*
X125372857Y-111061666D01*
X125468095Y-111061666D01*
X125610952Y-111109285D01*
X126182381Y-111680714D01*
X126182381Y-111061666D01*
X125166381Y-92305095D02*
X124166381Y-92305095D01*
X124166381Y-92067000D01*
X124214000Y-91924142D01*
X124309238Y-91828904D01*
X124404476Y-91781285D01*
X124594952Y-91733666D01*
X124737810Y-91733666D01*
X124928286Y-91781285D01*
X125023524Y-91828904D01*
X125118762Y-91924142D01*
X125166381Y-92067000D01*
X125166381Y-92305095D01*
X125166381Y-90781285D02*
X125166381Y-91352714D01*
X125166381Y-91067000D02*
X124166381Y-91067000D01*
X124309238Y-91162238D01*
X124404476Y-91257476D01*
X124452095Y-91352714D01*
X123761667Y-84653381D02*
X123761667Y-83653381D01*
X124142620Y-83653381D01*
X124237858Y-83701000D01*
X124285477Y-83748619D01*
X124333096Y-83843857D01*
X124333096Y-83986714D01*
X124285477Y-84081952D01*
X124237858Y-84129571D01*
X124142620Y-84177190D01*
X123761667Y-84177190D01*
X124666429Y-83653381D02*
X124904524Y-84653381D01*
X125095001Y-83939095D01*
X125285477Y-84653381D01*
X125523572Y-83653381D01*
X126475953Y-84653381D02*
X126142619Y-84177190D01*
X125904524Y-84653381D02*
X125904524Y-83653381D01*
X126285477Y-83653381D01*
X126380715Y-83701000D01*
X126428334Y-83748619D01*
X126475953Y-83843857D01*
X126475953Y-83986714D01*
X126428334Y-84081952D01*
X126380715Y-84129571D01*
X126285477Y-84177190D01*
X125904524Y-84177190D01*
M02*
