G04 #@! TF.FileFunction,Legend,Top*
%FSLAX46Y46*%
G04 Gerber Fmt 4.6, Leading zero omitted, Abs format (unit mm)*
G04 Created by KiCad (PCBNEW 4.0.2-stable) date 1/10/2018 5:31:38 PM*
%MOMM*%
G01*
G04 APERTURE LIST*
%ADD10C,0.100000*%
%ADD11C,0.150000*%
%ADD12C,0.500000*%
%ADD13C,0.203200*%
%ADD14C,0.152400*%
%ADD15C,0.120000*%
%ADD16C,0.050000*%
G04 APERTURE END LIST*
D10*
D11*
X161651905Y-59651666D02*
X161270952Y-59918333D01*
X161651905Y-60108809D02*
X160851905Y-60108809D01*
X160851905Y-59804047D01*
X160890000Y-59727856D01*
X160928095Y-59689761D01*
X161004286Y-59651666D01*
X161118571Y-59651666D01*
X161194762Y-59689761D01*
X161232857Y-59727856D01*
X161270952Y-59804047D01*
X161270952Y-60108809D01*
X161613810Y-59004047D02*
X161651905Y-59080237D01*
X161651905Y-59232618D01*
X161613810Y-59308809D01*
X161537619Y-59346904D01*
X161232857Y-59346904D01*
X161156667Y-59308809D01*
X161118571Y-59232618D01*
X161118571Y-59080237D01*
X161156667Y-59004047D01*
X161232857Y-58965952D01*
X161309048Y-58965952D01*
X161385238Y-59346904D01*
X161613810Y-58280238D02*
X161651905Y-58356428D01*
X161651905Y-58508809D01*
X161613810Y-58585000D01*
X161575714Y-58623095D01*
X161499524Y-58661190D01*
X161270952Y-58661190D01*
X161194762Y-58623095D01*
X161156667Y-58585000D01*
X161118571Y-58508809D01*
X161118571Y-58356428D01*
X161156667Y-58280238D01*
X161613810Y-57632619D02*
X161651905Y-57708809D01*
X161651905Y-57861190D01*
X161613810Y-57937381D01*
X161537619Y-57975476D01*
X161232857Y-57975476D01*
X161156667Y-57937381D01*
X161118571Y-57861190D01*
X161118571Y-57708809D01*
X161156667Y-57632619D01*
X161232857Y-57594524D01*
X161309048Y-57594524D01*
X161385238Y-57975476D01*
X161651905Y-57251667D02*
X161118571Y-57251667D01*
X160851905Y-57251667D02*
X160890000Y-57289762D01*
X160928095Y-57251667D01*
X160890000Y-57213572D01*
X160851905Y-57251667D01*
X160928095Y-57251667D01*
X161118571Y-56946905D02*
X161651905Y-56756429D01*
X161118571Y-56565953D01*
X161613810Y-55956429D02*
X161651905Y-56032619D01*
X161651905Y-56185000D01*
X161613810Y-56261191D01*
X161537619Y-56299286D01*
X161232857Y-56299286D01*
X161156667Y-56261191D01*
X161118571Y-56185000D01*
X161118571Y-56032619D01*
X161156667Y-55956429D01*
X161232857Y-55918334D01*
X161309048Y-55918334D01*
X161385238Y-56299286D01*
X161651905Y-55575477D02*
X161118571Y-55575477D01*
X161270952Y-55575477D02*
X161194762Y-55537382D01*
X161156667Y-55499286D01*
X161118571Y-55423096D01*
X161118571Y-55346905D01*
D10*
X174167334Y-59740000D02*
X174700667Y-59740000D01*
X175534000Y-59973333D02*
X175634000Y-60006667D01*
X175800667Y-60006667D01*
X175867334Y-59973333D01*
X175900667Y-59940000D01*
X175934000Y-59873333D01*
X175934000Y-59806667D01*
X175900667Y-59740000D01*
X175867334Y-59706667D01*
X175800667Y-59673333D01*
X175667334Y-59640000D01*
X175600667Y-59606667D01*
X175567334Y-59573333D01*
X175534000Y-59506667D01*
X175534000Y-59440000D01*
X175567334Y-59373333D01*
X175600667Y-59340000D01*
X175667334Y-59306667D01*
X175834000Y-59306667D01*
X175934000Y-59340000D01*
X176134001Y-59540000D02*
X176400667Y-59540000D01*
X176234001Y-59306667D02*
X176234001Y-59906667D01*
X176267334Y-59973333D01*
X176334001Y-60006667D01*
X176400667Y-60006667D01*
X176634001Y-60006667D02*
X176634001Y-59540000D01*
X176634001Y-59673333D02*
X176667334Y-59606667D01*
X176700667Y-59573333D01*
X176767334Y-59540000D01*
X176834001Y-59540000D01*
X177567334Y-59273333D02*
X176967334Y-60173333D01*
X177767333Y-59973333D02*
X177867333Y-60006667D01*
X178034000Y-60006667D01*
X178100667Y-59973333D01*
X178134000Y-59940000D01*
X178167333Y-59873333D01*
X178167333Y-59806667D01*
X178134000Y-59740000D01*
X178100667Y-59706667D01*
X178034000Y-59673333D01*
X177900667Y-59640000D01*
X177834000Y-59606667D01*
X177800667Y-59573333D01*
X177767333Y-59506667D01*
X177767333Y-59440000D01*
X177800667Y-59373333D01*
X177834000Y-59340000D01*
X177900667Y-59306667D01*
X178067333Y-59306667D01*
X178167333Y-59340000D01*
X178467334Y-59540000D02*
X178467334Y-60240000D01*
X178467334Y-59573333D02*
X178534000Y-59540000D01*
X178667334Y-59540000D01*
X178734000Y-59573333D01*
X178767334Y-59606667D01*
X178800667Y-59673333D01*
X178800667Y-59873333D01*
X178767334Y-59940000D01*
X178734000Y-59973333D01*
X178667334Y-60006667D01*
X178534000Y-60006667D01*
X178467334Y-59973333D01*
X179400667Y-60006667D02*
X179400667Y-59306667D01*
X179400667Y-59973333D02*
X179334000Y-60006667D01*
X179200667Y-60006667D01*
X179134000Y-59973333D01*
X179100667Y-59940000D01*
X179067333Y-59873333D01*
X179067333Y-59673333D01*
X179100667Y-59606667D01*
X179134000Y-59573333D01*
X179200667Y-59540000D01*
X179334000Y-59540000D01*
X179400667Y-59573333D01*
X174134667Y-61010000D02*
X174668000Y-61010000D01*
X175501333Y-61243333D02*
X175601333Y-61276667D01*
X175768000Y-61276667D01*
X175834667Y-61243333D01*
X175868000Y-61210000D01*
X175901333Y-61143333D01*
X175901333Y-61076667D01*
X175868000Y-61010000D01*
X175834667Y-60976667D01*
X175768000Y-60943333D01*
X175634667Y-60910000D01*
X175568000Y-60876667D01*
X175534667Y-60843333D01*
X175501333Y-60776667D01*
X175501333Y-60710000D01*
X175534667Y-60643333D01*
X175568000Y-60610000D01*
X175634667Y-60576667D01*
X175801333Y-60576667D01*
X175901333Y-60610000D01*
X176201334Y-61276667D02*
X176201334Y-60576667D01*
X176268000Y-61010000D02*
X176468000Y-61276667D01*
X176468000Y-60810000D02*
X176201334Y-61076667D01*
X176768001Y-61276667D02*
X176768001Y-60810000D01*
X176768001Y-60576667D02*
X176734667Y-60610000D01*
X176768001Y-60643333D01*
X176801334Y-60610000D01*
X176768001Y-60576667D01*
X176768001Y-60643333D01*
X177401334Y-61276667D02*
X177401334Y-60576667D01*
X177401334Y-61243333D02*
X177334667Y-61276667D01*
X177201334Y-61276667D01*
X177134667Y-61243333D01*
X177101334Y-61210000D01*
X177068000Y-61143333D01*
X177068000Y-60943333D01*
X177101334Y-60876667D01*
X177134667Y-60843333D01*
X177201334Y-60810000D01*
X177334667Y-60810000D01*
X177401334Y-60843333D01*
X173896667Y-58703333D02*
X173996667Y-58736667D01*
X174163334Y-58736667D01*
X174230001Y-58703333D01*
X174263334Y-58670000D01*
X174296667Y-58603333D01*
X174296667Y-58536667D01*
X174263334Y-58470000D01*
X174230001Y-58436667D01*
X174163334Y-58403333D01*
X174030001Y-58370000D01*
X173963334Y-58336667D01*
X173930001Y-58303333D01*
X173896667Y-58236667D01*
X173896667Y-58170000D01*
X173930001Y-58103333D01*
X173963334Y-58070000D01*
X174030001Y-58036667D01*
X174196667Y-58036667D01*
X174296667Y-58070000D01*
X174496668Y-58270000D02*
X174763334Y-58270000D01*
X174596668Y-58036667D02*
X174596668Y-58636667D01*
X174630001Y-58703333D01*
X174696668Y-58736667D01*
X174763334Y-58736667D01*
X175263334Y-58703333D02*
X175196668Y-58736667D01*
X175063334Y-58736667D01*
X174996668Y-58703333D01*
X174963334Y-58636667D01*
X174963334Y-58370000D01*
X174996668Y-58303333D01*
X175063334Y-58270000D01*
X175196668Y-58270000D01*
X175263334Y-58303333D01*
X175296668Y-58370000D01*
X175296668Y-58436667D01*
X174963334Y-58503333D01*
X175863334Y-58703333D02*
X175796668Y-58736667D01*
X175663334Y-58736667D01*
X175596668Y-58703333D01*
X175563334Y-58636667D01*
X175563334Y-58370000D01*
X175596668Y-58303333D01*
X175663334Y-58270000D01*
X175796668Y-58270000D01*
X175863334Y-58303333D01*
X175896668Y-58370000D01*
X175896668Y-58436667D01*
X175563334Y-58503333D01*
X176196668Y-58736667D02*
X176196668Y-58270000D01*
X176196668Y-58403333D02*
X176230001Y-58336667D01*
X176263334Y-58303333D01*
X176330001Y-58270000D01*
X176396668Y-58270000D01*
X177063334Y-58036667D02*
X177463334Y-58036667D01*
X177263334Y-58736667D02*
X177263334Y-58036667D01*
X177630000Y-58270000D02*
X177796667Y-58736667D01*
X177963333Y-58270000D02*
X177796667Y-58736667D01*
X177730000Y-58903333D01*
X177696667Y-58936667D01*
X177630000Y-58970000D01*
X178230000Y-58270000D02*
X178230000Y-58970000D01*
X178230000Y-58303333D02*
X178296666Y-58270000D01*
X178430000Y-58270000D01*
X178496666Y-58303333D01*
X178530000Y-58336667D01*
X178563333Y-58403333D01*
X178563333Y-58603333D01*
X178530000Y-58670000D01*
X178496666Y-58703333D01*
X178430000Y-58736667D01*
X178296666Y-58736667D01*
X178230000Y-58703333D01*
X179129999Y-58703333D02*
X179063333Y-58736667D01*
X178929999Y-58736667D01*
X178863333Y-58703333D01*
X178829999Y-58636667D01*
X178829999Y-58370000D01*
X178863333Y-58303333D01*
X178929999Y-58270000D01*
X179063333Y-58270000D01*
X179129999Y-58303333D01*
X179163333Y-58370000D01*
X179163333Y-58436667D01*
X178829999Y-58503333D01*
X173143333Y-81817333D02*
X173243333Y-81850667D01*
X173410000Y-81850667D01*
X173476667Y-81817333D01*
X173510000Y-81784000D01*
X173543333Y-81717333D01*
X173543333Y-81650667D01*
X173510000Y-81584000D01*
X173476667Y-81550667D01*
X173410000Y-81517333D01*
X173276667Y-81484000D01*
X173210000Y-81450667D01*
X173176667Y-81417333D01*
X173143333Y-81350667D01*
X173143333Y-81284000D01*
X173176667Y-81217333D01*
X173210000Y-81184000D01*
X173276667Y-81150667D01*
X173443333Y-81150667D01*
X173543333Y-81184000D01*
X173743334Y-81384000D02*
X174010000Y-81384000D01*
X173843334Y-81150667D02*
X173843334Y-81750667D01*
X173876667Y-81817333D01*
X173943334Y-81850667D01*
X174010000Y-81850667D01*
X174243334Y-81850667D02*
X174243334Y-81384000D01*
X174243334Y-81517333D02*
X174276667Y-81450667D01*
X174310000Y-81417333D01*
X174376667Y-81384000D01*
X174443334Y-81384000D01*
X175176666Y-81817333D02*
X175276666Y-81850667D01*
X175443333Y-81850667D01*
X175510000Y-81817333D01*
X175543333Y-81784000D01*
X175576666Y-81717333D01*
X175576666Y-81650667D01*
X175543333Y-81584000D01*
X175510000Y-81550667D01*
X175443333Y-81517333D01*
X175310000Y-81484000D01*
X175243333Y-81450667D01*
X175210000Y-81417333D01*
X175176666Y-81350667D01*
X175176666Y-81284000D01*
X175210000Y-81217333D01*
X175243333Y-81184000D01*
X175310000Y-81150667D01*
X175476666Y-81150667D01*
X175576666Y-81184000D01*
X176143333Y-81817333D02*
X176076667Y-81850667D01*
X175943333Y-81850667D01*
X175876667Y-81817333D01*
X175843333Y-81750667D01*
X175843333Y-81484000D01*
X175876667Y-81417333D01*
X175943333Y-81384000D01*
X176076667Y-81384000D01*
X176143333Y-81417333D01*
X176176667Y-81484000D01*
X176176667Y-81550667D01*
X175843333Y-81617333D01*
X176476667Y-81384000D02*
X176476667Y-81850667D01*
X176476667Y-81450667D02*
X176510000Y-81417333D01*
X176576667Y-81384000D01*
X176676667Y-81384000D01*
X176743333Y-81417333D01*
X176776667Y-81484000D01*
X176776667Y-81850667D01*
X177076666Y-81817333D02*
X177143333Y-81850667D01*
X177276666Y-81850667D01*
X177343333Y-81817333D01*
X177376666Y-81750667D01*
X177376666Y-81717333D01*
X177343333Y-81650667D01*
X177276666Y-81617333D01*
X177176666Y-81617333D01*
X177110000Y-81584000D01*
X177076666Y-81517333D01*
X177076666Y-81484000D01*
X177110000Y-81417333D01*
X177176666Y-81384000D01*
X177276666Y-81384000D01*
X177343333Y-81417333D01*
X173143333Y-91342333D02*
X173243333Y-91375667D01*
X173410000Y-91375667D01*
X173476667Y-91342333D01*
X173510000Y-91309000D01*
X173543333Y-91242333D01*
X173543333Y-91175667D01*
X173510000Y-91109000D01*
X173476667Y-91075667D01*
X173410000Y-91042333D01*
X173276667Y-91009000D01*
X173210000Y-90975667D01*
X173176667Y-90942333D01*
X173143333Y-90875667D01*
X173143333Y-90809000D01*
X173176667Y-90742333D01*
X173210000Y-90709000D01*
X173276667Y-90675667D01*
X173443333Y-90675667D01*
X173543333Y-90709000D01*
X173743334Y-90909000D02*
X174010000Y-90909000D01*
X173843334Y-90675667D02*
X173843334Y-91275667D01*
X173876667Y-91342333D01*
X173943334Y-91375667D01*
X174010000Y-91375667D01*
X174243334Y-91375667D02*
X174243334Y-90909000D01*
X174243334Y-91042333D02*
X174276667Y-90975667D01*
X174310000Y-90942333D01*
X174376667Y-90909000D01*
X174443334Y-90909000D01*
X175176666Y-91342333D02*
X175276666Y-91375667D01*
X175443333Y-91375667D01*
X175510000Y-91342333D01*
X175543333Y-91309000D01*
X175576666Y-91242333D01*
X175576666Y-91175667D01*
X175543333Y-91109000D01*
X175510000Y-91075667D01*
X175443333Y-91042333D01*
X175310000Y-91009000D01*
X175243333Y-90975667D01*
X175210000Y-90942333D01*
X175176666Y-90875667D01*
X175176666Y-90809000D01*
X175210000Y-90742333D01*
X175243333Y-90709000D01*
X175310000Y-90675667D01*
X175476666Y-90675667D01*
X175576666Y-90709000D01*
X176143333Y-91342333D02*
X176076667Y-91375667D01*
X175943333Y-91375667D01*
X175876667Y-91342333D01*
X175843333Y-91275667D01*
X175843333Y-91009000D01*
X175876667Y-90942333D01*
X175943333Y-90909000D01*
X176076667Y-90909000D01*
X176143333Y-90942333D01*
X176176667Y-91009000D01*
X176176667Y-91075667D01*
X175843333Y-91142333D01*
X176476667Y-90909000D02*
X176476667Y-91375667D01*
X176476667Y-90975667D02*
X176510000Y-90942333D01*
X176576667Y-90909000D01*
X176676667Y-90909000D01*
X176743333Y-90942333D01*
X176776667Y-91009000D01*
X176776667Y-91375667D01*
X177076666Y-91342333D02*
X177143333Y-91375667D01*
X177276666Y-91375667D01*
X177343333Y-91342333D01*
X177376666Y-91275667D01*
X177376666Y-91242333D01*
X177343333Y-91175667D01*
X177276666Y-91142333D01*
X177176666Y-91142333D01*
X177110000Y-91109000D01*
X177076666Y-91042333D01*
X177076666Y-91009000D01*
X177110000Y-90942333D01*
X177176666Y-90909000D01*
X177276666Y-90909000D01*
X177343333Y-90942333D01*
X163346667Y-55495000D02*
X163313333Y-55528333D01*
X163213333Y-55561667D01*
X163146667Y-55561667D01*
X163046667Y-55528333D01*
X162980000Y-55461667D01*
X162946667Y-55395000D01*
X162913333Y-55261667D01*
X162913333Y-55161667D01*
X162946667Y-55028333D01*
X162980000Y-54961667D01*
X163046667Y-54895000D01*
X163146667Y-54861667D01*
X163213333Y-54861667D01*
X163313333Y-54895000D01*
X163346667Y-54928333D01*
X163646667Y-55561667D02*
X163646667Y-54861667D01*
X163646667Y-55195000D02*
X164046667Y-55195000D01*
X164046667Y-55561667D02*
X164046667Y-54861667D01*
X164346666Y-54928333D02*
X164380000Y-54895000D01*
X164446666Y-54861667D01*
X164613333Y-54861667D01*
X164680000Y-54895000D01*
X164713333Y-54928333D01*
X164746666Y-54995000D01*
X164746666Y-55061667D01*
X164713333Y-55161667D01*
X164313333Y-55561667D01*
X164746666Y-55561667D01*
X165886667Y-55495000D02*
X165853333Y-55528333D01*
X165753333Y-55561667D01*
X165686667Y-55561667D01*
X165586667Y-55528333D01*
X165520000Y-55461667D01*
X165486667Y-55395000D01*
X165453333Y-55261667D01*
X165453333Y-55161667D01*
X165486667Y-55028333D01*
X165520000Y-54961667D01*
X165586667Y-54895000D01*
X165686667Y-54861667D01*
X165753333Y-54861667D01*
X165853333Y-54895000D01*
X165886667Y-54928333D01*
X166186667Y-55561667D02*
X166186667Y-54861667D01*
X166186667Y-55195000D02*
X166586667Y-55195000D01*
X166586667Y-55561667D02*
X166586667Y-54861667D01*
X167286666Y-55561667D02*
X166886666Y-55561667D01*
X167086666Y-55561667D02*
X167086666Y-54861667D01*
X167020000Y-54961667D01*
X166953333Y-55028333D01*
X166886666Y-55061667D01*
X168376667Y-54895000D02*
X168310001Y-54861667D01*
X168210001Y-54861667D01*
X168110001Y-54895000D01*
X168043334Y-54961667D01*
X168010001Y-55028333D01*
X167976667Y-55161667D01*
X167976667Y-55261667D01*
X168010001Y-55395000D01*
X168043334Y-55461667D01*
X168110001Y-55528333D01*
X168210001Y-55561667D01*
X168276667Y-55561667D01*
X168376667Y-55528333D01*
X168410001Y-55495000D01*
X168410001Y-55261667D01*
X168276667Y-55261667D01*
X168710001Y-55561667D02*
X168710001Y-54861667D01*
X169110001Y-55561667D01*
X169110001Y-54861667D01*
X169443334Y-55561667D02*
X169443334Y-54861667D01*
X169610000Y-54861667D01*
X169710000Y-54895000D01*
X169776667Y-54961667D01*
X169810000Y-55028333D01*
X169843334Y-55161667D01*
X169843334Y-55261667D01*
X169810000Y-55395000D01*
X169776667Y-55461667D01*
X169710000Y-55528333D01*
X169610000Y-55561667D01*
X169443334Y-55561667D01*
X170516667Y-54861667D02*
X170750000Y-55561667D01*
X170983333Y-54861667D01*
X171616667Y-55495000D02*
X171583333Y-55528333D01*
X171483333Y-55561667D01*
X171416667Y-55561667D01*
X171316667Y-55528333D01*
X171250000Y-55461667D01*
X171216667Y-55395000D01*
X171183333Y-55261667D01*
X171183333Y-55161667D01*
X171216667Y-55028333D01*
X171250000Y-54961667D01*
X171316667Y-54895000D01*
X171416667Y-54861667D01*
X171483333Y-54861667D01*
X171583333Y-54895000D01*
X171616667Y-54928333D01*
X172316667Y-55495000D02*
X172283333Y-55528333D01*
X172183333Y-55561667D01*
X172116667Y-55561667D01*
X172016667Y-55528333D01*
X171950000Y-55461667D01*
X171916667Y-55395000D01*
X171883333Y-55261667D01*
X171883333Y-55161667D01*
X171916667Y-55028333D01*
X171950000Y-54961667D01*
X172016667Y-54895000D01*
X172116667Y-54861667D01*
X172183333Y-54861667D01*
X172283333Y-54895000D01*
X172316667Y-54928333D01*
D11*
X143148095Y-63226905D02*
X143148095Y-62426905D01*
X143529047Y-62693571D02*
X143529047Y-63226905D01*
X143529047Y-62769762D02*
X143567142Y-62731667D01*
X143643333Y-62693571D01*
X143757619Y-62693571D01*
X143833809Y-62731667D01*
X143871904Y-62807857D01*
X143871904Y-63226905D01*
X139725477Y-62465000D02*
X139649286Y-62426905D01*
X139535001Y-62426905D01*
X139420715Y-62465000D01*
X139344524Y-62541190D01*
X139306429Y-62617381D01*
X139268334Y-62769762D01*
X139268334Y-62884048D01*
X139306429Y-63036429D01*
X139344524Y-63112619D01*
X139420715Y-63188810D01*
X139535001Y-63226905D01*
X139611191Y-63226905D01*
X139725477Y-63188810D01*
X139763572Y-63150714D01*
X139763572Y-62884048D01*
X139611191Y-62884048D01*
X140106429Y-63226905D02*
X140106429Y-62426905D01*
X140563572Y-63226905D01*
X140563572Y-62426905D01*
X140944524Y-63226905D02*
X140944524Y-62426905D01*
X141135000Y-62426905D01*
X141249286Y-62465000D01*
X141325477Y-62541190D01*
X141363572Y-62617381D01*
X141401667Y-62769762D01*
X141401667Y-62884048D01*
X141363572Y-63036429D01*
X141325477Y-63112619D01*
X141249286Y-63188810D01*
X141135000Y-63226905D01*
X140944524Y-63226905D01*
X136493333Y-62426905D02*
X136645714Y-62426905D01*
X136721905Y-62465000D01*
X136798095Y-62541190D01*
X136836190Y-62693571D01*
X136836190Y-62960238D01*
X136798095Y-63112619D01*
X136721905Y-63188810D01*
X136645714Y-63226905D01*
X136493333Y-63226905D01*
X136417143Y-63188810D01*
X136340952Y-63112619D01*
X136302857Y-62960238D01*
X136302857Y-62693571D01*
X136340952Y-62541190D01*
X136417143Y-62465000D01*
X136493333Y-62426905D01*
X137521904Y-62693571D02*
X137521904Y-63226905D01*
X137179047Y-62693571D02*
X137179047Y-63112619D01*
X137217142Y-63188810D01*
X137293333Y-63226905D01*
X137407619Y-63226905D01*
X137483809Y-63188810D01*
X137521904Y-63150714D01*
X137788571Y-62693571D02*
X138093333Y-62693571D01*
X137902857Y-62426905D02*
X137902857Y-63112619D01*
X137940952Y-63188810D01*
X138017143Y-63226905D01*
X138093333Y-63226905D01*
D12*
X148272619Y-58598571D02*
X150177381Y-58598571D01*
X149225000Y-59550952D02*
X149225000Y-57646190D01*
X134302619Y-58598571D02*
X136207381Y-58598571D01*
D13*
X166624000Y-108966000D02*
X166624000Y-106680000D01*
X166624000Y-106680000D02*
X176276000Y-106680000D01*
X176276000Y-106680000D02*
X176276000Y-108966000D01*
X165354000Y-93726000D02*
X177546000Y-93726000D01*
X177546000Y-108966000D02*
X177546000Y-93726000D01*
X165354000Y-108966000D02*
X165354000Y-93726000D01*
X177546000Y-108966000D02*
X165354000Y-108966000D01*
D11*
X174230000Y-71515000D02*
X174230000Y-62915000D01*
X178830000Y-71515000D02*
X178830000Y-69315000D01*
X178830000Y-65215000D02*
X178830000Y-62915000D01*
D14*
X137414000Y-71120000D02*
X137414000Y-91440000D01*
X143256000Y-91440000D02*
X143256000Y-71120000D01*
X137414000Y-71120000D02*
X143256000Y-71120000D01*
X137414000Y-91440000D02*
X139319000Y-91440000D01*
X143256000Y-91440000D02*
X141351000Y-91440000D01*
X139319000Y-91440000D02*
G75*
G02X141351000Y-91440000I1016000J0D01*
G01*
D13*
X136779000Y-108966000D02*
X136779000Y-106680000D01*
X136779000Y-106680000D02*
X146431000Y-106680000D01*
X146431000Y-106680000D02*
X146431000Y-108966000D01*
X135509000Y-93726000D02*
X147701000Y-93726000D01*
X147701000Y-108966000D02*
X147701000Y-93726000D01*
X135509000Y-108966000D02*
X135509000Y-93726000D01*
X147701000Y-108966000D02*
X135509000Y-108966000D01*
D15*
X146810000Y-81440000D02*
X150330000Y-81440000D01*
X146810000Y-83660000D02*
X150330000Y-83660000D01*
X146810000Y-81440000D02*
X146810000Y-81554000D01*
X146810000Y-83546000D02*
X146810000Y-83660000D01*
X150330000Y-81440000D02*
X150330000Y-81554000D01*
X150330000Y-83546000D02*
X150330000Y-83660000D01*
X150404723Y-68325722D02*
G75*
G03X150405000Y-63714420I-1179723J2305722D01*
G01*
X148045277Y-68325722D02*
G75*
G02X148045000Y-63714420I1179723J2305722D01*
G01*
X148045277Y-68325722D02*
G75*
G03X150405000Y-68325580I1179723J2305722D01*
G01*
X151775000Y-66020000D02*
X146675000Y-66020000D01*
X151775000Y-66060000D02*
X146675000Y-66060000D01*
X151774000Y-66100000D02*
X146676000Y-66100000D01*
X151773000Y-66140000D02*
X146677000Y-66140000D01*
X151771000Y-66180000D02*
X146679000Y-66180000D01*
X151768000Y-66220000D02*
X146682000Y-66220000D01*
X151764000Y-66260000D02*
X146686000Y-66260000D01*
X151760000Y-66300000D02*
X150205000Y-66300000D01*
X148245000Y-66300000D02*
X146690000Y-66300000D01*
X151756000Y-66340000D02*
X150205000Y-66340000D01*
X148245000Y-66340000D02*
X146694000Y-66340000D01*
X151750000Y-66380000D02*
X150205000Y-66380000D01*
X148245000Y-66380000D02*
X146700000Y-66380000D01*
X151744000Y-66420000D02*
X150205000Y-66420000D01*
X148245000Y-66420000D02*
X146706000Y-66420000D01*
X151738000Y-66460000D02*
X150205000Y-66460000D01*
X148245000Y-66460000D02*
X146712000Y-66460000D01*
X151731000Y-66500000D02*
X150205000Y-66500000D01*
X148245000Y-66500000D02*
X146719000Y-66500000D01*
X151723000Y-66540000D02*
X150205000Y-66540000D01*
X148245000Y-66540000D02*
X146727000Y-66540000D01*
X151714000Y-66580000D02*
X150205000Y-66580000D01*
X148245000Y-66580000D02*
X146736000Y-66580000D01*
X151705000Y-66620000D02*
X150205000Y-66620000D01*
X148245000Y-66620000D02*
X146745000Y-66620000D01*
X151695000Y-66660000D02*
X150205000Y-66660000D01*
X148245000Y-66660000D02*
X146755000Y-66660000D01*
X151685000Y-66700000D02*
X150205000Y-66700000D01*
X148245000Y-66700000D02*
X146765000Y-66700000D01*
X151673000Y-66741000D02*
X150205000Y-66741000D01*
X148245000Y-66741000D02*
X146777000Y-66741000D01*
X151661000Y-66781000D02*
X150205000Y-66781000D01*
X148245000Y-66781000D02*
X146789000Y-66781000D01*
X151649000Y-66821000D02*
X150205000Y-66821000D01*
X148245000Y-66821000D02*
X146801000Y-66821000D01*
X151635000Y-66861000D02*
X150205000Y-66861000D01*
X148245000Y-66861000D02*
X146815000Y-66861000D01*
X151621000Y-66901000D02*
X150205000Y-66901000D01*
X148245000Y-66901000D02*
X146829000Y-66901000D01*
X151607000Y-66941000D02*
X150205000Y-66941000D01*
X148245000Y-66941000D02*
X146843000Y-66941000D01*
X151591000Y-66981000D02*
X150205000Y-66981000D01*
X148245000Y-66981000D02*
X146859000Y-66981000D01*
X151575000Y-67021000D02*
X150205000Y-67021000D01*
X148245000Y-67021000D02*
X146875000Y-67021000D01*
X151558000Y-67061000D02*
X150205000Y-67061000D01*
X148245000Y-67061000D02*
X146892000Y-67061000D01*
X151540000Y-67101000D02*
X150205000Y-67101000D01*
X148245000Y-67101000D02*
X146910000Y-67101000D01*
X151521000Y-67141000D02*
X150205000Y-67141000D01*
X148245000Y-67141000D02*
X146929000Y-67141000D01*
X151501000Y-67181000D02*
X150205000Y-67181000D01*
X148245000Y-67181000D02*
X146949000Y-67181000D01*
X151481000Y-67221000D02*
X150205000Y-67221000D01*
X148245000Y-67221000D02*
X146969000Y-67221000D01*
X151459000Y-67261000D02*
X150205000Y-67261000D01*
X148245000Y-67261000D02*
X146991000Y-67261000D01*
X151437000Y-67301000D02*
X150205000Y-67301000D01*
X148245000Y-67301000D02*
X147013000Y-67301000D01*
X151414000Y-67341000D02*
X150205000Y-67341000D01*
X148245000Y-67341000D02*
X147036000Y-67341000D01*
X151390000Y-67381000D02*
X150205000Y-67381000D01*
X148245000Y-67381000D02*
X147060000Y-67381000D01*
X151365000Y-67421000D02*
X150205000Y-67421000D01*
X148245000Y-67421000D02*
X147085000Y-67421000D01*
X151338000Y-67461000D02*
X150205000Y-67461000D01*
X148245000Y-67461000D02*
X147112000Y-67461000D01*
X151311000Y-67501000D02*
X150205000Y-67501000D01*
X148245000Y-67501000D02*
X147139000Y-67501000D01*
X151283000Y-67541000D02*
X150205000Y-67541000D01*
X148245000Y-67541000D02*
X147167000Y-67541000D01*
X151253000Y-67581000D02*
X150205000Y-67581000D01*
X148245000Y-67581000D02*
X147197000Y-67581000D01*
X151222000Y-67621000D02*
X150205000Y-67621000D01*
X148245000Y-67621000D02*
X147228000Y-67621000D01*
X151190000Y-67661000D02*
X150205000Y-67661000D01*
X148245000Y-67661000D02*
X147260000Y-67661000D01*
X151157000Y-67701000D02*
X150205000Y-67701000D01*
X148245000Y-67701000D02*
X147293000Y-67701000D01*
X151122000Y-67741000D02*
X150205000Y-67741000D01*
X148245000Y-67741000D02*
X147328000Y-67741000D01*
X151086000Y-67781000D02*
X150205000Y-67781000D01*
X148245000Y-67781000D02*
X147364000Y-67781000D01*
X151048000Y-67821000D02*
X150205000Y-67821000D01*
X148245000Y-67821000D02*
X147402000Y-67821000D01*
X151008000Y-67861000D02*
X150205000Y-67861000D01*
X148245000Y-67861000D02*
X147442000Y-67861000D01*
X150967000Y-67901000D02*
X150205000Y-67901000D01*
X148245000Y-67901000D02*
X147483000Y-67901000D01*
X150924000Y-67941000D02*
X150205000Y-67941000D01*
X148245000Y-67941000D02*
X147526000Y-67941000D01*
X150879000Y-67981000D02*
X150205000Y-67981000D01*
X148245000Y-67981000D02*
X147571000Y-67981000D01*
X150831000Y-68021000D02*
X150205000Y-68021000D01*
X148245000Y-68021000D02*
X147619000Y-68021000D01*
X150781000Y-68061000D02*
X150205000Y-68061000D01*
X148245000Y-68061000D02*
X147669000Y-68061000D01*
X150729000Y-68101000D02*
X150205000Y-68101000D01*
X148245000Y-68101000D02*
X147721000Y-68101000D01*
X150673000Y-68141000D02*
X150205000Y-68141000D01*
X148245000Y-68141000D02*
X147777000Y-68141000D01*
X150615000Y-68181000D02*
X150205000Y-68181000D01*
X148245000Y-68181000D02*
X147835000Y-68181000D01*
X150552000Y-68221000D02*
X150205000Y-68221000D01*
X148245000Y-68221000D02*
X147898000Y-68221000D01*
X150486000Y-68261000D02*
X147964000Y-68261000D01*
X150414000Y-68301000D02*
X148036000Y-68301000D01*
X150337000Y-68341000D02*
X148113000Y-68341000D01*
X150253000Y-68381000D02*
X148197000Y-68381000D01*
X150159000Y-68421000D02*
X148291000Y-68421000D01*
X150054000Y-68461000D02*
X148396000Y-68461000D01*
X149932000Y-68501000D02*
X148518000Y-68501000D01*
X149784000Y-68541000D02*
X148666000Y-68541000D01*
X149579000Y-68581000D02*
X148871000Y-68581000D01*
X149225000Y-62570000D02*
X149225000Y-63770000D01*
X149875000Y-63170000D02*
X148575000Y-63170000D01*
X146431278Y-89444723D02*
G75*
G03X151042580Y-89445000I2305722J1179723D01*
G01*
X146431278Y-87085277D02*
G75*
G02X151042580Y-87085000I2305722J-1179723D01*
G01*
X146431278Y-87085277D02*
G75*
G03X146431420Y-89445000I2305722J-1179723D01*
G01*
X148737000Y-90815000D02*
X148737000Y-85715000D01*
X148697000Y-90815000D02*
X148697000Y-85715000D01*
X148657000Y-90814000D02*
X148657000Y-85716000D01*
X148617000Y-90813000D02*
X148617000Y-85717000D01*
X148577000Y-90811000D02*
X148577000Y-85719000D01*
X148537000Y-90808000D02*
X148537000Y-85722000D01*
X148497000Y-90804000D02*
X148497000Y-85726000D01*
X148457000Y-90800000D02*
X148457000Y-89245000D01*
X148457000Y-87285000D02*
X148457000Y-85730000D01*
X148417000Y-90796000D02*
X148417000Y-89245000D01*
X148417000Y-87285000D02*
X148417000Y-85734000D01*
X148377000Y-90790000D02*
X148377000Y-89245000D01*
X148377000Y-87285000D02*
X148377000Y-85740000D01*
X148337000Y-90784000D02*
X148337000Y-89245000D01*
X148337000Y-87285000D02*
X148337000Y-85746000D01*
X148297000Y-90778000D02*
X148297000Y-89245000D01*
X148297000Y-87285000D02*
X148297000Y-85752000D01*
X148257000Y-90771000D02*
X148257000Y-89245000D01*
X148257000Y-87285000D02*
X148257000Y-85759000D01*
X148217000Y-90763000D02*
X148217000Y-89245000D01*
X148217000Y-87285000D02*
X148217000Y-85767000D01*
X148177000Y-90754000D02*
X148177000Y-89245000D01*
X148177000Y-87285000D02*
X148177000Y-85776000D01*
X148137000Y-90745000D02*
X148137000Y-89245000D01*
X148137000Y-87285000D02*
X148137000Y-85785000D01*
X148097000Y-90735000D02*
X148097000Y-89245000D01*
X148097000Y-87285000D02*
X148097000Y-85795000D01*
X148057000Y-90725000D02*
X148057000Y-89245000D01*
X148057000Y-87285000D02*
X148057000Y-85805000D01*
X148016000Y-90713000D02*
X148016000Y-89245000D01*
X148016000Y-87285000D02*
X148016000Y-85817000D01*
X147976000Y-90701000D02*
X147976000Y-89245000D01*
X147976000Y-87285000D02*
X147976000Y-85829000D01*
X147936000Y-90689000D02*
X147936000Y-89245000D01*
X147936000Y-87285000D02*
X147936000Y-85841000D01*
X147896000Y-90675000D02*
X147896000Y-89245000D01*
X147896000Y-87285000D02*
X147896000Y-85855000D01*
X147856000Y-90661000D02*
X147856000Y-89245000D01*
X147856000Y-87285000D02*
X147856000Y-85869000D01*
X147816000Y-90647000D02*
X147816000Y-89245000D01*
X147816000Y-87285000D02*
X147816000Y-85883000D01*
X147776000Y-90631000D02*
X147776000Y-89245000D01*
X147776000Y-87285000D02*
X147776000Y-85899000D01*
X147736000Y-90615000D02*
X147736000Y-89245000D01*
X147736000Y-87285000D02*
X147736000Y-85915000D01*
X147696000Y-90598000D02*
X147696000Y-89245000D01*
X147696000Y-87285000D02*
X147696000Y-85932000D01*
X147656000Y-90580000D02*
X147656000Y-89245000D01*
X147656000Y-87285000D02*
X147656000Y-85950000D01*
X147616000Y-90561000D02*
X147616000Y-89245000D01*
X147616000Y-87285000D02*
X147616000Y-85969000D01*
X147576000Y-90541000D02*
X147576000Y-89245000D01*
X147576000Y-87285000D02*
X147576000Y-85989000D01*
X147536000Y-90521000D02*
X147536000Y-89245000D01*
X147536000Y-87285000D02*
X147536000Y-86009000D01*
X147496000Y-90499000D02*
X147496000Y-89245000D01*
X147496000Y-87285000D02*
X147496000Y-86031000D01*
X147456000Y-90477000D02*
X147456000Y-89245000D01*
X147456000Y-87285000D02*
X147456000Y-86053000D01*
X147416000Y-90454000D02*
X147416000Y-89245000D01*
X147416000Y-87285000D02*
X147416000Y-86076000D01*
X147376000Y-90430000D02*
X147376000Y-89245000D01*
X147376000Y-87285000D02*
X147376000Y-86100000D01*
X147336000Y-90405000D02*
X147336000Y-89245000D01*
X147336000Y-87285000D02*
X147336000Y-86125000D01*
X147296000Y-90378000D02*
X147296000Y-89245000D01*
X147296000Y-87285000D02*
X147296000Y-86152000D01*
X147256000Y-90351000D02*
X147256000Y-89245000D01*
X147256000Y-87285000D02*
X147256000Y-86179000D01*
X147216000Y-90323000D02*
X147216000Y-89245000D01*
X147216000Y-87285000D02*
X147216000Y-86207000D01*
X147176000Y-90293000D02*
X147176000Y-89245000D01*
X147176000Y-87285000D02*
X147176000Y-86237000D01*
X147136000Y-90262000D02*
X147136000Y-89245000D01*
X147136000Y-87285000D02*
X147136000Y-86268000D01*
X147096000Y-90230000D02*
X147096000Y-89245000D01*
X147096000Y-87285000D02*
X147096000Y-86300000D01*
X147056000Y-90197000D02*
X147056000Y-89245000D01*
X147056000Y-87285000D02*
X147056000Y-86333000D01*
X147016000Y-90162000D02*
X147016000Y-89245000D01*
X147016000Y-87285000D02*
X147016000Y-86368000D01*
X146976000Y-90126000D02*
X146976000Y-89245000D01*
X146976000Y-87285000D02*
X146976000Y-86404000D01*
X146936000Y-90088000D02*
X146936000Y-89245000D01*
X146936000Y-87285000D02*
X146936000Y-86442000D01*
X146896000Y-90048000D02*
X146896000Y-89245000D01*
X146896000Y-87285000D02*
X146896000Y-86482000D01*
X146856000Y-90007000D02*
X146856000Y-89245000D01*
X146856000Y-87285000D02*
X146856000Y-86523000D01*
X146816000Y-89964000D02*
X146816000Y-89245000D01*
X146816000Y-87285000D02*
X146816000Y-86566000D01*
X146776000Y-89919000D02*
X146776000Y-89245000D01*
X146776000Y-87285000D02*
X146776000Y-86611000D01*
X146736000Y-89871000D02*
X146736000Y-89245000D01*
X146736000Y-87285000D02*
X146736000Y-86659000D01*
X146696000Y-89821000D02*
X146696000Y-89245000D01*
X146696000Y-87285000D02*
X146696000Y-86709000D01*
X146656000Y-89769000D02*
X146656000Y-89245000D01*
X146656000Y-87285000D02*
X146656000Y-86761000D01*
X146616000Y-89713000D02*
X146616000Y-89245000D01*
X146616000Y-87285000D02*
X146616000Y-86817000D01*
X146576000Y-89655000D02*
X146576000Y-89245000D01*
X146576000Y-87285000D02*
X146576000Y-86875000D01*
X146536000Y-89592000D02*
X146536000Y-89245000D01*
X146536000Y-87285000D02*
X146536000Y-86938000D01*
X146496000Y-89526000D02*
X146496000Y-87004000D01*
X146456000Y-89454000D02*
X146456000Y-87076000D01*
X146416000Y-89377000D02*
X146416000Y-87153000D01*
X146376000Y-89293000D02*
X146376000Y-87237000D01*
X146336000Y-89199000D02*
X146336000Y-87331000D01*
X146296000Y-89094000D02*
X146296000Y-87436000D01*
X146256000Y-88972000D02*
X146256000Y-87558000D01*
X146216000Y-88824000D02*
X146216000Y-87706000D01*
X146176000Y-88619000D02*
X146176000Y-87911000D01*
X152187000Y-88265000D02*
X150987000Y-88265000D01*
X151587000Y-88915000D02*
X151587000Y-87615000D01*
X151990000Y-73705000D02*
X150270000Y-73705000D01*
X150270000Y-73705000D02*
X150270000Y-77425000D01*
X150270000Y-77425000D02*
X151990000Y-77425000D01*
X151990000Y-77425000D02*
X151990000Y-73705000D01*
X151130000Y-72635000D02*
X151130000Y-73705000D01*
X151130000Y-78495000D02*
X151130000Y-77425000D01*
X148180000Y-73705000D02*
X146460000Y-73705000D01*
X146460000Y-73705000D02*
X146460000Y-77425000D01*
X146460000Y-77425000D02*
X148180000Y-77425000D01*
X148180000Y-77425000D02*
X148180000Y-73705000D01*
X147320000Y-72635000D02*
X147320000Y-73705000D01*
X147320000Y-78495000D02*
X147320000Y-77425000D01*
D11*
X135509000Y-67056000D02*
X135509000Y-63627000D01*
X145161000Y-67056000D02*
X145161000Y-63627000D01*
X135001000Y-68199000D02*
X145669000Y-68199000D01*
X138557000Y-67183000D02*
X138557000Y-68453000D01*
X142113000Y-67183000D02*
X142113000Y-68453000D01*
X145669000Y-67056000D02*
X135001000Y-67056000D01*
X135001000Y-63627000D02*
X145669000Y-63627000D01*
X145669000Y-68453000D02*
X145669000Y-63627000D01*
X135001000Y-68453000D02*
X135001000Y-63627000D01*
X135001000Y-68453000D02*
X145669000Y-68453000D01*
D15*
X137160000Y-55880000D02*
X147320000Y-55880000D01*
X137160000Y-54610000D02*
X137160000Y-62230000D01*
X137160000Y-62230000D02*
X147320000Y-62230000D01*
X147320000Y-62230000D02*
X147320000Y-54610000D01*
X147320000Y-54610000D02*
X137160000Y-54610000D01*
X176200000Y-77430000D02*
G75*
G03X176200000Y-77430000I-900000J0D01*
G01*
X176927000Y-80640000D02*
X172090000Y-80640000D01*
X176927000Y-74220000D02*
X172090000Y-74220000D01*
X178510000Y-79172000D02*
X178510000Y-75687000D01*
X172090000Y-80640000D02*
X172090000Y-78187000D01*
X172090000Y-76672000D02*
X172090000Y-74220000D01*
X176200000Y-86955000D02*
G75*
G03X176200000Y-86955000I-900000J0D01*
G01*
X176927000Y-90165000D02*
X172090000Y-90165000D01*
X176927000Y-83745000D02*
X172090000Y-83745000D01*
X178510000Y-88697000D02*
X178510000Y-85212000D01*
X172090000Y-90165000D02*
X172090000Y-87712000D01*
X172090000Y-86197000D02*
X172090000Y-83745000D01*
X162500000Y-56455000D02*
X162500000Y-59115000D01*
X170180000Y-56455000D02*
X162500000Y-56455000D01*
X170180000Y-59115000D02*
X162500000Y-59115000D01*
X170180000Y-56455000D02*
X170180000Y-59115000D01*
X171450000Y-56455000D02*
X172780000Y-56455000D01*
X172780000Y-56455000D02*
X172780000Y-57785000D01*
X155484723Y-59435722D02*
G75*
G03X155485000Y-54824420I-1179723J2305722D01*
G01*
X153125277Y-59435722D02*
G75*
G02X153125000Y-54824420I1179723J2305722D01*
G01*
X153125277Y-59435722D02*
G75*
G03X155485000Y-59435580I1179723J2305722D01*
G01*
X156855000Y-57130000D02*
X151755000Y-57130000D01*
X156855000Y-57170000D02*
X151755000Y-57170000D01*
X156854000Y-57210000D02*
X151756000Y-57210000D01*
X156853000Y-57250000D02*
X151757000Y-57250000D01*
X156851000Y-57290000D02*
X151759000Y-57290000D01*
X156848000Y-57330000D02*
X151762000Y-57330000D01*
X156844000Y-57370000D02*
X151766000Y-57370000D01*
X156840000Y-57410000D02*
X155285000Y-57410000D01*
X153325000Y-57410000D02*
X151770000Y-57410000D01*
X156836000Y-57450000D02*
X155285000Y-57450000D01*
X153325000Y-57450000D02*
X151774000Y-57450000D01*
X156830000Y-57490000D02*
X155285000Y-57490000D01*
X153325000Y-57490000D02*
X151780000Y-57490000D01*
X156824000Y-57530000D02*
X155285000Y-57530000D01*
X153325000Y-57530000D02*
X151786000Y-57530000D01*
X156818000Y-57570000D02*
X155285000Y-57570000D01*
X153325000Y-57570000D02*
X151792000Y-57570000D01*
X156811000Y-57610000D02*
X155285000Y-57610000D01*
X153325000Y-57610000D02*
X151799000Y-57610000D01*
X156803000Y-57650000D02*
X155285000Y-57650000D01*
X153325000Y-57650000D02*
X151807000Y-57650000D01*
X156794000Y-57690000D02*
X155285000Y-57690000D01*
X153325000Y-57690000D02*
X151816000Y-57690000D01*
X156785000Y-57730000D02*
X155285000Y-57730000D01*
X153325000Y-57730000D02*
X151825000Y-57730000D01*
X156775000Y-57770000D02*
X155285000Y-57770000D01*
X153325000Y-57770000D02*
X151835000Y-57770000D01*
X156765000Y-57810000D02*
X155285000Y-57810000D01*
X153325000Y-57810000D02*
X151845000Y-57810000D01*
X156753000Y-57851000D02*
X155285000Y-57851000D01*
X153325000Y-57851000D02*
X151857000Y-57851000D01*
X156741000Y-57891000D02*
X155285000Y-57891000D01*
X153325000Y-57891000D02*
X151869000Y-57891000D01*
X156729000Y-57931000D02*
X155285000Y-57931000D01*
X153325000Y-57931000D02*
X151881000Y-57931000D01*
X156715000Y-57971000D02*
X155285000Y-57971000D01*
X153325000Y-57971000D02*
X151895000Y-57971000D01*
X156701000Y-58011000D02*
X155285000Y-58011000D01*
X153325000Y-58011000D02*
X151909000Y-58011000D01*
X156687000Y-58051000D02*
X155285000Y-58051000D01*
X153325000Y-58051000D02*
X151923000Y-58051000D01*
X156671000Y-58091000D02*
X155285000Y-58091000D01*
X153325000Y-58091000D02*
X151939000Y-58091000D01*
X156655000Y-58131000D02*
X155285000Y-58131000D01*
X153325000Y-58131000D02*
X151955000Y-58131000D01*
X156638000Y-58171000D02*
X155285000Y-58171000D01*
X153325000Y-58171000D02*
X151972000Y-58171000D01*
X156620000Y-58211000D02*
X155285000Y-58211000D01*
X153325000Y-58211000D02*
X151990000Y-58211000D01*
X156601000Y-58251000D02*
X155285000Y-58251000D01*
X153325000Y-58251000D02*
X152009000Y-58251000D01*
X156581000Y-58291000D02*
X155285000Y-58291000D01*
X153325000Y-58291000D02*
X152029000Y-58291000D01*
X156561000Y-58331000D02*
X155285000Y-58331000D01*
X153325000Y-58331000D02*
X152049000Y-58331000D01*
X156539000Y-58371000D02*
X155285000Y-58371000D01*
X153325000Y-58371000D02*
X152071000Y-58371000D01*
X156517000Y-58411000D02*
X155285000Y-58411000D01*
X153325000Y-58411000D02*
X152093000Y-58411000D01*
X156494000Y-58451000D02*
X155285000Y-58451000D01*
X153325000Y-58451000D02*
X152116000Y-58451000D01*
X156470000Y-58491000D02*
X155285000Y-58491000D01*
X153325000Y-58491000D02*
X152140000Y-58491000D01*
X156445000Y-58531000D02*
X155285000Y-58531000D01*
X153325000Y-58531000D02*
X152165000Y-58531000D01*
X156418000Y-58571000D02*
X155285000Y-58571000D01*
X153325000Y-58571000D02*
X152192000Y-58571000D01*
X156391000Y-58611000D02*
X155285000Y-58611000D01*
X153325000Y-58611000D02*
X152219000Y-58611000D01*
X156363000Y-58651000D02*
X155285000Y-58651000D01*
X153325000Y-58651000D02*
X152247000Y-58651000D01*
X156333000Y-58691000D02*
X155285000Y-58691000D01*
X153325000Y-58691000D02*
X152277000Y-58691000D01*
X156302000Y-58731000D02*
X155285000Y-58731000D01*
X153325000Y-58731000D02*
X152308000Y-58731000D01*
X156270000Y-58771000D02*
X155285000Y-58771000D01*
X153325000Y-58771000D02*
X152340000Y-58771000D01*
X156237000Y-58811000D02*
X155285000Y-58811000D01*
X153325000Y-58811000D02*
X152373000Y-58811000D01*
X156202000Y-58851000D02*
X155285000Y-58851000D01*
X153325000Y-58851000D02*
X152408000Y-58851000D01*
X156166000Y-58891000D02*
X155285000Y-58891000D01*
X153325000Y-58891000D02*
X152444000Y-58891000D01*
X156128000Y-58931000D02*
X155285000Y-58931000D01*
X153325000Y-58931000D02*
X152482000Y-58931000D01*
X156088000Y-58971000D02*
X155285000Y-58971000D01*
X153325000Y-58971000D02*
X152522000Y-58971000D01*
X156047000Y-59011000D02*
X155285000Y-59011000D01*
X153325000Y-59011000D02*
X152563000Y-59011000D01*
X156004000Y-59051000D02*
X155285000Y-59051000D01*
X153325000Y-59051000D02*
X152606000Y-59051000D01*
X155959000Y-59091000D02*
X155285000Y-59091000D01*
X153325000Y-59091000D02*
X152651000Y-59091000D01*
X155911000Y-59131000D02*
X155285000Y-59131000D01*
X153325000Y-59131000D02*
X152699000Y-59131000D01*
X155861000Y-59171000D02*
X155285000Y-59171000D01*
X153325000Y-59171000D02*
X152749000Y-59171000D01*
X155809000Y-59211000D02*
X155285000Y-59211000D01*
X153325000Y-59211000D02*
X152801000Y-59211000D01*
X155753000Y-59251000D02*
X155285000Y-59251000D01*
X153325000Y-59251000D02*
X152857000Y-59251000D01*
X155695000Y-59291000D02*
X155285000Y-59291000D01*
X153325000Y-59291000D02*
X152915000Y-59291000D01*
X155632000Y-59331000D02*
X155285000Y-59331000D01*
X153325000Y-59331000D02*
X152978000Y-59331000D01*
X155566000Y-59371000D02*
X153044000Y-59371000D01*
X155494000Y-59411000D02*
X153116000Y-59411000D01*
X155417000Y-59451000D02*
X153193000Y-59451000D01*
X155333000Y-59491000D02*
X153277000Y-59491000D01*
X155239000Y-59531000D02*
X153371000Y-59531000D01*
X155134000Y-59571000D02*
X153476000Y-59571000D01*
X155012000Y-59611000D02*
X153598000Y-59611000D01*
X154864000Y-59651000D02*
X153746000Y-59651000D01*
X154659000Y-59691000D02*
X153951000Y-59691000D01*
X154305000Y-53680000D02*
X154305000Y-54880000D01*
X154955000Y-54280000D02*
X153655000Y-54280000D01*
X157640000Y-59565000D02*
X157640000Y-56045000D01*
X159860000Y-59565000D02*
X159860000Y-56045000D01*
X157640000Y-59565000D02*
X157754000Y-59565000D01*
X159746000Y-59565000D02*
X159860000Y-59565000D01*
X157640000Y-56045000D02*
X157754000Y-56045000D01*
X159746000Y-56045000D02*
X159860000Y-56045000D01*
X151855277Y-95504278D02*
G75*
G03X151855000Y-100115580I1179723J-2305722D01*
G01*
X154214723Y-95504278D02*
G75*
G02X154215000Y-100115580I-1179723J-2305722D01*
G01*
X154214723Y-95504278D02*
G75*
G03X151855000Y-95504420I-1179723J-2305722D01*
G01*
X150485000Y-97810000D02*
X155585000Y-97810000D01*
X150485000Y-97770000D02*
X155585000Y-97770000D01*
X150486000Y-97730000D02*
X155584000Y-97730000D01*
X150487000Y-97690000D02*
X155583000Y-97690000D01*
X150489000Y-97650000D02*
X155581000Y-97650000D01*
X150492000Y-97610000D02*
X155578000Y-97610000D01*
X150496000Y-97570000D02*
X155574000Y-97570000D01*
X150500000Y-97530000D02*
X152055000Y-97530000D01*
X154015000Y-97530000D02*
X155570000Y-97530000D01*
X150504000Y-97490000D02*
X152055000Y-97490000D01*
X154015000Y-97490000D02*
X155566000Y-97490000D01*
X150510000Y-97450000D02*
X152055000Y-97450000D01*
X154015000Y-97450000D02*
X155560000Y-97450000D01*
X150516000Y-97410000D02*
X152055000Y-97410000D01*
X154015000Y-97410000D02*
X155554000Y-97410000D01*
X150522000Y-97370000D02*
X152055000Y-97370000D01*
X154015000Y-97370000D02*
X155548000Y-97370000D01*
X150529000Y-97330000D02*
X152055000Y-97330000D01*
X154015000Y-97330000D02*
X155541000Y-97330000D01*
X150537000Y-97290000D02*
X152055000Y-97290000D01*
X154015000Y-97290000D02*
X155533000Y-97290000D01*
X150546000Y-97250000D02*
X152055000Y-97250000D01*
X154015000Y-97250000D02*
X155524000Y-97250000D01*
X150555000Y-97210000D02*
X152055000Y-97210000D01*
X154015000Y-97210000D02*
X155515000Y-97210000D01*
X150565000Y-97170000D02*
X152055000Y-97170000D01*
X154015000Y-97170000D02*
X155505000Y-97170000D01*
X150575000Y-97130000D02*
X152055000Y-97130000D01*
X154015000Y-97130000D02*
X155495000Y-97130000D01*
X150587000Y-97089000D02*
X152055000Y-97089000D01*
X154015000Y-97089000D02*
X155483000Y-97089000D01*
X150599000Y-97049000D02*
X152055000Y-97049000D01*
X154015000Y-97049000D02*
X155471000Y-97049000D01*
X150611000Y-97009000D02*
X152055000Y-97009000D01*
X154015000Y-97009000D02*
X155459000Y-97009000D01*
X150625000Y-96969000D02*
X152055000Y-96969000D01*
X154015000Y-96969000D02*
X155445000Y-96969000D01*
X150639000Y-96929000D02*
X152055000Y-96929000D01*
X154015000Y-96929000D02*
X155431000Y-96929000D01*
X150653000Y-96889000D02*
X152055000Y-96889000D01*
X154015000Y-96889000D02*
X155417000Y-96889000D01*
X150669000Y-96849000D02*
X152055000Y-96849000D01*
X154015000Y-96849000D02*
X155401000Y-96849000D01*
X150685000Y-96809000D02*
X152055000Y-96809000D01*
X154015000Y-96809000D02*
X155385000Y-96809000D01*
X150702000Y-96769000D02*
X152055000Y-96769000D01*
X154015000Y-96769000D02*
X155368000Y-96769000D01*
X150720000Y-96729000D02*
X152055000Y-96729000D01*
X154015000Y-96729000D02*
X155350000Y-96729000D01*
X150739000Y-96689000D02*
X152055000Y-96689000D01*
X154015000Y-96689000D02*
X155331000Y-96689000D01*
X150759000Y-96649000D02*
X152055000Y-96649000D01*
X154015000Y-96649000D02*
X155311000Y-96649000D01*
X150779000Y-96609000D02*
X152055000Y-96609000D01*
X154015000Y-96609000D02*
X155291000Y-96609000D01*
X150801000Y-96569000D02*
X152055000Y-96569000D01*
X154015000Y-96569000D02*
X155269000Y-96569000D01*
X150823000Y-96529000D02*
X152055000Y-96529000D01*
X154015000Y-96529000D02*
X155247000Y-96529000D01*
X150846000Y-96489000D02*
X152055000Y-96489000D01*
X154015000Y-96489000D02*
X155224000Y-96489000D01*
X150870000Y-96449000D02*
X152055000Y-96449000D01*
X154015000Y-96449000D02*
X155200000Y-96449000D01*
X150895000Y-96409000D02*
X152055000Y-96409000D01*
X154015000Y-96409000D02*
X155175000Y-96409000D01*
X150922000Y-96369000D02*
X152055000Y-96369000D01*
X154015000Y-96369000D02*
X155148000Y-96369000D01*
X150949000Y-96329000D02*
X152055000Y-96329000D01*
X154015000Y-96329000D02*
X155121000Y-96329000D01*
X150977000Y-96289000D02*
X152055000Y-96289000D01*
X154015000Y-96289000D02*
X155093000Y-96289000D01*
X151007000Y-96249000D02*
X152055000Y-96249000D01*
X154015000Y-96249000D02*
X155063000Y-96249000D01*
X151038000Y-96209000D02*
X152055000Y-96209000D01*
X154015000Y-96209000D02*
X155032000Y-96209000D01*
X151070000Y-96169000D02*
X152055000Y-96169000D01*
X154015000Y-96169000D02*
X155000000Y-96169000D01*
X151103000Y-96129000D02*
X152055000Y-96129000D01*
X154015000Y-96129000D02*
X154967000Y-96129000D01*
X151138000Y-96089000D02*
X152055000Y-96089000D01*
X154015000Y-96089000D02*
X154932000Y-96089000D01*
X151174000Y-96049000D02*
X152055000Y-96049000D01*
X154015000Y-96049000D02*
X154896000Y-96049000D01*
X151212000Y-96009000D02*
X152055000Y-96009000D01*
X154015000Y-96009000D02*
X154858000Y-96009000D01*
X151252000Y-95969000D02*
X152055000Y-95969000D01*
X154015000Y-95969000D02*
X154818000Y-95969000D01*
X151293000Y-95929000D02*
X152055000Y-95929000D01*
X154015000Y-95929000D02*
X154777000Y-95929000D01*
X151336000Y-95889000D02*
X152055000Y-95889000D01*
X154015000Y-95889000D02*
X154734000Y-95889000D01*
X151381000Y-95849000D02*
X152055000Y-95849000D01*
X154015000Y-95849000D02*
X154689000Y-95849000D01*
X151429000Y-95809000D02*
X152055000Y-95809000D01*
X154015000Y-95809000D02*
X154641000Y-95809000D01*
X151479000Y-95769000D02*
X152055000Y-95769000D01*
X154015000Y-95769000D02*
X154591000Y-95769000D01*
X151531000Y-95729000D02*
X152055000Y-95729000D01*
X154015000Y-95729000D02*
X154539000Y-95729000D01*
X151587000Y-95689000D02*
X152055000Y-95689000D01*
X154015000Y-95689000D02*
X154483000Y-95689000D01*
X151645000Y-95649000D02*
X152055000Y-95649000D01*
X154015000Y-95649000D02*
X154425000Y-95649000D01*
X151708000Y-95609000D02*
X152055000Y-95609000D01*
X154015000Y-95609000D02*
X154362000Y-95609000D01*
X151774000Y-95569000D02*
X154296000Y-95569000D01*
X151846000Y-95529000D02*
X154224000Y-95529000D01*
X151923000Y-95489000D02*
X154147000Y-95489000D01*
X152007000Y-95449000D02*
X154063000Y-95449000D01*
X152101000Y-95409000D02*
X153969000Y-95409000D01*
X152206000Y-95369000D02*
X153864000Y-95369000D01*
X152328000Y-95329000D02*
X153742000Y-95329000D01*
X152476000Y-95289000D02*
X153594000Y-95289000D01*
X152681000Y-95249000D02*
X153389000Y-95249000D01*
X153035000Y-101260000D02*
X153035000Y-100060000D01*
X152385000Y-100660000D02*
X153685000Y-100660000D01*
X159475277Y-95504278D02*
G75*
G03X159475000Y-100115580I1179723J-2305722D01*
G01*
X161834723Y-95504278D02*
G75*
G02X161835000Y-100115580I-1179723J-2305722D01*
G01*
X161834723Y-95504278D02*
G75*
G03X159475000Y-95504420I-1179723J-2305722D01*
G01*
X158105000Y-97810000D02*
X163205000Y-97810000D01*
X158105000Y-97770000D02*
X163205000Y-97770000D01*
X158106000Y-97730000D02*
X163204000Y-97730000D01*
X158107000Y-97690000D02*
X163203000Y-97690000D01*
X158109000Y-97650000D02*
X163201000Y-97650000D01*
X158112000Y-97610000D02*
X163198000Y-97610000D01*
X158116000Y-97570000D02*
X163194000Y-97570000D01*
X158120000Y-97530000D02*
X159675000Y-97530000D01*
X161635000Y-97530000D02*
X163190000Y-97530000D01*
X158124000Y-97490000D02*
X159675000Y-97490000D01*
X161635000Y-97490000D02*
X163186000Y-97490000D01*
X158130000Y-97450000D02*
X159675000Y-97450000D01*
X161635000Y-97450000D02*
X163180000Y-97450000D01*
X158136000Y-97410000D02*
X159675000Y-97410000D01*
X161635000Y-97410000D02*
X163174000Y-97410000D01*
X158142000Y-97370000D02*
X159675000Y-97370000D01*
X161635000Y-97370000D02*
X163168000Y-97370000D01*
X158149000Y-97330000D02*
X159675000Y-97330000D01*
X161635000Y-97330000D02*
X163161000Y-97330000D01*
X158157000Y-97290000D02*
X159675000Y-97290000D01*
X161635000Y-97290000D02*
X163153000Y-97290000D01*
X158166000Y-97250000D02*
X159675000Y-97250000D01*
X161635000Y-97250000D02*
X163144000Y-97250000D01*
X158175000Y-97210000D02*
X159675000Y-97210000D01*
X161635000Y-97210000D02*
X163135000Y-97210000D01*
X158185000Y-97170000D02*
X159675000Y-97170000D01*
X161635000Y-97170000D02*
X163125000Y-97170000D01*
X158195000Y-97130000D02*
X159675000Y-97130000D01*
X161635000Y-97130000D02*
X163115000Y-97130000D01*
X158207000Y-97089000D02*
X159675000Y-97089000D01*
X161635000Y-97089000D02*
X163103000Y-97089000D01*
X158219000Y-97049000D02*
X159675000Y-97049000D01*
X161635000Y-97049000D02*
X163091000Y-97049000D01*
X158231000Y-97009000D02*
X159675000Y-97009000D01*
X161635000Y-97009000D02*
X163079000Y-97009000D01*
X158245000Y-96969000D02*
X159675000Y-96969000D01*
X161635000Y-96969000D02*
X163065000Y-96969000D01*
X158259000Y-96929000D02*
X159675000Y-96929000D01*
X161635000Y-96929000D02*
X163051000Y-96929000D01*
X158273000Y-96889000D02*
X159675000Y-96889000D01*
X161635000Y-96889000D02*
X163037000Y-96889000D01*
X158289000Y-96849000D02*
X159675000Y-96849000D01*
X161635000Y-96849000D02*
X163021000Y-96849000D01*
X158305000Y-96809000D02*
X159675000Y-96809000D01*
X161635000Y-96809000D02*
X163005000Y-96809000D01*
X158322000Y-96769000D02*
X159675000Y-96769000D01*
X161635000Y-96769000D02*
X162988000Y-96769000D01*
X158340000Y-96729000D02*
X159675000Y-96729000D01*
X161635000Y-96729000D02*
X162970000Y-96729000D01*
X158359000Y-96689000D02*
X159675000Y-96689000D01*
X161635000Y-96689000D02*
X162951000Y-96689000D01*
X158379000Y-96649000D02*
X159675000Y-96649000D01*
X161635000Y-96649000D02*
X162931000Y-96649000D01*
X158399000Y-96609000D02*
X159675000Y-96609000D01*
X161635000Y-96609000D02*
X162911000Y-96609000D01*
X158421000Y-96569000D02*
X159675000Y-96569000D01*
X161635000Y-96569000D02*
X162889000Y-96569000D01*
X158443000Y-96529000D02*
X159675000Y-96529000D01*
X161635000Y-96529000D02*
X162867000Y-96529000D01*
X158466000Y-96489000D02*
X159675000Y-96489000D01*
X161635000Y-96489000D02*
X162844000Y-96489000D01*
X158490000Y-96449000D02*
X159675000Y-96449000D01*
X161635000Y-96449000D02*
X162820000Y-96449000D01*
X158515000Y-96409000D02*
X159675000Y-96409000D01*
X161635000Y-96409000D02*
X162795000Y-96409000D01*
X158542000Y-96369000D02*
X159675000Y-96369000D01*
X161635000Y-96369000D02*
X162768000Y-96369000D01*
X158569000Y-96329000D02*
X159675000Y-96329000D01*
X161635000Y-96329000D02*
X162741000Y-96329000D01*
X158597000Y-96289000D02*
X159675000Y-96289000D01*
X161635000Y-96289000D02*
X162713000Y-96289000D01*
X158627000Y-96249000D02*
X159675000Y-96249000D01*
X161635000Y-96249000D02*
X162683000Y-96249000D01*
X158658000Y-96209000D02*
X159675000Y-96209000D01*
X161635000Y-96209000D02*
X162652000Y-96209000D01*
X158690000Y-96169000D02*
X159675000Y-96169000D01*
X161635000Y-96169000D02*
X162620000Y-96169000D01*
X158723000Y-96129000D02*
X159675000Y-96129000D01*
X161635000Y-96129000D02*
X162587000Y-96129000D01*
X158758000Y-96089000D02*
X159675000Y-96089000D01*
X161635000Y-96089000D02*
X162552000Y-96089000D01*
X158794000Y-96049000D02*
X159675000Y-96049000D01*
X161635000Y-96049000D02*
X162516000Y-96049000D01*
X158832000Y-96009000D02*
X159675000Y-96009000D01*
X161635000Y-96009000D02*
X162478000Y-96009000D01*
X158872000Y-95969000D02*
X159675000Y-95969000D01*
X161635000Y-95969000D02*
X162438000Y-95969000D01*
X158913000Y-95929000D02*
X159675000Y-95929000D01*
X161635000Y-95929000D02*
X162397000Y-95929000D01*
X158956000Y-95889000D02*
X159675000Y-95889000D01*
X161635000Y-95889000D02*
X162354000Y-95889000D01*
X159001000Y-95849000D02*
X159675000Y-95849000D01*
X161635000Y-95849000D02*
X162309000Y-95849000D01*
X159049000Y-95809000D02*
X159675000Y-95809000D01*
X161635000Y-95809000D02*
X162261000Y-95809000D01*
X159099000Y-95769000D02*
X159675000Y-95769000D01*
X161635000Y-95769000D02*
X162211000Y-95769000D01*
X159151000Y-95729000D02*
X159675000Y-95729000D01*
X161635000Y-95729000D02*
X162159000Y-95729000D01*
X159207000Y-95689000D02*
X159675000Y-95689000D01*
X161635000Y-95689000D02*
X162103000Y-95689000D01*
X159265000Y-95649000D02*
X159675000Y-95649000D01*
X161635000Y-95649000D02*
X162045000Y-95649000D01*
X159328000Y-95609000D02*
X159675000Y-95609000D01*
X161635000Y-95609000D02*
X161982000Y-95609000D01*
X159394000Y-95569000D02*
X161916000Y-95569000D01*
X159466000Y-95529000D02*
X161844000Y-95529000D01*
X159543000Y-95489000D02*
X161767000Y-95489000D01*
X159627000Y-95449000D02*
X161683000Y-95449000D01*
X159721000Y-95409000D02*
X161589000Y-95409000D01*
X159826000Y-95369000D02*
X161484000Y-95369000D01*
X159948000Y-95329000D02*
X161362000Y-95329000D01*
X160096000Y-95289000D02*
X161214000Y-95289000D01*
X160301000Y-95249000D02*
X161009000Y-95249000D01*
X160655000Y-101260000D02*
X160655000Y-100060000D01*
X160005000Y-100660000D02*
X161305000Y-100660000D01*
X158275000Y-106555000D02*
X158275000Y-103035000D01*
X160495000Y-106555000D02*
X160495000Y-103035000D01*
X158275000Y-106555000D02*
X158389000Y-106555000D01*
X160381000Y-106555000D02*
X160495000Y-106555000D01*
X158275000Y-103035000D02*
X158389000Y-103035000D01*
X160381000Y-103035000D02*
X160495000Y-103035000D01*
X152560000Y-106555000D02*
X152560000Y-103035000D01*
X154780000Y-106555000D02*
X154780000Y-103035000D01*
X152560000Y-106555000D02*
X152674000Y-106555000D01*
X154666000Y-106555000D02*
X154780000Y-106555000D01*
X152560000Y-103035000D02*
X152674000Y-103035000D01*
X154666000Y-103035000D02*
X154780000Y-103035000D01*
D11*
X159512143Y-89848571D02*
X159512143Y-90848571D01*
X158869286Y-89848571D02*
X158869286Y-90634286D01*
X158940714Y-90777143D01*
X159083572Y-90848571D01*
X159297857Y-90848571D01*
X159440714Y-90777143D01*
X159512143Y-90705714D01*
X160226429Y-90848571D02*
X160226429Y-89348571D01*
X160797857Y-89348571D01*
X160940715Y-89420000D01*
X161012143Y-89491429D01*
X161083572Y-89634286D01*
X161083572Y-89848571D01*
X161012143Y-89991429D01*
X160940715Y-90062857D01*
X160797857Y-90134286D01*
X160226429Y-90134286D01*
X162512143Y-90848571D02*
X161655000Y-90848571D01*
X162083572Y-90848571D02*
X162083572Y-89348571D01*
X161940715Y-89562857D01*
X161797857Y-89705714D01*
X161655000Y-89777143D01*
X160905000Y-85128572D02*
X160905000Y-84414286D01*
X161333571Y-85271429D02*
X159833571Y-84771429D01*
X161333571Y-84271429D01*
X161333571Y-82914286D02*
X160619286Y-83414286D01*
X161333571Y-83771429D02*
X159833571Y-83771429D01*
X159833571Y-83200001D01*
X159905000Y-83057143D01*
X159976429Y-82985715D01*
X160119286Y-82914286D01*
X160333571Y-82914286D01*
X160476429Y-82985715D01*
X160547857Y-83057143D01*
X160619286Y-83200001D01*
X160619286Y-83771429D01*
X161333571Y-82271429D02*
X159833571Y-82271429D01*
X159833571Y-81914286D01*
X159905000Y-81700001D01*
X160047857Y-81557143D01*
X160190714Y-81485715D01*
X160476429Y-81414286D01*
X160690714Y-81414286D01*
X160976429Y-81485715D01*
X161119286Y-81557143D01*
X161262143Y-81700001D01*
X161333571Y-81914286D01*
X161333571Y-82271429D01*
X159833571Y-80771429D02*
X161047857Y-80771429D01*
X161190714Y-80700001D01*
X161262143Y-80628572D01*
X161333571Y-80485715D01*
X161333571Y-80200001D01*
X161262143Y-80057143D01*
X161190714Y-79985715D01*
X161047857Y-79914286D01*
X159833571Y-79914286D01*
X161333571Y-79200000D02*
X159833571Y-79200000D01*
X159833571Y-78628572D01*
X159905000Y-78485714D01*
X159976429Y-78414286D01*
X160119286Y-78342857D01*
X160333571Y-78342857D01*
X160476429Y-78414286D01*
X160547857Y-78485714D01*
X160619286Y-78628572D01*
X160619286Y-79200000D01*
X161333571Y-76842857D02*
X160619286Y-77342857D01*
X161333571Y-77700000D02*
X159833571Y-77700000D01*
X159833571Y-77128572D01*
X159905000Y-76985714D01*
X159976429Y-76914286D01*
X160119286Y-76842857D01*
X160333571Y-76842857D01*
X160476429Y-76914286D01*
X160547857Y-76985714D01*
X160619286Y-77128572D01*
X160619286Y-77700000D01*
X159833571Y-75914286D02*
X159833571Y-75628572D01*
X159905000Y-75485714D01*
X160047857Y-75342857D01*
X160333571Y-75271429D01*
X160833571Y-75271429D01*
X161119286Y-75342857D01*
X161262143Y-75485714D01*
X161333571Y-75628572D01*
X161333571Y-75914286D01*
X161262143Y-76057143D01*
X161119286Y-76200000D01*
X160833571Y-76271429D01*
X160333571Y-76271429D01*
X160047857Y-76200000D01*
X159905000Y-76057143D01*
X159833571Y-75914286D01*
X161333571Y-74628571D02*
X159833571Y-74628571D01*
X160905000Y-74128571D01*
X159833571Y-73628571D01*
X161333571Y-73628571D01*
X161333571Y-72914285D02*
X159833571Y-72914285D01*
X161333571Y-72199999D02*
X159833571Y-72199999D01*
X161333571Y-71342856D01*
X159833571Y-71342856D01*
X161333571Y-70628570D02*
X159833571Y-70628570D01*
X160762143Y-69914284D02*
X160762143Y-68771427D01*
X159833571Y-67414284D02*
X159833571Y-67699998D01*
X159905000Y-67842855D01*
X159976429Y-67914284D01*
X160190714Y-68057141D01*
X160476429Y-68128570D01*
X161047857Y-68128570D01*
X161190714Y-68057141D01*
X161262143Y-67985713D01*
X161333571Y-67842855D01*
X161333571Y-67557141D01*
X161262143Y-67414284D01*
X161190714Y-67342855D01*
X161047857Y-67271427D01*
X160690714Y-67271427D01*
X160547857Y-67342855D01*
X160476429Y-67414284D01*
X160405000Y-67557141D01*
X160405000Y-67842855D01*
X160476429Y-67985713D01*
X160547857Y-68057141D01*
X160690714Y-68128570D01*
D13*
X167361810Y-108155619D02*
X167361810Y-107139619D01*
X167942381Y-108155619D01*
X167942381Y-107139619D01*
X168329429Y-107139619D02*
X169006762Y-108155619D01*
X169006762Y-107139619D02*
X168329429Y-108155619D01*
X169248667Y-107139619D02*
X169829238Y-107139619D01*
X169538953Y-108155619D02*
X169538953Y-107139619D01*
X169926000Y-108252381D02*
X170700095Y-108252381D01*
X170942000Y-108155619D02*
X170942000Y-107139619D01*
X171280666Y-107865333D01*
X171619333Y-107139619D01*
X171619333Y-108155619D01*
X172296667Y-107139619D02*
X172490190Y-107139619D01*
X172586952Y-107188000D01*
X172683714Y-107284762D01*
X172732095Y-107478286D01*
X172732095Y-107816952D01*
X172683714Y-108010476D01*
X172586952Y-108107238D01*
X172490190Y-108155619D01*
X172296667Y-108155619D01*
X172199905Y-108107238D01*
X172103143Y-108010476D01*
X172054762Y-107816952D01*
X172054762Y-107478286D01*
X172103143Y-107284762D01*
X172199905Y-107188000D01*
X172296667Y-107139619D01*
X173022381Y-107139619D02*
X173602952Y-107139619D01*
X173312667Y-108155619D02*
X173312667Y-107139619D01*
X174135143Y-107139619D02*
X174328666Y-107139619D01*
X174425428Y-107188000D01*
X174522190Y-107284762D01*
X174570571Y-107478286D01*
X174570571Y-107816952D01*
X174522190Y-108010476D01*
X174425428Y-108107238D01*
X174328666Y-108155619D01*
X174135143Y-108155619D01*
X174038381Y-108107238D01*
X173941619Y-108010476D01*
X173893238Y-107816952D01*
X173893238Y-107478286D01*
X173941619Y-107284762D01*
X174038381Y-107188000D01*
X174135143Y-107139619D01*
X175586571Y-108155619D02*
X175247905Y-107671810D01*
X175006000Y-108155619D02*
X175006000Y-107139619D01*
X175393047Y-107139619D01*
X175489809Y-107188000D01*
X175538190Y-107236381D01*
X175586571Y-107333143D01*
X175586571Y-107478286D01*
X175538190Y-107575048D01*
X175489809Y-107623429D01*
X175393047Y-107671810D01*
X175006000Y-107671810D01*
D11*
X173334762Y-69148333D02*
X173382381Y-69005476D01*
X173382381Y-68767380D01*
X173334762Y-68672142D01*
X173287143Y-68624523D01*
X173191905Y-68576904D01*
X173096667Y-68576904D01*
X173001429Y-68624523D01*
X172953810Y-68672142D01*
X172906190Y-68767380D01*
X172858571Y-68957857D01*
X172810952Y-69053095D01*
X172763333Y-69100714D01*
X172668095Y-69148333D01*
X172572857Y-69148333D01*
X172477619Y-69100714D01*
X172430000Y-69053095D01*
X172382381Y-68957857D01*
X172382381Y-68719761D01*
X172430000Y-68576904D01*
X172382381Y-68243571D02*
X173382381Y-68005476D01*
X172668095Y-67814999D01*
X173382381Y-67624523D01*
X172382381Y-67386428D01*
X173382381Y-66481666D02*
X173382381Y-67053095D01*
X173382381Y-66767381D02*
X172382381Y-66767381D01*
X172525238Y-66862619D01*
X172620476Y-66957857D01*
X172668095Y-67053095D01*
D16*
X139739139Y-92921592D02*
X139739139Y-91920462D01*
X140787943Y-92826246D02*
X140740270Y-92873919D01*
X140597251Y-92921592D01*
X140501905Y-92921592D01*
X140358887Y-92873919D01*
X140263541Y-92778574D01*
X140215868Y-92683228D01*
X140168195Y-92492536D01*
X140168195Y-92349518D01*
X140215868Y-92158826D01*
X140263541Y-92063481D01*
X140358887Y-91968135D01*
X140501905Y-91920462D01*
X140597251Y-91920462D01*
X140740270Y-91968135D01*
X140787943Y-92015808D01*
X141741400Y-92921592D02*
X141169325Y-92921592D01*
X141455363Y-92921592D02*
X141455363Y-91920462D01*
X141360017Y-92063481D01*
X141264671Y-92158826D01*
X141169325Y-92206499D01*
X140788086Y-87226284D02*
X140788086Y-87703217D01*
X139786526Y-87703217D01*
X139881912Y-86940124D02*
X139834219Y-86892430D01*
X139786526Y-86797044D01*
X139786526Y-86558577D01*
X139834219Y-86463190D01*
X139881912Y-86415497D01*
X139977299Y-86367804D01*
X140072686Y-86367804D01*
X140215766Y-86415497D01*
X140788086Y-86987817D01*
X140788086Y-86367804D01*
X140788086Y-85890870D02*
X140788086Y-85700097D01*
X140740392Y-85604710D01*
X140692699Y-85557017D01*
X140549619Y-85461630D01*
X140358846Y-85413937D01*
X139977299Y-85413937D01*
X139881912Y-85461630D01*
X139834219Y-85509323D01*
X139786526Y-85604710D01*
X139786526Y-85795483D01*
X139834219Y-85890870D01*
X139881912Y-85938563D01*
X139977299Y-85986257D01*
X140215766Y-85986257D01*
X140311152Y-85938563D01*
X140358846Y-85890870D01*
X140406539Y-85795483D01*
X140406539Y-85604710D01*
X140358846Y-85509323D01*
X140311152Y-85461630D01*
X140215766Y-85413937D01*
X139786526Y-85080083D02*
X139786526Y-84460070D01*
X140168072Y-84793923D01*
X140168072Y-84650843D01*
X140215766Y-84555456D01*
X140263459Y-84507763D01*
X140358846Y-84460070D01*
X140597312Y-84460070D01*
X140692699Y-84507763D01*
X140740392Y-84555456D01*
X140788086Y-84650843D01*
X140788086Y-84937003D01*
X140740392Y-85032390D01*
X140692699Y-85080083D01*
X140788086Y-84030829D02*
X139786526Y-84030829D01*
X139786526Y-83792363D01*
X139834219Y-83649283D01*
X139929606Y-83553896D01*
X140024992Y-83506203D01*
X140215766Y-83458509D01*
X140358846Y-83458509D01*
X140549619Y-83506203D01*
X140645006Y-83553896D01*
X140740392Y-83649283D01*
X140788086Y-83792363D01*
X140788086Y-84030829D01*
D13*
X137516810Y-108155619D02*
X137516810Y-107139619D01*
X138097381Y-108155619D01*
X138097381Y-107139619D01*
X138484429Y-107139619D02*
X139161762Y-108155619D01*
X139161762Y-107139619D02*
X138484429Y-108155619D01*
X139403667Y-107139619D02*
X139984238Y-107139619D01*
X139693953Y-108155619D02*
X139693953Y-107139619D01*
X140081000Y-108252381D02*
X140855095Y-108252381D01*
X141097000Y-108155619D02*
X141097000Y-107139619D01*
X141435666Y-107865333D01*
X141774333Y-107139619D01*
X141774333Y-108155619D01*
X142451667Y-107139619D02*
X142645190Y-107139619D01*
X142741952Y-107188000D01*
X142838714Y-107284762D01*
X142887095Y-107478286D01*
X142887095Y-107816952D01*
X142838714Y-108010476D01*
X142741952Y-108107238D01*
X142645190Y-108155619D01*
X142451667Y-108155619D01*
X142354905Y-108107238D01*
X142258143Y-108010476D01*
X142209762Y-107816952D01*
X142209762Y-107478286D01*
X142258143Y-107284762D01*
X142354905Y-107188000D01*
X142451667Y-107139619D01*
X143177381Y-107139619D02*
X143757952Y-107139619D01*
X143467667Y-108155619D02*
X143467667Y-107139619D01*
X144290143Y-107139619D02*
X144483666Y-107139619D01*
X144580428Y-107188000D01*
X144677190Y-107284762D01*
X144725571Y-107478286D01*
X144725571Y-107816952D01*
X144677190Y-108010476D01*
X144580428Y-108107238D01*
X144483666Y-108155619D01*
X144290143Y-108155619D01*
X144193381Y-108107238D01*
X144096619Y-108010476D01*
X144048238Y-107816952D01*
X144048238Y-107478286D01*
X144096619Y-107284762D01*
X144193381Y-107188000D01*
X144290143Y-107139619D01*
X145741571Y-108155619D02*
X145402905Y-107671810D01*
X145161000Y-108155619D02*
X145161000Y-107139619D01*
X145548047Y-107139619D01*
X145644809Y-107188000D01*
X145693190Y-107236381D01*
X145741571Y-107333143D01*
X145741571Y-107478286D01*
X145693190Y-107575048D01*
X145644809Y-107623429D01*
X145548047Y-107671810D01*
X145161000Y-107671810D01*
D11*
X148403334Y-80547143D02*
X148355715Y-80594762D01*
X148212858Y-80642381D01*
X148117620Y-80642381D01*
X147974762Y-80594762D01*
X147879524Y-80499524D01*
X147831905Y-80404286D01*
X147784286Y-80213810D01*
X147784286Y-80070952D01*
X147831905Y-79880476D01*
X147879524Y-79785238D01*
X147974762Y-79690000D01*
X148117620Y-79642381D01*
X148212858Y-79642381D01*
X148355715Y-79690000D01*
X148403334Y-79737619D01*
X148736667Y-79642381D02*
X149355715Y-79642381D01*
X149022381Y-80023333D01*
X149165239Y-80023333D01*
X149260477Y-80070952D01*
X149308096Y-80118571D01*
X149355715Y-80213810D01*
X149355715Y-80451905D01*
X149308096Y-80547143D01*
X149260477Y-80594762D01*
X149165239Y-80642381D01*
X148879524Y-80642381D01*
X148784286Y-80594762D01*
X148736667Y-80547143D01*
X153392143Y-66186666D02*
X153439762Y-66234285D01*
X153487381Y-66377142D01*
X153487381Y-66472380D01*
X153439762Y-66615238D01*
X153344524Y-66710476D01*
X153249286Y-66758095D01*
X153058810Y-66805714D01*
X152915952Y-66805714D01*
X152725476Y-66758095D01*
X152630238Y-66710476D01*
X152535000Y-66615238D01*
X152487381Y-66472380D01*
X152487381Y-66377142D01*
X152535000Y-66234285D01*
X152582619Y-66186666D01*
X153487381Y-65234285D02*
X153487381Y-65805714D01*
X153487381Y-65520000D02*
X152487381Y-65520000D01*
X152630238Y-65615238D01*
X152725476Y-65710476D01*
X152773095Y-65805714D01*
X148570334Y-92432143D02*
X148522715Y-92479762D01*
X148379858Y-92527381D01*
X148284620Y-92527381D01*
X148141762Y-92479762D01*
X148046524Y-92384524D01*
X147998905Y-92289286D01*
X147951286Y-92098810D01*
X147951286Y-91955952D01*
X147998905Y-91765476D01*
X148046524Y-91670238D01*
X148141762Y-91575000D01*
X148284620Y-91527381D01*
X148379858Y-91527381D01*
X148522715Y-91575000D01*
X148570334Y-91622619D01*
X148951286Y-91622619D02*
X148998905Y-91575000D01*
X149094143Y-91527381D01*
X149332239Y-91527381D01*
X149427477Y-91575000D01*
X149475096Y-91622619D01*
X149522715Y-91717857D01*
X149522715Y-91813095D01*
X149475096Y-91955952D01*
X148903667Y-92527381D01*
X149522715Y-92527381D01*
X153442381Y-75731666D02*
X152966190Y-76065000D01*
X153442381Y-76303095D02*
X152442381Y-76303095D01*
X152442381Y-75922142D01*
X152490000Y-75826904D01*
X152537619Y-75779285D01*
X152632857Y-75731666D01*
X152775714Y-75731666D01*
X152870952Y-75779285D01*
X152918571Y-75826904D01*
X152966190Y-75922142D01*
X152966190Y-76303095D01*
X153442381Y-74779285D02*
X153442381Y-75350714D01*
X153442381Y-75065000D02*
X152442381Y-75065000D01*
X152585238Y-75160238D01*
X152680476Y-75255476D01*
X152728095Y-75350714D01*
X149632381Y-75731666D02*
X149156190Y-76065000D01*
X149632381Y-76303095D02*
X148632381Y-76303095D01*
X148632381Y-75922142D01*
X148680000Y-75826904D01*
X148727619Y-75779285D01*
X148822857Y-75731666D01*
X148965714Y-75731666D01*
X149060952Y-75779285D01*
X149108571Y-75826904D01*
X149156190Y-75922142D01*
X149156190Y-76303095D01*
X148727619Y-75350714D02*
X148680000Y-75303095D01*
X148632381Y-75207857D01*
X148632381Y-74969761D01*
X148680000Y-74874523D01*
X148727619Y-74826904D01*
X148822857Y-74779285D01*
X148918095Y-74779285D01*
X149060952Y-74826904D01*
X149632381Y-75398333D01*
X149632381Y-74779285D01*
X139573095Y-69175381D02*
X139573095Y-69984905D01*
X139620714Y-70080143D01*
X139668333Y-70127762D01*
X139763571Y-70175381D01*
X139954048Y-70175381D01*
X140049286Y-70127762D01*
X140096905Y-70080143D01*
X140144524Y-69984905D01*
X140144524Y-69175381D01*
X141144524Y-70175381D02*
X140573095Y-70175381D01*
X140858809Y-70175381D02*
X140858809Y-69175381D01*
X140763571Y-69318238D01*
X140668333Y-69413476D01*
X140573095Y-69461095D01*
X134469286Y-60888571D02*
X134612143Y-60936190D01*
X134659762Y-60983810D01*
X134707381Y-61079048D01*
X134707381Y-61221905D01*
X134659762Y-61317143D01*
X134612143Y-61364762D01*
X134516905Y-61412381D01*
X134135952Y-61412381D01*
X134135952Y-60412381D01*
X134469286Y-60412381D01*
X134564524Y-60460000D01*
X134612143Y-60507619D01*
X134659762Y-60602857D01*
X134659762Y-60698095D01*
X134612143Y-60793333D01*
X134564524Y-60840952D01*
X134469286Y-60888571D01*
X134135952Y-60888571D01*
X134993095Y-60412381D02*
X135564524Y-60412381D01*
X135278809Y-61412381D02*
X135278809Y-60412381D01*
X136421667Y-61412381D02*
X135850238Y-61412381D01*
X136135952Y-61412381D02*
X136135952Y-60412381D01*
X136040714Y-60555238D01*
X135945476Y-60650476D01*
X135850238Y-60698095D01*
X174664762Y-79827381D02*
X174331428Y-79351190D01*
X174093333Y-79827381D02*
X174093333Y-78827381D01*
X174474286Y-78827381D01*
X174569524Y-78875000D01*
X174617143Y-78922619D01*
X174664762Y-79017857D01*
X174664762Y-79160714D01*
X174617143Y-79255952D01*
X174569524Y-79303571D01*
X174474286Y-79351190D01*
X174093333Y-79351190D01*
X174950476Y-78827381D02*
X175283809Y-79827381D01*
X175617143Y-78827381D01*
X176474286Y-79827381D02*
X175902857Y-79827381D01*
X176188571Y-79827381D02*
X176188571Y-78827381D01*
X176093333Y-78970238D01*
X175998095Y-79065476D01*
X175902857Y-79113095D01*
X174664762Y-89352381D02*
X174331428Y-88876190D01*
X174093333Y-89352381D02*
X174093333Y-88352381D01*
X174474286Y-88352381D01*
X174569524Y-88400000D01*
X174617143Y-88447619D01*
X174664762Y-88542857D01*
X174664762Y-88685714D01*
X174617143Y-88780952D01*
X174569524Y-88828571D01*
X174474286Y-88876190D01*
X174093333Y-88876190D01*
X174950476Y-88352381D02*
X175283809Y-89352381D01*
X175617143Y-88352381D01*
X175902857Y-88447619D02*
X175950476Y-88400000D01*
X176045714Y-88352381D01*
X176283810Y-88352381D01*
X176379048Y-88400000D01*
X176426667Y-88447619D01*
X176474286Y-88542857D01*
X176474286Y-88638095D01*
X176426667Y-88780952D01*
X175855238Y-89352381D01*
X176474286Y-89352381D01*
X174442381Y-56546666D02*
X173966190Y-56880000D01*
X174442381Y-57118095D02*
X173442381Y-57118095D01*
X173442381Y-56737142D01*
X173490000Y-56641904D01*
X173537619Y-56594285D01*
X173632857Y-56546666D01*
X173775714Y-56546666D01*
X173870952Y-56594285D01*
X173918571Y-56641904D01*
X173966190Y-56737142D01*
X173966190Y-57118095D01*
X174347143Y-55546666D02*
X174394762Y-55594285D01*
X174442381Y-55737142D01*
X174442381Y-55832380D01*
X174394762Y-55975238D01*
X174299524Y-56070476D01*
X174204286Y-56118095D01*
X174013810Y-56165714D01*
X173870952Y-56165714D01*
X173680476Y-56118095D01*
X173585238Y-56070476D01*
X173490000Y-55975238D01*
X173442381Y-55832380D01*
X173442381Y-55737142D01*
X173490000Y-55594285D01*
X173537619Y-55546666D01*
X174442381Y-54594285D02*
X174442381Y-55165714D01*
X174442381Y-54880000D02*
X173442381Y-54880000D01*
X173585238Y-54975238D01*
X173680476Y-55070476D01*
X173728095Y-55165714D01*
X158472143Y-57296666D02*
X158519762Y-57344285D01*
X158567381Y-57487142D01*
X158567381Y-57582380D01*
X158519762Y-57725238D01*
X158424524Y-57820476D01*
X158329286Y-57868095D01*
X158138810Y-57915714D01*
X157995952Y-57915714D01*
X157805476Y-57868095D01*
X157710238Y-57820476D01*
X157615000Y-57725238D01*
X157567381Y-57582380D01*
X157567381Y-57487142D01*
X157615000Y-57344285D01*
X157662619Y-57296666D01*
X157900714Y-56439523D02*
X158567381Y-56439523D01*
X157519762Y-56677619D02*
X158234048Y-56915714D01*
X158234048Y-56296666D01*
X156747143Y-57971666D02*
X156794762Y-58019285D01*
X156842381Y-58162142D01*
X156842381Y-58257380D01*
X156794762Y-58400238D01*
X156699524Y-58495476D01*
X156604286Y-58543095D01*
X156413810Y-58590714D01*
X156270952Y-58590714D01*
X156080476Y-58543095D01*
X155985238Y-58495476D01*
X155890000Y-58400238D01*
X155842381Y-58257380D01*
X155842381Y-58162142D01*
X155890000Y-58019285D01*
X155937619Y-57971666D01*
X155842381Y-57066904D02*
X155842381Y-57543095D01*
X156318571Y-57590714D01*
X156270952Y-57543095D01*
X156223333Y-57447857D01*
X156223333Y-57209761D01*
X156270952Y-57114523D01*
X156318571Y-57066904D01*
X156413810Y-57019285D01*
X156651905Y-57019285D01*
X156747143Y-57066904D01*
X156794762Y-57114523D01*
X156842381Y-57209761D01*
X156842381Y-57447857D01*
X156794762Y-57543095D01*
X156747143Y-57590714D01*
X149582143Y-97976666D02*
X149629762Y-98024285D01*
X149677381Y-98167142D01*
X149677381Y-98262380D01*
X149629762Y-98405238D01*
X149534524Y-98500476D01*
X149439286Y-98548095D01*
X149248810Y-98595714D01*
X149105952Y-98595714D01*
X148915476Y-98548095D01*
X148820238Y-98500476D01*
X148725000Y-98405238D01*
X148677381Y-98262380D01*
X148677381Y-98167142D01*
X148725000Y-98024285D01*
X148772619Y-97976666D01*
X148677381Y-97119523D02*
X148677381Y-97310000D01*
X148725000Y-97405238D01*
X148772619Y-97452857D01*
X148915476Y-97548095D01*
X149105952Y-97595714D01*
X149486905Y-97595714D01*
X149582143Y-97548095D01*
X149629762Y-97500476D01*
X149677381Y-97405238D01*
X149677381Y-97214761D01*
X149629762Y-97119523D01*
X149582143Y-97071904D01*
X149486905Y-97024285D01*
X149248810Y-97024285D01*
X149153571Y-97071904D01*
X149105952Y-97119523D01*
X149058333Y-97214761D01*
X149058333Y-97405238D01*
X149105952Y-97500476D01*
X149153571Y-97548095D01*
X149248810Y-97595714D01*
X157202143Y-97976666D02*
X157249762Y-98024285D01*
X157297381Y-98167142D01*
X157297381Y-98262380D01*
X157249762Y-98405238D01*
X157154524Y-98500476D01*
X157059286Y-98548095D01*
X156868810Y-98595714D01*
X156725952Y-98595714D01*
X156535476Y-98548095D01*
X156440238Y-98500476D01*
X156345000Y-98405238D01*
X156297381Y-98262380D01*
X156297381Y-98167142D01*
X156345000Y-98024285D01*
X156392619Y-97976666D01*
X156297381Y-97643333D02*
X156297381Y-96976666D01*
X157297381Y-97405238D01*
X157382143Y-104961666D02*
X157429762Y-105009285D01*
X157477381Y-105152142D01*
X157477381Y-105247380D01*
X157429762Y-105390238D01*
X157334524Y-105485476D01*
X157239286Y-105533095D01*
X157048810Y-105580714D01*
X156905952Y-105580714D01*
X156715476Y-105533095D01*
X156620238Y-105485476D01*
X156525000Y-105390238D01*
X156477381Y-105247380D01*
X156477381Y-105152142D01*
X156525000Y-105009285D01*
X156572619Y-104961666D01*
X156905952Y-104390238D02*
X156858333Y-104485476D01*
X156810714Y-104533095D01*
X156715476Y-104580714D01*
X156667857Y-104580714D01*
X156572619Y-104533095D01*
X156525000Y-104485476D01*
X156477381Y-104390238D01*
X156477381Y-104199761D01*
X156525000Y-104104523D01*
X156572619Y-104056904D01*
X156667857Y-104009285D01*
X156715476Y-104009285D01*
X156810714Y-104056904D01*
X156858333Y-104104523D01*
X156905952Y-104199761D01*
X156905952Y-104390238D01*
X156953571Y-104485476D01*
X157001190Y-104533095D01*
X157096429Y-104580714D01*
X157286905Y-104580714D01*
X157382143Y-104533095D01*
X157429762Y-104485476D01*
X157477381Y-104390238D01*
X157477381Y-104199761D01*
X157429762Y-104104523D01*
X157382143Y-104056904D01*
X157286905Y-104009285D01*
X157096429Y-104009285D01*
X157001190Y-104056904D01*
X156953571Y-104104523D01*
X156905952Y-104199761D01*
X151667143Y-104961666D02*
X151714762Y-105009285D01*
X151762381Y-105152142D01*
X151762381Y-105247380D01*
X151714762Y-105390238D01*
X151619524Y-105485476D01*
X151524286Y-105533095D01*
X151333810Y-105580714D01*
X151190952Y-105580714D01*
X151000476Y-105533095D01*
X150905238Y-105485476D01*
X150810000Y-105390238D01*
X150762381Y-105247380D01*
X150762381Y-105152142D01*
X150810000Y-105009285D01*
X150857619Y-104961666D01*
X151762381Y-104485476D02*
X151762381Y-104295000D01*
X151714762Y-104199761D01*
X151667143Y-104152142D01*
X151524286Y-104056904D01*
X151333810Y-104009285D01*
X150952857Y-104009285D01*
X150857619Y-104056904D01*
X150810000Y-104104523D01*
X150762381Y-104199761D01*
X150762381Y-104390238D01*
X150810000Y-104485476D01*
X150857619Y-104533095D01*
X150952857Y-104580714D01*
X151190952Y-104580714D01*
X151286190Y-104533095D01*
X151333810Y-104485476D01*
X151381429Y-104390238D01*
X151381429Y-104199761D01*
X151333810Y-104104523D01*
X151286190Y-104056904D01*
X151190952Y-104009285D01*
M02*
