M48
;DRILL file {KiCad 4.0.2-stable} date 3/14/2018 4:21:40 PM
;FORMAT={-:-/ absolute / inch / decimal}
FMAT,2
INCH,TZ
T1C0.024
T2C0.028
T3C0.028
T4C0.030
T5C0.031
T6C0.032
T7C0.035
T8C0.039
T9C0.043
T10C0.045
T11C0.059
T12C0.060
T13C0.095
%
G90
G05
M72
T1
X5.395Y-3.69
X5.495Y-3.69
X5.805Y-3.69
X5.905Y-3.69
T2
X4.975Y-4.275
X5.275Y-4.275
X5.35Y-4.275
X5.65Y-4.275
X5.725Y-4.275
X6.025Y-4.275
T3
X4.5662Y-4.7442
X4.6102Y-4.6471
X4.6518Y-4.7429
X4.6962Y-4.6461
X4.7373Y-4.7428
X4.7814Y-4.6435
X5.8412Y-4.7442
X5.8852Y-4.6471
X5.9268Y-4.7429
X5.9712Y-4.6461
X6.0123Y-4.7428
X6.0564Y-4.6435
T4
X5.05Y-3.575
X5.05Y-4.175
X5.15Y-3.575
X5.15Y-4.175
X5.25Y-3.575
X5.25Y-4.175
X5.35Y-3.575
X5.35Y-4.175
X5.45Y-3.575
X5.45Y-4.175
X5.55Y-3.575
X5.55Y-4.175
X5.65Y-3.575
X5.65Y-4.175
X5.75Y-3.575
X5.75Y-4.175
X5.85Y-3.575
X5.85Y-4.175
X5.95Y-3.575
X5.95Y-4.175
X6.05Y-3.575
X6.05Y-4.175
X6.15Y-3.575
X6.15Y-4.175
T5
X4.975Y-3.225
X4.975Y-3.3234
X5.575Y-3.2266
X5.575Y-3.325
X6.1Y-3.3516
X6.1Y-3.45
T6
X4.475Y-3.525
X4.475Y-3.625
X4.475Y-3.725
X4.475Y-3.825
X4.475Y-3.925
X4.475Y-4.025
X4.475Y-4.125
X4.475Y-4.225
X4.775Y-3.525
X4.775Y-3.625
X4.775Y-3.725
X4.775Y-3.825
X4.775Y-3.925
X4.775Y-4.025
X4.775Y-4.125
X4.775Y-4.225
T7
X5.225Y-4.825
X5.3037Y-4.825
X5.3825Y-4.825
X5.4031Y-4.6
X5.5016Y-4.4031
X5.6Y-4.6
T8
X5.825Y-3.175
X5.925Y-3.175
X6.025Y-3.175
X6.125Y-3.175
T9
X5.025Y-4.425
X5.025Y-4.6022
X5.2809Y-4.425
X5.2809Y-4.6022
T10
X5.225Y-3.175
X5.225Y-3.275
X5.225Y-3.375
T11
X5.1423Y-4.825
X5.4652Y-4.825
T12
X4.525Y-3.225
X4.725Y-3.225
T13
X4.4355Y-4.5535
X4.9105Y-4.5535
X5.7105Y-4.5535
X6.1855Y-4.5535
T0
M30
