G04 #@! TF.GenerationSoftware,KiCad,Pcbnew,5.0.0-fee4fd1~66~ubuntu16.04.1*
G04 #@! TF.CreationDate,2018-09-27T17:05:49-06:00*
G04 #@! TF.ProjectId,nxt_esc,6E78745F6573632E6B696361645F7063,rev?*
G04 #@! TF.SameCoordinates,Original*
G04 #@! TF.FileFunction,Copper,L1,Top,Signal*
G04 #@! TF.FilePolarity,Positive*
%FSLAX46Y46*%
G04 Gerber Fmt 4.6, Leading zero omitted, Abs format (unit mm)*
G04 Created by KiCad (PCBNEW 5.0.0-fee4fd1~66~ubuntu16.04.1) date Thu Sep 27 17:05:49 2018*
%MOMM*%
%LPD*%
G01*
G04 APERTURE LIST*
G04 #@! TA.AperFunction,ComponentPad*
%ADD10C,1.524000*%
G04 #@! TD*
G04 #@! TA.AperFunction,ComponentPad*
%ADD11C,1.500000*%
G04 #@! TD*
G04 #@! TA.AperFunction,ComponentPad*
%ADD12C,2.413000*%
G04 #@! TD*
G04 #@! TA.AperFunction,ComponentPad*
%ADD13C,1.270000*%
G04 #@! TD*
G04 #@! TA.AperFunction,Conductor*
%ADD14C,1.270000*%
G04 #@! TD*
G04 #@! TA.AperFunction,ComponentPad*
%ADD15O,1.270000X2.286000*%
G04 #@! TD*
G04 #@! TA.AperFunction,ComponentPad*
%ADD16O,2.641600X1.320800*%
G04 #@! TD*
G04 #@! TA.AperFunction,ComponentPad*
%ADD17R,1.600000X1.600000*%
G04 #@! TD*
G04 #@! TA.AperFunction,ComponentPad*
%ADD18C,1.600000*%
G04 #@! TD*
G04 #@! TA.AperFunction,ComponentPad*
%ADD19C,1.400000*%
G04 #@! TD*
G04 #@! TA.AperFunction,ComponentPad*
%ADD20O,1.400000X1.400000*%
G04 #@! TD*
G04 #@! TA.AperFunction,ComponentPad*
%ADD21O,2.540000X2.032000*%
G04 #@! TD*
G04 #@! TA.AperFunction,ComponentPad*
%ADD22R,1.700000X1.700000*%
G04 #@! TD*
G04 #@! TA.AperFunction,ComponentPad*
%ADD23O,1.700000X1.700000*%
G04 #@! TD*
G04 #@! TA.AperFunction,ComponentPad*
%ADD24C,1.620000*%
G04 #@! TD*
G04 #@! TA.AperFunction,ComponentPad*
%ADD25C,2.000000*%
G04 #@! TD*
G04 #@! TA.AperFunction,ComponentPad*
%ADD26R,1.800000X1.800000*%
G04 #@! TD*
G04 #@! TA.AperFunction,ComponentPad*
%ADD27O,1.800000X1.800000*%
G04 #@! TD*
G04 #@! TA.AperFunction,ComponentPad*
%ADD28C,1.762000*%
G04 #@! TD*
G04 #@! TA.AperFunction,ComponentPad*
%ADD29O,2.600000X2.600000*%
G04 #@! TD*
G04 #@! TA.AperFunction,ViaPad*
%ADD30C,0.600000*%
G04 #@! TD*
G04 #@! TA.AperFunction,Conductor*
%ADD31C,0.250000*%
G04 #@! TD*
G04 #@! TA.AperFunction,Conductor*
%ADD32C,0.400000*%
G04 #@! TD*
G04 #@! TA.AperFunction,Conductor*
%ADD33C,0.254000*%
G04 #@! TD*
G04 APERTURE END LIST*
D10*
G04 #@! TO.P,uP1,7*
G04 #@! TO.N,N/C*
X129286000Y-106172000D03*
G04 #@! TO.P,uP1,8*
X131826000Y-106172000D03*
G04 #@! TO.P,uP1,9*
X134366000Y-106172000D03*
G04 #@! TO.P,uP1,10*
G04 #@! TO.N,GND*
X136906000Y-106172000D03*
G04 #@! TO.P,uP1,11*
G04 #@! TO.N,Net-(RC1-Pad3)*
X139446000Y-106172000D03*
G04 #@! TO.P,uP1,12*
G04 #@! TO.N,Net-(RC1-Pad4)*
X141986000Y-106172000D03*
G04 #@! TO.P,uP1,13*
G04 #@! TO.N,Net-(IC1-Pad1)*
X144526000Y-106172000D03*
G04 #@! TO.P,uP1,14*
G04 #@! TO.N,Net-(IC1-Pad2)*
X147066000Y-106172000D03*
G04 #@! TO.P,uP1,15*
G04 #@! TO.N,Net-(IC1-Pad7)*
X149606000Y-106172000D03*
G04 #@! TO.P,uP1,16*
G04 #@! TO.N,Net-(J1-Pad5)*
X152146000Y-106172000D03*
G04 #@! TO.P,uP1,17*
G04 #@! TO.N,Net-(J1-Pad6)*
X154686000Y-106172000D03*
G04 #@! TO.P,uP1,18*
G04 #@! TO.N,Net-(IC1-Pad9)*
X157226000Y-106172000D03*
G04 #@! TO.P,uP1,19*
G04 #@! TO.N,Net-(C2-Pad1)*
X129286000Y-90932000D03*
G04 #@! TO.P,uP1,20*
G04 #@! TO.N,GND*
X131826000Y-90932000D03*
G04 #@! TO.P,uP1,21*
G04 #@! TO.N,N/C*
X134366000Y-90932000D03*
G04 #@! TO.P,uP1,22*
X136906000Y-90932000D03*
G04 #@! TO.P,uP1,23*
X139446000Y-90932000D03*
G04 #@! TO.P,uP1,24*
G04 #@! TO.N,Net-(SW1-Pad2)*
X141986000Y-90932000D03*
G04 #@! TO.P,uP1,25*
G04 #@! TO.N,Net-(R3-Pad2)*
X144526000Y-90932000D03*
G04 #@! TO.P,uP1,26*
G04 #@! TO.N,Net-(RV1-Pad2)*
X147066000Y-90932000D03*
G04 #@! TO.P,uP1,27*
G04 #@! TO.N,Net-(J2-Pad6)*
X149606000Y-90932000D03*
G04 #@! TO.P,uP1,28*
G04 #@! TO.N,Net-(J2-Pad5)*
X152146000Y-90932000D03*
G04 #@! TO.P,uP1,29*
G04 #@! TO.N,Net-(IC1-Pad15)*
X154686000Y-90932000D03*
G04 #@! TO.P,uP1,30*
G04 #@! TO.N,Net-(IC1-Pad10)*
X157226000Y-90932000D03*
D11*
G04 #@! TO.P,uP1,31*
G04 #@! TO.N,N/C*
X138049000Y-93853000D03*
G04 #@! TO.P,uP1,32*
X140589000Y-93853000D03*
G04 #@! TO.P,uP1,34*
X148463000Y-93853000D03*
G04 #@! TO.P,uP1,35*
X151003000Y-93853000D03*
G04 #@! TD*
D12*
G04 #@! TO.P,J1,*
G04 #@! TO.N,*
X157162300Y-118758100D03*
D13*
G04 #@! TO.P,J1,1*
G04 #@! TO.N,Net-(IC1-Pad3)*
X154201730Y-113555110D03*
D14*
G04 #@! TD*
G04 #@! TO.N,Net-(IC1-Pad3)*
G04 #@! TO.C,J1*
X154560940Y-113195900D02*
X153842520Y-113914320D01*
D13*
G04 #@! TO.P,J1,2*
G04 #@! TO.N,Net-(IC1-Pad6)*
X153084130Y-116739870D03*
D14*
G04 #@! TD*
G04 #@! TO.N,Net-(IC1-Pad6)*
G04 #@! TO.C,J1*
X152724920Y-116380660D02*
X153443340Y-117099080D01*
D15*
G04 #@! TO.P,J1,3*
G04 #@! TO.N,GND*
X151668280Y-113439340D03*
G04 #@! TO.P,J1,4*
G04 #@! TO.N,Net-(C2-Pad1)*
X150540520Y-116914060D03*
D13*
G04 #@! TO.P,J1,5*
G04 #@! TO.N,Net-(J1-Pad5)*
X149137370Y-113590670D03*
D14*
G04 #@! TD*
G04 #@! TO.N,Net-(J1-Pad5)*
G04 #@! TO.C,J1*
X148778160Y-113231460D02*
X149496580Y-113949880D01*
D13*
G04 #@! TO.P,J1,6*
G04 #@! TO.N,Net-(J1-Pad6)*
X148017230Y-116831310D03*
D14*
G04 #@! TD*
G04 #@! TO.N,Net-(J1-Pad6)*
G04 #@! TO.C,J1*
X148376440Y-116472100D02*
X147658020Y-117190520D01*
D12*
G04 #@! TO.P,J1,*
G04 #@! TO.N,*
X145097300Y-118758100D03*
G04 #@! TD*
D16*
G04 #@! TO.P,IC1,1*
G04 #@! TO.N,Net-(IC1-Pad1)*
X120650000Y-107315000D03*
G04 #@! TO.P,IC1,2*
G04 #@! TO.N,Net-(IC1-Pad2)*
X120650000Y-104775000D03*
G04 #@! TO.P,IC1,7*
G04 #@! TO.N,Net-(IC1-Pad7)*
X120650000Y-92075000D03*
G04 #@! TO.P,IC1,8*
G04 #@! TO.N,VCC*
X120650000Y-89535000D03*
G04 #@! TO.P,IC1,3*
G04 #@! TO.N,Net-(IC1-Pad3)*
X120650000Y-102235000D03*
G04 #@! TO.P,IC1,4*
G04 #@! TO.N,GND*
X120650000Y-99695000D03*
G04 #@! TO.P,IC1,6*
G04 #@! TO.N,Net-(IC1-Pad6)*
X120650000Y-94615000D03*
G04 #@! TO.P,IC1,5*
G04 #@! TO.N,GND*
X120650000Y-97155000D03*
G04 #@! TO.P,IC1,9*
G04 #@! TO.N,Net-(IC1-Pad9)*
X113030000Y-89535000D03*
G04 #@! TO.P,IC1,10*
G04 #@! TO.N,Net-(IC1-Pad10)*
X113030000Y-92075000D03*
G04 #@! TO.P,IC1,11*
G04 #@! TO.N,Net-(IC1-Pad11)*
X113030000Y-94615000D03*
G04 #@! TO.P,IC1,12*
G04 #@! TO.N,GND*
X113030000Y-97155000D03*
G04 #@! TO.P,IC1,13*
X113030000Y-99695000D03*
G04 #@! TO.P,IC1,14*
G04 #@! TO.N,Net-(IC1-Pad14)*
X113030000Y-102235000D03*
G04 #@! TO.P,IC1,15*
G04 #@! TO.N,Net-(IC1-Pad15)*
X113030000Y-104775000D03*
G04 #@! TO.P,IC1,16*
G04 #@! TO.N,Net-(C2-Pad1)*
X113030000Y-107315000D03*
G04 #@! TD*
D12*
G04 #@! TO.P,J2,*
G04 #@! TO.N,*
X124904300Y-118758100D03*
D13*
G04 #@! TO.P,J2,1*
G04 #@! TO.N,Net-(IC1-Pad11)*
X121943730Y-113555110D03*
D14*
G04 #@! TD*
G04 #@! TO.N,Net-(IC1-Pad11)*
G04 #@! TO.C,J2*
X122302940Y-113195900D02*
X121584520Y-113914320D01*
D13*
G04 #@! TO.P,J2,2*
G04 #@! TO.N,Net-(IC1-Pad14)*
X120826130Y-116739870D03*
D14*
G04 #@! TD*
G04 #@! TO.N,Net-(IC1-Pad14)*
G04 #@! TO.C,J2*
X120466920Y-116380660D02*
X121185340Y-117099080D01*
D15*
G04 #@! TO.P,J2,3*
G04 #@! TO.N,GND*
X119410280Y-113439340D03*
G04 #@! TO.P,J2,4*
G04 #@! TO.N,Net-(C2-Pad1)*
X118282520Y-116914060D03*
D13*
G04 #@! TO.P,J2,5*
G04 #@! TO.N,Net-(J2-Pad5)*
X116879370Y-113590670D03*
D14*
G04 #@! TD*
G04 #@! TO.N,Net-(J2-Pad5)*
G04 #@! TO.C,J2*
X116520160Y-113231460D02*
X117238580Y-113949880D01*
D13*
G04 #@! TO.P,J2,6*
G04 #@! TO.N,Net-(J2-Pad6)*
X115759230Y-116831310D03*
D14*
G04 #@! TD*
G04 #@! TO.N,Net-(J2-Pad6)*
G04 #@! TO.C,J2*
X116118440Y-116472100D02*
X115400020Y-117190520D01*
D12*
G04 #@! TO.P,J2,*
G04 #@! TO.N,*
X112839300Y-118758100D03*
G04 #@! TD*
D17*
G04 #@! TO.P,C1,1*
G04 #@! TO.N,VCC*
X129794000Y-86487000D03*
D18*
G04 #@! TO.P,C1,2*
G04 #@! TO.N,GND*
X132294000Y-86487000D03*
G04 #@! TD*
D19*
G04 #@! TO.P,R1,1*
G04 #@! TO.N,GND*
X145415000Y-108585000D03*
D20*
G04 #@! TO.P,R1,2*
G04 #@! TO.N,Net-(IC1-Pad1)*
X153035000Y-108585000D03*
G04 #@! TD*
D19*
G04 #@! TO.P,R2,1*
G04 #@! TO.N,Net-(IC1-Pad9)*
X143510000Y-108585000D03*
D20*
G04 #@! TO.P,R2,2*
G04 #@! TO.N,GND*
X135890000Y-108585000D03*
G04 #@! TD*
D21*
G04 #@! TO.P,U1,2*
G04 #@! TO.N,GND*
X139827000Y-83312000D03*
G04 #@! TO.P,U1,3*
G04 #@! TO.N,Net-(C2-Pad1)*
X139827000Y-85852000D03*
G04 #@! TO.P,U1,1*
G04 #@! TO.N,VCC*
X139827000Y-80772000D03*
G04 #@! TD*
D22*
G04 #@! TO.P,RC1,1*
G04 #@! TO.N,Net-(C2-Pad1)*
X147955000Y-80137000D03*
D23*
G04 #@! TO.P,RC1,2*
G04 #@! TO.N,GND*
X150495000Y-80137000D03*
G04 #@! TO.P,RC1,3*
G04 #@! TO.N,Net-(RC1-Pad3)*
X153035000Y-80137000D03*
G04 #@! TO.P,RC1,4*
G04 #@! TO.N,Net-(RC1-Pad4)*
X155575000Y-80137000D03*
G04 #@! TD*
D17*
G04 #@! TO.P,C2,1*
G04 #@! TO.N,Net-(C2-Pad1)*
X148590000Y-87630000D03*
D18*
G04 #@! TO.P,C2,2*
G04 #@! TO.N,GND*
X148590000Y-85130000D03*
G04 #@! TD*
G04 #@! TO.P,C3,1*
G04 #@! TO.N,Net-(C2-Pad1)*
X154940000Y-87630000D03*
G04 #@! TO.P,C3,2*
G04 #@! TO.N,GND*
X154940000Y-85130000D03*
G04 #@! TD*
D24*
G04 #@! TO.P,RV1,3*
G04 #@! TO.N,GND*
X137240000Y-116840000D03*
G04 #@! TO.P,RV1,2*
G04 #@! TO.N,Net-(RV1-Pad2)*
X139740000Y-111840000D03*
G04 #@! TO.P,RV1,1*
G04 #@! TO.N,Net-(C2-Pad1)*
X142240000Y-116840000D03*
G04 #@! TD*
D19*
G04 #@! TO.P,R3,1*
G04 #@! TO.N,GND*
X126365000Y-108585000D03*
D20*
G04 #@! TO.P,R3,2*
G04 #@! TO.N,Net-(R3-Pad2)*
X133985000Y-108585000D03*
G04 #@! TD*
D25*
G04 #@! TO.P,SW2,2*
G04 #@! TO.N,Net-(C2-Pad1)*
X127635000Y-116895000D03*
G04 #@! TO.P,SW2,1*
G04 #@! TO.N,Net-(R3-Pad2)*
X127635000Y-112395000D03*
G04 #@! TO.P,SW2,2*
G04 #@! TO.N,Net-(C2-Pad1)*
X134135000Y-116895000D03*
G04 #@! TO.P,SW2,1*
G04 #@! TO.N,Net-(R3-Pad2)*
X134135000Y-112395000D03*
G04 #@! TD*
D26*
G04 #@! TO.P,D1,1*
G04 #@! TO.N,VCC*
X123952000Y-97282000D03*
D27*
G04 #@! TO.P,D1,2*
G04 #@! TO.N,Net-(D1-Pad2)*
X123952000Y-87122000D03*
G04 #@! TD*
D28*
G04 #@! TO.P,Battery,2*
G04 #@! TO.N,GND*
X113883000Y-82194400D03*
G04 #@! TO.P,Battery,1*
G04 #@! TO.N,Net-(BT1-Pad1)*
X118883000Y-82194400D03*
G04 #@! TD*
G04 #@! TO.P,On/Off,2*
G04 #@! TO.N,Net-(BT1-Pad1)*
X129083000Y-80518000D03*
G04 #@! TO.P,On/Off,1*
G04 #@! TO.N,Net-(D1-Pad2)*
X126083000Y-80518000D03*
G04 #@! TO.P,On/Off,3*
G04 #@! TO.N,N/C*
X132083000Y-80518000D03*
D29*
G04 #@! TO.P,On/Off,*
G04 #@! TO.N,*
X134933000Y-80518000D03*
X123233000Y-80518000D03*
G04 #@! TD*
D28*
G04 #@! TO.P,SW1,2*
G04 #@! TO.N,Net-(SW1-Pad2)*
X134671000Y-122022000D03*
G04 #@! TO.P,SW1,1*
G04 #@! TO.N,Net-(C2-Pad1)*
X131671000Y-122022000D03*
G04 #@! TO.P,SW1,3*
G04 #@! TO.N,GND*
X137671000Y-122022000D03*
D29*
G04 #@! TO.P,SW1,*
G04 #@! TO.N,*
X140521000Y-122022000D03*
X128821000Y-122022000D03*
G04 #@! TD*
D30*
G04 #@! TO.N,Net-(IC1-Pad6)*
X130556000Y-106232700D03*
G04 #@! TD*
D31*
G04 #@! TO.N,Net-(IC1-Pad1)*
X146939000Y-108585000D02*
X144526000Y-106172000D01*
X153035000Y-108585000D02*
X146939000Y-108585000D01*
D32*
G04 #@! TO.N,VCC*
X123565500Y-92450500D02*
X120650000Y-89535000D01*
D31*
X123830500Y-92450500D02*
X123565500Y-92450500D01*
D32*
X128668700Y-87612300D02*
X123830500Y-92450500D01*
X128668700Y-86487000D02*
X128668700Y-87612300D01*
X123830500Y-95935200D02*
X123952000Y-96056700D01*
X123830500Y-92450500D02*
X123830500Y-95935200D01*
X129794000Y-86487000D02*
X128668700Y-86487000D01*
X123952000Y-97282000D02*
X123952000Y-96056700D01*
D31*
G04 #@! TO.N,Net-(IC1-Pad3)*
X153154100Y-114593300D02*
X153163500Y-114593300D01*
X151620000Y-116127400D02*
X153154100Y-114593300D01*
X151620000Y-117756600D02*
X151620000Y-116127400D01*
X145721500Y-123655100D02*
X151620000Y-117756600D01*
X134576700Y-123655100D02*
X145721500Y-123655100D01*
X133321000Y-122399400D02*
X134576700Y-123655100D01*
X133321000Y-119962300D02*
X133321000Y-122399400D01*
X125108700Y-111750000D02*
X133321000Y-119962300D01*
X125108700Y-105047600D02*
X125108700Y-111750000D01*
X122296100Y-102235000D02*
X125108700Y-105047600D01*
X120650000Y-102235000D02*
X122296100Y-102235000D01*
X153842500Y-113914300D02*
X153163500Y-114593300D01*
G04 #@! TO.N,GND*
X136906000Y-106543700D02*
X136906000Y-106172000D01*
X135890000Y-107559700D02*
X136906000Y-106543700D01*
X135890000Y-108585000D02*
X135890000Y-107559700D01*
X145489900Y-108585000D02*
X145415000Y-108585000D01*
X150852200Y-113947300D02*
X145489900Y-108585000D01*
X151668300Y-113947300D02*
X150852200Y-113947300D01*
X113030000Y-99695000D02*
X113030000Y-97155000D01*
X120650000Y-99695000D02*
X120650000Y-97155000D01*
X117676600Y-85988000D02*
X113883000Y-82194400D01*
X117676600Y-94181600D02*
X117676600Y-85988000D01*
X120650000Y-97155000D02*
X117676600Y-94181600D01*
X135469000Y-83312000D02*
X139827000Y-83312000D01*
X132294000Y-86487000D02*
X135469000Y-83312000D01*
X126365000Y-105410000D02*
X120650000Y-99695000D01*
X126365000Y-108585000D02*
X126365000Y-105410000D01*
X137671000Y-117271000D02*
X137240000Y-116840000D01*
X137671000Y-122022000D02*
X137671000Y-117271000D01*
X131826000Y-86955000D02*
X132294000Y-86487000D01*
X131826000Y-90932000D02*
X131826000Y-86955000D01*
G04 #@! TO.N,Net-(IC1-Pad6)*
X130556000Y-105834400D02*
X130556000Y-106232700D01*
X124877700Y-100156100D02*
X130556000Y-105834400D01*
X124528000Y-100156100D02*
X124877700Y-100156100D01*
X122624900Y-98253000D02*
X124528000Y-100156100D01*
X122624900Y-96589900D02*
X122624900Y-98253000D01*
X120650000Y-94615000D02*
X122624900Y-96589900D01*
G04 #@! TO.N,Net-(IC1-Pad11)*
X122312800Y-111847700D02*
X122982000Y-112516800D01*
X122312800Y-104371200D02*
X122312800Y-111847700D01*
X121446600Y-103505000D02*
X122312800Y-104371200D01*
X119830000Y-103505000D02*
X121446600Y-103505000D01*
X118688800Y-102363800D02*
X119830000Y-103505000D01*
X118688800Y-100273800D02*
X118688800Y-102363800D01*
X113030000Y-94615000D02*
X118688800Y-100273800D01*
X121584500Y-113914300D02*
X122982000Y-112516800D01*
G04 #@! TO.N,Net-(IC1-Pad14)*
X120382000Y-115107600D02*
X119787900Y-115701700D01*
X120382000Y-109587000D02*
X120382000Y-115107600D01*
X113030000Y-102235000D02*
X120382000Y-109587000D01*
X120466900Y-116380700D02*
X119787900Y-115701700D01*
G04 #@! TO.N,Net-(J1-Pad6)*
X154686000Y-109964500D02*
X154686000Y-106172000D01*
X152825200Y-111825300D02*
X154686000Y-109964500D01*
X152825200Y-114148600D02*
X152825200Y-111825300D01*
X151553500Y-115420300D02*
X152825200Y-114148600D01*
X149428200Y-115420300D02*
X151553500Y-115420300D01*
X148376400Y-116472100D02*
X149428200Y-115420300D01*
G04 #@! TO.N,Net-(RC1-Pad3)*
X153035000Y-80137000D02*
X153035000Y-81312300D01*
X139446000Y-99678400D02*
X139446000Y-106172000D01*
X145613300Y-93511100D02*
X139446000Y-99678400D01*
X145613300Y-90846900D02*
X145613300Y-93511100D01*
X147319500Y-89140700D02*
X145613300Y-90846900D01*
X149195600Y-89140700D02*
X147319500Y-89140700D01*
X153035000Y-85301300D02*
X149195600Y-89140700D01*
X153035000Y-81312300D02*
X153035000Y-85301300D01*
G04 #@! TO.N,Net-(RC1-Pad4)*
X147260600Y-100897400D02*
X141986000Y-106172000D01*
X147260600Y-93534600D02*
X147260600Y-100897400D01*
X148336000Y-92459200D02*
X147260600Y-93534600D01*
X148336000Y-90664100D02*
X148336000Y-92459200D01*
X153809300Y-85190800D02*
X148336000Y-90664100D01*
X153809300Y-83078000D02*
X153809300Y-85190800D01*
X155575000Y-81312300D02*
X153809300Y-83078000D01*
X155575000Y-80137000D02*
X155575000Y-81312300D01*
G04 #@! TO.N,Net-(SW1-Pad2)*
X141986000Y-94887000D02*
X141986000Y-90932000D01*
X138016700Y-98856300D02*
X141986000Y-94887000D01*
X138016700Y-109554900D02*
X138016700Y-98856300D01*
X135460400Y-112111200D02*
X138016700Y-109554900D01*
X135460400Y-121232600D02*
X135460400Y-112111200D01*
X134671000Y-122022000D02*
X135460400Y-121232600D01*
G04 #@! TO.N,Net-(C2-Pad1)*
X148590000Y-87630000D02*
X148590000Y-86504700D01*
X147955000Y-80137000D02*
X147955000Y-81312300D01*
X141630200Y-85644100D02*
X147448100Y-85644100D01*
X141422300Y-85852000D02*
X141630200Y-85644100D01*
X148308700Y-86504700D02*
X147448100Y-85644100D01*
X148590000Y-86504700D02*
X148308700Y-86504700D01*
X147448100Y-81819200D02*
X147955000Y-81312300D01*
X147448100Y-85644100D02*
X147448100Y-81819200D01*
X113030000Y-111153600D02*
X113030000Y-107315000D01*
X117322200Y-115445800D02*
X113030000Y-111153600D01*
X118282500Y-115445800D02*
X117322200Y-115445800D01*
X118282500Y-116406100D02*
X118282500Y-115445800D01*
X140180800Y-85852000D02*
X141422300Y-85852000D01*
X140180800Y-85852000D02*
X139827000Y-85852000D01*
X139827000Y-85852000D02*
X139827000Y-87193300D01*
X135636000Y-91208900D02*
X132599500Y-94245400D01*
X135636000Y-90629800D02*
X135636000Y-91208900D01*
X139072500Y-87193300D02*
X135636000Y-90629800D01*
X139827000Y-87193300D02*
X139072500Y-87193300D01*
X132948500Y-94594500D02*
X132599500Y-94245400D01*
X132948500Y-108171400D02*
X132948500Y-94594500D01*
X132801000Y-108318900D02*
X132948500Y-108171400D01*
X132801000Y-115561000D02*
X132801000Y-108318900D01*
X134135000Y-116895000D02*
X132801000Y-115561000D01*
X132599500Y-94245400D02*
X129286000Y-90932000D01*
G04 #@! TO.N,Net-(RV1-Pad2)*
X140716000Y-110864000D02*
X139740000Y-111840000D01*
X140716000Y-100079200D02*
X140716000Y-110864000D01*
X146615800Y-94179400D02*
X140716000Y-100079200D01*
X146615800Y-91382200D02*
X146615800Y-94179400D01*
X147066000Y-90932000D02*
X146615800Y-91382200D01*
G04 #@! TO.N,Net-(R3-Pad2)*
X134135000Y-109760300D02*
X133985000Y-109610300D01*
X134135000Y-112395000D02*
X134135000Y-109760300D01*
X133985000Y-108971700D02*
X133985000Y-108818800D01*
X133985000Y-108971700D02*
X133985000Y-109610300D01*
X133985000Y-108585000D02*
X133985000Y-108818800D01*
X143395400Y-89801400D02*
X144526000Y-90932000D01*
X141554100Y-89801400D02*
X143395400Y-89801400D01*
X140716000Y-90639500D02*
X141554100Y-89801400D01*
X140716000Y-92122400D02*
X140716000Y-90639500D01*
X139319000Y-93519400D02*
X140716000Y-92122400D01*
X139319000Y-95280600D02*
X139319000Y-93519400D01*
X135636000Y-98963600D02*
X139319000Y-95280600D01*
X135636000Y-107167800D02*
X135636000Y-98963600D01*
X133985000Y-108818800D02*
X135636000Y-107167800D01*
D32*
G04 #@! TO.N,Net-(D1-Pad2)*
X126083000Y-83765700D02*
X123952000Y-85896700D01*
X126083000Y-80518000D02*
X126083000Y-83765700D01*
X123952000Y-87122000D02*
X123952000Y-85896700D01*
G04 #@! TD*
D33*
G04 #@! TO.N,VCC*
G36*
X123419718Y-85248115D02*
X123350000Y-85294699D01*
X123303416Y-85364417D01*
X123165448Y-85570900D01*
X123112565Y-85836764D01*
X122845327Y-86015327D01*
X122506062Y-86523073D01*
X122386928Y-87122000D01*
X122506062Y-87720927D01*
X122845327Y-88228673D01*
X123353073Y-88567938D01*
X123800818Y-88657000D01*
X124103182Y-88657000D01*
X124550927Y-88567938D01*
X125058673Y-88228673D01*
X125397938Y-87720927D01*
X125517072Y-87122000D01*
X125447602Y-86772750D01*
X128359000Y-86772750D01*
X128359000Y-87413310D01*
X128455673Y-87646699D01*
X128634302Y-87825327D01*
X128867691Y-87922000D01*
X129508250Y-87922000D01*
X129667000Y-87763250D01*
X129667000Y-86614000D01*
X128517750Y-86614000D01*
X128359000Y-86772750D01*
X125447602Y-86772750D01*
X125397938Y-86523073D01*
X125058673Y-86015327D01*
X125032038Y-85997530D01*
X125812568Y-85217000D01*
X128565975Y-85217000D01*
X128455673Y-85327301D01*
X128359000Y-85560690D01*
X128359000Y-86201250D01*
X128517750Y-86360000D01*
X129667000Y-86360000D01*
X129667000Y-86340000D01*
X129921000Y-86340000D01*
X129921000Y-86360000D01*
X129941000Y-86360000D01*
X129941000Y-86614000D01*
X129921000Y-86614000D01*
X129921000Y-87763250D01*
X130079750Y-87922000D01*
X130720309Y-87922000D01*
X130937000Y-87832244D01*
X130937000Y-89845343D01*
X130641680Y-90140663D01*
X130556000Y-90347513D01*
X130470320Y-90140663D01*
X130077337Y-89747680D01*
X129563881Y-89535000D01*
X129008119Y-89535000D01*
X128494663Y-89747680D01*
X128101680Y-90140663D01*
X127889000Y-90654119D01*
X127889000Y-91209881D01*
X128101680Y-91723337D01*
X128494663Y-92116320D01*
X129008119Y-92329000D01*
X129563881Y-92329000D01*
X129595236Y-92316012D01*
X130937000Y-93657736D01*
X130937000Y-98425000D01*
X125438665Y-98425000D01*
X125487000Y-98308309D01*
X125487000Y-97567750D01*
X125328250Y-97409000D01*
X124079000Y-97409000D01*
X124079000Y-97429000D01*
X123825000Y-97429000D01*
X123825000Y-97409000D01*
X123805000Y-97409000D01*
X123805000Y-97155000D01*
X123825000Y-97155000D01*
X123825000Y-95905750D01*
X124079000Y-95905750D01*
X124079000Y-97155000D01*
X125328250Y-97155000D01*
X125487000Y-96996250D01*
X125487000Y-96255691D01*
X125390327Y-96022302D01*
X125211699Y-95843673D01*
X124978310Y-95747000D01*
X124237750Y-95747000D01*
X124079000Y-95905750D01*
X123825000Y-95905750D01*
X123666250Y-95747000D01*
X122925690Y-95747000D01*
X122876979Y-95767177D01*
X122410317Y-95300515D01*
X122530640Y-95120440D01*
X122631178Y-94615000D01*
X122530640Y-94109560D01*
X122244331Y-93681069D01*
X121815840Y-93394760D01*
X121565679Y-93345000D01*
X121815840Y-93295240D01*
X122244331Y-93008931D01*
X122530640Y-92580440D01*
X122631178Y-92075000D01*
X122530640Y-91569560D01*
X122244331Y-91141069D01*
X121815840Y-90854760D01*
X121538873Y-90799668D01*
X121923461Y-90683193D01*
X122316189Y-90361184D01*
X122555795Y-89913396D01*
X122563820Y-89862105D01*
X122439933Y-89662000D01*
X120777000Y-89662000D01*
X120777000Y-89682000D01*
X120523000Y-89682000D01*
X120523000Y-89662000D01*
X120503000Y-89662000D01*
X120503000Y-89408000D01*
X120523000Y-89408000D01*
X120523000Y-88239600D01*
X120777000Y-88239600D01*
X120777000Y-89408000D01*
X122439933Y-89408000D01*
X122563820Y-89207895D01*
X122555795Y-89156604D01*
X122316189Y-88708816D01*
X121923461Y-88386807D01*
X121437400Y-88239600D01*
X120777000Y-88239600D01*
X120523000Y-88239600D01*
X119862600Y-88239600D01*
X119376539Y-88386807D01*
X118999000Y-88696362D01*
X118999000Y-85217000D01*
X123450833Y-85217000D01*
X123419718Y-85248115D01*
X123419718Y-85248115D01*
G37*
X123419718Y-85248115D02*
X123350000Y-85294699D01*
X123303416Y-85364417D01*
X123165448Y-85570900D01*
X123112565Y-85836764D01*
X122845327Y-86015327D01*
X122506062Y-86523073D01*
X122386928Y-87122000D01*
X122506062Y-87720927D01*
X122845327Y-88228673D01*
X123353073Y-88567938D01*
X123800818Y-88657000D01*
X124103182Y-88657000D01*
X124550927Y-88567938D01*
X125058673Y-88228673D01*
X125397938Y-87720927D01*
X125517072Y-87122000D01*
X125447602Y-86772750D01*
X128359000Y-86772750D01*
X128359000Y-87413310D01*
X128455673Y-87646699D01*
X128634302Y-87825327D01*
X128867691Y-87922000D01*
X129508250Y-87922000D01*
X129667000Y-87763250D01*
X129667000Y-86614000D01*
X128517750Y-86614000D01*
X128359000Y-86772750D01*
X125447602Y-86772750D01*
X125397938Y-86523073D01*
X125058673Y-86015327D01*
X125032038Y-85997530D01*
X125812568Y-85217000D01*
X128565975Y-85217000D01*
X128455673Y-85327301D01*
X128359000Y-85560690D01*
X128359000Y-86201250D01*
X128517750Y-86360000D01*
X129667000Y-86360000D01*
X129667000Y-86340000D01*
X129921000Y-86340000D01*
X129921000Y-86360000D01*
X129941000Y-86360000D01*
X129941000Y-86614000D01*
X129921000Y-86614000D01*
X129921000Y-87763250D01*
X130079750Y-87922000D01*
X130720309Y-87922000D01*
X130937000Y-87832244D01*
X130937000Y-89845343D01*
X130641680Y-90140663D01*
X130556000Y-90347513D01*
X130470320Y-90140663D01*
X130077337Y-89747680D01*
X129563881Y-89535000D01*
X129008119Y-89535000D01*
X128494663Y-89747680D01*
X128101680Y-90140663D01*
X127889000Y-90654119D01*
X127889000Y-91209881D01*
X128101680Y-91723337D01*
X128494663Y-92116320D01*
X129008119Y-92329000D01*
X129563881Y-92329000D01*
X129595236Y-92316012D01*
X130937000Y-93657736D01*
X130937000Y-98425000D01*
X125438665Y-98425000D01*
X125487000Y-98308309D01*
X125487000Y-97567750D01*
X125328250Y-97409000D01*
X124079000Y-97409000D01*
X124079000Y-97429000D01*
X123825000Y-97429000D01*
X123825000Y-97409000D01*
X123805000Y-97409000D01*
X123805000Y-97155000D01*
X123825000Y-97155000D01*
X123825000Y-95905750D01*
X124079000Y-95905750D01*
X124079000Y-97155000D01*
X125328250Y-97155000D01*
X125487000Y-96996250D01*
X125487000Y-96255691D01*
X125390327Y-96022302D01*
X125211699Y-95843673D01*
X124978310Y-95747000D01*
X124237750Y-95747000D01*
X124079000Y-95905750D01*
X123825000Y-95905750D01*
X123666250Y-95747000D01*
X122925690Y-95747000D01*
X122876979Y-95767177D01*
X122410317Y-95300515D01*
X122530640Y-95120440D01*
X122631178Y-94615000D01*
X122530640Y-94109560D01*
X122244331Y-93681069D01*
X121815840Y-93394760D01*
X121565679Y-93345000D01*
X121815840Y-93295240D01*
X122244331Y-93008931D01*
X122530640Y-92580440D01*
X122631178Y-92075000D01*
X122530640Y-91569560D01*
X122244331Y-91141069D01*
X121815840Y-90854760D01*
X121538873Y-90799668D01*
X121923461Y-90683193D01*
X122316189Y-90361184D01*
X122555795Y-89913396D01*
X122563820Y-89862105D01*
X122439933Y-89662000D01*
X120777000Y-89662000D01*
X120777000Y-89682000D01*
X120523000Y-89682000D01*
X120523000Y-89662000D01*
X120503000Y-89662000D01*
X120503000Y-89408000D01*
X120523000Y-89408000D01*
X120523000Y-88239600D01*
X120777000Y-88239600D01*
X120777000Y-89408000D01*
X122439933Y-89408000D01*
X122563820Y-89207895D01*
X122555795Y-89156604D01*
X122316189Y-88708816D01*
X121923461Y-88386807D01*
X121437400Y-88239600D01*
X120777000Y-88239600D01*
X120523000Y-88239600D01*
X119862600Y-88239600D01*
X119376539Y-88386807D01*
X118999000Y-88696362D01*
X118999000Y-85217000D01*
X123450833Y-85217000D01*
X123419718Y-85248115D01*
G04 #@! TO.N,Net-(BT1-Pad1)*
G36*
X130429000Y-79775829D02*
X130403919Y-79715278D01*
X130149404Y-79631201D01*
X129262605Y-80518000D01*
X130149404Y-81404799D01*
X130403919Y-81320722D01*
X130429000Y-81251951D01*
X130429000Y-84201000D01*
X126796387Y-84201000D01*
X126869552Y-84091501D01*
X126918000Y-83847937D01*
X126918000Y-83847934D01*
X126934357Y-83765701D01*
X126918000Y-83683468D01*
X126918000Y-81813038D01*
X126941745Y-81803203D01*
X127160544Y-81584404D01*
X128196201Y-81584404D01*
X128280278Y-81838919D01*
X128846874Y-82045559D01*
X129449420Y-82019642D01*
X129885722Y-81838919D01*
X129969799Y-81584404D01*
X129083000Y-80697605D01*
X128196201Y-81584404D01*
X127160544Y-81584404D01*
X127368203Y-81376745D01*
X127580490Y-80864238D01*
X127581358Y-80884420D01*
X127762081Y-81320722D01*
X128016596Y-81404799D01*
X128903395Y-80518000D01*
X128016596Y-79631201D01*
X127762081Y-79715278D01*
X127588525Y-80191160D01*
X127368203Y-79659255D01*
X127160544Y-79451596D01*
X128196201Y-79451596D01*
X129083000Y-80338395D01*
X129969799Y-79451596D01*
X129885722Y-79197081D01*
X129319126Y-78990441D01*
X128716580Y-79016358D01*
X128280278Y-79197081D01*
X128196201Y-79451596D01*
X127160544Y-79451596D01*
X126941745Y-79232797D01*
X126384551Y-79002000D01*
X125781449Y-79002000D01*
X125224255Y-79232797D01*
X124910861Y-79546191D01*
X124628057Y-79122943D01*
X123987999Y-78695271D01*
X123423576Y-78583000D01*
X123042424Y-78583000D01*
X122478001Y-78695271D01*
X121837943Y-79122943D01*
X121410271Y-79763001D01*
X121260092Y-80518000D01*
X121410271Y-81272999D01*
X121837943Y-81913057D01*
X122478001Y-82340729D01*
X123042424Y-82453000D01*
X123423576Y-82453000D01*
X123987999Y-82340729D01*
X124628057Y-81913057D01*
X124910861Y-81489809D01*
X125224255Y-81803203D01*
X125248000Y-81813039D01*
X125248001Y-83419831D01*
X124466832Y-84201000D01*
X116964402Y-84201000D01*
X116713000Y-83949598D01*
X116713000Y-83260804D01*
X117996201Y-83260804D01*
X118080278Y-83515319D01*
X118646874Y-83721959D01*
X119249420Y-83696042D01*
X119685722Y-83515319D01*
X119769799Y-83260804D01*
X118883000Y-82374005D01*
X117996201Y-83260804D01*
X116713000Y-83260804D01*
X116713000Y-81958274D01*
X117355441Y-81958274D01*
X117381358Y-82560820D01*
X117562081Y-82997122D01*
X117816596Y-83081199D01*
X118703395Y-82194400D01*
X119062605Y-82194400D01*
X119949404Y-83081199D01*
X120203919Y-82997122D01*
X120410559Y-82430526D01*
X120384642Y-81827980D01*
X120203919Y-81391678D01*
X119949404Y-81307601D01*
X119062605Y-82194400D01*
X118703395Y-82194400D01*
X117816596Y-81307601D01*
X117562081Y-81391678D01*
X117355441Y-81958274D01*
X116713000Y-81958274D01*
X116713000Y-81127996D01*
X117996201Y-81127996D01*
X118883000Y-82014795D01*
X119769799Y-81127996D01*
X119685722Y-80873481D01*
X119119126Y-80666841D01*
X118516580Y-80692758D01*
X118080278Y-80873481D01*
X117996201Y-81127996D01*
X116713000Y-81127996D01*
X116713000Y-78180000D01*
X130429000Y-78180000D01*
X130429000Y-79775829D01*
X130429000Y-79775829D01*
G37*
X130429000Y-79775829D02*
X130403919Y-79715278D01*
X130149404Y-79631201D01*
X129262605Y-80518000D01*
X130149404Y-81404799D01*
X130403919Y-81320722D01*
X130429000Y-81251951D01*
X130429000Y-84201000D01*
X126796387Y-84201000D01*
X126869552Y-84091501D01*
X126918000Y-83847937D01*
X126918000Y-83847934D01*
X126934357Y-83765701D01*
X126918000Y-83683468D01*
X126918000Y-81813038D01*
X126941745Y-81803203D01*
X127160544Y-81584404D01*
X128196201Y-81584404D01*
X128280278Y-81838919D01*
X128846874Y-82045559D01*
X129449420Y-82019642D01*
X129885722Y-81838919D01*
X129969799Y-81584404D01*
X129083000Y-80697605D01*
X128196201Y-81584404D01*
X127160544Y-81584404D01*
X127368203Y-81376745D01*
X127580490Y-80864238D01*
X127581358Y-80884420D01*
X127762081Y-81320722D01*
X128016596Y-81404799D01*
X128903395Y-80518000D01*
X128016596Y-79631201D01*
X127762081Y-79715278D01*
X127588525Y-80191160D01*
X127368203Y-79659255D01*
X127160544Y-79451596D01*
X128196201Y-79451596D01*
X129083000Y-80338395D01*
X129969799Y-79451596D01*
X129885722Y-79197081D01*
X129319126Y-78990441D01*
X128716580Y-79016358D01*
X128280278Y-79197081D01*
X128196201Y-79451596D01*
X127160544Y-79451596D01*
X126941745Y-79232797D01*
X126384551Y-79002000D01*
X125781449Y-79002000D01*
X125224255Y-79232797D01*
X124910861Y-79546191D01*
X124628057Y-79122943D01*
X123987999Y-78695271D01*
X123423576Y-78583000D01*
X123042424Y-78583000D01*
X122478001Y-78695271D01*
X121837943Y-79122943D01*
X121410271Y-79763001D01*
X121260092Y-80518000D01*
X121410271Y-81272999D01*
X121837943Y-81913057D01*
X122478001Y-82340729D01*
X123042424Y-82453000D01*
X123423576Y-82453000D01*
X123987999Y-82340729D01*
X124628057Y-81913057D01*
X124910861Y-81489809D01*
X125224255Y-81803203D01*
X125248000Y-81813039D01*
X125248001Y-83419831D01*
X124466832Y-84201000D01*
X116964402Y-84201000D01*
X116713000Y-83949598D01*
X116713000Y-83260804D01*
X117996201Y-83260804D01*
X118080278Y-83515319D01*
X118646874Y-83721959D01*
X119249420Y-83696042D01*
X119685722Y-83515319D01*
X119769799Y-83260804D01*
X118883000Y-82374005D01*
X117996201Y-83260804D01*
X116713000Y-83260804D01*
X116713000Y-81958274D01*
X117355441Y-81958274D01*
X117381358Y-82560820D01*
X117562081Y-82997122D01*
X117816596Y-83081199D01*
X118703395Y-82194400D01*
X119062605Y-82194400D01*
X119949404Y-83081199D01*
X120203919Y-82997122D01*
X120410559Y-82430526D01*
X120384642Y-81827980D01*
X120203919Y-81391678D01*
X119949404Y-81307601D01*
X119062605Y-82194400D01*
X118703395Y-82194400D01*
X117816596Y-81307601D01*
X117562081Y-81391678D01*
X117355441Y-81958274D01*
X116713000Y-81958274D01*
X116713000Y-81127996D01*
X117996201Y-81127996D01*
X118883000Y-82014795D01*
X119769799Y-81127996D01*
X119685722Y-80873481D01*
X119119126Y-80666841D01*
X118516580Y-80692758D01*
X118080278Y-80873481D01*
X117996201Y-81127996D01*
X116713000Y-81127996D01*
X116713000Y-78180000D01*
X130429000Y-78180000D01*
X130429000Y-79775829D01*
G04 #@! TD*
M02*
