M48
;DRILL file {KiCad 5.0.0-fee4fd1~66~ubuntu16.04.1} date Thu Sep 27 17:05:47 2018
;FORMAT={-:-/ absolute / inch / decimal}
FMAT,2
INCH,TZ
T1C0.0157
T2C0.0236
T3C0.0276
T4C0.0280
T5C0.0300
T6C0.0315
T7C0.0320
T8C0.0354
T9C0.0394
T10C0.0433
T11C0.0450
T12C0.0950
T13C0.1024
%
G90
G05
M72
T1
X5.14Y-4.1824
T2
X5.435Y-3.695
X5.535Y-3.695
X5.845Y-3.695
X5.945Y-3.695
T3
X4.975Y-4.275
X5.275Y-4.275
X5.725Y-4.275
X6.025Y-4.275
X5.35Y-4.275
X5.65Y-4.275
T4
X5.8416Y-4.5855
X5.8857Y-4.4862
X5.9268Y-4.5829
X5.9712Y-4.4861
X6.0128Y-4.5819
X6.0568Y-4.4848
X4.5716Y-4.5855
X4.6157Y-4.4862
X4.6568Y-4.5829
X4.7012Y-4.4861
X4.7428Y-4.5819
X4.7868Y-4.4848
T5
X5.09Y-3.58
X5.09Y-4.18
X5.19Y-3.58
X5.19Y-4.18
X5.29Y-3.58
X5.29Y-4.18
X5.39Y-3.58
X5.39Y-4.18
X5.49Y-3.58
X5.49Y-4.18
X5.59Y-3.58
X5.59Y-4.18
X5.69Y-3.58
X5.69Y-4.18
X5.79Y-3.58
X5.79Y-4.18
X5.89Y-3.58
X5.89Y-4.18
X5.99Y-3.58
X5.99Y-4.18
X6.09Y-3.58
X6.09Y-4.18
X6.19Y-3.58
X6.19Y-4.18
T6
X6.1Y-3.3516
X6.1Y-3.45
X5.11Y-3.405
X5.2084Y-3.405
X5.85Y-3.3516
X5.85Y-3.45
T7
X4.45Y-3.525
X4.45Y-3.625
X4.45Y-3.725
X4.45Y-3.825
X4.45Y-3.925
X4.45Y-4.025
X4.45Y-4.125
X4.45Y-4.225
X4.75Y-3.525
X4.75Y-3.625
X4.75Y-3.725
X4.75Y-3.825
X4.75Y-3.925
X4.75Y-4.025
X4.75Y-4.125
X4.75Y-4.225
T8
X4.88Y-3.43
X4.88Y-3.83
X5.4031Y-4.6
X5.5016Y-4.4031
X5.6Y-4.6
T9
X5.825Y-3.155
X5.925Y-3.155
X6.025Y-3.155
X6.125Y-3.155
X4.9639Y-3.17
X5.082Y-3.17
X5.2001Y-3.17
X5.1839Y-4.804
X5.302Y-4.804
X5.4201Y-4.804
X4.4836Y-3.236
X4.6804Y-3.236
T10
X5.025Y-4.425
X5.025Y-4.6022
X5.2809Y-4.425
X5.2809Y-4.6022
T11
X5.505Y-3.18
X5.505Y-3.28
X5.505Y-3.38
T12
X5.7125Y-4.6755
X6.1875Y-4.6755
X4.4425Y-4.6755
X4.9175Y-4.6755
T13
X4.8517Y-3.17G85X4.8517Y-3.17
G05
X5.3123Y-3.17G85X5.3123Y-3.17
G05
X5.0717Y-4.804G85X5.0717Y-4.804
G05
X5.5323Y-4.804G85X5.5323Y-4.804
G05
T0
M30
