G04 #@! TF.FileFunction,Copper,L1,Top,Signal*
%FSLAX46Y46*%
G04 Gerber Fmt 4.6, Leading zero omitted, Abs format (unit mm)*
G04 Created by KiCad (PCBNEW 4.0.2-stable) date 1/10/2018 5:31:38 PM*
%MOMM*%
G01*
G04 APERTURE LIST*
%ADD10C,0.100000*%
%ADD11C,1.524000*%
%ADD12C,1.500000*%
%ADD13C,2.413000*%
%ADD14C,1.270000*%
%ADD15O,1.270000X2.286000*%
%ADD16R,2.500000X1.500000*%
%ADD17O,2.500000X1.500000*%
%ADD18O,3.500000X2.200000*%
%ADD19O,2.641600X1.320800*%
%ADD20C,1.600000*%
%ADD21R,1.600000X1.600000*%
%ADD22C,1.400000*%
%ADD23O,1.400000X1.400000*%
%ADD24O,2.032000X2.540000*%
%ADD25R,3.000000X3.000000*%
%ADD26C,3.000000*%
%ADD27C,1.620000*%
%ADD28R,1.700000X1.700000*%
%ADD29O,1.700000X1.700000*%
%ADD30C,0.600000*%
%ADD31C,0.250000*%
G04 APERTURE END LIST*
D10*
D11*
X154305000Y-63500000D03*
X154305000Y-66040000D03*
X154305000Y-68580000D03*
X154305000Y-71120000D03*
X154305000Y-73660000D03*
X154305000Y-76200000D03*
X154305000Y-78740000D03*
X154305000Y-81280000D03*
X154305000Y-83820000D03*
X154305000Y-86360000D03*
X154305000Y-88900000D03*
X154305000Y-91440000D03*
X169545000Y-63500000D03*
X169545000Y-66040000D03*
X169545000Y-68580000D03*
X169545000Y-71120000D03*
X169545000Y-73660000D03*
X169545000Y-76200000D03*
X169545000Y-78740000D03*
X169545000Y-81280000D03*
X169545000Y-83820000D03*
X169545000Y-86360000D03*
X169545000Y-88900000D03*
X169545000Y-91440000D03*
D12*
X166624000Y-72263000D03*
X166624000Y-74803000D03*
X166624000Y-82677000D03*
X166624000Y-85217000D03*
D13*
X165366700Y-99783900D03*
D14*
X167968060Y-105346100D02*
X168686480Y-104627680D01*
X169804080Y-102161340D02*
X169085660Y-101442920D01*
D15*
X170860720Y-105102660D03*
X171988480Y-101627940D03*
D14*
X173750840Y-105310540D02*
X173032420Y-104592120D01*
X174152560Y-102069900D02*
X174870980Y-101351480D01*
D13*
X177431700Y-99783900D03*
D16*
X176530000Y-69215000D03*
D17*
X176530000Y-67215000D03*
X176530000Y-65215000D03*
D18*
X176530000Y-71315000D03*
X176530000Y-63115000D03*
D19*
X144145000Y-90170000D03*
X144145000Y-87630000D03*
X144145000Y-74930000D03*
X144145000Y-72390000D03*
X144145000Y-85090000D03*
X144145000Y-82550000D03*
X144145000Y-77470000D03*
X144145000Y-80010000D03*
X136525000Y-72390000D03*
X136525000Y-74930000D03*
X136525000Y-77470000D03*
X136525000Y-80010000D03*
X136525000Y-82550000D03*
X136525000Y-85090000D03*
X136525000Y-87630000D03*
X136525000Y-90170000D03*
D13*
X135521700Y-99783900D03*
D14*
X138123060Y-105346100D02*
X138841480Y-104627680D01*
X139959080Y-102161340D02*
X139240660Y-101442920D01*
D15*
X141015720Y-105102660D03*
X142143480Y-101627940D03*
D14*
X143905840Y-105310540D02*
X143187420Y-104592120D01*
X144307560Y-102069900D02*
X145025980Y-101351480D01*
D13*
X147586700Y-99783900D03*
D20*
X147320000Y-82550000D03*
X149820000Y-82550000D03*
D21*
X149225000Y-64770000D03*
D20*
X149225000Y-67270000D03*
D21*
X149987000Y-88265000D03*
D20*
X147487000Y-88265000D03*
D22*
X151130000Y-71755000D03*
D23*
X151130000Y-79375000D03*
D22*
X147320000Y-71755000D03*
D23*
X147320000Y-79375000D03*
D24*
X140335000Y-65405000D03*
X137795000Y-65405000D03*
X142875000Y-65405000D03*
D25*
X144780000Y-58420000D03*
D26*
X139700000Y-58420000D03*
D27*
X177800000Y-79930000D03*
X172800000Y-77430000D03*
X177800000Y-74930000D03*
X177800000Y-89455000D03*
X172800000Y-86955000D03*
X177800000Y-84455000D03*
D28*
X171450000Y-57785000D03*
D29*
X168910000Y-57785000D03*
X166370000Y-57785000D03*
X163830000Y-57785000D03*
D21*
X154305000Y-55880000D03*
D20*
X154305000Y-58380000D03*
X158750000Y-59055000D03*
X158750000Y-56555000D03*
D21*
X153035000Y-99060000D03*
D20*
X153035000Y-96560000D03*
D21*
X160655000Y-99060000D03*
D20*
X160655000Y-96560000D03*
X159385000Y-106045000D03*
X159385000Y-103545000D03*
X153670000Y-106045000D03*
X153670000Y-103545000D03*
D30*
X148746800Y-85012000D03*
D31*
X142442600Y-88467600D02*
X144145000Y-90170000D01*
X142442600Y-74500500D02*
X142442600Y-88467600D01*
X143007500Y-73935600D02*
X142442600Y-74500500D01*
X145690600Y-73935600D02*
X143007500Y-73935600D01*
X151130000Y-79375000D02*
X145690600Y-73935600D01*
X154108900Y-83820000D02*
X154305000Y-83820000D01*
X145791100Y-75502200D02*
X154108900Y-83820000D01*
X145791100Y-74930000D02*
X145791100Y-75502200D01*
X144145000Y-74930000D02*
X145791100Y-74930000D01*
X144780000Y-58420000D02*
X144780000Y-60245300D01*
X149225000Y-64770000D02*
X148099700Y-64770000D01*
X142875000Y-65405000D02*
X144216300Y-65405000D01*
X144780000Y-61450300D02*
X146475500Y-63145800D01*
X144780000Y-60245300D02*
X144780000Y-61450300D01*
X146475500Y-63145800D02*
X148099700Y-64770000D01*
X146475500Y-63145800D02*
X144216300Y-65405000D01*
X144216300Y-72318700D02*
X144145000Y-72390000D01*
X144216300Y-65405000D02*
X144216300Y-72318700D01*
X168910000Y-57785000D02*
X168910000Y-58960300D01*
X136525000Y-82550000D02*
X136525000Y-80010000D01*
X144145000Y-82550000D02*
X144145000Y-80010000D01*
X176530000Y-65215000D02*
X174954700Y-65215000D01*
X174655000Y-64915300D02*
X174954700Y-65215000D01*
X170669700Y-64915300D02*
X174655000Y-64915300D01*
X170669700Y-60720000D02*
X170669700Y-64915300D01*
X168910000Y-58960300D02*
X170669700Y-60720000D01*
X170669700Y-64915300D02*
X169545000Y-66040000D01*
X140335000Y-59055000D02*
X140335000Y-65405000D01*
X139700000Y-58420000D02*
X140335000Y-59055000D01*
X150599600Y-65895400D02*
X149225000Y-67270000D01*
X150599600Y-62085400D02*
X150599600Y-65895400D01*
X154305000Y-58380000D02*
X150599600Y-62085400D01*
X151130000Y-71120000D02*
X154305000Y-71120000D01*
X151130000Y-69175000D02*
X151130000Y-71120000D01*
X149225000Y-67270000D02*
X151130000Y-69175000D01*
X151130000Y-71120000D02*
X151130000Y-71755000D01*
X141015700Y-104594700D02*
X141015700Y-104187700D01*
X147487000Y-88265000D02*
X147485800Y-88265000D01*
X147485800Y-82715800D02*
X147485800Y-88265000D01*
X147320000Y-82550000D02*
X147485800Y-82715800D01*
X141520800Y-104187700D02*
X141015700Y-104187700D01*
X143258500Y-102450000D02*
X141520800Y-104187700D01*
X143258500Y-99551900D02*
X143258500Y-102450000D01*
X147485800Y-95324600D02*
X143258500Y-99551900D01*
X147485800Y-88265000D02*
X147485800Y-95324600D01*
X168251000Y-107204400D02*
X170860700Y-104594700D01*
X144399100Y-107204400D02*
X168251000Y-107204400D01*
X141520800Y-104326100D02*
X144399100Y-107204400D01*
X141520800Y-104187700D02*
X141520800Y-104326100D01*
X148445400Y-84710600D02*
X148746800Y-85012000D01*
X148445400Y-82005400D02*
X148445400Y-84710600D01*
X144145000Y-77705000D02*
X148445400Y-82005400D01*
X144145000Y-77470000D02*
X144145000Y-77705000D01*
X147320000Y-71755000D02*
X147320000Y-73427500D01*
X152422800Y-78530300D02*
X147320000Y-73427500D01*
X152422800Y-80970900D02*
X152422800Y-78530300D01*
X154001900Y-82550000D02*
X152422800Y-80970900D01*
X154574100Y-82550000D02*
X154001900Y-82550000D01*
X155401500Y-83377400D02*
X154574100Y-82550000D01*
X155401500Y-90343500D02*
X155401500Y-83377400D01*
X154305000Y-91440000D02*
X155401500Y-90343500D01*
X137562500Y-73427500D02*
X136525000Y-72390000D01*
X147320000Y-73427500D02*
X137562500Y-73427500D01*
X138841500Y-104627700D02*
X139520500Y-103948700D01*
X139609100Y-103948700D02*
X139520500Y-103948700D01*
X140955900Y-102601900D02*
X139609100Y-103948700D01*
X140955900Y-81900900D02*
X140955900Y-102601900D01*
X136525000Y-77470000D02*
X140955900Y-81900900D01*
X138561700Y-87126700D02*
X138561700Y-100763800D01*
X136525000Y-85090000D02*
X138561700Y-87126700D01*
X139959100Y-102161300D02*
X138561700Y-100763800D01*
X160936800Y-94968200D02*
X169545000Y-86360000D01*
X153034900Y-94968200D02*
X160936800Y-94968200D01*
X150995100Y-97008000D02*
X153034900Y-94968200D01*
X150995100Y-98600200D02*
X150995100Y-97008000D01*
X144866000Y-104729300D02*
X150995100Y-98600200D01*
X144866000Y-105708400D02*
X144866000Y-104729300D01*
X144584900Y-105989500D02*
X144866000Y-105708400D01*
X143187400Y-104592100D02*
X144584900Y-105989500D01*
X144307600Y-102069900D02*
X145705100Y-100672400D01*
X145705000Y-100672400D02*
X145705100Y-100672400D01*
X145705000Y-99491900D02*
X145705000Y-100672400D01*
X150826800Y-94370100D02*
X145705000Y-99491900D01*
X154467200Y-94370100D02*
X150826800Y-94370100D01*
X154917500Y-93919800D02*
X154467200Y-94370100D01*
X156790500Y-93919800D02*
X154917500Y-93919800D01*
X157240800Y-93469500D02*
X156790500Y-93919800D01*
X159895500Y-93469500D02*
X157240800Y-93469500D01*
X169545000Y-83820000D02*
X159895500Y-93469500D01*
X163830000Y-66675000D02*
X154305000Y-76200000D01*
X163830000Y-57785000D02*
X163830000Y-66675000D01*
X149820000Y-86972700D02*
X149820000Y-82550000D01*
X149987000Y-87139700D02*
X149820000Y-86972700D01*
X149987000Y-88265000D02*
X149987000Y-87139700D01*
X178611200Y-74118800D02*
X177800000Y-74930000D01*
X178611200Y-69720900D02*
X178611200Y-74118800D01*
X178105300Y-69215000D02*
X178611200Y-69720900D01*
X176530000Y-69215000D02*
X178105300Y-69215000D01*
X169412000Y-56555000D02*
X158750000Y-56555000D01*
X170274700Y-57417700D02*
X169412000Y-56555000D01*
X170274700Y-57785000D02*
X170274700Y-57417700D01*
X171450000Y-57785000D02*
X170274700Y-57785000D01*
X160655000Y-99060000D02*
X160655000Y-99622600D01*
X171988500Y-102135900D02*
X171988500Y-103096200D01*
X161699900Y-101230100D02*
X159385000Y-103545000D01*
X160655000Y-100185300D02*
X161699900Y-101230100D01*
X160655000Y-99622600D02*
X160655000Y-100185300D01*
X171919800Y-103164900D02*
X171988500Y-103096200D01*
X163634600Y-103164900D02*
X171919800Y-103164900D01*
X161699900Y-101230100D02*
X163634600Y-103164900D01*
X178951500Y-83303500D02*
X177800000Y-84455000D01*
X178951500Y-76081500D02*
X178951500Y-83303500D01*
X177800000Y-74930000D02*
X178951500Y-76081500D01*
X171988500Y-90266500D02*
X171988500Y-102135900D01*
X177800000Y-84455000D02*
X171988500Y-90266500D01*
X172800000Y-84535000D02*
X169545000Y-81280000D01*
X172800000Y-86955000D02*
X172800000Y-84535000D01*
X170997600Y-74747400D02*
X169545000Y-76200000D01*
X170997600Y-71172100D02*
X170997600Y-74747400D01*
X174954700Y-67215000D02*
X170997600Y-71172100D01*
X176530000Y-67215000D02*
X174954700Y-67215000D01*
X151909600Y-104284600D02*
X153670000Y-106045000D01*
X151909600Y-97685400D02*
X151909600Y-104284600D01*
X153035000Y-96560000D02*
X151909600Y-97685400D01*
X158257400Y-104917400D02*
X159385000Y-106045000D01*
X158257400Y-98957600D02*
X158257400Y-104917400D01*
X160655000Y-96560000D02*
X158257400Y-98957600D01*
M02*
