G04 #@! TF.FileFunction,Copper,L2,Bot,Signal*
%FSLAX46Y46*%
G04 Gerber Fmt 4.6, Leading zero omitted, Abs format (unit mm)*
G04 Created by KiCad (PCBNEW 4.0.2-stable) date 1/10/2018 5:31:38 PM*
%MOMM*%
G01*
G04 APERTURE LIST*
%ADD10C,0.100000*%
%ADD11C,1.524000*%
%ADD12C,1.500000*%
%ADD13C,2.413000*%
%ADD14C,1.270000*%
%ADD15O,1.270000X2.286000*%
%ADD16R,2.500000X1.500000*%
%ADD17O,2.500000X1.500000*%
%ADD18O,3.500000X2.200000*%
%ADD19O,2.641600X1.320800*%
%ADD20C,1.600000*%
%ADD21R,1.600000X1.600000*%
%ADD22C,1.400000*%
%ADD23O,1.400000X1.400000*%
%ADD24O,2.032000X2.540000*%
%ADD25R,3.000000X3.000000*%
%ADD26C,3.000000*%
%ADD27C,1.620000*%
%ADD28R,1.700000X1.700000*%
%ADD29O,1.700000X1.700000*%
%ADD30C,0.600000*%
%ADD31C,0.250000*%
G04 APERTURE END LIST*
D10*
D11*
X154305000Y-63500000D03*
X154305000Y-66040000D03*
X154305000Y-68580000D03*
X154305000Y-71120000D03*
X154305000Y-73660000D03*
X154305000Y-76200000D03*
X154305000Y-78740000D03*
X154305000Y-81280000D03*
X154305000Y-83820000D03*
X154305000Y-86360000D03*
X154305000Y-88900000D03*
X154305000Y-91440000D03*
X169545000Y-63500000D03*
X169545000Y-66040000D03*
X169545000Y-68580000D03*
X169545000Y-71120000D03*
X169545000Y-73660000D03*
X169545000Y-76200000D03*
X169545000Y-78740000D03*
X169545000Y-81280000D03*
X169545000Y-83820000D03*
X169545000Y-86360000D03*
X169545000Y-88900000D03*
X169545000Y-91440000D03*
D12*
X166624000Y-72263000D03*
X166624000Y-74803000D03*
X166624000Y-82677000D03*
X166624000Y-85217000D03*
D13*
X165366700Y-99783900D03*
D14*
X167968060Y-105346100D02*
X168686480Y-104627680D01*
X169804080Y-102161340D02*
X169085660Y-101442920D01*
D15*
X170860720Y-105102660D03*
X171988480Y-101627940D03*
D14*
X173750840Y-105310540D02*
X173032420Y-104592120D01*
X174152560Y-102069900D02*
X174870980Y-101351480D01*
D13*
X177431700Y-99783900D03*
D16*
X176530000Y-69215000D03*
D17*
X176530000Y-67215000D03*
X176530000Y-65215000D03*
D18*
X176530000Y-71315000D03*
X176530000Y-63115000D03*
D19*
X144145000Y-90170000D03*
X144145000Y-87630000D03*
X144145000Y-74930000D03*
X144145000Y-72390000D03*
X144145000Y-85090000D03*
X144145000Y-82550000D03*
X144145000Y-77470000D03*
X144145000Y-80010000D03*
X136525000Y-72390000D03*
X136525000Y-74930000D03*
X136525000Y-77470000D03*
X136525000Y-80010000D03*
X136525000Y-82550000D03*
X136525000Y-85090000D03*
X136525000Y-87630000D03*
X136525000Y-90170000D03*
D13*
X135521700Y-99783900D03*
D14*
X138123060Y-105346100D02*
X138841480Y-104627680D01*
X139959080Y-102161340D02*
X139240660Y-101442920D01*
D15*
X141015720Y-105102660D03*
X142143480Y-101627940D03*
D14*
X143905840Y-105310540D02*
X143187420Y-104592120D01*
X144307560Y-102069900D02*
X145025980Y-101351480D01*
D13*
X147586700Y-99783900D03*
D20*
X147320000Y-82550000D03*
X149820000Y-82550000D03*
D21*
X149225000Y-64770000D03*
D20*
X149225000Y-67270000D03*
D21*
X149987000Y-88265000D03*
D20*
X147487000Y-88265000D03*
D22*
X151130000Y-71755000D03*
D23*
X151130000Y-79375000D03*
D22*
X147320000Y-71755000D03*
D23*
X147320000Y-79375000D03*
D24*
X140335000Y-65405000D03*
X137795000Y-65405000D03*
X142875000Y-65405000D03*
D25*
X144780000Y-58420000D03*
D26*
X139700000Y-58420000D03*
D27*
X177800000Y-79930000D03*
X172800000Y-77430000D03*
X177800000Y-74930000D03*
X177800000Y-89455000D03*
X172800000Y-86955000D03*
X177800000Y-84455000D03*
D28*
X171450000Y-57785000D03*
D29*
X168910000Y-57785000D03*
X166370000Y-57785000D03*
X163830000Y-57785000D03*
D21*
X154305000Y-55880000D03*
D20*
X154305000Y-58380000D03*
X158750000Y-59055000D03*
X158750000Y-56555000D03*
D21*
X153035000Y-99060000D03*
D20*
X153035000Y-96560000D03*
D21*
X160655000Y-99060000D03*
D20*
X160655000Y-96560000D03*
X159385000Y-106045000D03*
X159385000Y-103545000D03*
X153670000Y-106045000D03*
X153670000Y-103545000D03*
D30*
X148746800Y-85012000D03*
D31*
X153670000Y-79375000D02*
X154305000Y-78740000D01*
X151130000Y-79375000D02*
X153670000Y-79375000D01*
X151480700Y-84104300D02*
X154305000Y-81280000D01*
X143064800Y-84104300D02*
X151480700Y-84104300D01*
X142491800Y-84677300D02*
X143064800Y-84104300D01*
X142491800Y-85976800D02*
X142491800Y-84677300D01*
X144145000Y-87630000D02*
X142491800Y-85976800D01*
X144145000Y-85090000D02*
X145791100Y-85090000D01*
X168686500Y-104627700D02*
X167289100Y-106025100D01*
X165891600Y-104627700D02*
X167289100Y-106025100D01*
X164156600Y-104627700D02*
X165891600Y-104627700D01*
X151967600Y-92438700D02*
X164156600Y-104627700D01*
X151967600Y-89325500D02*
X151967600Y-92438700D01*
X151517300Y-88875200D02*
X151967600Y-89325500D01*
X151517300Y-87708200D02*
X151517300Y-88875200D01*
X149728800Y-85919700D02*
X151517300Y-87708200D01*
X146620800Y-85919700D02*
X149728800Y-85919700D01*
X145791100Y-85090000D02*
X146620800Y-85919700D01*
X145791100Y-79878600D02*
X145791100Y-80010000D01*
X146294700Y-79375000D02*
X145791100Y-79878600D01*
X147320000Y-79375000D02*
X146294700Y-79375000D01*
X144145000Y-80010000D02*
X145791100Y-80010000D01*
X147320000Y-82550000D02*
X144145000Y-82550000D01*
X136525000Y-80010000D02*
X144145000Y-80010000D01*
X154265000Y-58420000D02*
X153670000Y-59015000D01*
X158750000Y-59055000D02*
X154265000Y-58420000D01*
X161196000Y-56609000D02*
X158750000Y-59055000D01*
X166926000Y-56609000D02*
X161196000Y-56609000D01*
X167734700Y-57417700D02*
X166926000Y-56609000D01*
X167734700Y-57785000D02*
X167734700Y-57417700D01*
X168910000Y-57785000D02*
X167734700Y-57785000D01*
X151130000Y-74539700D02*
X147320000Y-78349700D01*
X151130000Y-71755000D02*
X151130000Y-74539700D01*
X147320000Y-79375000D02*
X147320000Y-78349700D01*
X142200000Y-67270000D02*
X140335000Y-65405000D01*
X149225000Y-67270000D02*
X142200000Y-67270000D01*
X168406700Y-100565100D02*
X168406700Y-100763800D01*
X158011600Y-90170000D02*
X168406700Y-100565100D01*
X154024300Y-90170000D02*
X158011600Y-90170000D01*
X152600600Y-88746300D02*
X154024300Y-90170000D01*
X152600600Y-88154600D02*
X152600600Y-88746300D01*
X149458000Y-85012000D02*
X152600600Y-88154600D01*
X148746800Y-85012000D02*
X149458000Y-85012000D01*
X169804100Y-102161300D02*
X168406700Y-100763800D01*
X170649900Y-90335100D02*
X169545000Y-91440000D01*
X170649900Y-88394800D02*
X170649900Y-90335100D01*
X169885100Y-87630000D02*
X170649900Y-88394800D01*
X165754800Y-87630000D02*
X169885100Y-87630000D01*
X155594800Y-77470000D02*
X165754800Y-87630000D01*
X154033300Y-77470000D02*
X155594800Y-77470000D01*
X152453000Y-75889700D02*
X154033300Y-77470000D01*
X152453000Y-71548300D02*
X152453000Y-75889700D01*
X151608800Y-70704100D02*
X152453000Y-71548300D01*
X150072500Y-70704100D02*
X151608800Y-70704100D01*
X147116600Y-73660000D02*
X150072500Y-70704100D01*
X137795000Y-73660000D02*
X147116600Y-73660000D01*
X136525000Y-74930000D02*
X137795000Y-73660000D01*
X142875000Y-81280000D02*
X136525000Y-87630000D01*
X151008000Y-81280000D02*
X142875000Y-81280000D01*
X152095400Y-80192600D02*
X151008000Y-81280000D01*
X157680500Y-80192600D02*
X152095400Y-80192600D01*
X166387900Y-88900000D02*
X157680500Y-80192600D01*
X169545000Y-88900000D02*
X166387900Y-88900000D01*
X161249300Y-86360000D02*
X154305000Y-86360000D01*
X175831500Y-100942200D02*
X161249300Y-86360000D01*
X175831500Y-101793000D02*
X175831500Y-100942200D01*
X173711400Y-103913100D02*
X175831500Y-101793000D01*
X172353400Y-103913100D02*
X173711400Y-103913100D01*
X173032400Y-104592100D02*
X172353400Y-103913100D01*
X161155500Y-88900000D02*
X154305000Y-88900000D01*
X173473600Y-101218100D02*
X161155500Y-88900000D01*
X173473600Y-102748900D02*
X173473600Y-101218100D01*
X174152600Y-102069900D02*
X173473600Y-102748900D01*
X166370000Y-61595000D02*
X154305000Y-73660000D01*
X166370000Y-57785000D02*
X166370000Y-61595000D01*
X140142600Y-63057400D02*
X137795000Y-65405000D01*
X147272300Y-63057400D02*
X140142600Y-63057400D01*
X153179700Y-57150000D02*
X147272300Y-63057400D01*
X154305000Y-57150000D02*
X153179700Y-57150000D01*
X171450000Y-57785000D02*
X171450000Y-58960300D01*
X176530000Y-69215000D02*
X174954700Y-69215000D01*
X171450000Y-61595000D02*
X169545000Y-63500000D01*
X171450000Y-58960300D02*
X171450000Y-61595000D01*
X174954700Y-68909700D02*
X174954700Y-69215000D01*
X169545000Y-63500000D02*
X174954700Y-68909700D01*
X153035000Y-99060000D02*
X153035000Y-97934700D01*
X153035000Y-99060000D02*
X153035000Y-100185300D01*
X142143500Y-102135900D02*
X142143500Y-100159600D01*
X159385000Y-103545000D02*
X153670000Y-103545000D01*
X153670000Y-100820300D02*
X153035000Y-100185300D01*
X153670000Y-103545000D02*
X153670000Y-100820300D01*
X142143500Y-94547000D02*
X142143500Y-100159600D01*
X140902000Y-94547000D02*
X136525000Y-90170000D01*
X142143500Y-94547000D02*
X140902000Y-94547000D01*
X152798600Y-97934700D02*
X148583500Y-93719600D01*
X153035000Y-97934700D02*
X152798600Y-97934700D01*
X149987000Y-92316100D02*
X148583500Y-93719600D01*
X149987000Y-88265000D02*
X149987000Y-92316100D01*
X147756100Y-94547000D02*
X142143500Y-94547000D01*
X148583500Y-93719600D02*
X147756100Y-94547000D01*
X154755300Y-55285000D02*
X154160300Y-55880000D01*
X158750000Y-56555000D02*
X154755300Y-55285000D01*
X154305000Y-57150000D02*
X154160300Y-55880000D01*
X178951500Y-81081500D02*
X177800000Y-79930000D01*
X178951500Y-88303500D02*
X178951500Y-81081500D01*
X177800000Y-89455000D02*
X178951500Y-88303500D01*
X170855000Y-77430000D02*
X169545000Y-78740000D01*
X172800000Y-77430000D02*
X170855000Y-77430000D01*
M02*
