G04 #@! TF.GenerationSoftware,KiCad,Pcbnew,5.0.0-fee4fd1~66~ubuntu16.04.1*
G04 #@! TF.CreationDate,2018-09-27T17:05:49-06:00*
G04 #@! TF.ProjectId,nxt_esc,6E78745F6573632E6B696361645F7063,rev?*
G04 #@! TF.SameCoordinates,Original*
G04 #@! TF.FileFunction,Soldermask,Top*
G04 #@! TF.FilePolarity,Negative*
%FSLAX46Y46*%
G04 Gerber Fmt 4.6, Leading zero omitted, Abs format (unit mm)*
G04 Created by KiCad (PCBNEW 5.0.0-fee4fd1~66~ubuntu16.04.1) date Thu Sep 27 17:05:49 2018*
%MOMM*%
%LPD*%
G01*
G04 APERTURE LIST*
%ADD10C,1.924000*%
%ADD11C,1.900000*%
%ADD12C,1.670000*%
%ADD13C,1.670000*%
%ADD14O,1.670000X2.686000*%
%ADD15O,3.041600X1.720800*%
%ADD16R,2.000000X2.000000*%
%ADD17C,2.000000*%
%ADD18C,1.800000*%
%ADD19O,1.800000X1.800000*%
%ADD20O,2.940000X2.432000*%
%ADD21R,2.100000X2.100000*%
%ADD22O,2.100000X2.100000*%
%ADD23C,2.020000*%
%ADD24C,2.400000*%
%ADD25R,2.200000X2.200000*%
%ADD26O,2.200000X2.200000*%
%ADD27C,2.162000*%
G04 APERTURE END LIST*
D10*
G04 #@! TO.C,uP1*
X129286000Y-106172000D03*
X131826000Y-106172000D03*
X134366000Y-106172000D03*
X136906000Y-106172000D03*
X139446000Y-106172000D03*
X141986000Y-106172000D03*
X144526000Y-106172000D03*
X147066000Y-106172000D03*
X149606000Y-106172000D03*
X152146000Y-106172000D03*
X154686000Y-106172000D03*
X157226000Y-106172000D03*
X129286000Y-90932000D03*
X131826000Y-90932000D03*
X134366000Y-90932000D03*
X136906000Y-90932000D03*
X139446000Y-90932000D03*
X141986000Y-90932000D03*
X144526000Y-90932000D03*
X147066000Y-90932000D03*
X149606000Y-90932000D03*
X152146000Y-90932000D03*
X154686000Y-90932000D03*
X157226000Y-90932000D03*
D11*
X138049000Y-93853000D03*
X140589000Y-93853000D03*
X148463000Y-93853000D03*
X151003000Y-93853000D03*
G04 #@! TD*
D12*
G04 #@! TO.C,J1*
X154201730Y-113555110D03*
D13*
X154560940Y-113195900D02*
X153842520Y-113914320D01*
D12*
X153084130Y-116739870D03*
D13*
X152724920Y-116380660D02*
X153443340Y-117099080D01*
D14*
X151668280Y-113439340D03*
X150540520Y-116914060D03*
D12*
X149137370Y-113590670D03*
D13*
X148778160Y-113231460D02*
X149496580Y-113949880D01*
D12*
X148017230Y-116831310D03*
D13*
X148376440Y-116472100D02*
X147658020Y-117190520D01*
G04 #@! TD*
D15*
G04 #@! TO.C,IC1*
X120650000Y-107315000D03*
X120650000Y-104775000D03*
X120650000Y-92075000D03*
X120650000Y-89535000D03*
X120650000Y-102235000D03*
X120650000Y-99695000D03*
X120650000Y-94615000D03*
X120650000Y-97155000D03*
X113030000Y-89535000D03*
X113030000Y-92075000D03*
X113030000Y-94615000D03*
X113030000Y-97155000D03*
X113030000Y-99695000D03*
X113030000Y-102235000D03*
X113030000Y-104775000D03*
X113030000Y-107315000D03*
G04 #@! TD*
D12*
G04 #@! TO.C,J2*
X121943730Y-113555110D03*
D13*
X122302940Y-113195900D02*
X121584520Y-113914320D01*
D12*
X120826130Y-116739870D03*
D13*
X120466920Y-116380660D02*
X121185340Y-117099080D01*
D14*
X119410280Y-113439340D03*
X118282520Y-116914060D03*
D12*
X116879370Y-113590670D03*
D13*
X116520160Y-113231460D02*
X117238580Y-113949880D01*
D12*
X115759230Y-116831310D03*
D13*
X116118440Y-116472100D02*
X115400020Y-117190520D01*
G04 #@! TD*
D16*
G04 #@! TO.C,C1*
X129794000Y-86487000D03*
D17*
X132294000Y-86487000D03*
G04 #@! TD*
D18*
G04 #@! TO.C,R1*
X145415000Y-108585000D03*
D19*
X153035000Y-108585000D03*
G04 #@! TD*
D18*
G04 #@! TO.C,R2*
X143510000Y-108585000D03*
D19*
X135890000Y-108585000D03*
G04 #@! TD*
D20*
G04 #@! TO.C,U1*
X139827000Y-83312000D03*
X139827000Y-85852000D03*
X139827000Y-80772000D03*
G04 #@! TD*
D21*
G04 #@! TO.C,RC1*
X147955000Y-80137000D03*
D22*
X150495000Y-80137000D03*
X153035000Y-80137000D03*
X155575000Y-80137000D03*
G04 #@! TD*
D16*
G04 #@! TO.C,C2*
X148590000Y-87630000D03*
D17*
X148590000Y-85130000D03*
G04 #@! TD*
G04 #@! TO.C,C3*
X154940000Y-87630000D03*
X154940000Y-85130000D03*
G04 #@! TD*
D23*
G04 #@! TO.C,RV1*
X137240000Y-116840000D03*
X139740000Y-111840000D03*
X142240000Y-116840000D03*
G04 #@! TD*
D18*
G04 #@! TO.C,R3*
X126365000Y-108585000D03*
D19*
X133985000Y-108585000D03*
G04 #@! TD*
D24*
G04 #@! TO.C,SW2*
X127635000Y-116895000D03*
X127635000Y-112395000D03*
X134135000Y-116895000D03*
X134135000Y-112395000D03*
G04 #@! TD*
D25*
G04 #@! TO.C,D1*
X123952000Y-97282000D03*
D26*
X123952000Y-87122000D03*
G04 #@! TD*
D27*
G04 #@! TO.C,Battery*
X113883000Y-82194400D03*
X118883000Y-82194400D03*
G04 #@! TD*
G04 #@! TO.C,On/Off*
X129083000Y-80518000D03*
X126083000Y-80518000D03*
X132083000Y-80518000D03*
G04 #@! TD*
G04 #@! TO.C,SW1*
X134671000Y-122022000D03*
X131671000Y-122022000D03*
X137671000Y-122022000D03*
G04 #@! TD*
M02*
