G04 #@! TF.FileFunction,Copper,L2,Bot,Signal*
%FSLAX46Y46*%
G04 Gerber Fmt 4.6, Leading zero omitted, Abs format (unit mm)*
G04 Created by KiCad (PCBNEW 4.0.2-stable) date 3/16/2018 10:56:44 AM*
%MOMM*%
G01*
G04 APERTURE LIST*
%ADD10C,0.100000*%
%ADD11C,1.524000*%
%ADD12C,1.500000*%
%ADD13C,2.413000*%
%ADD14C,1.270000*%
%ADD15O,1.270000X2.286000*%
%ADD16R,1.500000X2.500000*%
%ADD17O,1.500000X2.500000*%
%ADD18O,2.200000X3.500000*%
%ADD19O,2.641600X1.320800*%
%ADD20R,1.600000X1.600000*%
%ADD21C,1.600000*%
%ADD22C,1.400000*%
%ADD23O,1.400000X1.400000*%
%ADD24O,2.540000X2.032000*%
%ADD25R,3.000000X3.000000*%
%ADD26C,3.000000*%
%ADD27R,1.700000X1.700000*%
%ADD28O,1.700000X1.700000*%
%ADD29C,1.620000*%
%ADD30C,2.000000*%
%ADD31R,1.800000X1.800000*%
%ADD32O,1.800000X1.800000*%
%ADD33O,1.600000X1.600000*%
%ADD34C,0.600000*%
%ADD35C,0.250000*%
G04 APERTURE END LIST*
D10*
D11*
X128270000Y-106045000D03*
X130810000Y-106045000D03*
X133350000Y-106045000D03*
X135890000Y-106045000D03*
X138430000Y-106045000D03*
X140970000Y-106045000D03*
X143510000Y-106045000D03*
X146050000Y-106045000D03*
X148590000Y-106045000D03*
X151130000Y-106045000D03*
X153670000Y-106045000D03*
X156210000Y-106045000D03*
X128270000Y-90805000D03*
X130810000Y-90805000D03*
X133350000Y-90805000D03*
X135890000Y-90805000D03*
X138430000Y-90805000D03*
X140970000Y-90805000D03*
X143510000Y-90805000D03*
X146050000Y-90805000D03*
X148590000Y-90805000D03*
X151130000Y-90805000D03*
X153670000Y-90805000D03*
X156210000Y-90805000D03*
D12*
X137033000Y-93726000D03*
X139573000Y-93726000D03*
X147447000Y-93726000D03*
X149987000Y-93726000D03*
D13*
X145046700Y-115658900D03*
D14*
X147648060Y-121221100D02*
X148366480Y-120502680D01*
X149484080Y-118036340D02*
X148765660Y-117317920D01*
D15*
X150540720Y-120977660D03*
X151668480Y-117502940D03*
D14*
X153430840Y-121185540D02*
X152712420Y-120467120D01*
X153832560Y-117944900D02*
X154550980Y-117226480D01*
D13*
X157111700Y-115658900D03*
D16*
X132715000Y-122555000D03*
D17*
X134715000Y-122555000D03*
X136715000Y-122555000D03*
D18*
X130615000Y-122555000D03*
X138815000Y-122555000D03*
D19*
X121285000Y-107315000D03*
X121285000Y-104775000D03*
X121285000Y-92075000D03*
X121285000Y-89535000D03*
X121285000Y-102235000D03*
X121285000Y-99695000D03*
X121285000Y-94615000D03*
X121285000Y-97155000D03*
X113665000Y-89535000D03*
X113665000Y-92075000D03*
X113665000Y-94615000D03*
X113665000Y-97155000D03*
X113665000Y-99695000D03*
X113665000Y-102235000D03*
X113665000Y-104775000D03*
X113665000Y-107315000D03*
D13*
X112661700Y-115658900D03*
D14*
X115263060Y-121221100D02*
X115981480Y-120502680D01*
X117099080Y-118036340D02*
X116380660Y-117317920D01*
D15*
X118155720Y-120977660D03*
X119283480Y-117502940D03*
D14*
X121045840Y-121185540D02*
X120327420Y-120467120D01*
X121447560Y-117944900D02*
X122165980Y-117226480D01*
D13*
X124726700Y-115658900D03*
D20*
X133350000Y-85090000D03*
D21*
X133350000Y-87590000D03*
D22*
X145415000Y-108585000D03*
D23*
X153035000Y-108585000D03*
D22*
X143510000Y-108585000D03*
D23*
X135890000Y-108585000D03*
D24*
X139827000Y-83312000D03*
X139827000Y-85852000D03*
X139827000Y-80772000D03*
D25*
X120015000Y-81915000D03*
D26*
X114935000Y-81915000D03*
D27*
X147955000Y-80645000D03*
D28*
X150495000Y-80645000D03*
X153035000Y-80645000D03*
X155575000Y-80645000D03*
D20*
X148590000Y-87630000D03*
D21*
X148590000Y-85130000D03*
X154940000Y-87630000D03*
X154940000Y-85130000D03*
D29*
X137240000Y-116840000D03*
X139740000Y-111840000D03*
X142240000Y-116840000D03*
D22*
X126365000Y-108585000D03*
D23*
X133985000Y-108585000D03*
D30*
X127635000Y-116895000D03*
X127635000Y-112395000D03*
X134135000Y-116895000D03*
X134135000Y-112395000D03*
D31*
X124714000Y-98298000D03*
D32*
X124714000Y-88138000D03*
D20*
X124841000Y-80645000D03*
D33*
X132461000Y-80645000D03*
D34*
X128804500Y-115459300D03*
X128960300Y-114640600D03*
D35*
X142406000Y-104941000D02*
X143510000Y-106045000D01*
X125305100Y-104941000D02*
X142406000Y-104941000D01*
X122931100Y-107315000D02*
X125305100Y-104941000D01*
X121285000Y-107315000D02*
X122931100Y-107315000D01*
X121285000Y-104775000D02*
X122931100Y-104775000D01*
X123668800Y-104037300D02*
X122931100Y-104775000D01*
X144042300Y-104037300D02*
X123668800Y-104037300D01*
X146050000Y-106045000D02*
X144042300Y-104037300D01*
X146185100Y-103640100D02*
X148590000Y-106045000D01*
X144633000Y-103640100D02*
X146185100Y-103640100D01*
X132080000Y-91087100D02*
X144633000Y-103640100D01*
X132080000Y-90504600D02*
X132080000Y-91087100D01*
X131261900Y-89686500D02*
X132080000Y-90504600D01*
X127834500Y-89686500D02*
X131261900Y-89686500D01*
X125446000Y-92075000D02*
X127834500Y-89686500D01*
X121285000Y-92075000D02*
X125446000Y-92075000D01*
X138231700Y-81333600D02*
X138231700Y-80772000D01*
X134475300Y-85090000D02*
X138231700Y-81333600D01*
X133350000Y-85090000D02*
X134475300Y-85090000D01*
X139827000Y-80772000D02*
X138231700Y-80772000D01*
X133168900Y-119823700D02*
X128804500Y-115459300D01*
X149045500Y-119823700D02*
X133168900Y-119823700D01*
X148366500Y-120502700D02*
X149045500Y-119823700D01*
X119638900Y-99695000D02*
X115311100Y-99695000D01*
X113665000Y-99695000D02*
X115311100Y-99695000D01*
X137628000Y-83312000D02*
X139827000Y-83312000D01*
X133350000Y-87590000D02*
X137628000Y-83312000D01*
X121285000Y-99695000D02*
X119638900Y-99695000D01*
X134838400Y-107096600D02*
X135890000Y-106045000D01*
X134838400Y-107533400D02*
X134838400Y-107096600D01*
X127416600Y-107533400D02*
X134838400Y-107533400D01*
X126365000Y-108585000D02*
X127416600Y-107533400D01*
X118155700Y-116709300D02*
X118155700Y-120469700D01*
X126280000Y-108585000D02*
X118155700Y-116709300D01*
X126365000Y-108585000D02*
X126280000Y-108585000D01*
X126845900Y-94769100D02*
X130810000Y-90805000D01*
X123670900Y-94769100D02*
X126845900Y-94769100D01*
X121285000Y-97155000D02*
X123670900Y-94769100D01*
X134838400Y-107533400D02*
X135890000Y-108585000D01*
X144379300Y-109620700D02*
X145415000Y-108585000D01*
X137951000Y-109620700D02*
X144379300Y-109620700D01*
X136915300Y-108585000D02*
X137951000Y-109620700D01*
X135890000Y-108585000D02*
X136915300Y-108585000D01*
X148590000Y-85130000D02*
X154940000Y-85130000D01*
X149484100Y-118036300D02*
X148086700Y-116638800D01*
X141649800Y-114640600D02*
X128960300Y-114640600D01*
X144259500Y-117250300D02*
X141649800Y-114640600D01*
X147475200Y-117250300D02*
X144259500Y-117250300D01*
X148086700Y-116638800D02*
X147475200Y-117250300D01*
X113665000Y-89535000D02*
X112018900Y-89535000D01*
X155091900Y-107163100D02*
X156210000Y-106045000D01*
X144780000Y-107163100D02*
X155091900Y-107163100D01*
X144780000Y-105770300D02*
X144780000Y-107163100D01*
X143497300Y-104487600D02*
X144780000Y-105770300D01*
X124485200Y-104487600D02*
X143497300Y-104487600D01*
X123186400Y-105786400D02*
X124485200Y-104487600D01*
X112544200Y-105786400D02*
X123186400Y-105786400D01*
X111568600Y-104810800D02*
X112544200Y-105786400D01*
X111568600Y-89985300D02*
X111568600Y-104810800D01*
X112018900Y-89535000D02*
X111568600Y-89985300D01*
X144780000Y-107315000D02*
X143510000Y-108585000D01*
X144780000Y-107163100D02*
X144780000Y-107315000D01*
X115181500Y-90558500D02*
X113665000Y-92075000D01*
X125013400Y-90558500D02*
X115181500Y-90558500D01*
X126786100Y-88785800D02*
X125013400Y-90558500D01*
X154190800Y-88785800D02*
X126786100Y-88785800D01*
X156210000Y-90805000D02*
X154190800Y-88785800D01*
X152101100Y-89236100D02*
X153670000Y-90805000D01*
X127647900Y-89236100D02*
X152101100Y-89236100D01*
X125822500Y-91061500D02*
X127647900Y-89236100D01*
X120230200Y-91061500D02*
X125822500Y-91061500D01*
X118379200Y-92912500D02*
X120230200Y-91061500D01*
X118379200Y-94521400D02*
X118379200Y-92912500D01*
X114475600Y-98425000D02*
X118379200Y-94521400D01*
X112863500Y-98425000D02*
X114475600Y-98425000D01*
X112018900Y-99269600D02*
X112863500Y-98425000D01*
X112018900Y-103128900D02*
X112018900Y-99269600D01*
X113665000Y-104775000D02*
X112018900Y-103128900D01*
X157303600Y-99518600D02*
X148590000Y-90805000D01*
X157303600Y-106500600D02*
X157303600Y-99518600D01*
X149804900Y-113999300D02*
X157303600Y-106500600D01*
X128645700Y-113999300D02*
X149804900Y-113999300D01*
X125398800Y-117246200D02*
X128645700Y-113999300D01*
X123543800Y-117246200D02*
X125398800Y-117246200D01*
X122845100Y-116547400D02*
X123543800Y-117246200D01*
X121447600Y-117944900D02*
X122845100Y-116547400D01*
X154940000Y-87630000D02*
X148590000Y-87630000D01*
X148590000Y-87630000D02*
X147464700Y-87630000D01*
X147955000Y-80645000D02*
X147955000Y-81820300D01*
X139827000Y-85852000D02*
X141422300Y-85852000D01*
X146446400Y-85852000D02*
X141422300Y-85852000D01*
X146446400Y-83328900D02*
X146446400Y-85852000D01*
X147955000Y-81820300D02*
X146446400Y-83328900D01*
X146446400Y-86611700D02*
X147464700Y-87630000D01*
X146446400Y-85852000D02*
X146446400Y-86611700D01*
X141084700Y-117995300D02*
X142240000Y-116840000D01*
X135235300Y-117995300D02*
X141084700Y-117995300D01*
X134135000Y-116895000D02*
X135235300Y-117995300D01*
X151668500Y-118010900D02*
X151668500Y-118971200D01*
X151631500Y-119008200D02*
X151668500Y-118971200D01*
X144408200Y-119008200D02*
X151631500Y-119008200D01*
X142240000Y-116840000D02*
X144408200Y-119008200D01*
X127635000Y-112395000D02*
X134135000Y-112395000D01*
X123110300Y-80645000D02*
X121840300Y-81915000D01*
X124841000Y-80645000D02*
X123110300Y-80645000D01*
X120015000Y-81915000D02*
X121840300Y-81915000D01*
M02*
