M48
;DRILL file {KiCad 4.0.2-stable} date 1/9/2018 5:10:45 PM
;FORMAT={-:-/ absolute / inch / decimal}
FMAT,2
INCH,TZ
T1C0.024
T2C0.028
T3C0.028
T4C0.030
T5C0.031
T6C0.032
T7C0.035
T8C0.039
T9C0.045
T10C0.059
T11C0.060
T12C0.095
%
G90
G05
M72
T1
X6.56Y-2.845
X6.56Y-2.945
X6.56Y-3.255
X6.56Y-3.355
T2
X5.8Y-2.825
X5.8Y-3.125
X5.95Y-2.825
X5.95Y-3.125
T3
X5.6162Y-4.1192
X5.6602Y-4.0221
X5.7018Y-4.1179
X5.7462Y-4.0211
X5.7873Y-4.1178
X5.8314Y-4.0185
X6.4662Y-4.1192
X6.5102Y-4.0221
X6.5518Y-4.1179
X6.5962Y-4.0211
X6.6373Y-4.1178
X6.6814Y-4.0185
T4
X6.075Y-2.5
X6.075Y-2.6
X6.075Y-2.7
X6.075Y-2.8
X6.075Y-2.9
X6.075Y-3.
X6.075Y-3.1
X6.075Y-3.2
X6.075Y-3.3
X6.075Y-3.4
X6.075Y-3.5
X6.075Y-3.6
X6.675Y-2.5
X6.675Y-2.6
X6.675Y-2.7
X6.675Y-2.8
X6.675Y-2.9
X6.675Y-3.
X6.675Y-3.1
X6.675Y-3.2
X6.675Y-3.3
X6.675Y-3.4
X6.675Y-3.5
X6.675Y-3.6
T5
X5.8Y-3.25
X5.825Y-3.5
X5.875Y-2.55
X5.875Y-2.6484
X5.8984Y-3.25
X5.9234Y-3.5
T6
X5.375Y-2.85
X5.375Y-2.95
X5.375Y-3.05
X5.375Y-3.15
X5.375Y-3.25
X5.375Y-3.35
X5.375Y-3.45
X5.375Y-3.55
X5.675Y-2.85
X5.675Y-2.95
X5.675Y-3.05
X5.675Y-3.15
X5.675Y-3.25
X5.675Y-3.35
X5.675Y-3.45
X5.675Y-3.55
T7
X6.8031Y-3.0484
X6.8031Y-3.4234
X6.875Y-2.5675
X6.875Y-2.6463
X6.875Y-2.725
X7.Y-2.95
X7.Y-3.1469
X7.Y-3.325
X7.Y-3.5219
T8
X6.325Y-2.275
X6.425Y-2.275
X6.525Y-2.275
X6.625Y-2.275
T9
X5.425Y-2.625
X5.525Y-2.625
X5.625Y-2.625
T10
X6.875Y-2.4848
X6.875Y-2.8077
T11
X5.55Y-2.3
X5.75Y-2.3
T12
X5.4855Y-3.9285
X5.9605Y-3.9285
X6.3355Y-3.9285
X6.8105Y-3.9285
T0
M30
